<svg xmlns="http://www.w3.org/2000/svg" width="512" height="512" viewBox="0 0 512 512" fill="none">
<defs>
  <linearGradient id="gBase" x1="80" y1="420" x2="432" y2="140" gradientUnits="userSpaceOnUse">
    <stop offset="0" stop-color="#A78BFA"/>
    <stop offset="1" stop-color="#6EE7E7"/>
  </linearGradient>
  <linearGradient id="gTop" x1="128" y1="300" x2="384" y2="160" gradientUnits="userSpaceOnUse">
    <stop offset="0" stop-color="#FFFFFF" stop-opacity="0.65"/>
    <stop offset="1" stop-color="#FFFFFF" stop-opacity="0.15"/>
  </linearGradient>
  <linearGradient id="gSymbol" x1="160" y1="360" x2="352" y2="160" gradientUnits="userSpaceOnUse">
    <stop offset="0" stop-color="#FFFFFF" stop-opacity="0.96"/>
    <stop offset="1" stop-color="#E8F7FF" stop-opacity="0.96"/>
  </linearGradient>
  <filter id="softShadow" x="-20%" y="-20%" width="140%" height="140%">
    <feDropShadow dx="0" dy="10" stdDeviation="14" flood-color="#0B1020" flood-opacity="0.25"/>
  </filter>
</defs>
<g filter="url(#softShadow)">
  <path d="M256 132 L372 200 L256 268 L140 200 Z" fill="url(#gTop)"/>
  <path d="M140 200 L256 268 L256 388 L140 320 Z" fill="url(#gBase)" opacity="0.92"/>
  <path d="M372 200 L256 268 L256 388 L372 320 Z" fill="url(#gBase)" opacity="0.78"/>
  <path d="M256 132 L372 200 L256 268 L140 200 Z" stroke="#FFFFFF" stroke-opacity="0.32" stroke-width="6" stroke-linejoin="round"/>
</g>
<g transform="translate(0,0)"><path d="M256 170c46 0 84 34 84 78c0 30-16 54-38 70c-10 8-14 14-14 26v10H224v-10c0-12-4-18-14-26c-22-16-38-40-38-70c0-44 38-78 84-78z" fill="url(#gSymbol)"/>
<rect x="224" y="356" width="64" height="40" rx="12" fill="#0B1020" opacity="0.14"/>
<path d="M230 374H282" stroke="#0B1020" stroke-opacity="0.22" stroke-width="10" stroke-linecap="round"/></g>
</svg>