<svg xmlns="http://www.w3.org/2000/svg" width="512" height="512" viewBox="0 0 512 512" fill="none">
<defs>
  <linearGradient id="gBase" x1="80" y1="420" x2="432" y2="140" gradientUnits="userSpaceOnUse">
    <stop offset="0" stop-color="#A78BFA"/>
    <stop offset="1" stop-color="#6EE7E7"/>
  </linearGradient>
  <linearGradient id="gTop" x1="128" y1="300" x2="384" y2="160" gradientUnits="userSpaceOnUse">
    <stop offset="0" stop-color="#FFFFFF" stop-opacity="0.65"/>
    <stop offset="1" stop-color="#FFFFFF" stop-opacity="0.15"/>
  </linearGradient>
  <linearGradient id="gSymbol" x1="160" y1="360" x2="352" y2="160" gradientUnits="userSpaceOnUse">
    <stop offset="0" stop-color="#FFFFFF" stop-opacity="0.96"/>
    <stop offset="1" stop-color="#E8F7FF" stop-opacity="0.96"/>
  </linearGradient>
  <filter id="softShadow" x="-20%" y="-20%" width="140%" height="140%">
    <feDropShadow dx="0" dy="10" stdDeviation="14" flood-color="#0B1020" flood-opacity="0.25"/>
  </filter>
</defs>
<g filter="url(#softShadow)">
  <path d="M256 132 L372 200 L256 268 L140 200 Z" fill="url(#gTop)"/>
  <path d="M140 200 L256 268 L256 388 L140 320 Z" fill="url(#gBase)" opacity="0.92"/>
  <path d="M372 200 L256 268 L256 388 L372 320 Z" fill="url(#gBase)" opacity="0.78"/>
  <path d="M256 132 L372 200 L256 268 L140 200 Z" stroke="#FFFFFF" stroke-opacity="0.32" stroke-width="6" stroke-linejoin="round"/>
</g>
<g transform="translate(0,0)"><rect x="186" y="178" width="180" height="216" rx="26" fill="url(#gSymbol)" opacity="0.92"/>
<rect x="206" y="198" width="140" height="176" rx="20" fill="#0EA5E9" opacity="0.35"/>
<path d="M314 228a34 34 0 1 0 0 80a42 42 0 1 1 0-80z" fill="#E8F7FF" opacity="0.9"/>
<path d="M206 306h140" stroke="#FFFFFF" stroke-opacity="0.28" stroke-width="10" stroke-linecap="round"/></g>
</svg>