<svg version="1.1" id="Layer_1" xmlns="http://www.w3.org/2000/svg" xmlns:xlink="http://www.w3.org/1999/xlink" x="0px" y="0px"
	 width="100%" viewBox="0 0 424 388" enable-background="new 0 0 424 388" xml:space="preserve">
<path fill="#FFFFFF" opacity="1.000000" stroke="none" 
	d="M194.830551,291.905029 
	C198.913239,291.277435 202.995911,290.649841 207.975952,289.984070 
	C210.686462,289.907654 213.396973,289.831207 216.884354,289.833710 
	C217.922928,289.820282 218.961517,289.806854 220.637894,289.959961 
	C221.400528,289.585815 222.163177,289.211700 223.820007,288.990936 
	C224.219849,288.250031 224.967651,287.509399 224.968140,286.768219 
	C224.977737,272.178223 224.900574,257.588165 224.948151,242.202911 
	C225.008423,241.134354 225.068710,240.065781 226.047745,239.003952 
	C259.459656,239.002380 292.871582,239.000793 326.566406,239.688522 
	C329.983521,240.587555 333.369751,242.071243 336.824677,242.253571 
	C342.526367,242.554459 348.015564,241.512054 351.061920,234.677948 
	C352.975128,231.424286 354.888336,228.170624 357.083435,224.368088 
	C357.754883,223.598694 358.426331,222.829300 359.774719,222.000885 
	C360.915833,220.704910 362.056946,219.408936 363.830139,217.793869 
	C367.300293,212.272247 371.185760,206.949783 373.987061,201.107452 
	C374.825195,199.359375 379.691528,196.949387 374.982178,193.482544 
	C374.937531,193.319641 374.892853,193.156738 374.801239,192.309998 
	C372.886383,191.172058 370.971558,190.034119 368.997223,188.158447 
	C367.331543,185.820023 365.665863,183.481598 363.365295,180.868576 
	C359.207031,176.926025 355.048767,172.983475 350.914703,168.345276 
	C347.303650,165.379501 345.035675,160.269897 338.703674,160.182556 
	C322.760315,160.116089 306.816956,160.037628 290.873566,160.024734 
	C290.199890,160.024200 289.525726,160.633148 287.933258,160.975067 
	C267.021179,159.804779 245.957153,163.426010 225.010101,158.058060 
	C224.954102,143.071732 224.898102,128.085403 224.920807,112.451576 
	C224.615616,111.963623 224.310410,111.475670 223.984772,110.206665 
	C224.057404,105.855133 220.118240,106.196274 217.735413,105.438087 
	C209.247864,102.737450 200.600998,100.537598 191.383301,97.978523 
	C190.949615,97.942917 190.515915,97.907310 189.838898,97.284531 
	C189.231049,97.245354 188.623199,97.206177 187.179779,97.016106 
	C183.440826,98.294785 179.701874,99.573463 175.299881,101.135246 
	C168.114349,105.671005 160.653854,109.829834 153.804443,114.826347 
	C142.021423,123.421822 130.831284,132.833450 119.002373,141.361694 
	C104.895065,151.532593 90.242867,160.945892 76.087585,171.052765 
	C67.527771,177.164520 59.462898,183.969482 50.678543,190.899704 
	C50.189827,192.232925 49.701111,193.566162 49.153015,195.694794 
	C48.973270,199.094620 49.888050,201.645554 54.506275,202.132141 
	C61.969913,207.754562 69.381920,213.447403 76.917282,218.971985 
	C81.181168,222.098114 85.647629,224.947922 90.627563,228.255386 
	C94.453339,230.705856 98.287628,233.143158 102.103096,235.609558 
	C110.046539,240.744339 117.980011,245.894531 126.062988,251.710205 
	C133.120575,257.721283 140.115692,263.808197 147.268784,269.703369 
	C149.860214,271.839142 152.843628,273.495911 155.623383,275.407288 
	C160.181519,278.541565 164.593643,281.910614 169.303604,284.794830 
	C173.437225,287.326111 175.682663,293.332306 182.935654,291.980804 
	C186.623383,291.941162 190.311111,291.901550 194.830551,291.905029 
z"/>
<path fill="#CAE8E9" opacity="1.000000" stroke="none" 
	d="
M224.005219,110.987717 
	C224.310410,111.475670 224.615616,111.963623 224.457306,112.787788 
	C222.197632,113.237381 219.934753,112.695488 218.689529,113.582382 
	C214.291473,116.714874 210.266281,120.366875 206.053650,123.764755 
	C201.478287,127.455170 196.888016,131.129059 192.238541,134.725159 
	C185.184708,140.180893 178.074097,145.563217 170.651093,151.095520 
	C164.010269,155.639450 157.639130,159.973007 151.420502,164.515411 
	C145.169113,169.081757 139.127731,173.936737 132.846741,178.460312 
	C131.786270,179.224106 129.979614,178.951813 128.191910,179.150284 
	C127.438972,179.483353 127.011810,179.824326 126.584656,180.165314 
	C127.104599,180.428986 127.624535,180.692673 128.354691,181.196823 
	C127.068413,182.022049 125.571915,182.606796 124.000626,182.840454 
	C119.883598,179.170380 116.013123,175.863708 116.199753,169.805984 
	C116.235672,168.640305 114.432091,167.005173 113.099770,166.277710 
	C105.008400,161.859711 104.970909,161.925751 111.040421,154.463181 
	C111.352364,154.079651 112.048576,153.491089 111.985954,153.400940 
	C111.394814,152.550201 110.677567,151.787079 110.075829,150.660690 
	C113.246010,147.945694 116.270157,145.474915 119.442596,143.212036 
	C125.315163,139.023178 131.304306,134.998047 137.189713,130.826843 
	C143.737244,126.186378 150.163147,121.372551 156.753677,116.794983 
	C162.786026,112.605110 169.021622,108.706467 175.016495,104.465813 
	C175.794662,103.915359 175.669601,102.088028 175.962921,100.852150 
	C179.701874,99.573463 183.440826,98.294785 187.648331,97.363953 
	C188.772003,97.765099 189.427109,97.818405 190.082230,97.871712 
	C190.515915,97.907310 190.949615,97.942917 191.938385,98.320999 
	C193.897491,99.437737 195.231293,100.399773 196.717056,100.955528 
	C205.793945,104.350807 214.905334,107.653893 224.005219,110.987717 
z"/>
<path fill="#35889F" opacity="1.000000" stroke="none" 
	d="
M222.925812,288.837555 
	C222.163177,289.211700 221.400528,289.585815 220.319916,289.422150 
	C220.001938,276.199707 220.001938,263.515076 220.001938,250.830429 
	C219.332428,250.837601 218.662918,250.844772 217.993408,250.851944 
	C217.993408,255.927277 218.261368,261.025177 217.837097,266.064789 
	C217.702332,267.665619 216.037094,269.680511 214.525482,270.511810 
	C211.169769,272.357269 207.468185,273.573761 203.542145,275.042786 
	C202.026276,274.554016 200.722183,274.274841 199.751663,273.549377 
	C195.121841,270.088654 190.582626,266.506683 185.916245,262.625122 
	C183.547165,260.419617 181.220337,258.616943 179.009949,256.681366 
	C174.617691,252.835083 170.289581,248.915604 166.322754,245.016693 
	C170.782852,243.915527 175.395798,235.944016 174.740097,231.552536 
	C174.434204,229.503784 174.654633,227.363235 174.752457,225.269714 
	C175.164307,216.455750 177.289749,207.357040 170.358215,199.800934 
	C170.224167,199.654831 170.438293,199.189346 170.533508,198.606323 
	C173.301544,198.081146 176.150772,197.540588 179.432022,197.000092 
	C185.976913,197.333267 192.090729,197.880783 198.202026,197.854111 
	C199.801758,197.847107 201.393707,196.056519 203.454071,195.063446 
	C208.283463,195.056030 212.647995,195.070221 217.119690,195.443909 
	C218.401779,196.213196 219.557877,196.691559 220.755020,197.020569 
	C225.153915,198.229492 231.154709,198.025711 233.606323,200.882263 
	C237.404388,205.307678 242.675171,210.454285 239.116379,218.142700 
	C237.727432,221.143341 237.099579,223.397125 233.155762,223.052368 
	C222.227905,222.097092 211.279770,221.363373 200.332108,220.659195 
	C199.071075,220.578079 197.762482,221.236099 196.475952,221.551422 
	C197.317261,222.634644 197.940048,224.158844 199.046432,224.707062 
	C201.191360,225.769852 203.608292,226.283707 206.252075,227.091156 
	C210.594986,230.844193 214.428787,234.751434 218.725525,238.056946 
	C219.749298,238.844543 221.768326,242.397430 224.286011,238.872955 
	C224.755280,238.935150 224.942139,238.966187 225.128998,238.997223 
	C225.068710,240.065781 225.008423,241.134354 224.536377,242.840027 
	C224.029816,254.203384 224.010361,264.931091 223.803833,275.655151 
	C223.719131,280.053284 223.230621,284.443665 222.925812,288.837555 
z"/>
<path fill="#90CAC2" opacity="1.000000" stroke="none" 
	d="
M350.890503,169.040924 
	C355.048767,172.983475 359.207031,176.926025 363.678772,181.405823 
	C364.334015,184.139053 364.675751,186.335037 365.090302,188.998749 
	C363.063538,188.998749 361.096161,188.998672 359.128754,188.998764 
	C322.246735,189.000534 285.364655,188.974350 248.483002,189.087570 
	C246.660385,189.093170 244.841492,190.313461 242.551025,190.979156 
	C232.056152,190.990829 222.031143,190.991470 212.120544,190.609589 
	C213.747101,189.818298 215.250351,189.100739 216.772995,189.056976 
	C221.933731,188.908630 227.134720,189.357468 232.255478,188.881104 
	C236.156113,188.518219 239.958282,187.096863 243.804276,186.146408 
	C243.392960,185.738510 242.981659,185.330612 242.570343,184.922714 
	C242.570343,182.083267 243.175262,179.075668 242.442551,176.439911 
	C240.984268,171.194046 243.901703,170.213882 247.827927,170.042801 
	C257.617249,169.616211 267.410736,169.193085 277.206818,169.038483 
	C287.991089,168.868271 298.782196,169.117081 309.565826,168.927917 
	C312.811035,168.870987 316.027222,167.669083 319.281738,167.512573 
	C323.820160,167.294266 328.428497,167.189606 332.919495,167.744247 
	C336.607758,168.199768 340.144043,169.798477 343.809967,170.608551 
	C344.419861,170.743317 345.348419,169.435913 346.526733,168.817596 
	C348.246002,168.907150 349.568237,168.974030 350.890503,169.040924 
z"/>
<path fill="#34849B" opacity="1.000000" stroke="none" 
	d="
M170.987625,150.976730 
	C178.074097,145.563217 185.184708,140.180893 192.238541,134.725159 
	C196.888016,131.129059 201.478287,127.455170 206.053650,123.764755 
	C210.266281,120.366875 214.291473,116.714874 218.689529,113.582382 
	C219.934753,112.695488 222.197632,113.237381 224.417938,113.111534 
	C224.898102,128.085403 224.954102,143.071732 224.999527,158.761505 
	C224.917419,159.617523 224.845886,159.770111 224.517517,160.188583 
	C223.180923,162.535965 222.553589,165.141983 220.904984,166.563873 
	C218.921310,168.274734 215.810349,168.627045 213.660248,170.209808 
	C211.117325,172.081741 209.079285,174.639526 206.438095,176.910660 
	C204.002533,177.602219 201.951279,178.283127 199.491302,178.971497 
	C196.336105,178.868958 193.556168,178.713852 193.902374,182.847595 
	C193.881668,182.891449 193.787506,182.914673 193.401505,182.936401 
	C191.343124,183.623917 189.670761,184.289703 187.740326,185.160934 
	C186.312637,186.279404 185.143005,187.192444 184.004120,188.022156 
	C184.034866,187.938828 184.067108,187.764145 184.033142,187.456818 
	C182.552673,186.805374 181.106155,186.461243 178.412842,185.820511 
	C181.587463,183.285995 184.172684,180.986908 186.993530,179.026932 
	C190.896317,176.315247 191.114548,173.197525 187.424347,170.226242 
	C186.019836,169.095352 184.070465,168.039505 183.536682,166.535248 
	C181.459335,160.681122 176.400757,159.993134 171.608170,158.345749 
	C170.533447,163.193268 163.606400,170.679520 159.814346,170.875122 
	C156.824799,171.029343 153.086029,172.220001 151.668152,168.755981 
	C157.525986,165.260162 163.244019,162.295364 168.394516,158.550110 
	C170.407516,157.086304 173.052826,154.480881 170.987625,150.976730 
z"/>
<path fill="#2F849C" opacity="1.000000" stroke="none" 
	d="
M205.912506,227.025024 
	C203.608292,226.283707 201.191360,225.769852 199.046432,224.707062 
	C197.940048,224.158844 197.317261,222.634644 196.475952,221.551422 
	C197.762482,221.236099 199.071075,220.578079 200.332108,220.659195 
	C211.279770,221.363373 222.227905,222.097092 233.155762,223.052368 
	C237.099579,223.397125 237.727432,221.143341 239.116379,218.142700 
	C242.675171,210.454285 237.404388,205.307678 233.606323,200.882263 
	C231.154709,198.025711 225.153915,198.229492 220.755020,197.020569 
	C219.557877,196.691559 218.401779,196.213196 217.586624,195.419647 
	C267.875763,195.017746 317.805145,195.013580 367.734406,194.939194 
	C370.174194,194.935562 372.613037,194.316772 375.052338,193.984421 
	C379.691528,196.949387 374.825195,199.359375 373.987061,201.107452 
	C371.185760,206.949783 367.300293,212.272247 363.218262,217.818634 
	C361.072144,218.227722 359.537903,218.612030 358.003601,218.608505 
	C359.268311,215.797073 360.179932,213.082718 361.880249,211.017792 
	C364.454285,207.891769 364.288269,204.603790 362.208771,201.970367 
	C360.890350,200.300751 357.946930,199.242157 355.665558,199.115952 
	C342.429504,198.383698 329.176605,197.800034 315.923035,197.609634 
	C309.982574,197.524292 303.994476,198.226425 298.089142,199.023895 
	C293.375702,199.660416 288.700958,200.791626 284.116943,202.085571 
	C281.992737,202.685165 279.383270,203.725113 278.320465,205.404846 
	C276.833191,207.755447 276.750031,210.714996 279.925659,212.741165 
	C280.746460,213.264847 281.330658,215.360794 280.966980,216.343491 
	C278.710602,222.440292 279.004395,223.145462 285.605804,222.965881 
	C306.921661,222.386078 328.236115,221.729691 349.544312,220.922760 
	C352.381805,220.815292 355.179962,219.669220 358.002930,219.347931 
	C358.372314,220.481110 358.735046,221.270508 359.097778,222.059906 
	C358.426331,222.829300 357.754883,223.598694 356.488800,224.651764 
	C349.929779,224.959900 343.965393,224.984344 337.532715,224.986252 
	C294.979218,224.963165 252.893967,224.939499 210.809067,225.049240 
	C209.175171,225.053497 207.544617,226.337387 205.912506,227.025024 
z"/>
<path fill="#1C5E81" opacity="1.000000" stroke="none" 
	d="
M90.022842,227.922180 
	C85.647629,224.947922 81.181168,222.098114 76.917282,218.971985 
	C69.381920,213.447403 61.969913,207.754562 54.180847,201.616486 
	C53.431583,199.935486 53.007751,198.770157 52.426132,197.170975 
	C61.811714,197.170975 70.873505,197.170975 80.089767,197.527832 
	C81.609993,198.236938 82.961815,198.821213 84.343750,198.904251 
	C94.238716,199.498856 104.314857,197.436508 114.076714,201.309311 
	C116.355629,203.493225 118.362236,205.697830 120.824936,207.103287 
	C124.159683,209.006409 126.748253,211.319550 127.669373,214.966354 
	C125.084984,213.829086 122.867241,212.695114 119.973076,211.215271 
	C121.522041,216.287521 118.883530,217.049377 115.475586,216.988480 
	C109.753494,216.886246 103.964577,216.159622 98.332642,216.810608 
	C94.120872,217.297440 90.111938,219.539108 86.096420,221.345947 
	C87.452965,222.129807 88.725761,222.567123 89.999397,223.002213 
	C90.000229,223.000000 89.995636,223.001450 89.999313,223.411911 
	C90.009613,225.188980 90.016228,226.555573 90.022842,227.922180 
M84.053040,216.293945 
	C82.994514,215.930542 81.935989,215.567154 79.649170,214.782059 
	C83.150230,219.075500 83.150230,219.075500 84.053040,216.293945 
z"/>
<path fill="#0B4C70" opacity="1.000000" stroke="none" 
	d="
M338.001007,225.008804 
	C343.965393,224.984344 349.929779,224.959900 356.347870,224.926208 
	C354.888336,228.170624 352.975128,231.424286 350.547241,235.082001 
	C346.526611,239.534668 341.858673,239.418198 337.103577,239.189575 
	C333.502167,239.016434 329.890564,239.054916 326.283508,238.999222 
	C292.871582,239.000793 259.459656,239.002380 225.588379,239.000580 
	C224.942139,238.966187 224.755280,238.935150 224.413239,238.512695 
	C229.977859,237.081100 235.670258,235.378601 241.423218,235.140640 
	C252.887360,234.666489 264.387054,235.109299 275.865997,234.875122 
	C277.607727,234.839569 280.160187,233.632996 280.878235,232.224213 
	C282.806732,228.440552 285.478302,226.943787 289.596405,226.970627 
	C304.075165,227.064957 318.555664,227.065155 333.033417,226.909882 
	C334.695892,226.892059 336.345459,225.671631 338.001007,225.008804 
z"/>
<path fill="#CFE8E5" opacity="1.000000" stroke="none" 
	d="
M224.774368,159.922684 
	C224.845886,159.770111 224.917419,159.617523 225.068878,159.224609 
	C245.957153,163.426010 267.021179,159.804779 288.870087,160.995041 
	C306.248627,160.997894 322.690308,160.980759 339.132019,160.963623 
	C345.035675,160.269897 347.303650,165.379501 350.902588,168.693100 
	C349.568237,168.974030 348.246002,168.907150 346.451782,168.461914 
	C344.093628,167.033157 342.211090,165.074829 340.320679,165.067200 
	C306.537781,164.930710 272.753906,165.030655 238.510483,165.045319 
	C236.237030,164.992416 234.389801,164.743607 232.616333,165.001694 
	C228.421799,165.612122 225.611954,164.362350 224.774368,159.922684 
z"/>
<path fill="#5DA8B1" opacity="1.000000" stroke="none" 
	d="
M375.017273,193.733490 
	C372.613037,194.316772 370.174194,194.935562 367.734406,194.939194 
	C317.805145,195.013580 267.875763,195.017746 217.479462,195.060165 
	C212.647995,195.070221 208.283463,195.056030 202.987274,195.038177 
	C194.374100,195.052277 186.692581,195.070038 178.631866,195.049835 
	C177.509216,193.678879 176.765762,192.345856 176.419189,191.008347 
	C177.873886,190.998230 178.931686,190.992584 180.105988,191.371674 
	C181.893600,192.175156 183.564407,192.958588 185.235886,192.960068 
	C248.439941,193.016052 311.644073,193.000107 374.848175,192.993820 
	C374.892853,193.156738 374.937531,193.319641 375.017273,193.733490 
z"/>
<path fill="#78BABC" opacity="1.000000" stroke="none" 
	d="
M374.824707,192.651917 
	C311.644073,193.000107 248.439941,193.016052 185.235886,192.960068 
	C183.564407,192.958588 181.893600,192.175156 180.435349,191.290070 
	C181.787842,189.803879 182.927475,188.784012 184.067108,187.764145 
	C184.067108,187.764145 184.034866,187.938828 184.042114,188.420258 
	C185.473373,189.603561 186.883347,190.876816 188.323776,190.912277 
	C196.213776,191.106537 204.111221,190.997177 212.006119,190.992126 
	C222.031143,190.991470 232.056152,190.990829 243.017181,190.986755 
	C283.691711,190.988480 323.430359,191.023590 363.168549,190.909393 
	C365.133179,190.903748 367.094086,189.597046 369.056732,188.896194 
	C370.971558,190.034119 372.886383,191.172058 374.824707,192.651917 
z"/>
<path fill="#EEF8F7" opacity="1.000000" stroke="none" 
	d="
M175.631409,100.993698 
	C175.669601,102.088028 175.794662,103.915359 175.016495,104.465813 
	C169.021622,108.706467 162.786026,112.605110 156.753677,116.794983 
	C150.163147,121.372551 143.737244,126.186378 137.189713,130.826843 
	C131.304306,134.998047 125.315163,139.023178 119.442596,143.212036 
	C116.270157,145.474915 113.246010,147.945694 109.734924,150.736282 
	C107.350510,152.318527 105.304512,153.370331 103.435654,154.675751 
	C94.567093,160.870468 85.653763,167.008224 76.951767,173.431000 
	C73.064552,176.300064 69.636459,179.791183 65.625320,183.001602 
	C63.944977,183.584747 62.545475,184.018509 61.351826,184.776459 
	C58.193382,186.782013 55.124043,188.927887 51.812752,190.872498 
	C51.462719,190.639023 51.319183,190.550995 51.175652,190.462982 
	C59.462898,183.969482 67.527771,177.164520 76.087585,171.052765 
	C90.242867,160.945892 104.895065,151.532593 119.002373,141.361694 
	C130.831284,132.833450 142.021423,123.421822 153.804443,114.826347 
	C160.653854,109.829834 168.114349,105.671005 175.631409,100.993698 
z"/>
<path fill="#205370" opacity="1.000000" stroke="none" 
	d="
M182.021561,291.904175 
	C175.682663,293.332306 173.437225,287.326111 169.303604,284.794830 
	C164.593643,281.910614 160.181519,278.541565 155.623383,275.407288 
	C152.843628,273.495911 149.860214,271.839142 147.268784,269.703369 
	C140.115692,263.808197 133.120575,257.721283 126.338310,251.363464 
	C127.077583,251.009537 127.541542,251.002335 128.367035,250.997589 
	C129.821945,251.330063 130.915314,251.660049 132.015793,252.333481 
	C134.031738,254.126205 135.998428,255.638580 138.057190,257.013062 
	C144.521515,261.328796 151.163239,265.394104 157.469452,269.927521 
	C165.112259,275.421814 172.482895,281.294708 180.031433,287.315979 
	C180.729858,288.083984 181.368149,288.539825 182.007782,289.359436 
	C182.013260,290.450226 182.017410,291.177185 182.021561,291.904175 
z"/>
<path fill="#9DD0C8" opacity="1.000000" stroke="none" 
	d="
M369.026978,188.527313 
	C367.094086,189.597046 365.133179,190.903748 363.168549,190.909393 
	C323.430359,191.023590 283.691711,190.988480 243.487015,190.975739 
	C244.841492,190.313461 246.660385,189.093170 248.483002,189.087570 
	C285.364655,188.974350 322.246735,189.000534 359.128754,188.998764 
	C361.096161,188.998672 363.063538,188.998749 365.090302,188.998749 
	C364.675751,186.335037 364.334015,184.139053 363.996216,181.543121 
	C365.665863,183.481598 367.331543,185.820023 369.026978,188.527313 
z"/>
<path fill="#2F849C" opacity="1.000000" stroke="none" 
	d="
M203.907623,275.046722 
	C207.468185,273.573761 211.169769,272.357269 214.525482,270.511810 
	C216.037094,269.680511 217.702332,267.665619 217.837097,266.064789 
	C218.261368,261.025177 217.993408,255.927277 217.993408,250.851944 
	C218.662918,250.844772 219.332428,250.837601 220.001938,250.830429 
	C220.001938,263.515076 220.001938,276.199707 220.001007,289.338867 
	C218.961517,289.806854 217.922928,289.820282 216.481415,289.452942 
	C214.760010,287.694336 213.441528,286.316467 212.093124,284.561646 
	C211.330734,283.119080 210.713638,281.946075 209.842148,281.009918 
	C207.932373,278.958496 205.893677,277.027130 203.907623,275.046722 
z"/>
<path fill="#115276" opacity="1.000000" stroke="none" 
	d="
M128.005493,250.995117 
	C127.541542,251.002335 127.077583,251.009537 126.265610,251.027573 
	C117.980011,245.894531 110.046539,240.744339 102.103096,235.609558 
	C98.287628,233.143158 94.453339,230.705856 90.325203,228.088776 
	C90.016228,226.555573 90.009613,225.188980 90.345657,223.486008 
	C96.342125,226.671814 102.038055,230.128845 107.631813,233.743958 
	C110.383286,235.522171 112.730713,238.054260 115.648399,239.413727 
	C119.227951,241.081558 120.716927,246.628174 126.074539,245.348480 
	C126.768494,247.462601 127.386993,249.228851 128.005493,250.995117 
z"/>
<path fill="#78BABC" opacity="1.000000" stroke="none" 
	d="
M79.935303,197.170959 
	C70.873505,197.170975 61.811714,197.170975 52.426132,197.170975 
	C53.007751,198.770157 53.431583,199.935486 53.872620,201.451584 
	C49.888050,201.645554 48.973270,199.094620 49.354660,195.238922 
	C49.556309,194.783066 49.898621,194.662109 50.372421,194.707703 
	C66.896713,194.824463 82.947205,194.895645 99.209167,195.111908 
	C99.614273,195.534683 99.807915,195.812347 99.709183,196.390930 
	C92.922974,196.851562 86.429138,197.011261 79.935303,197.170959 
z"/>
<path fill="#0B4C70" opacity="1.000000" stroke="none" 
	d="
M212.123047,284.938599 
	C213.441528,286.316467 214.760010,287.694336 216.092987,289.413483 
	C213.396973,289.831207 210.686462,289.907654 207.142517,289.832764 
	C202.210693,289.459656 198.112289,289.237854 193.552429,289.011230 
	C189.396133,289.002808 185.701294,288.999237 182.006454,288.995636 
	C181.368149,288.539825 180.729858,288.083984 180.503326,287.312805 
	C191.327072,286.452545 201.912384,288.535156 212.123047,284.938599 
z"/>
<path fill="#EEF8F7" opacity="1.000000" stroke="none" 
	d="
M223.994995,110.597191 
	C214.905334,107.653893 205.793945,104.350807 196.717056,100.955528 
	C195.231293,100.399773 193.897491,99.437737 192.253937,98.405823 
	C200.600998,100.537598 209.247864,102.737450 217.735413,105.438087 
	C220.118240,106.196274 224.057404,105.855133 223.994995,110.597191 
z"/>
<path fill="#78BABC" opacity="1.000000" stroke="none" 
	d="
M326.424957,239.343872 
	C329.890564,239.054916 333.502167,239.016434 337.103577,239.189575 
	C341.858673,239.418198 346.526611,239.534668 350.350342,235.397400 
	C348.015564,241.512054 342.526367,242.554459 336.824677,242.253571 
	C333.369751,242.071243 329.983521,240.587555 326.424957,239.343872 
z"/>
<path fill="#EEF8F7" opacity="1.000000" stroke="none" 
	d="
M338.917847,160.573090 
	C322.690308,160.980759 306.248627,160.997894 289.329346,160.986588 
	C289.525726,160.633148 290.199890,160.024200 290.873566,160.024734 
	C306.816956,160.037628 322.760315,160.116089 338.917847,160.573090 
z"/>
<path fill="#EEF8F7" opacity="1.000000" stroke="none" 
	d="
M223.372925,288.914246 
	C223.230621,284.443665 223.719131,280.053284 223.803833,275.655151 
	C224.010361,264.931091 224.029816,254.203384 224.482849,243.237640 
	C224.900574,257.588165 224.977737,272.178223 224.968140,286.768219 
	C224.967651,287.509399 224.219849,288.250031 223.372925,288.914246 
z"/>
<path fill="#115276" opacity="1.000000" stroke="none" 
	d="
M182.007782,289.359436 
	C185.701294,288.999237 189.396133,289.002808 193.541779,289.366699 
	C193.994675,290.438660 193.996750,291.150269 193.998840,291.861908 
	C190.311111,291.901550 186.623383,291.941162 182.478607,291.942505 
	C182.017410,291.177185 182.013260,290.450226 182.007782,289.359436 
z"/>
<path fill="#1C5E81" opacity="1.000000" stroke="none" 
	d="
M194.414703,291.883484 
	C193.996750,291.150269 193.994675,290.438660 194.003235,289.371521 
	C198.112289,289.237854 202.210693,289.459656 206.693848,289.851868 
	C202.995911,290.649841 198.913239,291.277435 194.414703,291.883484 
z"/>
<path fill="#34879C" opacity="1.000000" stroke="none" 
	d="
M359.436249,222.030396 
	C358.735046,221.270508 358.372314,220.481110 358.004761,219.345856 
	C358.000000,219.000000 358.003662,218.996338 358.003662,218.996338 
	C359.537903,218.612030 361.072144,218.227722 362.902222,217.978180 
	C362.056946,219.408936 360.915833,220.704910 359.436249,222.030396 
z"/>
<path fill="#EEF8F7" opacity="1.000000" stroke="none" 
	d="
M49.898621,194.662109 
	C49.898621,194.662109 49.556309,194.783066 49.384354,194.841217 
	C49.701111,193.566162 50.189827,192.232925 50.927097,190.681335 
	C51.319183,190.550995 51.462719,190.639023 51.799595,191.193146 
	C51.960960,192.086288 51.928989,192.513351 51.611591,192.988602 
	C50.850315,193.578552 50.374470,194.120331 49.898621,194.662109 
z"/>
<path fill="#EEF8F7" opacity="1.000000" stroke="none" 
	d="
M189.960571,97.578125 
	C189.427109,97.818405 188.772003,97.765099 188.066116,97.439400 
	C188.623199,97.206177 189.231049,97.245354 189.960571,97.578125 
z"/>
<path fill="#37869C" opacity="1.000000" stroke="none" 
	d="
M80.089767,197.527832 
	C86.429138,197.011261 92.922974,196.851562 100.132942,196.330673 
	C105.200043,196.411163 109.094124,195.576431 112.354813,191.916763 
	C116.498863,188.967316 120.287132,186.079422 124.075409,183.191528 
	C125.571915,182.606796 127.068413,182.022049 128.443268,180.903564 
	C128.386993,179.965958 128.452347,179.562073 128.517700,179.158203 
	C129.979614,178.951813 131.786270,179.224106 132.846741,178.460312 
	C139.127731,173.936737 145.169113,169.081757 151.420502,164.515411 
	C157.639130,159.973007 164.010269,155.639450 170.651093,151.095520 
	C173.052826,154.480881 170.407516,157.086304 168.394516,158.550110 
	C163.244019,162.295364 157.525986,165.260162 151.668152,168.755981 
	C153.086029,172.220001 156.824799,171.029343 159.814346,170.875122 
	C163.606400,170.679520 170.533447,163.193268 171.608170,158.345749 
	C176.400757,159.993134 181.459335,160.681122 183.536682,166.535248 
	C184.070465,168.039505 186.019836,169.095352 187.424347,170.226242 
	C191.114548,173.197525 190.896317,176.315247 186.993530,179.026932 
	C184.172684,180.986908 181.587463,183.285995 178.412842,185.820511 
	C181.106155,186.461243 182.552673,186.805374 184.033142,187.456818 
	C182.927475,188.784012 181.787842,189.803879 180.318848,190.905350 
	C178.931686,190.992584 177.873886,190.998230 176.018097,191.007477 
	C174.159439,191.764725 172.967346,192.389938 172.072540,193.305634 
	C171.036057,194.366272 170.164505,196.737152 169.392502,196.666595 
	C167.814133,196.522324 165.969330,195.444305 164.912781,194.182663 
	C162.083633,190.804291 159.687561,187.067123 156.960007,183.597855 
	C155.956970,182.322067 154.676407,181.009872 153.232071,180.378479 
	C145.818375,177.137543 134.347565,180.421692 128.686768,186.439941 
	C125.511116,189.816147 121.166321,192.063644 117.684975,195.194107 
	C116.049316,196.664886 115.208580,199.019730 114.007614,200.973953 
	C104.314857,197.436508 94.238716,199.498856 84.343750,198.904251 
	C82.961815,198.821213 81.609993,198.236938 80.089767,197.527832 
z"/>
<path fill="#C8E7E8" opacity="1.000000" stroke="none" 
	d="
M124.000626,182.840454 
	C120.287132,186.079422 116.498863,188.967316 112.342796,191.573685 
	C111.386520,190.813736 110.756981,189.889374 110.217125,189.939072 
	C108.476540,190.099335 106.771935,190.931763 105.048210,190.947983 
	C94.301758,191.049194 83.553833,191.013153 72.806526,190.980774 
	C71.426071,190.976624 70.046333,190.730438 67.609467,190.493713 
	C70.191086,188.569214 71.865692,187.320847 73.399132,186.177734 
	C70.679100,185.009552 68.339554,184.004776 66.000000,183.000000 
	C69.636459,179.791183 73.064552,176.300064 76.951767,173.431000 
	C85.653763,167.008224 94.567093,160.870468 103.435654,154.675751 
	C105.304512,153.370331 107.350510,152.318527 109.655792,151.074280 
	C110.677567,151.787079 111.394814,152.550201 111.985954,153.400940 
	C112.048576,153.491089 111.352364,154.079651 111.040421,154.463181 
	C104.970909,161.925751 105.008400,161.859711 113.099770,166.277710 
	C114.432091,167.005173 116.235672,168.640305 116.199753,169.805984 
	C116.013123,175.863708 119.883598,179.170380 124.000626,182.840454 
z"/>
<path fill="#C8E7E8" opacity="1.000000" stroke="none" 
	d="
M128.191910,179.150284 
	C128.452347,179.562073 128.386993,179.965958 128.233063,180.663086 
	C127.624535,180.692673 127.104599,180.428986 126.584656,180.165314 
	C127.011810,179.824326 127.438972,179.483353 128.191910,179.150284 
z"/>
<path fill="#388AA0" opacity="1.000000" stroke="none" 
	d="
M114.076706,201.309311 
	C115.208580,199.019730 116.049316,196.664886 117.684975,195.194107 
	C121.166321,192.063644 125.511116,189.816147 128.686768,186.439941 
	C134.347565,180.421692 145.818375,177.137543 153.232071,180.378479 
	C154.676407,181.009872 155.956970,182.322067 156.960007,183.597855 
	C159.687561,187.067123 162.083633,190.804291 164.912781,194.182663 
	C165.969330,195.444305 167.814133,196.522324 169.392502,196.666595 
	C170.164505,196.737152 171.036057,194.366272 172.072540,193.305634 
	C172.967346,192.389938 174.159439,191.764725 175.621201,191.011963 
	C176.765762,192.345856 177.509216,193.678879 178.628128,195.367584 
	C179.002396,196.148849 179.001205,196.574432 179.000000,197.000000 
	C176.150772,197.540588 173.301544,198.081146 170.533508,198.606323 
	C170.438293,199.189346 170.224167,199.654831 170.358215,199.800934 
	C177.289749,207.357040 175.164307,216.455750 174.752457,225.269714 
	C174.654633,227.363235 174.434204,229.503784 174.740097,231.552536 
	C175.395798,235.944016 170.782852,243.915527 165.989960,244.963257 
	C160.202042,240.937943 155.134735,236.956390 149.991241,232.667816 
	C149.276871,231.923416 148.638657,231.486053 147.679657,231.000793 
	C146.928085,230.915146 146.497314,230.877411 146.062225,230.468719 
	C145.271927,229.032639 144.649796,227.775955 143.669800,226.937622 
	C140.487869,224.215790 137.174881,221.647186 133.853973,218.678589 
	C131.872055,217.212997 129.948502,216.088440 128.016724,214.970230 
	C128.008469,214.976593 128.036026,214.969650 128.036026,214.969650 
	C126.748253,211.319550 124.159683,209.006409 120.824936,207.103287 
	C118.362236,205.697830 116.355629,203.493225 114.076706,201.309311 
z"/>
<path fill="#11557B" opacity="1.000000" stroke="none" 
	d="
M150.067413,232.974838 
	C155.134735,236.956390 160.202042,240.937943 165.602158,244.972931 
	C170.289581,248.915604 174.617691,252.835083 179.009949,256.681366 
	C181.220337,258.616943 183.547165,260.419617 185.861328,263.001282 
	C185.870300,265.482697 186.173218,267.340363 185.706192,268.978546 
	C185.307907,270.375702 183.569260,272.736572 183.199509,272.598145 
	C175.023392,269.537689 165.440216,269.079529 159.938080,260.832886 
	C156.972610,256.388184 153.019852,254.425751 147.652237,254.937027 
	C145.556656,255.136612 143.353455,254.825363 141.270950,254.397675 
	C138.150330,253.756760 135.092941,252.807907 132.008667,251.990036 
	C130.915314,251.660049 129.821945,251.330063 128.367035,250.997589 
	C127.386993,249.228851 126.768494,247.462601 126.443237,245.291473 
	C129.192902,244.533569 131.713654,243.650208 134.092255,243.938721 
	C138.924271,244.524826 142.865372,243.065231 145.059570,239.002747 
	C146.273132,236.755905 145.786682,233.590836 146.066559,230.839676 
	C146.497314,230.877411 146.928085,230.915146 147.740082,231.310333 
	C148.770020,232.103470 149.418716,232.539154 150.067413,232.974838 
z"/>
<path fill="#115276" opacity="1.000000" stroke="none" 
	d="
M132.015793,252.333481 
	C135.092941,252.807907 138.150330,253.756760 141.270950,254.397675 
	C143.353455,254.825363 145.556656,255.136612 147.652237,254.937027 
	C153.019852,254.425751 156.972610,256.388184 159.938080,260.832886 
	C165.440216,269.079529 175.023392,269.537689 183.199509,272.598145 
	C183.569260,272.736572 185.307907,270.375702 185.706192,268.978546 
	C186.173218,267.340363 185.870300,265.482697 185.956253,263.344055 
	C190.582626,266.506683 195.121841,270.088654 199.751663,273.549377 
	C200.722183,274.274841 202.026276,274.554016 203.542145,275.042786 
	C205.893677,277.027130 207.932373,278.958496 209.842148,281.009918 
	C210.713638,281.946075 211.330734,283.119080 212.093124,284.561646 
	C201.912384,288.535156 191.327072,286.452545 180.443192,287.000610 
	C172.482895,281.294708 165.112259,275.421814 157.469452,269.927521 
	C151.163239,265.394104 144.521515,261.328796 138.057190,257.013062 
	C135.998428,255.638580 134.031738,254.126205 132.015793,252.333481 
z"/>
<path fill="#10587C" opacity="1.000000" stroke="none" 
	d="
M337.532715,224.986252 
	C336.345459,225.671631 334.695892,226.892059 333.033417,226.909882 
	C318.555664,227.065155 304.075165,227.064957 289.596405,226.970627 
	C285.478302,226.943787 282.806732,228.440552 280.878235,232.224213 
	C280.160187,233.632996 277.607727,234.839569 275.865997,234.875122 
	C264.387054,235.109299 252.887360,234.666489 241.423218,235.140640 
	C235.670258,235.378601 229.977859,237.081100 224.130829,238.481537 
	C221.768326,242.397430 219.749298,238.844543 218.725525,238.056946 
	C214.428787,234.751434 210.594986,230.844193 206.252075,227.091156 
	C207.544617,226.337387 209.175171,225.053497 210.809067,225.049240 
	C252.893967,224.939499 294.979218,224.963165 337.532715,224.986252 
z"/>
<path fill="#34879C" opacity="1.000000" stroke="none" 
	d="
M179.432022,197.000092 
	C179.001205,196.574432 179.002396,196.148849 179.007324,195.405533 
	C186.692581,195.070038 194.374100,195.052277 202.522400,195.059784 
	C201.393707,196.056519 199.801758,197.847107 198.202026,197.854111 
	C192.090729,197.880783 185.976913,197.333267 179.432022,197.000092 
z"/>
<path fill="#87C6BE" opacity="1.000000" stroke="none" 
	d="
M212.120544,190.609589 
	C204.111221,190.997177 196.213776,191.106537 188.323776,190.912277 
	C186.883347,190.876816 185.473373,189.603561 184.011368,188.503586 
	C185.143005,187.192444 186.312637,186.279404 188.142120,185.190842 
	C190.463821,184.315094 192.125656,183.614883 193.787506,182.914673 
	C193.787506,182.914673 193.881668,182.891449 194.276306,182.874481 
	C196.413971,181.559677 198.156982,180.261856 199.899994,178.964050 
	C201.951279,178.283127 204.002533,177.602219 206.872253,176.956543 
	C215.202942,178.975433 222.362534,178.927094 227.310608,171.869339 
	C229.578079,168.635101 231.675690,166.293106 235.995804,166.874573 
	C236.890549,166.994995 237.973831,165.714584 238.970230,165.079803 
	C272.753906,165.030655 306.537781,164.930710 340.320679,165.067200 
	C342.211090,165.074829 344.093628,167.033157 346.054749,168.439240 
	C345.348419,169.435913 344.419861,170.743317 343.809967,170.608551 
	C340.144043,169.798477 336.607758,168.199768 332.919495,167.744247 
	C328.428497,167.189606 323.820160,167.294266 319.281738,167.512573 
	C316.027222,167.669083 312.811035,168.870987 309.565826,168.927917 
	C298.782196,169.117081 287.991089,168.868271 277.206818,169.038483 
	C267.410736,169.193085 257.617249,169.616211 247.827927,170.042801 
	C243.901703,170.213882 240.984268,171.194046 242.442551,176.439911 
	C243.175262,179.075668 242.570343,182.083267 242.570343,184.922714 
	C242.981659,185.330612 243.392960,185.738510 243.804276,186.146408 
	C239.958282,187.096863 236.156113,188.518219 232.255478,188.881104 
	C227.134720,189.357468 221.933731,188.908630 216.772995,189.056976 
	C215.250351,189.100739 213.747101,189.818298 212.120544,190.609589 
z"/>
<path fill="#78BABC" opacity="1.000000" stroke="none" 
	d="
M238.510483,165.045319 
	C237.973831,165.714584 236.890549,166.994995 235.995804,166.874573 
	C231.675690,166.293106 229.578079,168.635101 227.310608,171.869339 
	C222.362534,178.927094 215.202942,178.975433 207.256546,176.945892 
	C209.079285,174.639526 211.117325,172.081741 213.660248,170.209808 
	C215.810349,168.627045 218.921310,168.274734 220.904984,166.563873 
	C222.553589,165.141983 223.180923,162.535965 224.517517,160.188583 
	C225.611954,164.362350 228.421799,165.612122 232.616333,165.001694 
	C234.389801,164.743607 236.237030,164.992416 238.510483,165.045319 
z"/>
<path fill="#388AA0" opacity="1.000000" stroke="none" 
	d="
M199.491302,178.971481 
	C198.156982,180.261856 196.413971,181.559677 194.297028,182.830627 
	C193.556168,178.713852 196.336105,178.868958 199.491302,178.971481 
z"/>
<path fill="#388AA0" opacity="1.000000" stroke="none" 
	d="
M193.401505,182.936401 
	C192.125656,183.614883 190.463821,184.315094 188.400177,184.985397 
	C189.670761,184.289703 191.343124,183.623917 193.401505,182.936401 
z"/>
<path fill="#34879C" opacity="1.000000" stroke="none" 
	d="
M357.998169,219.002075 
	C355.179962,219.669220 352.381805,220.815292 349.544312,220.922760 
	C328.236115,221.729691 306.921661,222.386078 285.605804,222.965881 
	C279.004395,223.145462 278.710602,222.440292 280.966980,216.343491 
	C281.330658,215.360794 280.746460,213.264847 279.925659,212.741165 
	C276.750031,210.714996 276.833191,207.755447 278.320465,205.404846 
	C279.383270,203.725113 281.992737,202.685165 284.116943,202.085571 
	C288.700958,200.791626 293.375702,199.660416 298.089142,199.023895 
	C303.994476,198.226425 309.982574,197.524292 315.923035,197.609634 
	C329.176605,197.800034 342.429504,198.383698 355.665558,199.115952 
	C357.946930,199.242157 360.890350,200.300751 362.208771,201.970367 
	C364.288269,204.603790 364.454285,207.891769 361.880249,211.017792 
	C360.179932,213.082718 359.268311,215.797073 358.003601,218.608505 
	C358.003662,218.996338 358.000000,219.000000 357.998169,219.002075 
z"/>
<path fill="#12577E" opacity="1.000000" stroke="none" 
	d="
M146.062241,230.468719 
	C145.786682,233.590836 146.273132,236.755905 145.059570,239.002747 
	C142.865372,243.065231 138.924271,244.524826 134.092255,243.938721 
	C131.713654,243.650208 129.192902,244.533569 126.367783,244.943619 
	C120.716927,246.628174 119.227951,241.081558 115.648399,239.413727 
	C112.730713,238.054260 110.383286,235.522171 107.631813,233.743958 
	C102.038055,230.128845 96.342125,226.671814 90.341972,223.075546 
	C89.995636,223.001450 90.000229,223.000000 89.916626,222.654404 
	C88.559570,221.872345 87.286125,221.435867 86.012688,220.999390 
	C90.111938,219.539108 94.120872,217.297440 98.332642,216.810608 
	C103.964577,216.159622 109.753494,216.886246 115.475586,216.988480 
	C118.883530,217.049377 121.522041,216.287521 119.973076,211.215271 
	C122.867241,212.695114 125.084984,213.829086 127.669373,214.966354 
	C128.036026,214.969650 128.008469,214.976593 128.077225,215.315948 
	C130.068100,216.776749 131.990219,217.898163 133.912338,219.019592 
	C137.174881,221.647186 140.487869,224.215790 143.669800,226.937622 
	C144.649796,227.775955 145.271927,229.032639 146.062241,230.468719 
z"/>
<path fill="#12577E" opacity="1.000000" stroke="none" 
	d="
M84.208038,216.580460 
	C83.150230,219.075500 83.150230,219.075500 79.649170,214.782059 
	C81.935989,215.567154 82.994514,215.930542 84.208038,216.580460 
z"/>
<path fill="#115276" opacity="1.000000" stroke="none" 
	d="
M86.096420,221.345947 
	C87.286125,221.435867 88.559570,221.872345 89.915787,222.656616 
	C88.725761,222.567123 87.452965,222.129807 86.096420,221.345947 
z"/>
<path fill="#CAE8E9" opacity="1.000000" stroke="none" 
	d="
M65.625320,183.001602 
	C68.339554,184.004776 70.679100,185.009552 73.399132,186.177734 
	C71.865692,187.320847 70.191086,188.569214 67.609467,190.493713 
	C70.046333,190.730438 71.426071,190.976624 72.806526,190.980774 
	C83.553833,191.013153 94.301758,191.049194 105.048210,190.947983 
	C106.771935,190.931763 108.476540,190.099335 110.217125,189.939072 
	C110.756981,189.889374 111.386520,190.813736 111.987022,191.635239 
	C109.094124,195.576431 105.200043,196.411163 100.425308,196.029755 
	C99.807915,195.812347 99.614273,195.534683 99.091278,194.732590 
	C97.085762,193.805466 95.412338,193.066650 93.733017,193.052994 
	C79.788300,192.939682 65.842491,192.960297 51.897018,192.940430 
	C51.928989,192.513351 51.960960,192.086288 52.006088,191.338562 
	C55.124043,188.927887 58.193382,186.782013 61.351826,184.776459 
	C62.545475,184.018509 63.944977,183.584747 65.625320,183.001602 
z"/>
<path fill="#C8E7E8" opacity="1.000000" stroke="none" 
	d="
M51.611588,192.988586 
	C65.842491,192.960297 79.788300,192.939682 93.733017,193.052994 
	C95.412338,193.066650 97.085762,193.805466 98.879807,194.587494 
	C82.947205,194.895645 66.896713,194.824463 50.372425,194.707703 
	C50.374470,194.120331 50.850315,193.578552 51.611588,192.988586 
z"/>
<path fill="#1C5E81" opacity="1.000000" stroke="none" 
	d="
M133.853973,218.678589 
	C131.990219,217.898163 130.068100,216.776749 128.085480,215.309601 
	C129.948502,216.088440 131.872055,217.212997 133.853973,218.678589 
z"/>
<path fill="#12577E" opacity="1.000000" stroke="none" 
	d="
M149.991241,232.667816 
	C149.418716,232.539154 148.770020,232.103470 148.060883,231.358246 
	C148.638657,231.486053 149.276871,231.923416 149.991241,232.667816 
z"/>
</svg>