<svg version="1.1" id="Layer_1" xmlns="http://www.w3.org/2000/svg" xmlns:xlink="http://www.w3.org/1999/xlink" x="0px" y="0px"
	 width="100%" viewBox="0 0 424 388" enable-background="new 0 0 424 388" xml:space="preserve">
<path fill="#FFFFFF" opacity="1.000000" stroke="none" 
	d="M148.013367,283.648651 
	C147.999481,284.064880 147.985611,284.481110 147.198486,284.994141 
	C145.196533,290.283783 143.194595,295.573425 141.009186,301.657013 
	C140.066681,304.768707 139.124161,307.880402 137.846420,311.661560 
	C135.946716,316.763123 134.046997,321.864716 131.976517,327.793152 
	C130.949722,330.824707 129.922943,333.856232 128.140503,336.929108 
	C126.463020,340.176056 124.726486,343.395508 123.185669,346.706055 
	C123.000946,347.102966 123.730568,348.246521 124.306419,348.585938 
	C124.881897,348.925171 126.221725,349.008789 126.490440,348.651276 
	C127.814545,346.889404 128.894119,344.943787 130.832306,343.012390 
	C132.775436,342.266449 135.125885,341.986084 136.596191,340.699707 
	C146.799866,331.772614 156.925247,322.749146 166.860428,313.524689 
	C172.723053,308.081482 178.216904,302.238708 183.828629,296.528503 
	C187.930313,292.354858 191.953827,288.104431 196.720856,284.019165 
	C200.110611,280.350372 203.500366,276.681549 207.160889,272.387299 
	C210.485703,268.941132 213.810516,265.494995 217.676620,261.667389 
	C219.124466,259.714020 220.572311,257.760681 222.673950,255.687576 
	C227.592972,250.475540 232.563950,245.311218 237.410416,240.032562 
	C240.075821,237.129440 242.531677,234.033920 245.669586,230.644836 
	C248.457245,227.115219 251.244888,223.585587 254.720001,219.958054 
	C259.515656,214.997269 264.311310,210.036484 269.708313,204.783966 
	C274.215149,200.088196 278.668152,195.339203 283.245270,190.712982 
	C287.130310,186.786285 292.001099,183.539307 294.894897,179.007645 
	C298.006744,174.134506 304.569366,171.728149 304.990387,164.168457 
	C304.236450,160.311295 303.482513,156.454117 302.745850,151.758102 
	C302.497009,147.025452 302.657410,142.224075 301.877502,137.580643 
	C301.179779,133.426590 299.505005,129.390335 293.466766,129.015427 
	C293.012939,129.001450 292.559143,128.987473 291.686981,128.191971 
	C277.794312,128.045212 263.901642,127.898445 250.095047,126.944542 
	C250.925201,123.590736 251.513016,120.151817 252.652878,116.906792 
	C253.820236,113.583588 256.900879,110.346954 256.668365,107.258804 
	C256.343567,102.944427 257.610535,100.094307 260.251404,97.260643 
	C260.663574,96.818367 260.941650,96.126472 261.020020,95.516365 
	C262.331757,85.310318 269.956360,76.830345 269.099182,66.023834 
	C269.067169,65.620064 269.609039,65.199997 269.770111,64.747192 
	C271.526154,59.810627 273.259613,54.866001 275.777130,49.968952 
	C277.510834,46.955463 279.966400,44.099277 278.644653,39.890858 
	C279.136749,39.152996 279.628845,38.415138 280.574890,36.996613 
	C278.173248,36.996613 276.576355,36.997082 274.979462,36.996540 
	C256.154175,36.990131 237.328857,36.983208 218.503555,36.977287 
	C212.839310,36.975506 207.147003,36.628059 201.519272,37.081207 
	C196.604691,37.476929 193.037125,42.083996 187.649796,42.017326 
	C185.828217,41.994781 183.982056,43.957497 181.835403,45.664742 
	C175.283188,59.415028 168.730972,73.165314 162.004974,87.616409 
	C161.293427,89.072227 160.581894,90.528053 159.235931,92.294640 
	C153.477539,103.953926 147.556656,115.536911 142.030930,127.305435 
	C139.362793,132.987961 137.437943,139.019485 134.993057,145.628113 
	C134.379303,147.426743 133.765564,149.225357 132.839417,151.671082 
	C127.634911,159.438202 123.352768,167.595367 121.960648,177.942368 
	C122.393555,183.697296 122.826462,189.452225 123.213684,196.010956 
	C124.830276,201.290985 126.446869,206.571014 128.636368,212.209091 
	C129.433273,213.761642 130.230164,215.314194 131.103958,217.730225 
	C132.412598,218.187424 133.709183,219.001709 135.031754,219.046356 
	C147.657837,219.472534 160.288330,219.768448 173.027496,220.850098 
	C170.414551,226.878235 167.801620,232.906387 165.012955,239.700638 
	C164.341492,241.742233 163.670044,243.783829 162.326248,246.169144 
	C160.523529,250.764893 158.720825,255.360641 156.999771,259.994263 
	C156.999771,259.994263 156.927658,259.939880 156.277557,260.143311 
	C156.241959,260.794861 156.206360,261.446381 156.024780,262.796051 
	C155.360382,264.458191 154.695984,266.120361 153.340057,268.106110 
	C151.616470,273.085724 149.892883,278.065338 148.013367,283.648651 
z"/>
<path fill="#F9D36D" opacity="1.000000" stroke="none" 
	d="
M277.893555,40.256321 
	C279.966400,44.099277 277.510834,46.955463 275.390015,49.597767 
	C274.309143,45.259205 272.845703,45.866699 270.816559,48.430088 
	C267.289917,52.885166 263.563324,57.183632 260.088776,61.677826 
	C254.116180,69.403168 248.272873,77.228485 242.163986,85.301308 
	C240.630127,86.727394 239.307587,87.864021 237.592407,88.996613 
	C233.352402,86.485100 229.537384,84.184227 224.554794,84.614296 
	C220.646713,84.951607 216.607452,85.057762 212.752701,84.456879 
	C204.663925,83.196014 196.636093,81.504898 188.628571,79.780052 
	C185.077927,79.015244 181.637253,77.739899 177.541183,76.515266 
	C181.403275,71.477203 185.836517,67.754761 187.404861,63.072666 
	C188.995346,58.324528 187.755920,52.628464 187.755920,47.425762 
	C185.892456,49.244217 183.964645,51.125454 182.022461,52.619957 
	C182.723328,49.857113 183.438614,47.480999 184.541824,45.053219 
	C187.100952,44.350231 189.255325,43.197788 191.445953,43.124130 
	C216.939026,42.266922 242.438217,41.593281 267.933441,40.795662 
	C270.008667,40.730732 272.055267,39.980457 274.136902,39.801735 
	C275.367035,39.696110 276.639893,40.088100 277.893555,40.256321 
z"/>
<path fill="#F8CD68" opacity="1.000000" stroke="none" 
	d="
M182.036850,53.006691 
	C183.964645,51.125454 185.892456,49.244217 187.755920,47.425762 
	C187.755920,52.628464 188.995346,58.324528 187.404861,63.072666 
	C185.836517,67.754761 181.403275,71.477203 177.541183,76.515266 
	C181.637253,77.739899 185.077927,79.015244 188.628571,79.780052 
	C196.636093,81.504898 204.663925,83.196014 212.752701,84.456879 
	C216.607452,85.057762 220.646713,84.951607 224.554794,84.614296 
	C229.537384,84.184227 233.352402,86.485100 237.581375,89.340866 
	C236.681015,90.868889 235.399033,92.048622 234.044891,92.924438 
	C233.022964,92.733521 232.073181,92.846527 231.123383,92.959534 
	C231.512360,93.691292 231.901337,94.423050 232.290970,95.523712 
	C232.170395,96.863770 232.049179,97.834930 231.601913,98.883858 
	C230.844376,99.637657 230.412872,100.313683 229.991608,100.994286 
	C230.001831,100.998863 229.988159,100.979553 229.690033,101.068283 
	C228.958725,101.783661 228.525543,102.410309 228.059631,103.022659 
	C228.026886,103.008347 228.035385,103.079308 227.685867,103.106766 
	C226.194153,105.058807 225.051956,106.983391 223.603333,108.985901 
	C222.846756,109.691933 222.396622,110.320023 221.625305,110.947617 
	C220.876877,110.967751 220.449585,110.988388 219.661865,111.015732 
	C217.534485,112.348190 215.767548,113.673943 214.010483,114.617630 
	C214.670822,112.061371 215.321304,109.887169 216.003693,107.606293 
	C212.230316,107.606293 209.296234,107.814064 206.405014,107.550972 
	C203.168930,107.256493 199.925873,105.901772 196.766907,106.130051 
	C189.890182,106.626976 183.087601,108.229240 176.211258,108.625435 
	C171.040588,108.923355 166.944519,110.056229 164.256454,114.870155 
	C163.718353,115.833824 161.321167,116.765076 160.514847,116.335182 
	C159.335266,115.706306 158.279358,113.881210 158.157761,112.480278 
	C158.011215,110.792168 159.206207,109.020477 159.240845,107.273483 
	C159.268982,105.856064 158.440781,104.421677 157.987457,102.616196 
	C159.021881,99.699463 160.200439,97.204346 161.006653,94.594231 
	C161.219025,93.906708 160.280411,92.863663 159.870346,91.983871 
	C160.581894,90.528053 161.293427,89.072227 162.452362,87.270691 
	C163.789642,86.657005 165.158493,86.659721 165.488708,86.075439 
	C167.150513,83.134964 168.541260,80.041290 170.365738,76.928886 
	C172.438324,73.501961 174.172348,70.147545 175.896072,66.493828 
	C175.920807,65.797173 175.955826,65.399834 176.342407,64.920250 
	C177.122070,63.547791 177.550140,62.257565 177.989792,60.983559 
	C178.001358,60.999775 177.966064,60.981613 178.321564,60.908875 
	C179.110214,59.545731 179.543365,58.255322 179.988861,56.982239 
	C180.001205,56.999569 179.964218,56.978878 180.292633,56.930122 
	C181.058884,56.201244 181.496719,55.521130 181.927536,54.534153 
	C181.959305,53.820427 181.998077,53.413563 182.036850,53.006691 
z"/>
<path fill="#A95D34" opacity="1.000000" stroke="none" 
	d="
M302.728577,152.596954 
	C303.482513,156.454117 304.236450,160.311295 304.568298,164.605453 
	C301.298676,167.501236 298.322174,169.827393 295.629303,172.445267 
	C289.203796,178.691849 282.963470,185.128754 276.545532,191.383316 
	C273.140198,194.701935 269.520477,197.800552 265.651733,201.043396 
	C261.934570,204.130753 258.119080,206.812759 255.291794,210.296722 
	C250.582245,216.100082 246.477615,222.397675 242.209091,228.550156 
	C241.806381,229.130600 242.049545,230.159119 241.606049,230.988281 
	C238.143845,233.662994 235.068451,236.329041 231.598358,238.997971 
	C229.197113,239.637512 227.130920,240.131409 225.196091,240.939743 
	C220.831177,242.763275 218.646851,241.623962 218.062363,236.944595 
	C217.900406,235.647812 218.014038,234.316620 218.000610,233.000610 
	C218.000000,233.000000 218.001221,233.001221 218.314178,232.947205 
	C219.085175,232.261322 219.543198,231.629440 220.003235,230.750977 
	C220.005219,230.504364 220.007629,230.011154 220.371582,229.957855 
	C221.823074,228.269913 222.910614,226.635239 224.341400,224.922028 
	C228.460907,220.545944 232.253052,216.262238 236.009369,211.947342 
	C240.511948,206.775269 245.039001,201.622070 249.407471,196.338364 
	C250.033737,195.580902 249.830399,194.137543 250.395966,193.006744 
	C251.771286,192.581329 253.134094,192.437851 253.688324,191.692841 
	C256.275330,188.215347 258.505798,184.470901 261.120697,181.016434 
	C263.670746,177.647690 266.059174,173.877274 269.365051,171.423904 
	C274.648346,167.503052 279.877380,164.010849 282.670410,157.557693 
	C284.144073,154.152939 288.195251,151.806030 289.459229,148.382172 
	C291.231628,143.581177 293.039825,141.954025 297.508057,145.802277 
	C297.857849,144.347702 298.084839,143.403885 298.690765,142.630463 
	C299.521790,144.931763 299.801086,147.120697 300.490021,149.172043 
	C300.910187,150.423172 301.961029,151.462494 302.728577,152.596954 
z"/>
<path fill="#B96734" opacity="1.000000" stroke="none" 
	d="
M123.259369,195.207153 
	C122.826462,189.452225 122.393555,183.697296 122.495667,177.528870 
	C145.687820,177.071320 168.345032,177.047134 191.001984,176.958450 
	C193.881454,176.947189 196.586243,176.813171 195.610107,181.054199 
	C194.627945,181.851639 193.767517,182.470444 193.362015,183.309189 
	C189.475937,191.347336 185.714294,199.445923 181.788254,207.464157 
	C181.137161,208.793854 179.864456,209.819168 178.627045,210.731140 
	C178.418335,208.049347 179.168488,203.841064 178.373215,203.525314 
	C175.919968,202.551331 172.877029,203.047470 170.062668,203.003754 
	C168.239151,202.975433 166.398972,202.848251 164.593994,203.034332 
	C160.408966,203.465820 156.216705,204.638840 152.070831,204.466461 
	C143.908936,204.127045 134.951904,208.605942 127.664551,200.684250 
	C126.083862,198.665207 124.671616,196.936172 123.259369,195.207153 
z"/>
<path fill="#F3AF4A" opacity="1.000000" stroke="none" 
	d="
M195.942886,180.977585 
	C196.586243,176.813171 193.881454,176.947189 191.001984,176.958450 
	C168.345032,177.047134 145.687820,177.071320 122.571167,177.076965 
	C123.352768,167.595367 127.634911,159.438202 133.392197,151.345276 
	C135.843842,150.103775 137.742706,149.188065 139.520401,148.330795 
	C140.164490,156.121140 176.446671,169.310516 193.999695,168.999390 
	C194.000000,169.000000 194.001221,169.000610 194.046478,169.343201 
	C196.060547,171.457993 198.029358,173.230209 199.998993,175.335419 
	C200.000092,176.112442 200.000351,176.556458 199.662003,177.077164 
	C198.196564,178.428421 197.069717,179.703003 195.942886,180.977585 
z"/>
<path fill="#965433" opacity="1.000000" stroke="none" 
	d="
M196.012177,283.888214 
	C191.953827,288.104431 187.930313,292.354858 183.828629,296.528503 
	C178.216904,302.238708 172.723053,308.081482 166.860428,313.524689 
	C156.925247,322.749146 146.799866,331.772614 136.596191,340.699707 
	C135.125885,341.986084 132.775436,342.266449 130.363647,343.112000 
	C129.895004,343.211609 129.714798,343.079803 129.800110,342.728760 
	C129.906540,341.896118 129.927673,341.414520 129.998016,340.721375 
	C130.047241,340.509888 130.077301,340.076660 130.386795,339.914429 
	C136.143799,336.263123 138.439896,330.601196 141.027161,324.708374 
	C145.759552,318.298798 150.476196,312.310547 154.809937,306.056946 
	C156.941895,302.980530 158.364990,299.412872 160.065292,296.045166 
	C160.021744,296.022858 160.074936,296.105011 160.412933,296.072815 
	C161.826126,294.692078 162.901306,293.343475 164.014450,291.769714 
	C164.052429,291.544525 164.030945,291.088287 164.400177,291.014832 
	C168.438187,290.685852 170.055405,288.569824 170.460892,284.987976 
	C172.583176,282.969940 174.362396,281.007690 176.438080,278.979187 
	C177.165863,278.295471 177.597183,277.677979 178.018967,277.039001 
	C178.009445,277.017517 178.059128,277.023407 178.447693,277.024719 
	C182.028946,276.987396 182.300156,278.412628 181.316544,281.150787 
	C180.030396,284.731110 179.223480,288.483582 178.210388,292.162018 
	C178.664032,292.445129 179.117691,292.728271 179.571335,293.011383 
	C183.134201,289.392181 186.646637,285.721069 190.288330,282.182953 
	C191.501160,281.004608 193.045197,280.167175 194.437836,279.173889 
	C194.962616,280.745331 195.487396,282.316772 196.012177,283.888214 
z"/>
<path fill="#A05D33" opacity="1.000000" stroke="none" 
	d="
M242.375305,85.011841 
	C248.272873,77.228485 254.116180,69.403168 260.088776,61.677826 
	C263.563324,57.183632 267.289917,52.885166 270.816559,48.430088 
	C272.845703,45.866699 274.309143,45.259205 275.001038,49.575081 
	C273.259613,54.866001 271.526154,59.810627 269.770111,64.747192 
	C269.609039,65.199997 269.067169,65.620064 269.099182,66.023834 
	C269.956360,76.830345 262.331757,85.310318 261.020020,95.516365 
	C260.941650,96.126472 260.663574,96.818367 260.251404,97.260643 
	C257.610535,100.094307 256.343567,102.944427 256.668365,107.258804 
	C256.900879,110.346954 253.820236,113.583588 252.652878,116.906792 
	C251.513016,120.151817 250.925201,123.590736 249.938782,127.632812 
	C249.734695,128.519623 249.686844,128.718170 249.276917,128.888458 
	C247.942535,128.923248 246.970230,128.986282 245.998932,128.714157 
	C246.002274,127.932343 246.004623,127.485687 246.007797,126.625015 
	C245.725647,120.726669 241.401917,123.904320 239.110596,122.580643 
	C246.106506,121.377014 248.304626,116.304825 250.027023,110.568031 
	C250.925690,107.574898 252.476379,104.778900 253.707199,101.883080 
	C253.994110,101.208023 254.163422,100.483955 254.411407,99.791229 
	C256.512299,93.922508 255.590363,87.288643 259.610046,81.807098 
	C261.955017,78.609344 263.325897,74.581985 260.651428,69.324112 
	C256.698303,73.899200 253.016342,77.795624 249.783875,82.034805 
	C247.760468,84.688362 246.128525,87.167244 242.375305,85.011841 
z"/>
<path fill="#874B30" opacity="1.000000" stroke="none" 
	d="
M127.833008,200.974274 
	C134.951904,208.605942 143.908936,204.127045 152.070831,204.466461 
	C156.216705,204.638840 160.408966,203.465820 164.593994,203.034332 
	C166.398972,202.848251 168.239151,202.975433 170.062668,203.003754 
	C172.877029,203.047470 175.919968,202.551331 178.373215,203.525314 
	C179.168488,203.841064 178.418335,208.049347 178.546906,211.061707 
	C177.708115,213.397278 176.697464,215.148270 175.237793,216.904144 
	C160.201553,216.894913 145.614304,216.880829 131.027069,216.866745 
	C130.230164,215.314194 129.433273,213.761642 128.526505,211.701294 
	C128.222107,207.787094 128.027557,204.380676 127.833008,200.974274 
z"/>
<path fill="#A05D33" opacity="1.000000" stroke="none" 
	d="
M196.366516,283.953674 
	C195.487396,282.316772 194.962616,280.745331 194.437836,279.173889 
	C193.045197,280.167175 191.501160,281.004608 190.288330,282.182953 
	C186.646637,285.721069 183.134201,289.392181 179.571335,293.011383 
	C179.117691,292.728271 178.664032,292.445129 178.210388,292.162018 
	C179.223480,288.483582 180.030396,284.731110 181.316544,281.150787 
	C182.300156,278.412628 182.028946,276.987396 178.435501,276.652893 
	C178.057480,275.290039 178.080215,274.300354 178.418182,273.243500 
	C179.152557,273.083954 179.571716,272.991608 180.338135,272.871735 
	C181.816467,270.906067 182.947571,268.967926 184.417419,266.957581 
	C187.840500,263.608276 190.924820,260.331207 194.009201,257.441345 
	C194.415558,258.823059 194.725983,260.625580 195.242981,260.686920 
	C200.299911,261.286865 201.121811,265.127106 202.000214,269.395630 
	C201.736710,273.744232 204.654510,272.860626 206.890106,273.012726 
	C203.500366,276.681549 200.110611,280.350372 196.366516,283.953674 
z"/>
<path fill="#FDF7E3" opacity="1.000000" stroke="none" 
	d="
M278.269104,40.073589 
	C276.639893,40.088100 275.367035,39.696110 274.136902,39.801735 
	C272.055267,39.980457 270.008667,40.730732 267.933441,40.795662 
	C242.438217,41.593281 216.939026,42.266922 191.445953,43.124130 
	C189.255325,43.197788 187.100952,44.350231 184.206833,45.030357 
	C183.038330,45.043755 182.592728,45.028347 182.147141,45.012939 
	C183.982056,43.957497 185.828217,41.994781 187.649796,42.017326 
	C193.037125,42.083996 196.604691,37.476929 201.519272,37.081207 
	C207.147003,36.628059 212.839310,36.975506 218.503555,36.977287 
	C237.328857,36.983208 256.154175,36.990131 274.979462,36.996540 
	C276.576355,36.997082 278.173248,36.996613 280.574890,36.996613 
	C279.628845,38.415138 279.136749,39.152996 278.269104,40.073589 
z"/>
<path fill="#F4BA53" opacity="1.000000" stroke="none" 
	d="
M193.999390,168.998779 
	C176.446671,169.310516 140.164490,156.121140 139.520401,148.330795 
	C137.742706,149.188065 135.843842,150.103775 133.548401,151.021729 
	C133.765564,149.225357 134.379303,147.426743 135.415283,145.260223 
	C137.172073,143.917938 138.506638,142.943542 140.216736,142.057709 
	C142.252731,144.765228 143.336472,148.260239 145.697708,149.814774 
	C150.156479,152.750229 155.174713,155.125427 160.275574,156.734482 
	C170.289642,159.893387 180.550446,162.263855 190.624207,165.247314 
	C191.999023,165.654480 192.886353,167.707687 193.999390,168.998779 
z"/>
<path fill="#965433" opacity="1.000000" stroke="none" 
	d="
M265.997559,200.998489 
	C269.520477,197.800552 273.140198,194.701935 276.545532,191.383316 
	C282.963470,185.128754 289.203796,178.691849 295.629303,172.445267 
	C298.322174,169.827393 301.298676,167.501236 304.515778,165.011307 
	C304.569366,171.728149 298.006744,174.134506 294.894897,179.007645 
	C292.001099,183.539307 287.130310,186.786285 283.245270,190.712982 
	C278.668152,195.339203 274.215149,200.088196 269.143433,204.742538 
	C267.717590,204.127975 266.856659,203.554840 265.996246,202.651184 
	C265.997040,201.879944 265.997284,201.439209 265.997559,200.998489 
z"/>
<path fill="#FBECC3" opacity="1.000000" stroke="none" 
	d="
M139.841202,141.969162 
	C138.506638,142.943542 137.172073,143.917938 135.507019,144.892654 
	C137.437943,139.019485 139.362793,132.987961 142.030930,127.305435 
	C147.556656,115.536911 153.477539,103.953926 159.553131,92.139252 
	C160.280411,92.863663 161.219025,93.906708 161.006653,94.594231 
	C160.200439,97.204346 159.021881,99.699463 157.991272,102.618469 
	C158.000000,102.999367 157.995056,102.992111 157.651398,103.079483 
	C154.002716,104.805351 153.839264,107.820786 153.943512,110.963112 
	C153.984299,110.990547 153.930862,110.908028 153.614594,110.958984 
	C152.907959,111.674408 152.517609,112.338875 152.066711,113.370628 
	C151.299957,115.124321 150.527481,116.481522 149.901260,117.903152 
	C148.572708,120.919205 147.320358,123.968826 145.972717,127.370239 
	C143.990417,131.497879 142.072144,135.259949 140.070831,139.384735 
	C139.938950,140.488007 139.890076,141.228592 139.841202,141.969162 
z"/>
<path fill="#FBECC3" opacity="1.000000" stroke="none" 
	d="
M181.991272,45.338840 
	C182.592728,45.028347 183.038330,45.043755 183.818909,45.082024 
	C183.438614,47.480999 182.723328,49.857113 182.022461,52.619961 
	C181.998077,53.413563 181.959305,53.820427 181.619720,54.627998 
	C180.867355,55.678764 180.415787,56.328823 179.964218,56.978882 
	C179.964218,56.978878 180.001205,56.999569 179.638535,57.060638 
	C178.839264,58.408344 178.402664,59.694977 177.966064,60.981613 
	C177.966064,60.981613 178.001358,60.999775 177.641968,61.071014 
	C176.851990,62.428997 176.421417,63.715744 175.990845,65.002487 
	C175.955826,65.399834 175.920807,65.797173 175.563080,66.606552 
	C173.502655,70.346199 171.764908,73.673805 170.027161,77.001404 
	C168.541260,80.041290 167.150513,83.134964 165.488708,86.075439 
	C165.158493,86.659721 163.789642,86.657005 162.539246,86.920288 
	C168.730972,73.165314 175.283188,59.415028 181.991272,45.338840 
z"/>
<path fill="#965433" opacity="1.000000" stroke="none" 
	d="
M231.993042,238.995071 
	C235.068451,236.329041 238.143845,233.662994 241.992249,230.993286 
	C243.537506,231.001450 244.309769,231.013306 245.082031,231.025146 
	C242.531677,234.033920 240.075821,237.129440 237.410416,240.032562 
	C232.563950,245.311218 227.592972,250.475540 222.344086,255.346863 
	C222.009766,253.667709 222.005310,252.329269 222.064041,250.661270 
	C225.415833,246.552826 228.704437,242.773956 231.993042,238.995071 
z"/>
<path fill="#A35931" opacity="1.000000" stroke="none" 
	d="
M245.375809,230.834991 
	C244.309769,231.013306 243.537506,231.001450 242.379044,230.984604 
	C242.049545,230.159119 241.806381,229.130600 242.209091,228.550156 
	C246.477615,222.397675 250.582245,216.100082 255.291794,210.296722 
	C258.119080,206.812759 261.934570,204.130753 265.651733,201.043396 
	C265.997284,201.439209 265.997040,201.879944 265.738129,202.863571 
	C263.479523,205.787201 261.271667,208.026733 259.533630,210.585388 
	C257.487366,213.597839 255.848221,216.886856 254.032532,220.055954 
	C251.244888,223.585587 248.457245,227.115219 245.375809,230.834991 
z"/>
<path fill="#977562" opacity="1.000000" stroke="none" 
	d="
M131.065521,217.298492 
	C145.614304,216.880829 160.201553,216.894913 175.290558,217.246368 
	C175.804520,218.044510 175.816711,218.505280 175.493576,218.982040 
	C174.411362,219.365952 173.664459,219.733856 172.917557,220.101746 
	C160.288330,219.768448 147.657837,219.472534 135.031754,219.046356 
	C133.709183,219.001709 132.412598,218.187424 131.065521,217.298492 
z"/>
<path fill="#C88F57" opacity="1.000000" stroke="none" 
	d="
M292.105316,128.973495 
	C292.559143,128.987473 293.012939,129.001450 293.865051,129.404724 
	C294.885651,130.798798 295.507965,131.803589 295.830994,132.999023 
	C294.645569,133.450302 293.759430,133.710968 292.675781,133.887207 
	C292.232025,133.626068 292.075378,133.389862 291.897217,132.702789 
	C290.456573,131.885834 289.128113,131.095306 287.797546,131.091812 
	C276.016510,131.060745 264.235107,131.169205 252.357681,130.912430 
	C252.211075,130.142960 252.160583,129.697556 252.569565,129.205963 
	C266.054443,129.097702 279.079895,129.035599 292.105316,128.973495 
z"/>
<path fill="#E3CCBB" opacity="1.000000" stroke="none" 
	d="
M296.130249,132.808380 
	C295.507965,131.803589 294.885651,130.798798 294.192383,129.500092 
	C299.505005,129.390335 301.179779,133.426590 301.877502,137.580643 
	C302.657410,142.224075 302.497009,147.025452 302.737213,152.177521 
	C301.961029,151.462494 300.910187,150.423172 300.490021,149.172043 
	C299.801086,147.120697 299.521790,144.931763 298.753479,142.233032 
	C297.668243,138.712936 296.899261,135.760666 296.130249,132.808380 
z"/>
<path fill="#C88F57" opacity="1.000000" stroke="none" 
	d="
M140.853622,325.020355 
	C138.439896,330.601196 136.143799,336.263123 130.106995,339.695129 
	C129.310532,338.721283 129.103348,337.804535 128.896164,336.887787 
	C129.922943,333.856232 130.949722,330.824707 132.438995,327.402405 
	C133.908661,327.005341 134.915848,326.999054 136.253265,326.955505 
	C137.047653,326.268768 137.511856,325.619293 137.986084,324.985962 
	C137.996124,325.002075 137.967407,324.973633 138.328964,324.995789 
	C139.411560,325.018738 140.132584,325.019562 140.853622,325.020355 
z"/>
<path fill="#965433" opacity="1.000000" stroke="none" 
	d="
M207.025497,272.700012 
	C204.654510,272.860626 201.736710,273.744232 202.361572,269.348999 
	C204.574326,267.289368 206.321854,265.524567 208.315094,264.104706 
	C210.052734,262.866913 212.067505,262.018188 214.295502,261.030701 
	C215.465912,261.392181 216.300613,261.720490 217.135330,262.048828 
	C213.810516,265.494995 210.485703,268.941132 207.025497,272.700012 
z"/>
<path fill="#874B30" opacity="1.000000" stroke="none" 
	d="
M254.376266,220.007004 
	C255.848221,216.886856 257.487366,213.597839 259.533630,210.585388 
	C261.271667,208.026733 263.479523,205.787201 265.737610,203.194092 
	C266.856659,203.554840 267.717590,204.127975 268.842743,204.888397 
	C264.311310,210.036484 259.515656,214.997269 254.376266,220.007004 
z"/>
<path fill="#F6C762" opacity="1.000000" stroke="none" 
	d="
M135.923050,326.992737 
	C134.915848,326.999054 133.908661,327.005341 132.524384,326.988953 
	C134.046997,321.864716 135.946716,316.763123 138.215363,311.331543 
	C138.584320,311.001495 138.987122,311.004883 139.162643,311.363586 
	C139.485001,313.659790 139.932709,315.633575 139.704559,317.525848 
	C139.401215,320.041687 138.571167,322.494019 137.967407,324.973633 
	C137.967407,324.973633 137.996124,325.002075 137.669037,325.035126 
	C136.868973,325.709686 136.396011,326.351227 135.923050,326.992737 
z"/>
<path fill="#FBECC3" opacity="1.000000" stroke="none" 
	d="
M172.972534,220.475922 
	C173.664459,219.733856 174.411362,219.365952 175.522003,219.384308 
	C175.902069,220.845276 175.918365,221.919983 175.867615,223.259247 
	C175.814651,223.886139 175.828751,224.248474 175.500488,224.727295 
	C173.444138,228.230042 171.730133,231.616272 169.946503,235.293182 
	C169.845901,235.979935 169.814926,236.376022 169.460907,236.858948 
	C167.821472,237.608704 166.505081,238.271622 165.188690,238.934540 
	C167.801620,232.906387 170.414551,226.878235 172.972534,220.475922 
z"/>
<path fill="#F8CD68" opacity="1.000000" stroke="none" 
	d="
M154.031570,267.782501 
	C154.695984,266.120361 155.360382,264.458191 156.365692,262.258209 
	C156.780289,261.126862 156.853973,260.533386 156.927658,259.939880 
	C156.927658,259.939880 156.999771,259.994263 157.289276,259.976196 
	C158.380035,259.636475 159.181290,259.314789 160.000641,259.351929 
	C159.397232,261.484009 158.775726,263.257263 158.122070,265.442932 
	C156.008560,270.186951 153.927200,274.518616 151.872192,278.440674 
	C152.609543,274.614868 153.320557,271.198669 154.031570,267.782501 
z"/>
<path fill="#E3CCBB" opacity="1.000000" stroke="none" 
	d="
M127.664551,200.684250 
	C128.027557,204.380676 128.222107,207.787094 128.240051,211.522278 
	C126.446869,206.571014 124.830276,201.290985 123.236526,195.609055 
	C124.671616,196.936172 126.083862,198.665207 127.664551,200.684250 
z"/>
<path fill="#FBECC3" opacity="1.000000" stroke="none" 
	d="
M141.192657,300.863068 
	C143.194595,295.573425 145.196533,290.283783 147.619934,285.367249 
	C147.972366,287.427307 147.903320,289.114319 147.849609,290.815125 
	C147.864944,290.828979 147.845261,290.848633 147.487640,290.923523 
	C146.760941,292.331299 146.391861,293.664185 145.956604,295.291870 
	C145.877930,295.988190 145.865448,296.389709 145.516541,296.900726 
	C143.850967,298.294495 142.521820,299.578796 141.192657,300.863068 
z"/>
<path fill="#F4BA53" opacity="1.000000" stroke="none" 
	d="
M141.100922,301.260040 
	C142.521820,299.578796 143.850967,298.294495 145.568359,297.332581 
	C145.360687,303.006622 144.286682,308.108734 138.987122,311.004883 
	C138.987122,311.004883 138.584320,311.001495 138.382980,310.996796 
	C139.124161,307.880402 140.066681,304.768707 141.100922,301.260040 
z"/>
<path fill="#E3CCBB" opacity="1.000000" stroke="none" 
	d="
M128.518341,336.908447 
	C129.103348,337.804535 129.310532,338.721283 129.797501,339.857361 
	C130.077301,340.076660 130.047241,340.509888 129.717285,340.806396 
	C129.043488,341.392059 128.699631,341.681183 128.355774,341.970276 
	C128.808792,342.340149 129.261795,342.709991 129.714798,343.079803 
	C129.714798,343.079803 129.895004,343.211609 129.977509,343.137329 
	C128.894119,344.943787 127.814545,346.889404 126.490440,348.651276 
	C126.221725,349.008789 124.881897,348.925171 124.306419,348.585938 
	C123.730568,348.246521 123.000946,347.102966 123.185669,346.706055 
	C124.726486,343.395508 126.463020,340.176056 128.518341,336.908447 
z"/>
<path fill="#FBECC3" opacity="1.000000" stroke="none" 
	d="
M159.982544,258.993103 
	C159.181290,259.314789 158.380035,259.636475 157.248444,259.957275 
	C158.720825,255.360641 160.523529,250.764893 162.926147,246.227051 
	C163.700287,247.191635 163.874542,248.098343 163.983887,249.400482 
	C162.606827,252.861664 161.294678,255.927383 159.982544,258.993103 
z"/>
<path fill="#E3CCBB" opacity="1.000000" stroke="none" 
	d="
M291.896149,128.582733 
	C279.079895,129.035599 266.054443,129.097702 252.159348,129.134445 
	C250.739456,129.044968 250.189224,128.980835 249.639008,128.916702 
	C249.686844,128.718170 249.734695,128.519623 249.895752,128.036377 
	C263.901642,127.898445 277.794312,128.045212 291.896149,128.582733 
z"/>
<path fill="#874B30" opacity="1.000000" stroke="none" 
	d="
M217.405975,261.858093 
	C216.300613,261.720490 215.465912,261.392181 214.307739,260.647583 
	C216.656479,257.151184 219.328674,254.071030 222.000870,250.990845 
	C222.005310,252.329269 222.009766,253.667709 222.017181,255.406723 
	C220.572311,257.760681 219.124466,259.714020 217.405975,261.858093 
z"/>
<path fill="#F8CD68" opacity="1.000000" stroke="none" 
	d="
M164.048798,249.005035 
	C163.874542,248.098343 163.700287,247.191635 163.262314,246.055176 
	C163.670044,243.783829 164.341492,241.742233 165.100830,239.317596 
	C166.505081,238.271622 167.821472,237.608704 169.524536,237.268417 
	C167.957077,241.395706 166.002945,245.200378 164.048798,249.005035 
z"/>
<path fill="#FBECC3" opacity="1.000000" stroke="none" 
	d="
M153.685822,267.944305 
	C153.320557,271.198669 152.609543,274.614868 151.642654,278.624542 
	C151.229431,279.775146 151.072083,280.332275 150.662292,281.035767 
	C149.662994,281.803070 148.916153,282.424011 148.169312,283.044952 
	C149.892883,278.065338 151.616470,273.085724 153.685822,267.944305 
z"/>
<path fill="#F4BA53" opacity="1.000000" stroke="none" 
	d="
M148.091339,283.346802 
	C148.916153,282.424011 149.662994,281.803070 150.818298,281.366486 
	C150.822464,284.034882 150.418167,286.518890 149.947144,289.323334 
	C149.198380,290.029602 148.516327,290.415436 147.834274,290.801300 
	C147.903320,289.114319 147.972366,287.427307 148.006561,285.318848 
	C147.985611,284.481110 147.999481,284.064880 148.091339,283.346802 
z"/>
<path fill="#FBECC3" opacity="1.000000" stroke="none" 
	d="
M156.602600,260.041595 
	C156.853973,260.533386 156.780289,261.126862 156.438690,261.909149 
	C156.206360,261.446381 156.241959,260.794861 156.602600,260.041595 
z"/>
<path fill="#A75930" opacity="1.000000" stroke="none" 
	d="
M242.163986,85.301308 
	C246.128525,87.167244 247.760468,84.688362 249.783875,82.034805 
	C253.016342,77.795624 256.698303,73.899200 260.651428,69.324112 
	C263.325897,74.581985 261.955017,78.609344 259.610046,81.807098 
	C255.590363,87.288643 256.512299,93.922508 254.411407,99.791229 
	C254.163422,100.483955 253.994110,101.208023 253.707199,101.883080 
	C252.476379,104.778900 250.925690,107.574898 250.027023,110.568031 
	C248.304626,116.304825 246.106506,121.377014 238.655823,122.597672 
	C235.066833,122.989082 232.035294,122.998871 228.552826,123.005615 
	C226.945221,123.001060 225.756012,123.169609 224.639801,122.956261 
	C223.145218,122.670586 221.707169,122.089111 220.244843,121.634659 
	C220.961548,120.175552 221.719452,118.734993 222.386017,117.253326 
	C223.617065,114.516846 224.794571,111.756256 225.997009,109.003067 
	C225.999634,109.000435 226.006104,108.994484 226.393677,108.993362 
	C228.652878,107.225471 230.231598,104.732025 232.454254,103.836052 
	C237.869446,101.653152 236.106369,98.710487 234.079285,95.066452 
	C234.109360,94.207756 234.113205,93.718056 234.117035,93.228355 
	C235.399033,92.048622 236.681015,90.868889 237.974030,89.344894 
	C239.307587,87.864021 240.630127,86.727394 242.163986,85.301308 
z"/>
<path fill="#F6C762" opacity="1.000000" stroke="none" 
	d="
M146.036743,127.004677 
	C147.320358,123.968826 148.572708,120.919205 149.901260,117.903152 
	C150.527481,116.481522 151.299957,115.124321 152.370087,113.306183 
	C153.132950,112.218971 153.531906,111.563499 153.930862,110.908028 
	C153.930862,110.908028 153.984299,110.990547 154.301270,110.908600 
	C155.743835,108.215141 156.869446,105.603630 157.995056,102.992111 
	C157.995056,102.992111 158.000000,102.999367 157.996185,102.997086 
	C158.440781,104.421677 159.268982,105.856064 159.240845,107.273483 
	C159.206207,109.020477 158.011215,110.792168 158.157761,112.480278 
	C158.279358,113.881210 159.335266,115.706306 160.514847,116.335182 
	C161.321167,116.765076 163.718353,115.833824 164.256454,114.870155 
	C166.944519,110.056229 171.040588,108.923355 176.211258,108.625435 
	C183.087601,108.229240 189.890182,106.626976 196.766907,106.130051 
	C199.925873,105.901772 203.168930,107.256493 206.405014,107.550972 
	C209.296234,107.814064 212.230316,107.606293 216.003693,107.606293 
	C215.321304,109.887169 214.670822,112.061371 214.010178,114.617783 
	C214.000000,115.000000 213.999390,115.000305 213.715912,115.046738 
	C213.127380,115.403603 212.822357,115.714035 212.517334,116.024467 
	C212.999496,116.336655 213.481659,116.648842 214.049042,117.045982 
	C214.134277,117.130936 214.305069,117.300484 214.286301,117.648033 
	C213.568741,119.022820 212.869965,120.050064 211.824677,121.108490 
	C210.151337,122.489250 206.334503,122.881439 209.694473,126.329269 
	C209.847824,127.105865 209.915970,127.553528 209.653275,127.997162 
	C208.881287,127.991943 208.440125,127.990746 207.770905,127.741379 
	C204.744003,127.332756 202.899078,122.242889 199.782516,125.290100 
	C196.293762,128.701218 192.433792,129.212158 187.985123,129.107254 
	C184.915268,129.034866 181.730698,129.202576 178.772934,129.953964 
	C172.405762,131.571457 166.198929,133.816422 159.838486,135.465134 
	C153.350479,137.146866 149.911362,135.746033 148.864899,129.844360 
	C148.673431,128.764587 147.016968,127.944588 146.036743,127.004677 
z"/>
<path fill="#A35931" opacity="1.000000" stroke="none" 
	d="
M234.053055,95.435440 
	C236.106369,98.710487 237.869446,101.653152 232.454254,103.836052 
	C230.231598,104.732025 228.652878,107.225471 226.439941,108.642441 
	C226.744202,106.554855 227.389801,104.817085 228.035385,103.079308 
	C228.035385,103.079308 228.026886,103.008347 228.362976,102.953476 
	C229.128754,102.258919 229.558456,101.619232 229.988159,100.979553 
	C229.988159,100.979553 230.001831,100.998863 230.319931,100.937103 
	C231.068008,100.185593 231.497986,99.495842 231.927979,98.806091 
	C232.049179,97.834930 232.170395,96.863770 232.586807,95.550415 
	C233.272339,95.283958 233.662704,95.359695 234.053055,95.435440 
z"/>
<path fill="#F9D36D" opacity="1.000000" stroke="none" 
	d="
M170.365738,76.928886 
	C171.764908,73.673805 173.502655,70.346199 175.573364,66.905869 
	C174.172348,70.147545 172.438324,73.501961 170.365738,76.928886 
z"/>
<path fill="#F6C762" opacity="1.000000" stroke="none" 
	d="
M214.000305,114.999847 
	C215.767548,113.673943 217.534485,112.348190 219.661865,111.376595 
	C220.034378,112.211945 220.046478,112.693146 219.761627,113.236420 
	C218.642014,115.789207 217.514145,117.886452 214.305069,117.300484 
	C214.305069,117.300484 214.134277,117.130936 214.060974,116.719803 
	C213.991577,115.872551 213.995483,115.436424 213.999390,115.000305 
	C213.999390,115.000305 214.000000,115.000000 214.000305,114.999847 
z"/>
<path fill="#A75930" opacity="1.000000" stroke="none" 
	d="
M227.685867,103.106766 
	C227.389801,104.817085 226.744202,106.554855 226.052368,108.643555 
	C226.006104,108.994484 225.999634,109.000435 225.674606,109.004318 
	C224.920395,109.027893 224.491211,109.047577 224.024063,109.027344 
	C223.986099,108.987427 223.909744,108.907974 223.909744,108.907974 
	C225.051956,106.983391 226.194153,105.058807 227.685867,103.106766 
z"/>
<path fill="#F9D36D" opacity="1.000000" stroke="none" 
	d="
M234.079285,95.066452 
	C233.662704,95.359695 233.272339,95.283958 232.586151,95.181511 
	C231.901337,94.423050 231.512360,93.691292 231.123383,92.959534 
	C232.073181,92.846527 233.022964,92.733521 234.044891,92.924438 
	C234.113205,93.718056 234.109360,94.207756 234.079285,95.066452 
z"/>
<path fill="#A75930" opacity="1.000000" stroke="none" 
	d="
M220.058563,113.174347 
	C220.046478,112.693146 220.034378,112.211945 220.022308,111.369881 
	C220.449585,110.988388 220.876877,110.967751 221.659271,110.979477 
	C222.014404,111.011848 222.082703,111.075157 222.057556,111.413132 
	C221.753662,112.632645 221.474884,113.514168 221.196121,114.395706 
	C220.816925,113.988586 220.437744,113.581474 220.058563,113.174347 
z"/>
<path fill="#F9D36D" opacity="1.000000" stroke="none" 
	d="
M178.321548,60.908875 
	C178.402664,59.694977 178.839264,58.408344 179.626190,57.043312 
	C179.543365,58.255322 179.110214,59.545731 178.321548,60.908875 
z"/>
<path fill="#F9D36D" opacity="1.000000" stroke="none" 
	d="
M176.342407,64.920250 
	C176.421417,63.715744 176.851990,62.428997 177.630402,61.054794 
	C177.550140,62.257565 177.122070,63.547791 176.342407,64.920250 
z"/>
<path fill="#A75930" opacity="1.000000" stroke="none" 
	d="
M231.601929,98.883865 
	C231.497986,99.495842 231.068008,100.185593 230.309708,100.932526 
	C230.412872,100.313683 230.844376,99.637657 231.601929,98.883865 
z"/>
<path fill="#A75930" opacity="1.000000" stroke="none" 
	d="
M229.690033,101.068283 
	C229.558456,101.619232 229.128754,102.258919 228.395721,102.967789 
	C228.525543,102.410309 228.958725,101.783661 229.690033,101.068283 
z"/>
<path fill="#A75930" opacity="1.000000" stroke="none" 
	d="
M221.980438,110.979980 
	C222.396622,110.320023 222.846756,109.691933 223.603333,108.985901 
	C223.909744,108.907974 223.986099,108.987427 223.951843,109.327438 
	C223.305969,110.136696 222.694336,110.605927 222.082703,111.075165 
	C222.082703,111.075157 222.014404,111.011848 221.980438,110.979980 
z"/>
<path fill="#F9D36D" opacity="1.000000" stroke="none" 
	d="
M180.292633,56.930122 
	C180.415787,56.328823 180.867355,55.678764 181.626740,54.934860 
	C181.496719,55.521130 181.058884,56.201244 180.292633,56.930122 
z"/>
<path fill="#A35931" opacity="1.000000" stroke="none" 
	d="
M222.064056,250.661285 
	C219.328674,254.071030 216.656479,257.151184 213.972046,260.614441 
	C212.067505,262.018188 210.052734,262.866913 208.315094,264.104706 
	C206.321854,265.524567 204.574326,267.289368 202.358688,268.950928 
	C201.121811,265.127106 200.299911,261.286865 195.242981,260.686920 
	C194.725983,260.625580 194.415558,258.823059 194.032562,257.114441 
	C194.677734,255.923965 195.299652,255.447556 196.309875,254.976898 
	C200.415131,251.771561 205.765930,249.240311 207.453415,245.184769 
	C209.790482,239.568207 213.630524,236.306091 218.001221,233.001205 
	C218.014038,234.316620 217.900406,235.647812 218.062363,236.944595 
	C218.646851,241.623962 220.831177,242.763275 225.196091,240.939743 
	C227.130920,240.131409 229.197113,239.637512 231.598358,238.997971 
	C228.704437,242.773956 225.415833,246.552826 222.064056,250.661285 
z"/>
<path fill="#A35931" opacity="1.000000" stroke="none" 
	d="
M295.830994,132.999023 
	C296.899261,135.760666 297.668243,138.712936 298.374512,142.062637 
	C298.084839,143.403885 297.857849,144.347702 297.508057,145.802277 
	C293.039825,141.954025 291.231628,143.581177 289.459229,148.382172 
	C288.195251,151.806030 284.144073,154.152939 282.670410,157.557693 
	C279.877380,164.010849 274.648346,167.503052 269.365051,171.423904 
	C266.059174,173.877274 263.670746,177.647690 261.120697,181.016434 
	C258.505798,184.470901 256.275330,188.215347 253.688324,191.692841 
	C253.134094,192.437851 251.771286,192.581329 250.392365,192.600342 
	C249.988708,191.116257 249.973633,190.033768 249.965698,188.968353 
	C249.972855,188.985443 249.950790,188.970154 250.275146,188.925568 
	C251.047318,188.224075 251.495148,187.567169 251.961853,186.949677 
	C251.980743,186.989105 251.907089,186.942017 252.250854,186.901901 
	C253.696793,185.485901 254.798965,184.110001 255.892609,182.380051 
	C257.282074,180.122986 258.854248,178.319107 260.014160,176.280624 
	C260.736267,175.011490 260.834869,173.387527 261.197388,171.758987 
	C261.181488,171.595154 261.103729,171.275269 261.496918,171.253204 
	C266.724060,171.264893 267.987061,167.731155 269.345520,163.910950 
	C270.067322,163.191956 270.526978,162.592911 271.273987,161.854248 
	C272.065338,160.819504 272.569305,159.924362 273.368408,158.859558 
	C276.090149,155.608261 278.466644,152.485352 280.957947,149.456879 
	C283.314850,146.591827 285.899048,143.909378 288.181824,140.989136 
	C289.909943,138.778397 291.321075,136.319870 292.873291,133.971619 
	C293.759430,133.710968 294.645569,133.450302 295.830994,132.999023 
z"/>
<path fill="#A75930" opacity="1.000000" stroke="none" 
	d="
M249.958557,188.951263 
	C249.973633,190.033768 249.988708,191.116257 250.007385,192.605179 
	C249.830399,194.137543 250.033737,195.580902 249.407471,196.338364 
	C245.039001,201.622070 240.511948,206.775269 236.009369,211.947342 
	C232.253052,216.262238 228.460907,220.545944 224.010452,224.983536 
	C222.226730,226.752792 221.117188,228.381973 220.007629,230.011154 
	C220.007629,230.011154 220.005219,230.504364 219.689972,230.804855 
	C218.916870,231.737305 218.459030,232.369247 218.001221,233.001221 
	C218.001221,233.001221 218.000000,233.000000 218.000610,233.000610 
	C213.630524,236.306091 209.790482,239.568207 207.453415,245.184769 
	C205.765930,249.240311 200.415131,251.771561 196.341843,254.608551 
	C198.121994,250.595459 199.437988,245.772507 202.584946,243.591568 
	C207.452164,240.218506 209.254883,234.873093 213.434952,230.869705 
	C215.267090,229.145950 216.890366,227.676819 218.318436,226.037613 
	C223.951309,219.571945 229.688858,213.185913 235.049301,206.499161 
	C237.851807,203.003220 239.951614,198.943909 242.698166,195.097412 
	C245.337875,193.020935 247.648209,190.986099 249.958557,188.951263 
z"/>
<path fill="#A35931" opacity="1.000000" stroke="none" 
	d="
M220.371582,229.957855 
	C221.117188,228.381973 222.226730,226.752792 223.667221,225.062103 
	C222.910614,226.635239 221.823074,228.269913 220.371582,229.957855 
z"/>
<path fill="#A35931" opacity="1.000000" stroke="none" 
	d="
M218.314178,232.947205 
	C218.459030,232.369247 218.916870,231.737305 219.687973,231.051453 
	C219.543198,231.629440 219.085175,232.261322 218.314178,232.947205 
z"/>
<path fill="#F4BA53" opacity="1.000000" stroke="none" 
	d="
M249.965698,188.968353 
	C247.648209,190.986099 245.337875,193.020935 242.305054,195.051514 
	C237.828552,192.761765 234.260788,193.504929 231.266815,196.260330 
	C227.448532,199.774307 223.712402,203.438965 220.409592,207.426880 
	C218.632385,209.572739 217.021561,211.040466 214.774063,209.031616 
	C211.902374,206.464874 209.949036,207.145615 206.974823,209.097778 
	C204.656769,210.619263 201.217224,211.061111 198.335236,210.903168 
	C195.854828,210.767258 193.458008,209.105804 190.662125,207.972046 
	C190.806152,207.242935 191.171722,205.392288 191.562546,203.413818 
	C187.145050,204.005524 181.981720,211.232651 182.057327,216.711365 
	C182.117783,221.091415 180.513382,223.369080 175.934662,222.994675 
	C175.918365,221.919983 175.902069,220.845276 175.857330,219.368317 
	C175.816711,218.505280 175.804520,218.044510 175.739578,217.241516 
	C176.697464,215.148270 177.708115,213.397278 178.798889,211.315704 
	C179.864456,209.819168 181.137161,208.793854 181.788254,207.464157 
	C185.714294,199.445923 189.475937,191.347336 193.362015,183.309189 
	C193.767517,182.470444 194.627945,181.851639 195.610107,181.054199 
	C197.069717,179.703003 198.196564,178.428421 199.896912,177.307678 
	C202.541885,177.659180 204.610947,177.887756 206.685242,178.048996 
	C213.956039,178.614182 221.543243,181.935059 227.964645,175.209534 
	C228.782837,174.352585 230.997604,174.754120 232.569519,174.705048 
	C238.759460,174.511719 244.953964,174.438553 251.140289,174.170944 
	C253.042206,174.088684 254.923462,173.528503 256.814178,173.187164 
	C256.938751,173.619446 257.063324,174.051727 257.187897,174.484009 
	C258.529694,173.630264 259.871490,172.776535 261.213287,171.922821 
	C260.834869,173.387527 260.736267,175.011490 260.014160,176.280624 
	C258.854248,178.319107 257.282074,180.122986 255.519562,182.445023 
	C254.072388,184.223373 252.989746,185.582703 251.907104,186.942017 
	C251.907089,186.942017 251.980743,186.989105 251.631592,186.979614 
	C250.838562,187.636810 250.394669,188.303482 249.950775,188.970154 
	C249.950790,188.970154 249.972855,188.985443 249.965698,188.968353 
z"/>
<path fill="#F5BF57" opacity="1.000000" stroke="none" 
	d="
M261.197388,171.758972 
	C259.871490,172.776535 258.529694,173.630264 257.187897,174.484009 
	C257.063324,174.051727 256.938751,173.619446 256.814178,173.187164 
	C254.923462,173.528503 253.042206,174.088684 251.140289,174.170944 
	C244.953964,174.438553 238.759460,174.511719 232.569519,174.705048 
	C230.997604,174.754120 228.782837,174.352585 227.964645,175.209534 
	C221.543243,181.935059 213.956039,178.614182 206.685242,178.048996 
	C204.610947,177.887756 202.541885,177.659180 200.235504,177.230988 
	C200.000351,176.556458 200.000092,176.112442 199.991974,174.967682 
	C197.989822,172.511505 195.995514,170.756058 194.001221,169.000610 
	C194.001221,169.000610 194.000000,169.000000 193.999695,168.999390 
	C192.886353,167.707687 191.999023,165.654480 190.624207,165.247314 
	C180.550446,162.263855 170.289642,159.893387 160.275574,156.734482 
	C155.174713,155.125427 150.156479,152.750229 145.697708,149.814774 
	C143.336472,148.260239 142.252731,144.765228 140.216736,142.057709 
	C139.890076,141.228592 139.938950,140.488007 140.413132,139.440643 
	C141.139496,139.268219 141.552750,139.318710 141.725082,139.549286 
	C145.639465,144.786194 148.952759,146.870270 155.666855,148.409485 
	C157.435440,148.814926 159.155090,149.433090 160.898605,149.948929 
	C161.683395,150.181107 162.599991,150.782913 163.238052,150.567932 
	C168.686356,148.732071 172.342438,151.803436 176.123703,154.906235 
	C179.206497,157.435913 187.302765,157.816452 188.984055,155.235535 
	C191.349213,151.604813 193.957993,151.353165 197.399612,153.171692 
	C199.551483,154.308746 201.109055,154.056412 201.973511,151.401093 
	C203.370667,147.109497 206.126328,144.121918 210.544525,142.570038 
	C212.221603,141.980942 213.565277,140.442627 214.898743,139.456848 
	C213.668030,137.176697 212.802338,135.572845 211.685760,133.504150 
	C214.844025,133.089554 217.086411,132.795197 219.328796,132.500839 
	C219.280823,132.000137 219.232834,131.499451 219.184860,130.998749 
	C216.607285,130.998749 213.969330,131.325211 211.477005,130.864273 
	C210.184647,130.625275 209.150024,128.992615 207.998978,127.989555 
	C208.440125,127.990746 208.881287,127.991943 210.037994,128.171005 
	C211.868820,128.583618 212.983139,129.016968 214.099503,129.022263 
	C224.732117,129.072708 235.365067,129.050583 245.997925,129.049316 
	C246.970230,128.986282 247.942535,128.923248 249.276917,128.888458 
	C250.189224,128.980835 250.739456,129.044968 251.699890,129.180603 
	C252.160583,129.697556 252.211075,130.142960 252.384689,131.256302 
	C254.395172,132.250565 256.279114,132.835709 258.170441,132.860764 
	C269.448822,133.010300 280.728882,133.030533 292.008392,133.094162 
	C292.075378,133.389862 292.232025,133.626068 292.675781,133.887207 
	C291.321075,136.319870 289.909943,138.778397 288.181824,140.989136 
	C285.899048,143.909378 283.314850,146.591827 280.957947,149.456879 
	C278.466644,152.485352 276.090149,155.608261 273.016174,158.859009 
	C271.908112,160.016708 271.447388,161.005280 270.986633,161.993851 
	C270.526978,162.592911 270.067322,163.191956 268.989441,163.946442 
	C265.948700,166.493011 263.526215,168.884140 261.103729,171.275269 
	C261.103729,171.275269 261.181488,171.595154 261.197388,171.758972 
z"/>
<path fill="#F4BA53" opacity="1.000000" stroke="none" 
	d="
M194.046478,169.343201 
	C195.995514,170.756058 197.989822,172.511505 199.991150,174.634689 
	C198.029358,173.230209 196.060547,171.457993 194.046478,169.343201 
z"/>
<path fill="#F3AE40" opacity="1.000000" stroke="none" 
	d="
M150.013870,289.002930 
	C150.418167,286.518890 150.822464,284.034882 151.070740,281.220093 
	C151.072083,280.332275 151.229431,279.775146 151.616302,279.034180 
	C153.927200,274.518616 156.008560,270.186951 158.502686,265.429108 
	C160.378983,263.711121 161.842514,262.419342 163.479660,260.974304 
	C163.617645,261.661469 163.825256,262.671143 164.022736,263.682831 
	C164.718018,267.244720 168.185730,269.441223 171.734695,268.564667 
	C177.862671,267.051086 177.862671,267.051086 178.102966,273.310699 
	C178.080215,274.300354 178.057480,275.290039 178.046936,276.651550 
	C178.059128,277.023407 178.009445,277.017517 177.705933,277.084106 
	C176.982147,277.782257 176.561890,278.413849 176.141632,279.045441 
	C174.362396,281.007690 172.583176,282.969940 170.118256,285.030334 
	C167.632019,287.115082 165.831482,289.101685 164.030945,291.088287 
	C164.030945,291.088287 164.052429,291.544525 163.620438,291.774414 
	C160.032730,291.763184 159.842468,293.773621 160.074936,296.105011 
	C160.074936,296.105011 160.021744,296.022858 159.733353,296.078064 
	C158.577850,296.917572 157.710754,297.701813 157.576950,297.822845 
	C154.962357,294.773773 152.488113,291.888336 150.013870,289.002930 
z"/>
<path fill="#F0A63B" opacity="1.000000" stroke="none" 
	d="
M149.947144,289.323334 
	C152.488113,291.888336 154.962357,294.773773 157.576950,297.822845 
	C157.710754,297.701813 158.577850,296.917572 159.776901,296.100403 
	C158.364990,299.412872 156.941895,302.980530 154.809937,306.056946 
	C150.476196,312.310547 145.759552,318.298798 141.027161,324.708374 
	C140.132584,325.019562 139.411560,325.018738 138.328964,324.995789 
	C138.571167,322.494019 139.401215,320.041687 139.704559,317.525848 
	C139.932709,315.633575 139.485001,313.659790 139.162643,311.363586 
	C144.286682,308.108734 145.360687,303.006622 145.904800,297.223083 
	C145.865448,296.389709 145.877930,295.988190 146.309845,295.203979 
	C147.101257,293.497070 147.473251,292.172852 147.845261,290.848633 
	C147.845261,290.848633 147.864944,290.828979 147.849609,290.815125 
	C148.516327,290.415436 149.198380,290.029602 149.947144,289.323334 
z"/>
<path fill="#F0A63B" opacity="1.000000" stroke="none" 
	d="
M164.400177,291.014832 
	C165.831482,289.101685 167.632019,287.115082 169.775192,285.086121 
	C170.055405,288.569824 168.438187,290.685852 164.400177,291.014832 
z"/>
<path fill="#F0A63B" opacity="1.000000" stroke="none" 
	d="
M160.412933,296.072815 
	C159.842468,293.773621 160.032730,291.763184 163.582458,291.999603 
	C162.901306,293.343475 161.826126,294.692078 160.412933,296.072815 
z"/>
<path fill="#C88F57" opacity="1.000000" stroke="none" 
	d="
M129.800110,342.728760 
	C129.261795,342.709991 128.808792,342.340149 128.355774,341.970276 
	C128.699631,341.681183 129.043488,341.392059 129.668060,341.017914 
	C129.927673,341.414520 129.906540,341.896118 129.800110,342.728760 
z"/>
<path fill="#A05D33" opacity="1.000000" stroke="none" 
	d="
M176.438080,278.979187 
	C176.561890,278.413849 176.982147,277.782257 177.715454,277.105591 
	C177.597183,277.677979 177.165863,278.295471 176.438080,278.979187 
z"/>
<path fill="#A35931" opacity="1.000000" stroke="none" 
	d="
M245.998932,128.714157 
	C235.365067,129.050583 224.732117,129.072708 214.099503,129.022263 
	C212.983139,129.016968 211.868820,128.583618 210.368835,128.175018 
	C209.915970,127.553528 209.847824,127.105865 209.879822,126.026581 
	C210.710358,123.955734 211.440765,122.516518 212.171173,121.077301 
	C212.869965,120.050064 213.568741,119.022820 214.286301,117.648033 
	C217.514145,117.886452 218.642014,115.789207 219.761627,113.236420 
	C220.437744,113.581474 220.816925,113.988586 221.196121,114.395706 
	C221.474884,113.514168 221.753662,112.632645 222.057556,111.413139 
	C222.694336,110.605927 223.305969,110.136696 223.989807,109.367355 
	C224.491211,109.047577 224.920395,109.027893 225.671967,109.006958 
	C224.794571,111.756256 223.617065,114.516846 222.386017,117.253326 
	C221.719452,118.734993 220.961548,120.175552 220.244843,121.634659 
	C221.707169,122.089111 223.145218,122.670586 224.639801,122.956261 
	C225.756012,123.169609 226.945221,123.001060 228.564270,123.407425 
	C230.388809,124.870102 231.674362,126.695892 233.127625,126.840889 
	C237.384949,127.265663 241.709045,127.021271 246.006973,127.039032 
	C246.004623,127.485687 246.002274,127.932343 245.998932,128.714157 
z"/>
<path fill="#874B30" opacity="1.000000" stroke="none" 
	d="
M246.007797,126.625015 
	C241.709045,127.021271 237.384949,127.265663 233.127625,126.840889 
	C231.674362,126.695892 230.388809,124.870102 229.015167,123.410461 
	C232.035294,122.998871 235.066833,122.989082 238.553162,122.962265 
	C241.401917,123.904320 245.725647,120.726669 246.007797,126.625015 
z"/>
<path fill="#F5B448" opacity="1.000000" stroke="none" 
	d="
M178.418182,273.243500 
	C177.862671,267.051086 177.862671,267.051086 171.734695,268.564667 
	C168.185730,269.441223 164.718018,267.244720 164.022736,263.682831 
	C163.825256,262.671143 163.617645,261.661469 163.479660,260.974304 
	C161.842514,262.419342 160.378983,263.711121 158.534851,265.016724 
	C158.775726,263.257263 159.397232,261.484009 160.000641,259.351929 
	C161.294678,255.927383 162.606827,252.861664 163.983887,249.400497 
	C166.002945,245.200378 167.957077,241.395706 169.847580,237.181580 
	C169.814926,236.376022 169.845901,235.979935 170.276947,235.291779 
	C171.117798,234.998993 171.558563,234.998276 172.013000,235.406372 
	C172.225433,238.418243 172.418106,241.021820 172.625305,243.624237 
	C172.748520,245.171753 172.894638,246.717422 173.030472,248.263931 
	C174.697968,247.959518 176.495667,247.953506 178.008118,247.293671 
	C182.222855,245.454910 186.357101,243.418549 190.448883,241.315765 
	C193.102402,239.952087 195.815735,238.582291 198.165024,236.776520 
	C202.161499,233.704605 205.892197,230.286972 209.487747,227.224823 
	C211.044800,228.855576 212.090591,229.950882 213.136383,231.046173 
	C209.254883,234.873093 207.452164,240.218506 202.584946,243.591568 
	C199.437988,245.772507 198.121994,250.595459 195.953522,254.602814 
	C195.299652,255.447556 194.677734,255.923965 194.032471,256.727295 
	C190.924820,260.331207 187.840500,263.608276 184.067459,267.012268 
	C182.249451,269.059235 181.120178,270.979248 179.990891,272.899261 
	C179.571716,272.991608 179.152557,273.083954 178.418182,273.243500 
z"/>
<path fill="#F3AE40" opacity="1.000000" stroke="none" 
	d="
M180.338135,272.871735 
	C181.120178,270.979248 182.249451,269.059235 183.728699,267.084503 
	C182.947571,268.967926 181.816467,270.906067 180.338135,272.871735 
z"/>
<path fill="#F6C45D" opacity="1.000000" stroke="none" 
	d="
M207.770905,127.741379 
	C209.150024,128.992615 210.184647,130.625275 211.477005,130.864273 
	C213.969330,131.325211 216.607285,130.998749 219.184860,130.998749 
	C219.232834,131.499451 219.280823,132.000137 219.328796,132.500839 
	C217.086411,132.795197 214.844025,133.089554 211.685760,133.504150 
	C212.802338,135.572845 213.668030,137.176697 214.898743,139.456848 
	C213.565277,140.442627 212.221603,141.980942 210.544525,142.570038 
	C206.126328,144.121918 203.370667,147.109497 201.973511,151.401093 
	C201.109055,154.056412 199.551483,154.308746 197.399612,153.171692 
	C193.957993,151.353165 191.349213,151.604813 188.984055,155.235535 
	C187.302765,157.816452 179.206497,157.435913 176.123703,154.906235 
	C172.342438,151.803436 168.686356,148.732071 163.238052,150.567932 
	C162.599991,150.782913 161.683395,150.181107 160.898605,149.948929 
	C159.155090,149.433090 157.435440,148.814926 155.666855,148.409485 
	C148.952759,146.870270 145.639465,144.786194 141.725082,139.549286 
	C141.552750,139.318710 141.139496,139.268219 140.496155,139.077927 
	C142.072144,135.259949 143.990417,131.497879 145.972717,127.370239 
	C147.016968,127.944588 148.673431,128.764587 148.864899,129.844360 
	C149.911362,135.746033 153.350479,137.146866 159.838486,135.465134 
	C166.198929,133.816422 172.405762,131.571457 178.772934,129.953964 
	C181.730698,129.202576 184.915268,129.034866 187.985123,129.107254 
	C192.433792,129.212158 196.293762,128.701218 199.782516,125.290100 
	C202.899078,122.242889 204.744003,127.332756 207.770905,127.741379 
z"/>
<path fill="#F8CD68" opacity="1.000000" stroke="none" 
	d="
M157.651398,103.079483 
	C156.869446,105.603630 155.743835,108.215141 154.260468,110.881165 
	C153.839264,107.820786 154.002716,104.805351 157.651398,103.079483 
z"/>
<path fill="#F8CD68" opacity="1.000000" stroke="none" 
	d="
M153.614594,110.958984 
	C153.531906,111.563499 153.132950,112.218971 152.430634,112.938889 
	C152.517609,112.338875 152.907959,111.674408 153.614594,110.958984 
z"/>
<path fill="#B96734" opacity="1.000000" stroke="none" 
	d="
M291.897217,132.702789 
	C280.728882,133.030533 269.448822,133.010300 258.170441,132.860764 
	C256.279114,132.835709 254.395172,132.250565 252.480804,131.580353 
	C264.235107,131.169205 276.016510,131.060745 287.797546,131.091812 
	C289.128113,131.095306 290.456573,131.885834 291.897217,132.702789 
z"/>
<path fill="#F0A63B" opacity="1.000000" stroke="none" 
	d="
M136.253265,326.955505 
	C136.396011,326.351227 136.868973,325.709686 137.658997,325.018982 
	C137.511856,325.619293 137.047653,326.268768 136.253265,326.955505 
z"/>
<path fill="#F5B84D" opacity="1.000000" stroke="none" 
	d="
M213.434952,230.869705 
	C212.090591,229.950882 211.044800,228.855576 209.487747,227.224823 
	C205.892197,230.286972 202.161499,233.704605 198.165024,236.776520 
	C195.815735,238.582291 193.102402,239.952087 190.448883,241.315765 
	C186.357101,243.418549 182.222855,245.454910 178.008118,247.293671 
	C176.495667,247.953506 174.697968,247.959518 173.030472,248.263931 
	C172.894638,246.717422 172.748520,245.171753 172.625305,243.624237 
	C172.418106,241.021820 172.225433,238.418243 172.085953,235.058868 
	C173.377777,231.071976 174.610306,227.841385 175.842834,224.610794 
	C175.828751,224.248474 175.814651,223.886139 175.867615,223.259247 
	C180.513382,223.369080 182.117783,221.091415 182.057327,216.711365 
	C181.981720,211.232651 187.145050,204.005524 191.562546,203.413818 
	C191.171722,205.392288 190.806152,207.242935 190.662125,207.972046 
	C193.458008,209.105804 195.854828,210.767258 198.335236,210.903168 
	C201.217224,211.061111 204.656769,210.619263 206.974823,209.097778 
	C209.949036,207.145615 211.902374,206.464874 214.774063,209.031616 
	C217.021561,211.040466 218.632385,209.572739 220.409592,207.426880 
	C223.712402,203.438965 227.448532,199.774307 231.266815,196.260330 
	C234.260788,193.504929 237.828552,192.761765 241.975677,195.093155 
	C239.951614,198.943909 237.851807,203.003220 235.049301,206.499161 
	C229.688858,213.185913 223.951309,219.571945 218.318436,226.037613 
	C216.890366,227.676819 215.267090,229.145950 213.434952,230.869705 
z"/>
<path fill="#F4BA53" opacity="1.000000" stroke="none" 
	d="
M175.500488,224.727295 
	C174.610306,227.841385 173.377777,231.071976 172.072296,234.650070 
	C171.558563,234.998276 171.117798,234.998993 170.346588,235.001114 
	C171.730133,231.616272 173.444138,228.230042 175.500488,224.727295 
z"/>
<path fill="#F4BA53" opacity="1.000000" stroke="none" 
	d="
M147.487640,290.923523 
	C147.473251,292.172852 147.101257,293.497070 146.376022,294.909180 
	C146.391861,293.664185 146.760941,292.331299 147.487640,290.923523 
z"/>
<path fill="#F5BF57" opacity="1.000000" stroke="none" 
	d="
M211.824677,121.108490 
	C211.440765,122.516518 210.710358,123.955734 209.794617,125.697647 
	C206.334503,122.881439 210.151337,122.489250 211.824677,121.108490 
z"/>
<path fill="#F8CD68" opacity="1.000000" stroke="none" 
	d="
M213.715912,115.046738 
	C213.995483,115.436424 213.991577,115.872551 213.975739,116.634850 
	C213.481659,116.648842 212.999496,116.336655 212.517334,116.024467 
	C212.822357,115.714035 213.127380,115.403603 213.715912,115.046738 
z"/>
<path fill="#F4BA53" opacity="1.000000" stroke="none" 
	d="
M261.496918,171.253204 
	C263.526215,168.884140 265.948700,166.493011 268.727295,164.066391 
	C267.987061,167.731155 266.724060,171.264893 261.496918,171.253204 
z"/>
<path fill="#A75930" opacity="1.000000" stroke="none" 
	d="
M252.250854,186.901917 
	C252.989746,185.582703 254.072388,184.223373 255.528076,182.799072 
	C254.798965,184.110001 253.696793,185.485901 252.250854,186.901917 
z"/>
<path fill="#F4BA53" opacity="1.000000" stroke="none" 
	d="
M271.273987,161.854248 
	C271.447388,161.005280 271.908112,160.016708 272.721069,159.028687 
	C272.569305,159.924362 272.065338,160.819504 271.273987,161.854248 
z"/>
<path fill="#A75930" opacity="1.000000" stroke="none" 
	d="
M250.275146,188.925568 
	C250.394669,188.303482 250.838562,187.636810 251.612701,186.940201 
	C251.495148,187.567169 251.047318,188.224075 250.275146,188.925568 
z"/>
</svg>