<svg version="1.1" id="Layer_1" xmlns="http://www.w3.org/2000/svg" xmlns:xlink="http://www.w3.org/1999/xlink" x="0px" y="0px"
	 width="100%" viewBox="0 0 424 388" enable-background="new 0 0 424 388" xml:space="preserve">
<path fill="#FFFFFF" opacity="1.000000" stroke="none" 
	d="M179.838577,300.226746 
	C179.838577,300.226746 179.769623,300.174591 179.766754,300.895020 
	C181.186401,302.912994 182.606033,304.930939 184.660233,307.276611 
	C187.498825,310.963379 190.337418,314.650177 193.562317,318.838684 
	C200.151382,319.433624 202.714798,317.790588 205.115189,311.023041 
	C205.478867,309.997711 206.294922,308.563629 207.140579,308.371857 
	C212.224884,307.218750 213.455383,302.253937 216.605896,299.226593 
	C220.796661,295.199738 224.966827,291.151367 229.744888,286.792297 
	C231.652252,285.301544 233.823441,284.049591 235.424088,282.281189 
	C245.612488,271.025055 255.408539,259.414734 267.063690,249.553253 
	C269.844330,247.200516 271.865143,243.949707 274.949371,241.033386 
	C277.472046,238.707611 280.091522,236.477112 282.494965,234.034042 
	C286.212341,230.255341 290.064484,226.553680 293.330719,222.403259 
	C296.281189,218.654037 301.474518,216.594986 302.881744,211.052368 
	C304.006683,210.521881 305.456177,210.271271 306.198364,209.410660 
	C308.885284,206.294952 311.047272,202.688477 313.931763,199.788879 
	C320.546417,193.139603 327.504761,186.833588 334.251648,180.313751 
	C337.185425,177.478699 340.079834,174.578583 342.734039,171.486465 
	C344.710449,169.183945 346.271881,166.525177 348.654846,163.686295 
	C350.809204,161.745895 353.044128,159.886078 355.092072,157.839203 
	C356.686829,156.245300 357.921295,154.286057 359.542633,152.724594 
	C362.363312,150.008041 365.635559,147.968430 365.253021,143.010544 
	C364.942902,138.990997 366.180328,134.871216 366.521973,130.778442 
	C367.379761,120.502922 368.118958,110.217522 368.983673,99.312981 
	C368.654205,98.870407 368.324738,98.427841 367.733032,97.321274 
	C365.648041,95.543243 363.787598,93.332283 361.417938,92.103149 
	C358.800690,90.745613 355.632416,90.500908 352.851379,89.399612 
	C343.492157,85.693275 334.210052,81.792374 324.859680,78.063103 
	C324.020813,77.728508 322.902161,78.095413 321.263916,77.725914 
	C316.091858,76.149666 310.905457,74.618622 305.751190,72.986221 
	C298.631378,70.731339 296.786957,71.235092 291.128845,77.040924 
	C289.791962,77.838928 288.231873,78.410423 287.154633,79.471924 
	C280.471344,86.057579 273.821320,92.680679 267.305054,99.431152 
	C259.533997,107.481544 251.908432,115.672379 244.022797,124.536339 
	C240.500519,127.661446 236.912155,130.715744 233.470840,133.927612 
	C227.727341,139.288177 221.933868,144.608841 216.448151,150.226303 
	C213.596725,153.146194 211.358826,156.665222 208.250076,160.211151 
	C204.881699,163.807800 201.513306,167.404449 197.862061,171.632584 
	C195.914612,173.477692 193.967148,175.322800 191.328476,176.985641 
	C189.538116,175.975037 187.747742,174.964417 185.864487,173.269699 
	C181.917267,169.502563 177.970047,165.735443 173.818619,161.319214 
	C170.570663,158.184769 167.322723,155.050308 163.796600,151.291367 
	C161.886108,149.488861 159.975632,147.686356 158.042725,145.954697 
	C158.042725,145.954697 158.113297,145.931442 157.813858,145.307251 
	C153.874344,141.588852 149.934814,137.870438 145.375870,133.867294 
	C141.211517,129.272400 137.047180,124.677505 132.923416,119.369049 
	C127.332016,114.661530 121.740608,109.954018 115.379608,105.014008 
	C113.920815,105.293243 112.462013,105.572479 110.240570,105.959854 
	C102.195770,111.275299 94.150963,116.590752 85.401474,121.966682 
	C84.241013,123.000259 83.080551,124.033836 81.161339,125.132210 
	C79.356590,125.656647 77.204117,125.723534 75.807442,126.784943 
	C69.848808,131.313202 64.113548,136.135406 57.931923,141.550003 
	C53.611164,144.003174 57.300671,146.510284 58.001068,149.822678 
	C58.678810,152.484924 59.479340,155.122894 60.010983,157.814011 
	C61.529137,165.498657 62.759064,173.176498 65.781921,180.561172 
	C69.760742,190.281189 77.969414,196.053787 85.263893,203.638428 
	C86.302361,205.102951 87.182121,206.718231 88.406082,208.006516 
	C94.496162,214.416595 100.676804,220.740616 107.136139,227.574646 
	C107.699631,228.082489 108.263123,228.590332 109.109795,229.712891 
	C113.227676,233.715042 117.502258,237.570984 121.414902,241.764633 
	C124.668465,245.251877 127.283180,249.340332 130.577942,252.782410 
	C133.421112,255.752731 137.030136,257.982452 139.933823,260.904083 
	C145.183487,266.186096 150.108032,271.789459 155.263916,277.166992 
	C160.916107,283.062103 166.647079,288.882904 172.417603,294.662292 
	C173.408722,295.654907 174.768829,296.279083 175.993988,297.010040 
	C175.993988,297.010040 175.932358,297.048553 176.256561,297.642334 
	C177.421936,298.507172 178.587326,299.371979 179.838577,300.226746 
z"/>
<path fill="#92C67B" opacity="1.000000" stroke="none" 
	d="
M192.019684,177.167892 
	C193.967148,175.322800 195.914612,173.477692 198.314362,171.382629 
	C204.778320,173.107605 197.816757,175.334091 198.330841,176.292953 
	C203.181915,183.343231 209.241562,185.907791 216.304977,186.829834 
	C221.339493,187.487015 226.303299,188.689835 231.339188,189.330582 
	C233.149933,189.560959 235.450653,189.423386 236.883774,188.477768 
	C240.981796,185.773773 245.292770,185.341782 249.750031,186.586166 
	C253.264053,187.567200 254.163803,191.088531 251.213516,192.935654 
	C243.899658,197.514771 239.023254,206.666840 228.321259,205.179733 
	C225.829666,204.833496 224.983047,206.357529 226.438309,209.092133 
	C227.534790,211.152481 227.647156,213.803635 227.908249,216.223022 
	C228.180511,218.745667 228.105988,221.305725 228.183075,223.849426 
	C230.256409,223.274658 232.329727,222.699875 234.345215,222.495911 
	C231.397522,226.260925 228.778732,229.939697 225.568588,232.997665 
	C214.515228,243.527054 203.255203,253.839493 191.655640,264.267395 
	C189.306473,263.686554 186.892258,263.609009 185.522049,262.373596 
	C175.521225,253.356415 165.810349,244.018082 155.830597,234.976898 
	C152.196136,231.684250 148.078934,228.924484 144.158936,225.544601 
	C142.790894,224.066025 141.445862,222.964432 140.070602,221.898468 
	C140.040375,221.934082 140.130295,221.908707 140.061401,221.598236 
	C139.327484,220.888550 138.662460,220.489349 137.765869,219.880829 
	C137.150757,219.184494 136.767197,218.697510 136.222595,217.980957 
	C135.415588,217.404495 134.769638,217.057571 134.091766,216.529266 
	C134.059860,216.347855 133.885590,216.023300 133.862396,215.686005 
	C133.595184,214.927505 133.437164,214.412476 133.094742,214.098648 
	C121.281448,203.270981 109.450706,192.462326 97.365265,181.412384 
	C94.794449,178.450073 92.480827,175.726364 90.542709,173.008667 
	C91.897560,173.182007 93.091469,173.046234 93.822777,173.563965 
	C100.478607,178.275757 109.144951,180.527817 112.789551,188.981308 
	C113.157318,189.834305 114.124290,190.434937 114.830605,191.135117 
	C123.668358,199.896133 134.969376,197.704193 145.707733,198.193375 
	C147.707352,198.284470 149.707458,199.243103 151.625519,200.006821 
	C153.665543,200.819122 155.581253,202.604889 157.598923,202.679733 
	C162.384857,202.857208 167.198975,202.274033 172.376465,201.998657 
	C173.500809,201.999146 174.250412,201.999268 175.198700,202.144241 
	C175.931396,201.859604 176.465393,201.430115 177.146606,200.696564 
	C177.863586,198.929626 178.433350,197.466721 179.213470,195.732315 
	C181.617523,192.308075 183.811203,189.155350 186.131775,185.682007 
	C187.527054,183.580963 188.795456,181.800507 190.361450,179.916412 
	C191.112595,178.931137 191.566147,178.049515 192.019684,177.167892 
M187.702408,202.011932 
	C186.625000,202.699081 185.547577,203.386230 184.470169,204.073380 
	C185.482803,204.810608 186.534531,206.202393 187.499695,206.144730 
	C189.339249,206.034866 191.129410,205.097824 192.940079,204.504211 
	C192.818680,203.889053 192.697266,203.273895 192.575851,202.658737 
	C191.215485,202.441025 189.855103,202.223312 187.702408,202.011932 
z"/>
<path fill="#245F63" opacity="1.000000" stroke="none" 
	d="
M192.073929,264.234589 
	C203.255203,253.839493 214.515228,243.527054 225.568588,232.997665 
	C228.778732,229.939697 231.397522,226.260925 234.624420,222.338867 
	C240.294800,216.464523 245.628174,211.118042 251.312012,205.758133 
	C253.796448,204.503754 255.930389,203.262817 258.436523,202.009842 
	C259.921234,200.714752 261.033752,199.431717 262.415894,198.029419 
	C263.174530,197.323151 263.663544,196.736145 264.516174,196.111542 
	C266.537140,194.565842 268.194519,193.057755 269.862915,191.260391 
	C270.442688,190.571365 271.011383,190.171600 271.893433,189.883270 
	C273.525848,193.142319 270.469513,198.584366 266.602570,201.650162 
	C264.164459,203.583145 262.284119,206.398666 260.703156,209.135742 
	C260.156433,210.082291 261.319244,213.271744 261.613617,213.259888 
	C265.880188,213.088242 271.249481,213.990311 274.130432,211.760895 
	C278.682404,208.238419 282.682098,207.513931 287.338593,209.738831 
	C290.924622,211.452271 294.010284,213.786133 297.897430,210.288620 
	C298.542877,209.707886 300.661774,210.764740 302.099762,211.064850 
	C301.474518,216.594986 296.281189,218.654037 293.330719,222.403259 
	C290.064484,226.553680 286.212341,230.255341 282.494965,234.034042 
	C280.091522,236.477112 277.472046,238.707611 274.276794,240.969543 
	C271.725098,238.058350 269.393951,238.888748 267.454224,240.531708 
	C263.676270,243.731628 260.129913,247.204987 256.518677,250.536469 
	C256.059052,249.817230 255.303345,248.634750 255.079208,248.284012 
	C247.782974,251.068054 240.886551,253.539673 234.156311,256.401978 
	C232.803589,256.977295 231.421967,258.930664 231.180313,260.430206 
	C229.919693,268.252808 229.022827,276.134003 227.629517,284.002686 
	C224.212311,286.565277 220.499069,288.656158 218.305389,291.805542 
	C216.122238,294.939758 214.665268,296.019043 210.813629,294.656006 
	C203.243149,291.976959 196.403931,295.813110 193.545044,303.499542 
	C193.091751,304.718262 192.022247,305.707825 190.814148,307.394623 
	C188.730347,304.872955 187.401367,302.787750 185.609360,301.237946 
	C184.000015,299.846039 181.881897,299.042389 179.894196,297.699951 
	C178.510910,297.296600 177.221634,297.172577 175.932358,297.048553 
	C175.932358,297.048553 175.993988,297.010040 175.965637,296.663330 
	C175.813538,295.670502 175.895050,294.863770 175.534470,294.402985 
	C171.755646,289.574249 167.861954,284.835022 164.107803,279.987579 
	C163.198715,278.813721 162.685486,277.333252 162.289627,275.812622 
	C166.751129,272.505463 171.493286,272.668030 174.435394,276.228668 
	C178.425415,281.057587 182.227051,286.042542 186.237320,290.854004 
	C186.972290,291.735809 188.469910,292.753296 189.339127,292.546509 
	C190.312256,292.314972 191.709930,290.713715 191.649475,289.791992 
	C191.172546,282.520508 195.421417,274.197479 187.971100,269.456329 
	C189.469940,267.548737 190.771927,265.891663 192.073929,264.234589 
z"/>
<path fill="#8CC176" opacity="1.000000" stroke="none" 
	d="
M81.920090,125.067413 
	C83.080551,124.033836 84.241013,123.000259 86.046890,121.955597 
	C88.093262,121.779488 89.729385,122.024559 90.854828,121.379135 
	C95.985245,118.436859 100.972160,115.244347 106.164322,112.458282 
	C112.143616,114.506828 114.667709,119.677826 118.093056,124.289474 
	C118.783699,125.051445 119.389709,125.522163 119.997711,125.996445 
	C119.999695,126.000000 120.007019,126.003502 120.074783,126.334610 
	C121.427147,127.775612 122.711746,128.885513 123.998016,129.997818 
	C123.999695,130.000229 124.004814,130.003510 124.108009,130.336243 
	C126.807899,134.446762 129.404587,138.224564 132.087982,142.293121 
	C132.781342,143.056122 133.387985,143.528351 133.997314,144.000305 
	C134.000000,144.000000 133.998779,144.005493 134.020905,144.370544 
	C135.362427,147.823120 136.681824,150.910645 137.651428,153.921494 
	C132.444275,152.594666 127.567802,151.413712 122.733589,150.079666 
	C113.295502,147.475128 102.805336,153.605927 101.062561,163.110428 
	C100.375084,166.859711 97.870552,168.365265 95.134468,167.191193 
	C91.204498,165.504791 88.581879,166.686508 85.500061,168.998932 
	C81.021439,165.067474 76.957527,161.117310 72.729713,157.351166 
	C68.292313,153.398331 63.697796,149.621872 58.676453,145.346466 
	C58.281437,147.160797 58.081608,148.078629 57.881779,148.996460 
	C57.300671,146.510284 53.611164,144.003174 58.420311,141.213974 
	C59.945641,140.693832 61.169941,140.802612 61.989342,140.278442 
	C67.616508,136.678741 73.223854,133.038696 78.683037,129.192307 
	C80.051498,128.228149 80.856262,126.463943 81.920090,125.067413 
z"/>
<path fill="#A0C477" opacity="1.000000" stroke="none" 
	d="
M208.843796,159.913605 
	C211.358826,156.665222 213.596725,153.146194 216.448151,150.226303 
	C221.933868,144.608841 227.727341,139.288177 233.470840,133.927612 
	C236.912155,130.715744 240.500519,127.661446 244.448425,124.117157 
	C246.446091,123.073029 248.018112,122.448082 249.887329,121.920326 
	C249.999954,122.966415 250.153122,124.316124 249.577606,124.801025 
	C244.819458,128.810104 244.729782,134.356384 250.340836,136.943588 
	C260.045837,141.418518 269.960175,145.727432 280.202972,148.644257 
	C286.751892,150.509201 291.827240,152.956558 294.943359,159.864685 
	C304.319733,154.004517 311.272919,146.128876 318.313293,137.900665 
	C320.285065,137.192978 321.936188,136.581589 323.680115,136.286011 
	C323.774902,137.039398 323.776917,137.476974 323.520874,138.016983 
	C322.807159,138.678818 322.351471,139.238235 321.610382,139.907425 
	C320.866211,140.632141 320.407440,141.247086 319.611511,141.894302 
	C318.794861,142.597717 318.315399,143.268860 317.513733,143.989380 
	C316.102234,145.292191 315.012909,146.545609 313.584473,147.833984 
	C312.775909,148.546875 312.306458,149.224838 311.873505,149.906097 
	C311.909973,149.909378 311.899536,149.836884 311.567810,149.892059 
	C310.737732,150.600479 310.239410,151.253693 309.449280,151.938538 
	C308.736511,152.551331 308.315613,153.132507 307.552155,153.757751 
	C306.746826,154.498108 306.284058,155.194397 305.861298,155.894363 
	C305.901306,155.898026 305.863922,155.826859 305.536011,155.882065 
	C304.722382,156.591415 304.236664,157.245560 303.457947,157.934631 
	C302.743073,158.556290 302.321167,159.143036 301.557983,159.772705 
	C300.750488,160.507660 300.284271,161.199707 299.855438,161.892273 
	C299.892822,161.892792 299.887421,161.818207 299.553772,161.871399 
	C298.725128,162.585892 298.230194,163.247192 297.444519,163.938690 
	C296.734863,164.547318 296.315948,165.125717 295.555908,165.700897 
	C294.769501,165.782211 294.324280,165.866760 293.517334,165.960175 
	C290.122711,167.990631 287.089783,170.012207 283.757446,172.109406 
	C282.975128,172.794189 282.492279,173.403351 282.004700,174.006256 
	C282.000000,174.000000 282.012573,174.009415 281.719238,174.094498 
	C280.958435,174.792953 280.490997,175.406326 280.016357,176.014923 
	C280.009094,176.010162 280.021088,176.028717 279.638428,176.027832 
	C276.757782,175.668808 273.074677,176.220596 271.975281,174.788681 
	C268.059570,169.688538 262.846680,169.224609 257.290955,168.995010 
	C249.493973,168.672821 241.691376,168.427155 233.904358,167.938583 
	C225.169418,167.390549 220.975327,163.181030 219.876495,154.331924 
	C219.808960,153.788086 219.307541,153.298126 218.796158,152.418869 
	C217.084869,154.043579 215.764954,155.550583 214.193436,156.719177 
	C212.535309,157.952194 210.637100,158.862381 208.843796,159.913605 
z"/>
<path fill="#9AC67C" opacity="1.000000" stroke="none" 
	d="
M208.546936,160.062378 
	C210.637100,158.862381 212.535309,157.952194 214.193436,156.719177 
	C215.764954,155.550583 217.084869,154.043579 218.796158,152.418869 
	C219.307541,153.298126 219.808960,153.788086 219.876495,154.331924 
	C220.975327,163.181030 225.169418,167.390549 233.904358,167.938583 
	C241.691376,168.427155 249.493973,168.672821 257.290955,168.995010 
	C262.846680,169.224609 268.059570,169.688538 271.975281,174.788681 
	C273.074677,176.220596 276.757782,175.668808 279.538452,176.343384 
	C275.225220,181.115829 270.562225,185.506195 266.085266,190.078690 
	C265.094574,191.090515 264.761414,192.746155 264.110718,194.085205 
	C264.095947,194.065048 264.122345,194.080399 263.808411,194.147690 
	C263.032867,194.862671 262.571198,195.510376 262.092590,196.110474 
	C262.075653,196.062897 262.155579,196.124695 261.761658,196.098907 
	C260.259552,197.399765 259.151337,198.726410 258.030731,200.045837 
	C258.018311,200.038605 258.052917,200.044922 257.681213,200.042114 
	C255.193512,201.950073 253.077530,203.860825 250.961548,205.771576 
	C245.628174,211.118042 240.294800,216.464523 234.682251,221.968048 
	C232.329727,222.699875 230.256409,223.274658 228.183075,223.849426 
	C228.105988,221.305725 228.180511,218.745667 227.908249,216.223022 
	C227.647156,213.803635 227.534790,211.152481 226.438309,209.092133 
	C224.983047,206.357529 225.829666,204.833496 228.321259,205.179733 
	C239.023254,206.666840 243.899658,197.514771 251.213516,192.935654 
	C254.163803,191.088531 253.264053,187.567200 249.750031,186.586166 
	C245.292770,185.341782 240.981796,185.773773 236.883774,188.477768 
	C235.450653,189.423386 233.149933,189.560959 231.339188,189.330582 
	C226.303299,188.689835 221.339493,187.487015 216.304977,186.829834 
	C209.241562,185.907791 203.181915,183.343231 198.330841,176.292953 
	C197.816757,175.334091 204.778320,173.107605 198.455795,171.066879 
	C201.513306,167.404449 204.881699,163.807800 208.546936,160.062378 
M233.203094,214.225861 
	C232.921768,213.947372 232.640457,213.668884 232.359131,213.390396 
	C232.169571,213.604889 231.980011,213.819366 231.790451,214.033844 
	C232.161530,214.202499 232.532593,214.371155 233.203094,214.225861 
z"/>
<path fill="#276764" opacity="1.000000" stroke="none" 
	d="
M301.899261,159.729782 
	C302.321167,159.143036 302.743073,158.556290 303.832092,157.959885 
	C304.997559,157.965012 305.495880,157.979797 305.996826,157.997086 
	C305.999451,157.999603 306.005280,158.005280 305.937744,158.353363 
	C302.114319,164.160233 298.252380,169.550018 294.640381,175.102417 
	C292.285980,178.721634 293.215790,181.734573 297.389557,182.718262 
	C303.318909,184.115723 309.406342,184.932571 315.470184,185.594299 
	C316.700836,185.728607 318.768250,184.385986 319.354675,183.188049 
	C322.281921,177.208374 324.820679,171.039398 327.560333,164.965988 
	C327.958557,164.083221 328.556213,163.164246 329.310516,162.587860 
	C336.605042,157.014145 344.949585,154.085724 353.959167,153.356888 
	C351.953125,157.154449 349.985626,160.589767 348.018127,164.025085 
	C346.271881,166.525177 344.710449,169.183945 342.734039,171.486465 
	C340.079834,174.578583 337.185425,177.478699 334.251648,180.313751 
	C327.504761,186.833588 320.546417,193.139603 313.931763,199.788879 
	C311.047272,202.688477 308.885284,206.294952 306.198364,209.410660 
	C305.456177,210.271271 304.006683,210.521881 302.490753,211.058609 
	C300.661774,210.764740 298.542877,209.707886 297.897430,210.288620 
	C294.010284,213.786133 290.924622,211.452271 287.338593,209.738831 
	C282.682098,207.513931 278.682404,208.238419 274.130432,211.760895 
	C271.249481,213.990311 265.880188,213.088242 261.613617,213.259888 
	C261.319244,213.271744 260.156433,210.082291 260.703156,209.135742 
	C262.284119,206.398666 264.164459,203.583145 266.602570,201.650162 
	C270.469513,198.584366 273.525848,193.142319 272.021576,189.566101 
	C278.489166,182.733505 285.141998,176.329498 292.114624,169.860199 
	C292.929535,169.152039 293.424561,168.509186 293.924377,167.902283 
	C293.929169,167.938217 293.858582,167.921494 294.181580,167.842194 
	C294.968750,167.076645 295.432892,166.390381 295.897034,165.704132 
	C296.315948,165.125717 296.734863,164.547318 297.772888,163.878052 
	C298.890472,163.130875 299.388947,162.474548 299.887421,161.818207 
	C299.887421,161.818207 299.892822,161.892792 300.182678,161.824753 
	C300.948090,161.081070 301.423676,160.405426 301.899261,159.729782 
z"/>
<path fill="#C6D56B" opacity="1.000000" stroke="none" 
	d="
M291.869232,77.011383 
	C296.786957,71.235092 298.631378,70.731339 305.751190,72.986221 
	C310.905457,74.618622 316.091858,76.149666 321.683319,78.270966 
	C322.732483,79.306610 323.290131,79.983330 324.002960,80.259438 
	C332.515228,83.556496 341.097778,86.677101 349.560059,90.096054 
	C353.840912,91.825623 357.915192,94.066368 361.972595,96.403381 
	C361.222107,98.426689 360.581909,100.122612 359.952759,101.902084 
	C359.963776,101.985641 360.055908,102.126778 359.734192,102.203651 
	C357.637207,103.531937 355.861908,104.783348 353.713928,106.034073 
	C349.154022,107.869522 345.699585,109.224625 340.483673,106.714355 
	C326.700623,100.080925 312.279297,94.761093 298.045166,89.086113 
	C294.381378,87.625404 292.465637,85.145844 291.768066,81.063980 
	C291.767151,79.467995 291.818176,78.239693 291.869232,77.011383 
z"/>
<path fill="#2D6A61" opacity="1.000000" stroke="none" 
	d="
M57.941422,149.409576 
	C58.081608,148.078629 58.281437,147.160797 58.676453,145.346466 
	C63.697796,149.621872 68.292313,153.398331 72.729713,157.351166 
	C76.957527,161.117310 81.021439,165.067474 85.694687,169.266296 
	C87.543724,170.731445 88.855469,171.867050 90.167213,173.002640 
	C92.480827,175.726364 94.794449,178.450073 97.065750,181.607773 
	C95.915520,182.165451 94.514336,182.780228 93.752113,182.325043 
	C90.946442,180.649567 87.969475,178.979813 85.767685,176.639297 
	C82.360107,173.017014 79.485344,174.648010 76.792267,176.987030 
	C73.894005,179.504257 72.796196,182.882797 75.264069,186.283310 
	C78.672264,190.979492 82.405418,195.439850 85.981186,200.335938 
	C85.614296,201.464890 85.265625,202.259140 84.916962,203.053391 
	C77.969414,196.053787 69.760742,190.281189 65.781921,180.561172 
	C62.759064,173.176498 61.529137,165.498657 60.010983,157.814011 
	C59.479340,155.122894 58.678810,152.484924 57.941422,149.409576 
z"/>
<path fill="#245B5F" opacity="1.000000" stroke="none" 
	d="
M227.999390,283.994812 
	C229.022827,276.134003 229.919693,268.252808 231.180313,260.430206 
	C231.421967,258.930664 232.803589,256.977295 234.156311,256.401978 
	C240.886551,253.539673 247.782974,251.068054 255.079208,248.284012 
	C255.303345,248.634750 256.059052,249.817230 256.518677,250.536469 
	C260.129913,247.204987 263.676270,243.731628 267.454224,240.531708 
	C269.393951,238.888748 271.725098,238.058350 273.919861,241.008850 
	C271.865143,243.949707 269.844330,247.200516 267.063690,249.553253 
	C255.408539,259.414734 245.612488,271.025055 235.424088,282.281189 
	C233.823441,284.049591 231.652252,285.301544 229.216400,286.697632 
	C228.458405,285.733582 228.228897,284.864197 227.999390,283.994812 
M251.100189,254.677505 
	C250.514465,255.287399 249.928741,255.897293 249.343033,256.507202 
	C249.807037,256.818085 250.271042,257.128998 250.735046,257.439880 
	C250.999161,256.669006 251.263275,255.898117 251.100189,254.677505 
z"/>
<path fill="#2D6164" opacity="1.000000" stroke="none" 
	d="
M85.090424,203.345917 
	C85.265625,202.259140 85.614296,201.464890 86.299759,200.434753 
	C91.093452,204.781738 95.491356,209.424713 100.052666,213.901184 
	C101.072632,214.902161 102.665733,215.319107 104.083542,216.295471 
	C104.780632,217.058014 105.389137,217.530014 105.998825,218.001007 
	C106.000000,218.000000 105.997559,218.002457 106.006828,218.379425 
	C106.493500,219.953262 106.661934,221.457748 107.498016,222.297501 
	C113.283165,228.107803 119.183121,233.804886 125.093964,239.488678 
	C130.537292,244.722885 136.053513,249.881241 141.510406,255.101456 
	C143.605865,257.106049 145.650299,259.165619 147.675644,261.241425 
	C152.460678,266.145721 157.220322,271.074738 161.990234,275.993774 
	C162.685486,277.333252 163.198715,278.813721 164.107803,279.987579 
	C167.861954,284.835022 171.755646,289.574249 175.534470,294.402985 
	C175.895050,294.863770 175.813538,295.670502 175.947876,296.695038 
	C174.768829,296.279083 173.408722,295.654907 172.417603,294.662292 
	C166.647079,288.882904 160.916107,283.062103 155.263916,277.166992 
	C150.108032,271.789459 145.183487,266.186096 139.933823,260.904083 
	C137.030136,257.982452 133.421112,255.752731 130.577942,252.782410 
	C127.283180,249.340332 124.668465,245.251877 121.414902,241.764633 
	C117.502258,237.570984 113.227676,233.715042 109.170799,229.191162 
	C110.101456,225.589828 108.333054,226.541748 106.825577,227.094925 
	C100.676804,220.740616 94.496162,214.416595 88.406082,208.006516 
	C87.182121,206.718231 86.302361,205.102951 85.090424,203.345917 
z"/>
<path fill="#1F565C" opacity="1.000000" stroke="none" 
	d="
M227.629517,284.002686 
	C228.228897,284.864197 228.458405,285.733582 228.916870,286.857605 
	C224.966827,291.151367 220.796661,295.199738 216.605896,299.226593 
	C213.455383,302.253937 212.224884,307.218750 207.140579,308.371857 
	C206.294922,308.563629 205.478867,309.997711 205.115189,311.023041 
	C202.714798,317.790588 200.151382,319.433624 193.562317,318.838684 
	C190.337418,314.650177 187.498825,310.963379 184.352173,306.723419 
	C184.153900,303.077606 183.081100,300.828094 179.769623,300.174591 
	C179.769623,300.174591 179.838577,300.226746 179.862152,299.856262 
	C179.919876,298.983582 179.954025,298.481445 179.988190,297.979279 
	C181.881897,299.042389 184.000015,299.846039 185.609360,301.237946 
	C187.401367,302.787750 188.730347,304.872955 190.814148,307.394623 
	C192.022247,305.707825 193.091751,304.718262 193.545044,303.499542 
	C196.403931,295.813110 203.243149,291.976959 210.813629,294.656006 
	C214.665268,296.019043 216.122238,294.939758 218.305389,291.805542 
	C220.499069,288.656158 224.212311,286.565277 227.629517,284.002686 
z"/>
<path fill="#7EB275" opacity="1.000000" stroke="none" 
	d="
M118.008423,123.998222 
	C114.667709,119.677826 112.143616,114.506828 106.458252,112.286667 
	C108.066765,109.816284 109.534988,107.834000 111.003220,105.851715 
	C112.462013,105.572479 113.920815,105.293243 115.899002,105.426178 
	C121.161674,111.447411 125.576935,117.435600 132.882828,120.082619 
	C137.047180,124.677505 141.211517,129.272400 145.683655,134.410309 
	C146.358582,139.972229 152.946869,145.938873 158.113297,145.931442 
	C158.113297,145.931442 158.042725,145.954697 158.034973,146.356430 
	C158.016144,148.505859 158.005096,150.253571 157.655273,151.927475 
	C151.007370,146.532242 144.338547,141.572083 138.509262,135.768646 
	C134.274460,131.552612 129.951294,129.150803 124.004814,130.003510 
	C124.004814,130.003510 123.999695,130.000229 123.975204,129.633392 
	C122.636147,128.178879 121.321587,127.091187 120.007019,126.003502 
	C120.007019,126.003502 119.999695,126.000000 119.911926,125.706322 
	C119.218910,124.941170 118.613663,124.469696 118.008423,123.998222 
z"/>
<path fill="#2D6A61" opacity="1.000000" stroke="none" 
	d="
M348.336487,163.855682 
	C349.985626,160.589767 351.953125,157.154449 354.136414,153.072784 
	C355.901855,150.950821 357.451538,149.475204 359.225037,147.653381 
	C360.293488,139.533875 361.138153,131.760544 361.986053,123.522293 
	C361.504547,116.065742 363.669708,108.829353 360.055908,102.126778 
	C360.055908,102.126778 359.963776,101.985641 360.303406,101.794746 
	C363.397278,101.047928 366.151489,100.492004 368.905701,99.936081 
	C368.118958,110.217522 367.379761,120.502922 366.521973,130.778442 
	C366.180328,134.871216 364.942902,138.990997 365.253021,143.010544 
	C365.635559,147.968430 362.363312,150.008041 359.542633,152.724594 
	C357.921295,154.286057 356.686829,156.245300 355.092072,157.839203 
	C353.044128,159.886078 350.809204,161.745895 348.336487,163.855682 
z"/>
<path fill="#E3EED3" opacity="1.000000" stroke="none" 
	d="
M291.499023,77.026154 
	C291.818176,78.239693 291.767151,79.467995 291.413757,81.140961 
	C289.637451,82.990112 288.163544,84.394615 286.342834,85.845123 
	C280.608856,91.121727 275.221710,96.352310 269.469421,101.630890 
	C266.502533,104.262985 263.854156,106.802139 261.309784,109.441589 
	C257.365967,113.532837 253.493103,117.692482 249.590149,121.823135 
	C248.018112,122.448082 246.446091,123.073029 244.546951,123.750168 
	C251.908432,115.672379 259.533997,107.481544 267.305054,99.431152 
	C273.821320,92.680679 280.471344,86.057579 287.154633,79.471924 
	C288.231873,78.410423 289.791962,77.838928 291.499023,77.026154 
z"/>
<path fill="#87B684" opacity="1.000000" stroke="none" 
	d="
M191.674072,177.076767 
	C191.566147,178.049515 191.112595,178.931137 190.058090,179.983810 
	C188.349777,180.171860 186.895752,180.649414 186.197052,180.123520 
	C183.621979,178.185287 181.038391,176.139740 178.934235,173.720367 
	C175.089645,169.299820 171.584412,164.584137 167.823563,159.668976 
	C166.473175,158.896500 165.236862,158.446594 164.000275,157.998352 
	C164.000000,158.000000 164.003311,157.999298 164.002106,157.574677 
	C163.981400,155.452454 163.961899,153.754868 163.975525,152.021942 
	C164.008652,151.986633 164.074768,151.915863 164.074768,151.915863 
	C167.322723,155.050308 170.570663,158.184769 173.953018,162.008972 
	C178.044067,166.450439 182.000717,170.202118 185.957382,173.953796 
	C187.747742,174.964417 189.538116,175.975037 191.674072,177.076767 
z"/>
<path fill="#E3EED3" opacity="1.000000" stroke="none" 
	d="
M362.082886,96.075989 
	C357.915192,94.066368 353.840912,91.825623 349.560059,90.096054 
	C341.097778,86.677101 332.515228,83.556496 324.002960,80.259438 
	C323.290131,79.983330 322.732483,79.306610 322.008057,78.476273 
	C322.902161,78.095413 324.020813,77.728508 324.859680,78.063103 
	C334.210052,81.792374 343.492157,85.693275 352.851379,89.399612 
	C355.632416,90.500908 358.800690,90.745613 361.417938,92.103149 
	C363.787598,93.332283 365.648041,95.543243 367.539001,97.520287 
	C365.590912,97.171532 363.836914,96.623756 362.082886,96.075989 
z"/>
<path fill="#E3EED3" opacity="1.000000" stroke="none" 
	d="
M110.621887,105.905777 
	C109.534988,107.834000 108.066765,109.816284 106.304611,111.970184 
	C100.972160,115.244347 95.985245,118.436859 90.854828,121.379135 
	C89.729385,122.024559 88.093262,121.779488 86.399239,121.925354 
	C94.150963,116.590752 102.195770,111.275299 110.621887,105.905777 
z"/>
<path fill="#E3EED3" opacity="1.000000" stroke="none" 
	d="
M81.540710,125.099808 
	C80.856262,126.463943 80.051498,128.228149 78.683037,129.192307 
	C73.223854,133.038696 67.616508,136.678741 61.989342,140.278442 
	C61.169941,140.802612 59.945641,140.693832 58.602745,140.864151 
	C64.113548,136.135406 69.848808,131.313202 75.807442,126.784943 
	C77.204117,125.723534 79.356590,125.656647 81.540710,125.099808 
z"/>
<path fill="#E3EED3" opacity="1.000000" stroke="none" 
	d="
M132.903122,119.725830 
	C125.576935,117.435600 121.161674,111.447411 116.283806,105.542419 
	C121.740608,109.954018 127.332016,114.661530 132.903122,119.725830 
z"/>
<path fill="#87B684" opacity="1.000000" stroke="none" 
	d="
M157.963577,145.619354 
	C152.946869,145.938873 146.358582,139.972229 145.993378,134.552673 
	C149.934814,137.870438 153.874344,141.588852 157.963577,145.619354 
z"/>
<path fill="#E3EED3" opacity="1.000000" stroke="none" 
	d="
M185.910934,173.611755 
	C182.000717,170.202118 178.044067,166.450439 174.055115,162.333527 
	C177.970047,165.735443 181.917267,169.502563 185.910934,173.611755 
z"/>
<path fill="#87B684" opacity="1.000000" stroke="none" 
	d="
M361.972595,96.403374 
	C363.836914,96.623756 365.590912,97.171532 367.670105,97.852287 
	C368.324738,98.427841 368.654205,98.870407 368.944702,99.624527 
	C366.151489,100.492004 363.397278,101.047928 360.292419,101.711189 
	C360.581909,100.122612 361.222107,98.426689 361.972595,96.403374 
z"/>
<path fill="#87B684" opacity="1.000000" stroke="none" 
	d="
M157.994049,152.001266 
	C158.005096,150.253571 158.016144,148.505859 158.046173,146.321014 
	C159.975632,147.686356 161.886108,149.488861 163.935684,151.603607 
	C164.074768,151.915863 164.008652,151.986633 163.551620,152.009094 
	C161.396057,152.022980 159.697510,152.014389 157.999481,152.002991 
	C158.000000,152.000168 157.994034,152.001266 157.994049,152.001266 
z"/>
<path fill="#2D6164" opacity="1.000000" stroke="none" 
	d="
M179.768188,300.534790 
	C183.081100,300.828094 184.153900,303.077606 184.034897,306.559570 
	C182.606033,304.930939 181.186401,302.912994 179.768188,300.534790 
z"/>
<path fill="#2D6164" opacity="1.000000" stroke="none" 
	d="
M179.894180,297.699951 
	C179.954025,298.481445 179.919876,298.983582 179.819214,299.861267 
	C178.587326,299.371979 177.421936,298.507172 176.094452,297.345459 
	C177.221634,297.172577 178.510910,297.296600 179.894180,297.699951 
z"/>
<path fill="#2D6A61" opacity="1.000000" stroke="none" 
	d="
M106.980858,227.334778 
	C108.333054,226.541748 110.101456,225.589828 109.029205,228.883820 
	C108.263123,228.590332 107.699631,228.082489 106.980858,227.334778 
z"/>
<path fill="#91C477" opacity="1.000000" stroke="none" 
	d="
M90.542709,173.008667 
	C88.855469,171.867050 87.543724,170.731445 86.037354,169.328491 
	C88.581879,166.686508 91.204498,165.504791 95.134468,167.191193 
	C97.870552,168.365265 100.375084,166.859711 101.062561,163.110428 
	C102.805336,153.605927 113.295502,147.475128 122.733589,150.079666 
	C127.567802,151.413712 132.444275,152.594666 137.650818,153.922409 
	C138.000000,154.000000 138.001541,153.998779 138.022278,154.366531 
	C141.382309,159.344269 144.580383,164.066040 148.110138,168.525269 
	C150.497894,171.541809 153.352417,174.188889 155.999008,177.250549 
	C155.999847,177.499878 156.001221,177.998535 156.006073,178.377472 
	C156.592300,180.245026 156.889633,181.941910 157.802811,183.187180 
	C162.448090,189.521851 167.252808,195.739609 172.001709,201.998291 
	C167.198975,202.274033 162.384857,202.857208 157.598923,202.679733 
	C155.581253,202.604889 153.665543,200.819122 151.625519,200.006821 
	C149.707458,199.243103 147.707352,198.284470 145.707733,198.193375 
	C134.969376,197.704193 123.668358,199.896133 114.830605,191.135117 
	C114.124290,190.434937 113.157318,189.834305 112.789551,188.981308 
	C109.144951,180.527817 100.478607,178.275757 93.822777,173.563965 
	C93.091469,173.046234 91.897560,173.182007 90.542709,173.008667 
z"/>
<path fill="#2A6667" opacity="1.000000" stroke="none" 
	d="
M162.289627,275.812622 
	C157.220322,271.074738 152.460678,266.145721 147.675644,261.241425 
	C145.650299,259.165619 143.605865,257.106049 141.510406,255.101456 
	C136.053513,249.881241 130.537292,244.722885 125.093964,239.488678 
	C119.183121,233.804886 113.283165,228.107803 107.498016,222.297501 
	C106.661934,221.457748 106.493500,219.953262 106.432343,218.378342 
	C115.234436,216.686249 123.229256,218.176086 130.553879,221.849289 
	C131.874405,219.540146 132.879990,217.781723 133.885590,216.023300 
	C133.885590,216.023300 134.059860,216.347855 134.083160,216.870209 
	C134.865524,217.665222 135.624573,217.937881 136.383636,218.210526 
	C136.767197,218.697510 137.150757,219.184494 137.861008,220.169891 
	C138.835236,221.081772 139.482758,221.495239 140.130295,221.908707 
	C140.130295,221.908707 140.040375,221.934082 140.053345,222.297241 
	C139.923615,225.658890 141.806564,226.100983 144.181961,225.921600 
	C148.078934,228.924484 152.196136,231.684250 155.830597,234.976898 
	C165.810349,244.018082 175.521225,253.356415 185.522049,262.373596 
	C186.892258,263.609009 189.306473,263.686554 191.655640,264.267395 
	C190.771927,265.891663 189.469940,267.548737 187.971100,269.456329 
	C195.421417,274.197479 191.172546,282.520508 191.649475,289.791992 
	C191.709930,290.713715 190.312256,292.314972 189.339127,292.546509 
	C188.469910,292.753296 186.972290,291.735809 186.237320,290.854004 
	C182.227051,286.042542 178.425415,281.057587 174.435394,276.228668 
	C171.493286,272.668030 166.751129,272.505463 162.289627,275.812622 
z"/>
<path fill="#306E68" opacity="1.000000" stroke="none" 
	d="
M133.862396,215.686005 
	C132.879990,217.781723 131.874405,219.540146 130.553879,221.849289 
	C123.229256,218.176086 115.234436,216.686249 106.423073,218.001373 
	C105.997559,218.002457 106.000000,218.000000 105.911797,217.709518 
	C105.214050,216.947678 104.604515,216.476303 103.994972,216.004944 
	C102.665733,215.319107 101.072632,214.902161 100.052666,213.901184 
	C95.491356,209.424713 91.093452,204.781738 86.317970,200.100052 
	C82.405418,195.439850 78.672264,190.979492 75.264069,186.283310 
	C72.796196,182.882797 73.894005,179.504257 76.792267,176.987030 
	C79.485344,174.648010 82.360107,173.017014 85.767685,176.639297 
	C87.969475,178.979813 90.946442,180.649567 93.752113,182.325043 
	C94.514336,182.780228 95.915520,182.165451 97.322952,181.846344 
	C109.450706,192.462326 121.281448,203.270981 133.094742,214.098648 
	C133.437164,214.412476 133.595184,214.927505 133.862396,215.686005 
z"/>
<path fill="#85BE77" opacity="1.000000" stroke="none" 
	d="
M156.001221,177.998535 
	C156.001221,177.998535 155.999847,177.499878 155.977356,176.885590 
	C152.571655,171.235489 149.413254,166.026505 145.718643,161.230606 
	C143.595154,158.474182 140.602783,156.387146 138.001541,153.998779 
	C138.001541,153.998779 138.000000,154.000000 138.000610,153.999084 
	C136.681824,150.910645 135.362427,147.823120 134.339645,144.467896 
	C138.725372,147.229233 142.493652,150.892105 146.969299,153.157486 
	C156.767975,158.117142 164.860809,165.104111 172.280060,172.935913 
	C174.846680,175.645264 177.587448,178.991684 178.319046,182.454758 
	C179.500519,188.047363 181.737823,188.495941 186.004883,186.002625 
	C183.811203,189.155350 181.617523,192.308075 178.846909,195.801208 
	C176.013367,195.743637 172.988419,196.125946 171.643723,194.801849 
	C167.553162,190.774002 164.174881,186.031799 160.380661,181.688843 
	C159.139267,180.267914 157.473114,179.218079 156.001221,177.998535 
z"/>
<path fill="#80B876" opacity="1.000000" stroke="none" 
	d="
M186.131775,185.682007 
	C181.737823,188.495941 179.500519,188.047363 178.319046,182.454758 
	C177.587448,178.991684 174.846680,175.645264 172.280060,172.935913 
	C164.860809,165.104111 156.767975,158.117142 146.969299,153.157486 
	C142.493652,150.892105 138.725372,147.229233 134.317520,144.102844 
	C133.998779,144.005493 134.000000,144.000000 133.911346,143.709198 
	C133.215561,142.946381 132.608429,142.474380 132.001282,142.002365 
	C129.404587,138.224564 126.807899,134.446762 124.108009,130.336243 
	C129.951294,129.150803 134.274460,131.552612 138.509262,135.768646 
	C144.338547,141.572083 151.007370,146.532242 157.655273,151.927475 
	C157.994034,152.001266 158.000000,152.000168 158.099152,152.318604 
	C160.133301,154.424454 162.068314,156.211868 164.003311,157.999298 
	C164.003311,157.999298 164.000000,158.000000 164.124313,158.319000 
	C165.478302,159.089172 166.707977,159.540359 167.937653,159.991547 
	C171.584412,164.584137 175.089645,169.299820 178.934235,173.720367 
	C181.038391,176.139740 183.621979,178.185287 186.197052,180.123520 
	C186.895752,180.649414 188.349777,180.171860 189.760483,180.087463 
	C188.795456,181.800507 187.527054,183.580963 186.131775,185.682007 
z"/>
<path fill="#8CC176" opacity="1.000000" stroke="none" 
	d="
M156.006073,178.377472 
	C157.473114,179.218079 159.139267,180.267914 160.380661,181.688843 
	C164.174881,186.031799 167.553162,190.774002 171.643723,194.801849 
	C172.988419,196.125946 176.013367,195.743637 178.636536,196.072723 
	C178.433350,197.466721 177.863586,198.929626 176.866150,200.753082 
	C175.959000,201.408905 175.479507,201.704147 175.000000,201.999390 
	C174.250412,201.999268 173.500809,201.999146 172.376465,201.998657 
	C167.252808,195.739609 162.448090,189.521851 157.802811,183.187180 
	C156.889633,181.941910 156.592300,180.245026 156.006073,178.377472 
z"/>
<path fill="#91C477" opacity="1.000000" stroke="none" 
	d="
M188.098572,202.008759 
	C189.855103,202.223312 191.215485,202.441025 192.575851,202.658737 
	C192.697266,203.273895 192.818680,203.889053 192.940079,204.504211 
	C191.129410,205.097824 189.339249,206.034866 187.499695,206.144730 
	C186.534531,206.202393 185.482803,204.810608 184.470169,204.073380 
	C185.547577,203.386230 186.625000,202.699081 188.098572,202.008759 
z"/>
<path fill="#306E68" opacity="1.000000" stroke="none" 
	d="
M144.158936,225.544601 
	C141.806564,226.100983 139.923615,225.658890 140.083557,222.261627 
	C141.445862,222.964432 142.790894,224.066025 144.158936,225.544601 
z"/>
<path fill="#306E68" opacity="1.000000" stroke="none" 
	d="
M136.222595,217.980957 
	C135.624573,217.937881 134.865524,217.665222 134.115067,217.051605 
	C134.769638,217.057571 135.415588,217.404495 136.222595,217.980957 
z"/>
<path fill="#306E68" opacity="1.000000" stroke="none" 
	d="
M140.061401,221.598236 
	C139.482758,221.495239 138.835236,221.081772 138.092560,220.379227 
	C138.662460,220.489349 139.327484,220.888550 140.061401,221.598236 
z"/>
<path fill="#91C477" opacity="1.000000" stroke="none" 
	d="
M175.198700,202.144241 
	C175.479507,201.704147 175.959000,201.408905 176.718933,201.057129 
	C176.465393,201.430115 175.931396,201.859604 175.198700,202.144241 
z"/>
<path fill="#85BE77" opacity="1.000000" stroke="none" 
	d="
M291.794800,169.925491 
	C285.141998,176.329498 278.489166,182.733505 271.708191,189.454666 
	C271.011383,190.171600 270.442688,190.571365 269.507263,191.327393 
	C267.468872,192.490875 265.797211,193.298111 264.125519,194.105347 
	C264.761414,192.746155 265.094574,191.090515 266.085266,190.078690 
	C270.562225,185.506195 275.225220,181.115829 279.921143,176.344269 
	C280.021088,176.028717 280.009094,176.010162 280.307587,175.928467 
	C281.074890,175.234314 281.543732,174.621857 282.012573,174.009399 
	C282.012573,174.009415 282.000000,174.000000 282.297821,173.920563 
	C283.082733,173.238693 283.569794,172.636230 284.056854,172.033783 
	C287.089783,170.012207 290.122711,167.990631 293.508026,166.288635 
	C293.859833,167.045990 293.859192,167.483734 293.858582,167.921494 
	C293.858582,167.921494 293.929169,167.938217 293.604462,167.971649 
	C292.784790,168.645218 292.289795,169.285355 291.794800,169.925491 
z"/>
<path fill="#85BE77" opacity="1.000000" stroke="none" 
	d="
M251.312012,205.758133 
	C253.077530,203.860825 255.193512,201.950073 257.705750,200.371063 
	C258.089417,201.142487 258.076874,201.582184 258.064331,202.021881 
	C255.930389,203.262817 253.796448,204.503754 251.312012,205.758133 
z"/>
<path fill="#276764" opacity="1.000000" stroke="none" 
	d="
M264.110718,194.085205 
	C265.797211,193.298111 267.468872,192.490875 269.496216,191.616653 
	C268.194519,193.057755 266.537140,194.565842 264.486572,196.082565 
	C264.093384,196.091202 264.033844,196.033646 264.087708,195.710632 
	C264.135193,194.951874 264.128754,194.516144 264.122345,194.080399 
	C264.122345,194.080399 264.095947,194.065048 264.110718,194.085205 
z"/>
<path fill="#276764" opacity="1.000000" stroke="none" 
	d="
M258.436523,202.009842 
	C258.076874,201.582184 258.089417,201.142487 258.077454,200.373856 
	C258.052917,200.044922 258.018311,200.038605 258.342255,199.954224 
	C259.787964,199.256439 260.909729,198.643021 262.059937,198.059616 
	C262.088379,198.089615 262.146271,198.148682 262.146271,198.148682 
	C261.033752,199.431717 259.921234,200.714752 258.436523,202.009842 
z"/>
<path fill="#276764" opacity="1.000000" stroke="none" 
	d="
M264.122955,196.120178 
	C263.663544,196.736145 263.174530,197.323151 262.415894,198.029419 
	C262.146271,198.148682 262.088379,198.089615 262.105835,197.743820 
	C262.134064,196.973587 262.144836,196.549133 262.155579,196.124695 
	C262.155579,196.124695 262.075653,196.062897 262.414551,196.120422 
	C263.180237,196.129852 263.607025,196.081757 264.033844,196.033646 
	C264.033844,196.033646 264.093384,196.091202 264.122955,196.120178 
z"/>
<path fill="#80B876" opacity="1.000000" stroke="none" 
	d="
M120.074783,126.334610 
	C121.321587,127.091187 122.636147,128.178879 123.973526,129.630981 
	C122.711746,128.885513 121.427147,127.775612 120.074783,126.334610 
z"/>
<path fill="#85BE77" opacity="1.000000" stroke="none" 
	d="
M132.087982,142.293121 
	C132.608429,142.474380 133.215561,142.946381 133.908676,143.709503 
	C133.387985,143.528351 132.781342,143.056122 132.087982,142.293121 
z"/>
<path fill="#80B876" opacity="1.000000" stroke="none" 
	d="
M118.093056,124.289474 
	C118.613663,124.469696 119.218910,124.941170 119.909935,125.702766 
	C119.389709,125.522163 118.783699,125.051445 118.093056,124.289474 
z"/>
<path fill="#ACC873" opacity="1.000000" stroke="none" 
	d="
M249.887329,121.920319 
	C253.493103,117.692482 257.365967,113.532837 261.309784,109.441589 
	C263.854156,106.802139 266.502533,104.262985 269.502136,102.040901 
	C269.344452,103.901848 269.014832,105.539513 268.194122,106.875511 
	C264.781830,112.430283 265.288849,114.428040 271.333313,117.365746 
	C272.487091,117.926491 273.898468,117.935371 275.166107,118.288284 
	C277.695251,118.992416 280.840942,119.047417 282.612579,120.626488 
	C289.091034,126.400810 296.328583,130.440567 304.633453,132.890305 
	C309.191986,134.234970 313.546295,136.272064 317.992676,137.996948 
	C311.272919,146.128876 304.319733,154.004517 294.943359,159.864685 
	C291.827240,152.956558 286.751892,150.509201 280.202972,148.644257 
	C269.960175,145.727432 260.045837,141.418518 250.340836,136.943588 
	C244.729782,134.356384 244.819458,128.810104 249.577606,124.801025 
	C250.153122,124.316124 249.999954,122.966415 249.887329,121.920319 
z"/>
<path fill="#2A6B65" opacity="1.000000" stroke="none" 
	d="
M359.001221,147.999588 
	C357.451538,149.475204 355.901855,150.950821 354.174988,152.710556 
	C344.949585,154.085724 336.605042,157.014145 329.310516,162.587860 
	C328.556213,163.164246 327.958557,164.083221 327.560333,164.965988 
	C324.820679,171.039398 322.281921,177.208374 319.354675,183.188049 
	C318.768250,184.385986 316.700836,185.728607 315.470184,185.594299 
	C309.406342,184.932571 303.318909,184.115723 297.389557,182.718262 
	C293.215790,181.734573 292.285980,178.721634 294.640381,175.102417 
	C298.252380,169.550018 302.114319,164.160233 306.299255,158.328659 
	C311.959259,153.505203 317.297424,149.168808 322.299164,144.473999 
	C323.005493,143.810974 322.070862,141.399719 321.895752,139.797638 
	C322.351471,139.238235 322.807159,138.678818 323.877930,137.945450 
	C326.279541,137.404251 329.077087,134.273804 329.578796,137.951340 
	C330.195374,142.470627 333.094360,143.203918 336.216156,144.031479 
	C339.367676,144.866974 343.045471,146.406509 345.785767,145.500198 
	C350.374634,143.982513 354.061249,142.595795 357.091522,147.664886 
	C357.308258,148.027435 358.345490,147.899475 359.001221,147.999588 
z"/>
<path fill="#B4CC71" opacity="1.000000" stroke="none" 
	d="
M318.313293,137.900665 
	C313.546295,136.272064 309.191986,134.234970 304.633453,132.890305 
	C296.328583,130.440567 289.091034,126.400810 282.612579,120.626488 
	C280.840942,119.047417 277.695251,118.992416 275.166107,118.288284 
	C273.898468,117.935371 272.487091,117.926491 271.333313,117.365746 
	C265.288849,114.428040 264.781830,112.430283 268.194122,106.875511 
	C269.014832,105.539513 269.344452,103.901848 269.867249,101.992905 
	C275.221710,96.352310 280.608856,91.121727 286.541046,86.063858 
	C287.652374,88.720619 287.709015,91.493507 288.912262,93.616577 
	C290.461700,96.350517 292.929962,98.563721 294.974457,101.399986 
	C295.315887,105.270294 294.404907,110.045479 296.328430,111.934631 
	C300.024994,115.565147 305.133881,118.011002 310.016937,120.111397 
	C315.272156,122.371910 320.556244,124.094093 322.718109,130.175873 
	C323.121521,131.310684 324.376923,132.142593 325.073303,133.402588 
	C324.467407,134.450668 324.027374,135.210434 323.587341,135.970200 
	C321.936188,136.581589 320.285065,137.192978 318.313293,137.900665 
z"/>
<path fill="#317065" opacity="1.000000" stroke="none" 
	d="
M323.680115,136.286011 
	C324.027374,135.210434 324.467407,134.450668 325.368652,133.242081 
	C331.209503,128.525116 336.589142,124.256973 342.371674,119.992538 
	C343.848877,119.996681 344.923218,119.997116 345.998779,119.998779 
	C346.000000,120.000000 346.002441,120.002289 345.992249,120.377853 
	C344.856323,122.494781 343.730560,124.236153 342.247894,126.529648 
	C348.991486,124.588768 355.879333,128.102493 361.982819,123.987228 
	C361.138153,131.760544 360.293488,139.533875 359.225037,147.653381 
	C358.345490,147.899475 357.308258,148.027435 357.091522,147.664886 
	C354.061249,142.595795 350.374634,143.982513 345.785767,145.500198 
	C343.045471,146.406509 339.367676,144.866974 336.216156,144.031479 
	C333.094360,143.203918 330.195374,142.470627 329.578796,137.951340 
	C329.077087,134.273804 326.279541,137.404251 324.135956,137.843033 
	C323.776917,137.476974 323.774902,137.039398 323.680115,136.286011 
z"/>
<path fill="#276764" opacity="1.000000" stroke="none" 
	d="
M321.610352,139.907410 
	C322.070862,141.399719 323.005493,143.810974 322.299164,144.473999 
	C317.297424,149.168808 311.959259,153.505203 306.366821,157.980591 
	C306.005280,158.005280 305.999451,157.999603 305.987793,157.635696 
	C305.938751,156.790146 305.901337,156.308502 305.863922,155.826859 
	C305.863922,155.826859 305.901306,155.898026 306.188721,155.825439 
	C306.948975,155.073120 307.421844,154.393402 307.894684,153.713684 
	C308.315613,153.132507 308.736511,152.551331 309.776215,151.878845 
	C310.896515,151.137329 311.398041,150.487122 311.899536,149.836884 
	C311.899536,149.836884 311.909973,149.909378 312.194702,149.838715 
	C312.960785,149.111694 313.442200,148.455368 313.923584,147.799042 
	C315.012909,146.545609 316.102234,145.292191 317.829895,143.916412 
	C318.961731,143.150055 319.455231,142.506058 319.948700,141.862030 
	C320.407440,141.247086 320.866211,140.632141 321.610352,139.907410 
z"/>
<path fill="#2A6B65" opacity="1.000000" stroke="none" 
	d="
M319.611511,141.894318 
	C319.455231,142.506058 318.961731,143.150055 318.152100,143.867020 
	C318.315399,143.268860 318.794861,142.597717 319.611511,141.894318 
z"/>
<path fill="#2A6B65" opacity="1.000000" stroke="none" 
	d="
M311.567810,149.892075 
	C311.398041,150.487122 310.896515,151.137329 310.068054,151.847229 
	C310.239410,151.253693 310.737732,150.600479 311.567810,149.892075 
z"/>
<path fill="#2A6B65" opacity="1.000000" stroke="none" 
	d="
M313.584473,147.833969 
	C313.442200,148.455368 312.960785,149.111694 312.158203,149.835419 
	C312.306458,149.224838 312.775909,148.546875 313.584473,147.833969 
z"/>
<path fill="#9AC67C" opacity="1.000000" stroke="none" 
	d="
M283.757446,172.109390 
	C283.569794,172.636230 283.082733,173.238693 282.302521,173.926834 
	C282.492279,173.403351 282.975128,172.794189 283.757446,172.109390 
z"/>
<path fill="#2A6B65" opacity="1.000000" stroke="none" 
	d="
M307.552155,153.757751 
	C307.421844,154.393402 306.948975,155.073120 306.148712,155.821777 
	C306.284058,155.194397 306.746826,154.498108 307.552155,153.757751 
z"/>
<path fill="#2A6B65" opacity="1.000000" stroke="none" 
	d="
M305.536011,155.882065 
	C305.901337,156.308502 305.938751,156.790146 305.985168,157.633179 
	C305.495880,157.979797 304.997559,157.965012 304.125061,157.924957 
	C304.236664,157.245560 304.722382,156.591415 305.536011,155.882065 
z"/>
<path fill="#2A6B65" opacity="1.000000" stroke="none" 
	d="
M301.557983,159.772705 
	C301.423676,160.405426 300.948090,161.081070 300.145294,161.824249 
	C300.284271,161.199707 300.750488,160.507660 301.557983,159.772705 
z"/>
<path fill="#2A6B65" opacity="1.000000" stroke="none" 
	d="
M299.553772,161.871399 
	C299.388947,162.474548 298.890472,163.130875 298.063599,163.847839 
	C298.230194,163.247192 298.725128,162.585892 299.553772,161.871399 
z"/>
<path fill="#2A6B65" opacity="1.000000" stroke="none" 
	d="
M294.181580,167.842194 
	C293.859192,167.483734 293.859833,167.045990 293.869751,166.279755 
	C294.324280,165.866760 294.769501,165.782211 295.555908,165.700897 
	C295.432892,166.390381 294.968750,167.076645 294.181580,167.842194 
z"/>
<path fill="#9AC67C" opacity="1.000000" stroke="none" 
	d="
M281.719238,174.094482 
	C281.543732,174.621857 281.074890,175.234314 280.314819,175.933228 
	C280.490997,175.406326 280.958435,174.792953 281.719238,174.094482 
z"/>
<path fill="#85BE77" opacity="1.000000" stroke="none" 
	d="
M261.761658,196.098907 
	C262.144836,196.549133 262.134064,196.973587 262.077393,197.713821 
	C260.909729,198.643021 259.787964,199.256439 258.354675,199.961456 
	C259.151337,198.726410 260.259552,197.399765 261.761658,196.098907 
z"/>
<path fill="#92C67B" opacity="1.000000" stroke="none" 
	d="
M233.053375,214.382843 
	C232.532593,214.371155 232.161530,214.202499 231.790451,214.033844 
	C231.980011,213.819366 232.169571,213.604889 232.359131,213.390396 
	C232.640457,213.668884 232.921768,213.947372 233.053375,214.382843 
z"/>
<path fill="#85BE77" opacity="1.000000" stroke="none" 
	d="
M264.087708,195.710632 
	C263.607025,196.081757 263.180237,196.129852 262.431488,196.167999 
	C262.571198,195.510376 263.032867,194.862671 263.808411,194.147690 
	C264.128754,194.516144 264.135193,194.951874 264.087708,195.710632 
z"/>
<path fill="#2A6B65" opacity="1.000000" stroke="none" 
	d="
M292.114624,169.860199 
	C292.289795,169.285355 292.784790,168.645218 293.599670,167.935699 
	C293.424561,168.509186 292.929535,169.152039 292.114624,169.860199 
z"/>
<path fill="#BBD06E" opacity="1.000000" stroke="none" 
	d="
M295.002441,101.001221 
	C292.929962,98.563721 290.461700,96.350517 288.912262,93.616577 
	C287.709015,91.493507 287.652374,88.720619 286.887878,86.017838 
	C288.163544,84.394615 289.637451,82.990112 291.465698,81.508636 
	C292.465637,85.145844 294.381378,87.625404 298.045166,89.086113 
	C312.279297,94.761093 326.700623,100.080925 340.483673,106.714355 
	C345.699585,109.224625 349.154022,107.869522 353.675507,106.381264 
	C350.005615,110.486061 346.001373,114.242981 341.627625,118.005844 
	C337.757599,120.270592 334.257141,122.529388 330.519806,124.941048 
	C330.329926,123.993637 330.192841,122.900246 329.888794,121.855431 
	C326.841064,111.382347 321.153809,103.727142 310.019470,100.263748 
	C304.529114,98.555946 299.989746,100.965706 295.002441,101.001221 
z"/>
<path fill="#377567" opacity="1.000000" stroke="none" 
	d="
M341.997162,117.999893 
	C346.001373,114.242981 350.005615,110.486061 354.048218,106.381943 
	C355.861908,104.783348 357.637207,103.531937 359.734192,102.203651 
	C363.669708,108.829353 361.504547,116.065742 361.986053,123.522293 
	C355.879333,128.102493 348.991486,124.588768 342.247894,126.529648 
	C343.730560,124.236153 344.856323,122.494781 346.216064,120.321236 
	C346.679047,119.554909 346.908051,119.220749 347.137054,118.886581 
	C346.994934,118.853775 346.755981,118.754601 346.725891,118.798561 
	C346.461945,119.183731 346.235291,119.594437 345.997559,119.997559 
	C344.923218,119.997116 343.848877,119.996681 342.375610,119.661026 
	C341.983490,118.883842 341.990326,118.441864 341.997162,117.999893 
z"/>
<path fill="#245F63" opacity="1.000000" stroke="none" 
	d="
M251.313782,254.902374 
	C251.263275,255.898117 250.999161,256.669006 250.735046,257.439880 
	C250.271042,257.128998 249.807037,256.818085 249.343033,256.507202 
	C249.928741,255.897293 250.514465,255.287399 251.313782,254.902374 
z"/>
<path fill="#2A6667" opacity="1.000000" stroke="none" 
	d="
M104.083542,216.295471 
	C104.604515,216.476303 105.214050,216.947678 105.910614,217.710526 
	C105.389137,217.530014 104.780632,217.058014 104.083542,216.295471 
z"/>
<path fill="#7EB275" opacity="1.000000" stroke="none" 
	d="
M164.002106,157.574677 
	C162.068314,156.211868 160.133301,154.424454 158.098633,152.321411 
	C159.697510,152.014389 161.396057,152.022980 163.518494,152.044418 
	C163.961899,153.754868 163.981400,155.452454 164.002106,157.574677 
z"/>
<path fill="#7EB275" opacity="1.000000" stroke="none" 
	d="
M167.823563,159.668976 
	C166.707977,159.540359 165.478302,159.089172 164.124603,158.317352 
	C165.236862,158.446594 166.473175,158.896500 167.823563,159.668976 
z"/>
<path fill="#8CC176" opacity="1.000000" stroke="none" 
	d="
M138.022278,154.366531 
	C140.602783,156.387146 143.595154,158.474182 145.718643,161.230606 
	C149.413254,166.026505 152.571655,171.235489 155.976501,176.636261 
	C153.352417,174.188889 150.497894,171.541809 148.110138,168.525269 
	C144.580383,164.066040 141.382309,159.344269 138.022278,154.366531 
z"/>
<path fill="#B5CD71" opacity="1.000000" stroke="none" 
	d="
M341.627625,118.005844 
	C341.990326,118.441864 341.983490,118.883842 341.972717,119.657318 
	C336.589142,124.256973 331.209503,128.525116 325.534485,132.953766 
	C324.376923,132.142593 323.121521,131.310684 322.718109,130.175873 
	C320.556244,124.094093 315.272156,122.371910 310.016937,120.111397 
	C305.133881,118.011002 300.024994,115.565147 296.328430,111.934631 
	C294.404907,110.045479 295.315887,105.270294 294.974457,101.399994 
	C299.989746,100.965706 304.529114,98.555946 310.019470,100.263748 
	C321.153809,103.727142 326.841064,111.382347 329.888794,121.855431 
	C330.192841,122.900246 330.329926,123.993637 330.519806,124.941048 
	C334.257141,122.529388 337.757599,120.270592 341.627625,118.005844 
z"/>
<path fill="#317065" opacity="1.000000" stroke="none" 
	d="
M345.998779,119.998779 
	C346.235291,119.594437 346.461945,119.183731 346.725891,118.798561 
	C346.755981,118.754601 346.994934,118.853775 347.137054,118.886581 
	C346.908051,119.220749 346.679047,119.554909 346.226227,119.945679 
	C346.002441,120.002289 346.000000,120.000000 345.998779,119.998779 
z"/>
</svg>