<svg version="1.1" id="Layer_1" xmlns="http://www.w3.org/2000/svg" xmlns:xlink="http://www.w3.org/1999/xlink" x="0px" y="0px"
	 width="100%" viewBox="0 0 424 388" enable-background="new 0 0 424 388" xml:space="preserve">
<path fill="#FFFFFF" opacity="1.000000" stroke="none" 
	d="M244.480850,280.533417 
	C244.480850,280.533417 244.648972,280.573242 244.732193,281.120300 
	C245.484009,281.689484 246.235809,282.258636 247.442123,282.954926 
	C247.442123,282.954926 247.906479,283.039185 248.158066,283.674774 
	C252.735184,287.461151 257.312317,291.247528 262.190826,295.659637 
	C270.232635,300.952667 277.129517,307.463562 283.312042,315.645294 
	C284.535034,316.379303 285.758026,317.113312 287.680054,318.016602 
	C288.794678,318.281219 289.909302,318.545807 291.705933,318.722656 
	C292.684692,318.148956 293.784973,317.713898 294.622711,316.979370 
	C300.657623,311.688049 306.684814,306.385895 312.612427,300.975403 
	C314.593903,299.166809 316.277710,297.032104 318.560059,294.979370 
	C318.560059,294.979370 319.004272,294.834045 319.706177,294.966248 
	C321.754456,293.311768 323.802734,291.657318 326.196777,289.352356 
	C329.806152,287.405121 334.768738,287.242706 336.211334,281.289093 
	C336.804138,279.296173 337.880676,277.309906 337.908325,275.309174 
	C338.048370,265.173553 337.916046,255.034180 337.987823,244.144257 
	C337.601257,242.762314 337.214691,241.380356 336.983765,239.274399 
	C335.982239,237.667618 335.330902,235.597855 333.920746,234.531357 
	C326.403229,228.845917 318.695892,223.411499 310.811798,217.249466 
	C307.522003,214.645889 304.152313,212.136139 300.960266,209.417770 
	C295.548065,204.808685 290.268341,200.044388 284.889679,195.395370 
	C283.012756,193.773041 282.146790,192.144958 284.895447,190.081223 
	C287.302612,187.073990 289.709808,184.066757 292.721344,180.765610 
	C297.482086,176.125168 302.242859,171.484711 307.694550,166.801559 
	C311.163940,163.550278 314.633362,160.298996 318.642090,156.826767 
	C319.126862,156.233536 319.611633,155.640289 320.552429,154.982773 
	C320.552429,154.982773 320.996460,154.860748 321.697357,154.999481 
	C324.446259,152.663712 327.195129,150.327957 330.025635,147.525162 
	C330.025635,147.525162 330.152588,147.068359 330.733978,146.814651 
	C331.853668,145.564835 332.973328,144.315018 334.782135,142.584869 
	C335.041199,139.994705 335.550323,137.401093 335.514679,134.814987 
	C335.382080,125.194153 335.070404,115.575768 334.989929,105.206749 
	C334.619751,104.457230 334.450928,103.387215 333.847870,103.008347 
	C328.491821,99.643478 322.870422,96.670906 317.694885,93.056259 
	C310.706482,88.175468 304.199951,82.601746 297.183807,77.764626 
	C292.768158,74.720367 287.798187,72.480202 283.020172,69.962440 
	C283.020172,69.962440 283.112366,69.922104 282.884644,69.306755 
	C282.207825,69.519203 281.531006,69.731659 280.231567,69.987595 
	C279.821320,70.041435 279.411102,70.095276 278.280548,69.998833 
	C275.566223,72.001556 272.851898,74.004280 269.931702,76.532326 
	C269.623657,76.734039 269.315643,76.935745 268.294800,77.188416 
	C267.667084,78.099098 267.181854,79.164474 266.388489,79.895348 
	C261.254608,84.624817 256.053558,89.281380 250.332565,94.132889 
	C249.875687,94.714363 249.418808,95.295837 248.261475,95.989899 
	C244.479431,99.326607 240.602982,102.563225 236.935562,106.021507 
	C229.943054,112.615288 223.069778,119.335533 215.938354,126.544502 
	C215.620605,126.751152 215.302856,126.957802 214.451218,127.082603 
	C214.263245,127.377174 214.075272,127.671753 213.276062,128.180923 
	C212.520081,128.509750 211.764114,128.838593 210.359802,129.009171 
	C209.862518,128.671631 209.365219,128.334091 208.903656,127.354340 
	C207.654755,126.221985 206.405838,125.089630 205.001694,123.499214 
	C204.633835,123.192497 204.265976,122.885780 203.774094,122.211540 
	C203.774094,122.211540 203.403687,122.096336 203.044434,121.569038 
	C199.992645,118.898438 196.940872,116.227837 193.760468,113.203598 
	C193.760468,113.203598 193.400497,113.093895 193.080048,112.619827 
	C192.403137,112.375366 191.726227,112.130905 190.826294,111.257179 
	C187.809479,108.486908 184.817245,105.689301 181.771408,102.951309 
	C171.129211,93.384743 160.286163,84.031326 149.900024,74.195038 
	C145.425781,69.957664 143.264282,68.825768 136.215942,70.986176 
	C131.108109,74.637001 126.000282,78.287827 120.971695,81.966881 
	C120.971695,81.966881 120.940910,81.888588 120.218071,82.000732 
	C114.433990,85.987350 108.649902,89.973961 102.228104,94.216393 
	C98.474678,97.768379 94.721260,101.320358 90.185280,105.299026 
	C90.118034,113.752480 90.001320,122.206108 90.029572,130.659241 
	C90.034599,132.163712 90.641518,133.666183 90.604691,135.816559 
	C91.379387,138.712036 91.266335,142.473495 93.091370,144.344360 
	C99.124229,150.528656 105.843178,156.045761 112.326675,161.787476 
	C115.475945,164.576431 118.687172,167.295410 121.968987,170.718857 
	C123.260941,172.170593 124.552895,173.622314 126.107109,175.700790 
	C128.014206,177.147583 129.921295,178.594376 132.115692,180.690491 
	C135.371048,183.810944 138.626419,186.931396 142.089767,190.668854 
	C140.825150,192.430679 139.792343,194.435883 138.249435,195.905548 
	C134.616409,199.366058 130.740036,202.571091 126.243927,205.991333 
	C121.691307,209.693970 117.138687,213.396606 112.209137,217.223190 
	C112.209137,217.223190 112.091217,217.602066 111.552284,217.963669 
	C108.652588,220.627731 105.752884,223.291809 102.311951,226.119766 
	C101.860123,226.700165 101.408295,227.280563 100.322899,228.134888 
	C96.828773,231.407883 93.334656,234.680862 89.169334,238.274399 
	C88.836586,240.150772 88.503830,242.027161 88.303322,244.748230 
	C88.592613,250.833237 88.881905,256.918243 89.029945,263.929352 
	C89.008301,268.590088 88.915550,273.252289 89.013367,277.910522 
	C89.038879,279.125641 89.266739,280.828949 90.068123,281.455078 
	C95.140305,285.417999 100.573250,288.928345 105.558769,292.991028 
	C114.040123,299.902527 122.424004,306.951019 130.541122,314.282684 
	C133.397583,316.862701 138.786743,318.984772 142.103058,317.307800 
	C142.665222,317.023529 142.757462,315.809967 143.779739,314.999329 
	C150.468735,308.670105 157.157745,302.340881 164.227554,295.407349 
	C168.041763,292.665100 172.054550,290.157257 175.627853,287.130585 
	C182.572266,281.248474 189.270050,275.075165 196.674042,268.738617 
	C200.255066,265.423553 203.626251,261.829926 207.504059,258.908844 
	C209.496414,257.408020 211.197647,253.892487 215.063004,256.683990 
	C224.373093,264.445312 233.683182,272.206665 243.477341,280.089081 
	C243.728149,280.325134 244.025055,280.429626 244.480850,280.533417 
z"/>
<path fill="#F6EEDB" opacity="1.000000" stroke="none" 
	d="
M269.007599,77.137466 
	C269.315643,76.935745 269.623657,76.734039 270.424622,76.273499 
	C275.200745,76.248955 277.094208,73.189957 279.000854,70.149117 
	C279.411102,70.095276 279.821320,70.041435 280.919250,69.982292 
	C282.108734,69.958694 282.610565,69.940399 283.112366,69.922104 
	C283.112366,69.922104 283.020172,69.962440 283.081787,70.263466 
	C287.721497,74.694702 292.131592,79.034752 296.936676,82.881432 
	C300.143311,85.448456 303.993591,87.193741 307.409088,89.522034 
	C311.651550,92.414055 315.694397,95.598557 319.930725,98.500175 
	C321.086548,99.291855 322.613098,99.882599 323.994385,99.937157 
	C327.352875,100.069839 327.242249,102.217461 326.802032,104.421921 
	C326.525391,105.807259 325.715271,107.086067 325.174866,108.778015 
	C323.091614,111.224365 321.000732,113.329063 318.859894,115.381653 
	C313.836700,120.197792 308.987579,125.220352 303.707153,129.737564 
	C295.202454,137.013000 286.213318,143.727890 277.804779,151.107941 
	C272.536865,155.731552 267.957428,161.139633 262.741852,166.249176 
	C260.619263,168.229980 258.823883,170.157349 256.678772,172.146561 
	C254.412277,174.027725 250.448257,173.886978 250.484177,177.958832 
	C249.094284,178.439621 247.850693,178.655579 247.087280,179.378571 
	C242.154816,184.049744 237.361038,188.866974 232.452698,193.564133 
	C229.424789,196.461777 226.274704,199.231720 223.134003,202.055115 
	C223.088516,202.051208 223.066406,202.139786 222.726364,202.171448 
	C222.006317,203.129745 221.626312,204.056381 221.146851,205.216949 
	C220.996521,205.612534 220.945648,205.774185 220.937042,205.942841 
	C220.979279,205.949829 220.932541,205.878067 220.561844,205.888000 
	C218.506531,206.834991 216.598129,207.521561 215.195572,208.774414 
	C213.550552,210.243851 212.345413,212.205719 210.950836,213.985321 
	C210.952194,214.016647 211.014572,214.023041 210.662201,214.037781 
	C206.104919,217.926819 201.920380,221.823547 197.690918,225.670883 
	C188.046967,234.443604 178.351456,243.160065 168.769760,252.000046 
	C167.814331,252.881531 167.496872,254.454483 166.509262,255.745575 
	C162.957108,256.568878 160.681015,258.153595 160.815247,261.848602 
	C160.863770,261.863007 160.831924,261.766907 160.467651,261.767517 
	C159.073456,262.529785 158.043518,263.291412 156.670929,264.084167 
	C154.519089,266.064636 152.709885,268.013916 150.546616,269.945679 
	C149.412781,270.597626 148.633011,271.267120 147.556885,272.073792 
	C146.444351,273.452423 145.628159,274.693848 144.469330,275.907593 
	C143.039795,276.863800 141.952881,277.847748 140.509750,278.916687 
	C138.545959,280.308746 137.821442,283.694366 134.607147,280.661957 
	C129.226883,275.586090 123.655907,270.697296 117.969711,265.964661 
	C111.082947,260.232788 103.993011,254.745010 96.718384,248.927872 
	C94.479828,245.738312 92.126778,243.439713 88.171082,243.903534 
	C88.503830,242.027161 88.836586,240.150772 89.880920,238.119110 
	C93.157837,236.042007 95.858307,234.270493 98.232262,232.135834 
	C99.442833,231.047287 100.067162,229.306778 100.956482,227.860962 
	C101.408295,227.280563 101.860123,226.700165 102.967537,226.051132 
	C108.127907,224.888702 111.350548,222.499344 112.091217,217.602066 
	C112.091217,217.602066 112.209137,217.223190 112.720596,217.339722 
	C119.548019,215.660110 123.651726,211.240234 126.962097,205.879471 
	C130.740036,202.571091 134.616409,199.366058 138.249435,195.905548 
	C139.792343,194.435883 140.825150,192.430679 142.291626,190.316605 
	C142.698456,189.943573 142.903442,189.922791 143.511780,189.950745 
	C145.528534,189.514847 147.464508,189.440308 148.696808,188.471100 
	C152.926331,185.144547 156.909317,181.504578 161.373444,177.988098 
	C163.739807,176.083618 165.683838,174.137024 167.704285,172.273239 
	C176.443604,164.211578 185.246780,156.218628 193.939026,148.106720 
	C197.573822,144.714630 200.722977,140.752197 204.592331,137.677536 
	C207.580734,135.302902 210.514053,133.262909 211.008133,129.167419 
	C211.764114,128.838593 212.520081,128.509750 213.795181,127.983429 
	C214.604980,127.651176 214.828583,127.444016 214.985092,127.164444 
	C215.302856,126.957802 215.620605,126.751152 216.398376,126.261459 
	C223.589432,120.298500 230.509354,114.823875 236.985168,108.866486 
	C241.304810,104.892639 244.991806,100.231094 248.961929,95.877319 
	C249.418808,95.295837 249.875687,94.714363 250.987762,94.059166 
	C253.327179,93.102859 255.254227,92.498245 256.646912,91.281837 
	C259.894684,88.445129 262.475006,84.581139 266.114990,82.542809 
	C268.846649,81.013123 269.050903,79.475937 269.007599,77.137466 
z"/>
<path fill="#F5EDD8" opacity="1.000000" stroke="none" 
	d="
M336.828156,239.998398 
	C337.214691,241.380356 337.601257,242.762314 337.617310,244.434479 
	C333.475189,244.882065 330.660248,246.536850 328.618988,250.000214 
	C326.729828,250.873245 325.023621,251.519730 323.744263,252.649551 
	C319.679260,256.239502 315.829529,260.072235 311.793243,263.696014 
	C304.934540,269.853729 297.997070,275.923676 290.699890,281.982666 
	C289.259644,281.864075 288.212128,281.793274 287.122070,281.390839 
	C278.191254,272.820831 269.328217,264.554962 260.397736,256.362640 
	C258.031891,254.192383 255.458328,252.248535 252.660858,250.029907 
	C251.555878,248.691620 250.996490,247.238312 249.945358,246.406128 
	C245.390152,242.799774 240.691345,239.374802 235.876572,235.597321 
	C230.838806,230.857635 225.969223,226.404480 221.096252,221.584747 
	C219.859100,219.038116 218.625320,216.858047 217.912598,215.598679 
	C219.205185,213.445831 220.171753,211.835983 221.498581,210.178894 
	C224.663071,207.918381 227.707520,205.947159 230.226776,203.446777 
	C237.947357,195.784042 245.466354,187.918213 253.404770,180.046722 
	C256.821625,177.985992 259.897461,176.009903 262.981750,174.030136 
	C262.990173,174.026459 262.985474,174.012817 263.033051,174.348679 
	C264.401947,175.747330 265.723297,176.810135 267.344177,177.970993 
	C268.182495,178.374268 268.721191,178.679459 269.269897,179.342621 
	C271.513031,181.844437 274.577820,183.603455 275.788879,186.220352 
	C277.713623,190.379471 280.769196,190.172394 284.183746,190.065781 
	C282.146790,192.144958 283.012756,193.773041 284.889679,195.395370 
	C290.268341,200.044388 295.548065,204.808685 300.960266,209.417770 
	C304.152313,212.136139 307.522003,214.645889 310.972626,217.910416 
	C316.116974,222.949661 321.032776,227.408432 326.107513,231.678345 
	C329.566071,234.588394 333.246765,237.234360 336.828156,239.998398 
z"/>
<path fill="#F7EDD9" opacity="1.000000" stroke="none" 
	d="
M205.156921,123.957283 
	C206.405838,125.089630 207.654755,126.221985 208.522705,127.678139 
	C206.624451,127.590904 205.107162,127.179871 204.611145,127.045502 
	C200.453293,130.261322 196.639114,132.937332 193.139908,135.976059 
	C186.324493,141.894592 179.484634,147.811371 173.043396,154.125214 
	C168.677521,158.404739 164.974335,163.360306 160.648254,167.991028 
	C159.885483,167.971283 159.449219,167.974030 159.006470,167.988678 
	C158.999969,168.000610 159.023987,167.986557 158.982483,167.644775 
	C156.961380,165.534515 154.981796,163.766006 153.001114,161.998749 
	C153.000000,162.000000 153.002533,161.997757 152.949036,161.668564 
	C151.584061,160.273376 150.272568,159.207367 148.928406,157.797577 
	C148.222336,156.980881 147.548920,156.507965 146.830597,155.696564 
	C145.601303,154.875290 144.416946,154.392502 143.177399,153.537781 
	C142.655807,149.618271 140.541382,147.972443 137.035583,147.948151 
	C137.015350,147.987457 137.090591,147.941055 137.058685,147.610580 
	C136.913956,146.854523 136.801117,146.428955 136.664673,145.647827 
	C134.872238,144.304703 132.713715,143.674149 131.414642,142.256195 
	C128.601105,139.185196 126.614197,135.297379 123.600357,132.480713 
	C115.100624,124.537041 106.319260,116.888321 97.484840,109.314713 
	C95.782722,107.855515 93.335312,107.265671 91.154587,105.926270 
	C91.040916,105.342628 91.004379,105.107491 90.967834,104.872345 
	C94.721260,101.320358 98.474678,97.768379 102.964264,94.104065 
	C108.544914,93.869545 118.024002,87.215042 120.940910,81.888588 
	C120.940910,81.888588 120.971695,81.966881 121.318283,81.968658 
	C125.229286,79.877968 128.906662,77.950905 132.312073,75.625557 
	C134.104111,74.401886 135.420792,72.482079 136.952118,70.876602 
	C143.264282,68.825768 145.425781,69.957664 149.900024,74.195038 
	C160.286163,84.031326 171.129211,93.384743 181.771408,102.951309 
	C184.817245,105.689301 187.809479,108.486908 190.998917,111.922760 
	C191.914520,112.756866 192.657516,112.925377 193.400497,113.093887 
	C193.400497,113.093895 193.760468,113.203598 193.614319,113.748245 
	C193.589447,117.579788 199.503372,122.224640 203.403687,122.096336 
	C203.403687,122.096336 203.774094,122.211540 203.743683,122.678665 
	C204.194473,123.416283 204.675705,123.686783 205.156921,123.957283 
z"/>
<path fill="#A0A6A9" opacity="1.000000" stroke="none" 
	d="
M148.961075,158.141357 
	C150.272568,159.207367 151.584061,160.273376 152.675201,161.706696 
	C152.142899,162.368713 151.830948,162.663422 151.519012,162.958130 
	C151.718918,163.129852 151.918823,163.301575 152.118713,163.473297 
	C152.413208,162.981354 152.707718,162.489426 153.002228,161.997498 
	C154.981796,163.766006 156.961380,165.534515 158.706436,167.685562 
	C158.155579,168.363007 157.839249,168.657898 157.522934,168.952789 
	C157.723679,169.124725 157.924408,169.296677 158.125137,169.468628 
	C158.421066,168.971344 158.717010,168.474045 159.012955,167.976761 
	C159.449219,167.974030 159.885483,167.971283 160.650589,168.374359 
	C161.474945,169.940704 162.361816,171.101852 162.360062,172.261642 
	C162.358170,173.516174 161.526764,174.769440 160.664551,176.014008 
	C159.154617,175.763550 157.651901,175.898666 156.986008,175.216705 
	C153.935791,172.092819 150.752899,168.991013 148.305862,165.410858 
	C144.637360,160.043655 140.017868,158.462662 136.600510,162.092926 
	C138.421402,163.725266 143.738037,165.053238 136.915115,167.405090 
	C136.018829,167.714066 135.165863,170.213272 135.431702,171.454071 
	C136.343277,175.708847 137.761795,179.855011 138.657593,183.986786 
	C137.209076,182.645569 136.090012,181.360153 134.941406,179.784027 
	C134.628632,179.159180 134.345398,178.825058 134.062180,178.490936 
	C133.707321,178.932251 133.352448,179.373550 132.704041,179.864990 
	C132.216461,179.957138 132.022430,179.999161 131.828384,180.041168 
	C129.921295,178.594376 128.014206,177.147583 126.242477,175.176743 
	C127.043488,170.995667 124.631721,170.349838 121.870346,170.046082 
	C118.687172,167.295410 115.475945,164.576431 112.326675,161.787476 
	C105.843178,156.045761 99.124229,150.528656 93.091370,144.344360 
	C91.266335,142.473495 91.379387,138.712036 90.871323,135.019577 
	C91.169212,124.906654 91.200470,115.590721 91.231720,106.274780 
	C93.335312,107.265671 95.782722,107.855515 97.484840,109.314713 
	C106.319260,116.888321 115.100624,124.537041 123.600357,132.480713 
	C126.614197,135.297379 128.601105,139.185196 131.414642,142.256195 
	C132.713715,143.674149 134.872238,144.304703 136.405304,145.712891 
	C136.476547,146.736038 136.783569,147.338547 137.090591,147.941055 
	C137.090591,147.941055 137.015350,147.987457 137.074799,148.289825 
	C139.167023,150.364700 141.199799,152.137192 143.232574,153.909698 
	C144.416946,154.392502 145.601303,154.875290 146.555359,155.740448 
	C146.569916,157.085144 146.814819,158.047485 147.059723,159.009811 
	C147.693512,158.720322 148.327286,158.430847 148.961075,158.141357 
M129.478333,174.726349 
	C129.728241,174.989166 129.975861,175.254440 130.240921,175.500961 
	C130.247742,175.507294 130.445816,175.307983 130.554688,175.204575 
	C130.304550,174.941757 130.054398,174.678955 129.478333,174.726349 
z"/>
<path fill="#9EA5A7" opacity="1.000000" stroke="none" 
	d="
M96.990982,249.151611 
	C103.993011,254.745010 111.082947,260.232788 117.969711,265.964661 
	C123.655907,270.697296 129.226883,275.586090 134.607147,280.661957 
	C137.821442,283.694366 138.545959,280.308746 140.549652,279.345581 
	C140.841644,280.826202 140.675110,281.961212 140.643188,283.099976 
	C140.373032,292.739227 140.127396,302.379211 139.890564,312.402161 
	C140.960098,313.532166 142.013458,314.278931 143.066818,315.025726 
	C142.757462,315.809967 142.665222,317.023529 142.103058,317.307800 
	C138.786743,318.984772 133.397583,316.862701 130.541122,314.282684 
	C122.424004,306.951019 114.040123,299.902527 105.558769,292.991028 
	C100.573250,288.928345 95.140305,285.417999 90.068123,281.455078 
	C89.266739,280.828949 89.038879,279.125641 89.013367,277.910522 
	C88.915550,273.252289 89.008301,268.590088 89.472137,263.453888 
	C94.230942,259.371460 96.413231,254.672150 96.990982,249.151611 
z"/>
<path fill="#7691A4" opacity="1.000000" stroke="none" 
	d="
M307.003601,166.844269 
	C302.242859,171.484711 297.482086,176.125168 292.159485,180.710144 
	C290.713898,180.120590 289.556122,178.921219 288.988739,179.154968 
	C283.088043,181.585846 277.500885,180.723663 271.955139,177.651413 
	C271.073975,176.091721 269.665558,174.945282 269.522308,173.658020 
	C269.255432,171.260620 268.754303,167.837616 270.055664,166.498901 
	C275.777649,160.612717 282.102264,155.311401 288.221924,149.813156 
	C291.136169,147.194839 294.080597,144.610123 297.005432,142.428162 
	C296.806030,143.978439 296.656311,145.120270 296.411896,146.241486 
	C294.968414,152.862473 300.996887,158.918945 307.725433,157.591019 
	C315.351471,156.085953 326.475006,143.155914 327.077515,135.387451 
	C327.194275,133.881790 328.328033,132.455002 328.995361,131.458389 
	C328.996185,136.612671 328.994324,141.300385 328.683777,146.039581 
	C327.907593,146.699585 327.440033,147.308105 326.602722,147.940033 
	C325.154449,148.639603 324.075928,149.315765 322.682892,150.044647 
	C321.912628,150.731201 321.456940,151.364990 321.000610,151.999390 
	C321.000000,152.000000 320.998779,152.001221 320.677063,152.057159 
	C320.269043,153.091080 320.182709,154.069061 320.096405,155.047058 
	C319.611633,155.640289 319.126862,156.233536 318.073364,156.813599 
	C313.527618,157.279861 307.165253,163.365189 307.003601,166.844269 
z"/>
<path fill="#7C8F9D" opacity="1.000000" stroke="none" 
	d="
M236.044754,235.883865 
	C240.691345,239.374802 245.390152,242.799774 249.945358,246.406128 
	C250.996490,247.238312 251.555878,248.691620 252.662903,250.377151 
	C253.403381,252.386581 253.822525,253.877945 254.004303,254.524734 
	C252.493866,255.702530 250.181732,257.024597 250.337524,257.456604 
	C252.436539,263.276672 251.369293,270.647919 258.289948,274.223358 
	C259.558136,274.878540 260.585266,276.126190 261.529297,277.261932 
	C266.787354,283.587708 271.947174,289.995300 277.222321,296.306610 
	C279.478912,299.006470 281.716614,298.404205 283.019196,295.102631 
	C283.460449,293.984192 284.577484,293.132385 285.385742,292.158752 
	C285.876282,293.392059 286.398712,294.613831 286.850128,295.861267 
	C287.588104,297.900726 288.279907,299.956879 288.993286,302.470032 
	C289.671570,308.226227 290.347748,313.518311 291.023926,318.810425 
	C289.909302,318.545807 288.794678,318.281219 287.335968,317.567993 
	C286.179901,315.481537 285.367889,313.843750 284.555908,312.205933 
	C284.183624,312.329376 283.811371,312.452789 283.439117,312.576233 
	C283.266846,313.433807 283.094574,314.291412 282.922272,315.148987 
	C277.129517,307.463562 270.232635,300.952667 262.342651,295.217072 
	C262.878937,293.707733 263.841949,292.442780 263.555298,291.605896 
	C261.480743,285.549591 256.523926,282.440979 251.015701,279.988403 
	C251.001831,280.000000 251.024033,279.973663 250.968384,279.660583 
	C250.278442,278.894836 249.644165,278.442200 249.004944,277.994781 
	C249.000000,278.000000 249.011108,277.990082 249.011322,277.658691 
	C249.007492,276.885315 249.003433,276.443298 248.930359,275.649231 
	C247.161575,271.134491 245.632034,266.891968 243.725723,262.826141 
	C240.053665,254.994186 236.168488,247.262146 232.709778,240.180878 
	C234.332916,238.089508 235.188843,236.986694 236.044754,235.883865 
z"/>
<path fill="#869DAB" opacity="1.000000" stroke="none" 
	d="
M291.092682,282.030518 
	C297.997070,275.923676 304.934540,269.853729 311.793243,263.696014 
	C315.829529,260.072235 319.679260,256.239502 323.744263,252.649551 
	C325.023621,251.519730 326.729828,250.873245 328.623199,250.384674 
	C329.130798,251.567749 329.036346,252.497467 329.414001,253.156723 
	C334.592041,262.195770 336.936829,271.433105 331.585052,281.679474 
	C333.050873,281.791138 334.467865,281.899078 335.884857,282.007019 
	C334.768738,287.242706 329.806152,287.405121 325.634796,289.675964 
	C321.645721,289.848358 319.365448,291.136688 319.004272,294.834045 
	C319.004272,294.834045 318.560059,294.979370 318.039124,294.730957 
	C318.369659,285.383484 312.385345,280.348938 306.148102,275.400970 
	C301.905548,278.962982 297.655304,282.531464 293.701691,285.850891 
	C292.950562,284.751007 292.021637,283.390778 291.092682,282.030518 
z"/>
<path fill="#8CA1AE" opacity="1.000000" stroke="none" 
	d="
M290.699890,281.982697 
	C292.021637,283.390778 292.950562,284.751007 293.701691,285.850891 
	C297.655304,282.531464 301.905548,278.962982 306.148102,275.400970 
	C312.385345,280.348938 318.369659,285.383484 317.807861,294.764526 
	C316.277710,297.032104 314.593903,299.166809 312.612427,300.975403 
	C306.684814,306.385895 300.657623,311.688049 294.622711,316.979370 
	C293.784973,317.713898 292.684692,318.148956 291.364929,318.766541 
	C290.347748,313.518311 289.671570,308.226227 288.997620,302.011047 
	C288.388123,294.632812 287.776367,288.177643 287.164642,281.722504 
	C288.212128,281.793274 289.259644,281.864075 290.699890,281.982697 
z"/>
<path fill="#7A91A1" opacity="1.000000" stroke="none" 
	d="
M297.011322,142.010162 
	C294.080597,144.610123 291.136169,147.194839 288.221924,149.813156 
	C282.102264,155.311401 275.777649,160.612717 270.055664,166.498901 
	C268.754303,167.837616 269.255432,171.260620 269.522308,173.658020 
	C269.665558,174.945282 271.073975,176.091721 271.683838,177.769638 
	C270.724060,178.486603 269.992004,178.735641 269.259918,178.984665 
	C268.721191,178.679459 268.182495,178.374268 267.337036,177.588074 
	C267.205597,174.084015 265.253082,173.842499 262.985474,174.012817 
	C262.985474,174.012817 262.990173,174.026459 262.954224,173.707306 
	C262.289612,172.919632 261.660980,172.451111 261.077515,171.636078 
	C261.771454,169.591614 262.420288,167.893677 263.069092,166.195724 
	C267.957428,161.139633 272.536865,155.731552 277.804779,151.107941 
	C286.213318,143.727890 295.202454,137.013000 303.707153,129.737564 
	C308.987579,125.220352 313.836700,120.197792 318.859894,115.381653 
	C321.000732,113.329063 323.091614,111.224365 325.537903,108.731735 
	C326.937988,107.577858 328.005371,106.835594 329.434631,106.131683 
	C330.850861,108.182724 332.727142,110.159721 332.816315,112.214302 
	C333.188080,120.776558 332.967377,129.363007 333.099518,137.938492 
	C333.125916,139.652100 333.746399,141.356537 334.092957,143.065201 
	C332.973328,144.315018 331.853668,145.564835 330.204041,146.815277 
	C329.446869,146.539978 329.219666,146.264038 328.992462,145.988098 
	C328.994324,141.300385 328.996185,136.612671 328.997314,130.993958 
	C328.997223,127.578217 329.167908,125.077927 328.942413,122.613884 
	C328.775482,120.790009 328.093018,119.013313 327.640198,117.215591 
	C325.802185,118.107140 323.694916,118.676460 322.174011,119.947464 
	C316.369324,124.798294 310.750000,129.871140 305.068848,134.869431 
	C302.374451,137.239944 299.696625,139.629318 297.011322,142.010162 
z"/>
<path fill="#EEE3CE" opacity="1.000000" stroke="none" 
	d="
M161.057159,176.023254 
	C161.526764,174.769440 162.358170,173.516174 162.360062,172.261642 
	C162.361816,171.101852 161.474945,169.940704 160.977097,168.396820 
	C164.974335,163.360306 168.677521,158.404739 173.043396,154.125214 
	C179.484634,147.811371 186.324493,141.894592 193.139908,135.976059 
	C196.639114,132.937332 200.453293,130.261322 204.611145,127.045502 
	C205.107162,127.179871 206.624451,127.590904 208.504852,127.999245 
	C209.365219,128.334091 209.862518,128.671631 210.683960,129.088287 
	C210.514053,133.262909 207.580734,135.302902 204.592331,137.677536 
	C200.722977,140.752197 197.573822,144.714630 193.939026,148.106720 
	C185.246780,156.218628 176.443604,164.211578 167.704285,172.273239 
	C165.683838,174.137024 163.739807,176.083618 161.397552,177.661896 
	C161.042038,176.895538 161.049606,176.459396 161.057159,176.023254 
z"/>
<path fill="#506B81" opacity="1.000000" stroke="none" 
	d="
M196.069992,269.022491 
	C189.270050,275.075165 182.572266,281.248474 175.627853,287.130585 
	C172.054550,290.157257 168.041763,292.665100 163.699432,295.696045 
	C162.444931,295.322937 161.718536,294.661163 160.995941,293.999329 
	C160.999741,293.999298 160.999237,293.992371 161.314178,293.944153 
	C162.083832,293.264221 162.538559,292.632477 163.323792,291.934875 
	C167.434647,287.910980 171.214996,283.952942 175.327362,279.934937 
	C180.274506,276.175812 183.156052,271.164062 186.646042,266.537262 
	C191.784073,259.725555 199.214676,254.561569 206.003464,249.112808 
	C209.153656,246.584427 211.494598,244.383423 211.098495,239.886566 
	C210.664078,234.954590 210.986130,229.955963 210.981232,224.593628 
	C210.994156,220.808258 211.004364,217.415649 211.014572,214.023041 
	C211.014572,214.023041 210.952194,214.016647 211.360291,214.017700 
	C216.606628,213.756027 214.408249,217.691193 214.840790,219.942047 
	C213.990921,222.025726 213.043060,224.020935 213.161133,225.950958 
	C213.569916,232.632996 214.415298,239.287323 214.926453,245.965057 
	C215.016708,247.144119 214.692413,248.937561 213.891800,249.504852 
	C209.637863,252.519012 205.080399,255.102890 200.804245,258.088135 
	C196.738968,260.926117 192.674759,263.896423 190.908096,269.022491 
	C193.050430,269.022491 194.560211,269.022491 196.069992,269.022491 
z"/>
<path fill="#405E78" opacity="1.000000" stroke="none" 
	d="
M196.372009,268.880554 
	C194.560211,269.022491 193.050430,269.022491 190.908096,269.022491 
	C192.674759,263.896423 196.738968,260.926117 200.804245,258.088135 
	C205.080399,255.102890 209.637863,252.519012 213.891800,249.504852 
	C214.692413,248.937561 215.016708,247.144119 214.926453,245.965057 
	C214.415298,239.287323 213.569916,232.632996 213.161133,225.950958 
	C213.043060,224.020935 213.990921,222.025726 215.126648,219.974640 
	C216.184570,219.953781 216.565948,220.018677 216.964722,220.543884 
	C217.663666,230.543152 218.300308,240.085876 219.103912,249.614532 
	C219.175568,250.464355 220.331894,251.222702 220.986816,252.351700 
	C221.001556,253.117233 221.013947,253.554596 221.064453,254.310089 
	C221.732880,255.087311 222.363220,255.546402 222.996658,256.002930 
	C222.999771,256.000366 222.994171,256.006439 222.991669,256.358582 
	C222.843643,257.589569 222.698105,258.468384 222.614487,258.973297 
	C219.859848,257.942383 217.330124,256.995636 214.800400,256.048859 
	C211.197647,253.892487 209.496414,257.408020 207.504059,258.908844 
	C203.626251,261.829926 200.255066,265.423553 196.372009,268.880554 
z"/>
<path fill="#EFEBDD" opacity="1.000000" stroke="none" 
	d="
M329.072784,106.093338 
	C328.005371,106.835594 326.937988,107.577858 325.507568,108.366402 
	C325.715271,107.086067 326.525391,105.807259 326.802032,104.421921 
	C327.242249,102.217461 327.352875,100.069839 323.994385,99.937157 
	C322.613098,99.882599 321.086548,99.291855 319.930725,98.500175 
	C315.694397,95.598557 311.651550,92.414055 307.409088,89.522034 
	C303.993591,87.193741 300.143311,85.448456 296.936676,82.881432 
	C292.131592,79.034752 287.721497,74.694702 283.110107,70.221893 
	C287.798187,72.480202 292.768158,74.720367 297.183807,77.764626 
	C304.199951,82.601746 310.706482,88.175468 317.694885,93.056259 
	C322.870422,96.670906 328.491821,99.643478 333.847870,103.008347 
	C334.450928,103.387215 334.619751,104.457230 334.575317,105.516266 
	C332.430298,105.259666 330.544159,101.733200 329.072784,106.093338 
z"/>
<path fill="#5D7285" opacity="1.000000" stroke="none" 
	d="
M214.931702,256.366425 
	C217.330124,256.995636 219.859848,257.942383 222.614487,258.973297 
	C222.698105,258.468384 222.843643,257.589569 223.331024,256.417633 
	C228.786667,260.076996 233.900467,264.029480 239.346863,268.052948 
	C242.119125,270.750092 244.558792,273.376282 247.051544,276.317383 
	C247.740112,277.084900 248.375610,277.537476 249.011108,277.990082 
	C249.011108,277.990082 249.000000,278.000000 249.050537,278.312622 
	C249.742050,279.074707 250.383041,279.524200 251.024033,279.973663 
	C251.024033,279.973663 251.001831,280.000000 250.958344,280.315186 
	C249.912064,281.433289 248.909271,282.236237 247.906464,283.039185 
	C247.906479,283.039185 247.442123,282.954926 247.204620,282.535278 
	C246.194397,281.601501 245.421677,281.087372 244.648972,280.573242 
	C244.648972,280.573242 244.480850,280.533417 244.599152,280.174774 
	C244.433228,279.370483 244.148987,278.924866 243.864746,278.479218 
	C243.574249,278.975464 243.283752,279.471710 242.993256,279.967987 
	C233.683182,272.206665 224.373093,264.445312 214.931702,256.366425 
z"/>
<path fill="#7A91A1" opacity="1.000000" stroke="none" 
	d="
M336.048096,281.648071 
	C334.467865,281.899078 333.050873,281.791138 331.585052,281.679474 
	C336.936829,271.433105 334.592041,262.195770 329.414001,253.156723 
	C329.036346,252.497467 329.130798,251.567749 329.001526,250.379333 
	C330.660248,246.536850 333.475189,244.882065 337.562988,244.810410 
	C337.916046,255.034180 338.048370,265.173553 337.908325,275.309174 
	C337.880676,277.309906 336.804138,279.296173 336.048096,281.648071 
z"/>
<path fill="#7C93A1" opacity="1.000000" stroke="none" 
	d="
M269.269897,179.342621 
	C269.992004,178.735641 270.724060,178.486603 271.727478,178.119354 
	C277.500885,180.723663 283.088043,181.585846 288.988739,179.154968 
	C289.556122,178.921219 290.713898,180.120590 291.857300,180.857101 
	C289.709808,184.066757 287.302612,187.073990 284.539612,190.073502 
	C280.769196,190.172394 277.713623,190.379471 275.788879,186.220352 
	C274.577820,183.603455 271.513031,181.844437 269.269897,179.342621 
z"/>
<path fill="#5D7285" opacity="1.000000" stroke="none" 
	d="
M160.992126,293.999359 
	C161.718536,294.661163 162.444931,295.322937 163.509033,295.998230 
	C157.157745,302.340881 150.468735,308.670105 143.423279,315.012512 
	C142.013458,314.278931 140.960098,313.532166 140.150604,312.236908 
	C140.597626,311.126709 140.800781,310.565002 141.334290,309.938782 
	C148.107132,304.582672 154.549622,299.291016 160.992126,293.999359 
z"/>
<path fill="#9BA4A5" opacity="1.000000" stroke="none" 
	d="
M96.718384,248.927887 
	C96.413231,254.672150 94.230942,259.371460 89.542770,262.990845 
	C88.881905,256.918243 88.592613,250.833237 88.237206,244.325882 
	C92.126778,243.439713 94.479828,245.738312 96.718384,248.927887 
z"/>
<path fill="#CAD1D6" opacity="1.000000" stroke="none" 
	d="
M329.434631,106.131691 
	C330.544159,101.733200 332.430298,105.259666 334.493347,105.891121 
	C335.070404,115.575768 335.382080,125.194153 335.514679,134.814987 
	C335.550323,137.401093 335.041199,139.994705 334.437561,142.825043 
	C333.746399,141.356537 333.125916,139.652100 333.099518,137.938492 
	C332.967377,129.363007 333.188080,120.776558 332.816315,112.214302 
	C332.727142,110.159721 330.850861,108.182724 329.434631,106.131691 
z"/>
<path fill="#6A7C8B" opacity="1.000000" stroke="none" 
	d="
M248.032257,283.356964 
	C248.909271,282.236237 249.912064,281.433289 250.972229,280.303589 
	C256.523926,282.440979 261.480743,285.549591 263.555298,291.605896 
	C263.841949,292.442780 262.878937,293.707733 262.191956,294.904175 
	C257.312317,291.247528 252.735184,287.461151 248.032257,283.356964 
z"/>
<path fill="#FBF8F1" opacity="1.000000" stroke="none" 
	d="
M248.611694,95.933609 
	C244.991806,100.231094 241.304810,104.892639 236.985168,108.866486 
	C230.509354,114.823875 223.589432,120.298500 216.502686,125.990852 
	C223.069778,119.335533 229.943054,112.615288 236.935562,106.021507 
	C240.602982,102.563225 244.479431,99.326607 248.611694,95.933609 
z"/>
<path fill="#FBF8F1" opacity="1.000000" stroke="none" 
	d="
M336.905945,239.636398 
	C333.246765,237.234360 329.566071,234.588394 326.107513,231.678345 
	C321.032776,227.408432 316.116974,222.949661 311.093842,218.230789 
	C318.695892,223.411499 326.403229,228.845917 333.920746,234.531357 
	C335.330902,235.597855 335.982239,237.667618 336.905945,239.636398 
z"/>
<path fill="#FBF8F1" opacity="1.000000" stroke="none" 
	d="
M268.651184,77.162941 
	C269.050903,79.475937 268.846649,81.013123 266.114990,82.542809 
	C262.475006,84.581139 259.894684,88.445129 256.646912,91.281837 
	C255.254227,92.498245 253.327179,93.102859 251.258728,93.973640 
	C256.053558,89.281380 261.254608,84.624817 266.388489,79.895348 
	C267.181854,79.164474 267.667084,78.099098 268.651184,77.162941 
z"/>
<path fill="#FBF8F1" opacity="1.000000" stroke="none" 
	d="
M120.579491,81.944656 
	C118.024002,87.215042 108.544914,93.869545 103.283119,93.976158 
	C108.649902,89.973961 114.433990,85.987350 120.579491,81.944656 
z"/>
<path fill="#FBF8F1" opacity="1.000000" stroke="none" 
	d="
M136.584030,70.931389 
	C135.420792,72.482079 134.104111,74.401886 132.312073,75.625557 
	C128.906662,77.950905 125.229286,79.877968 121.278656,81.954544 
	C126.000282,78.287827 131.108109,74.637001 136.584030,70.931389 
z"/>
<path fill="#FBF8F1" opacity="1.000000" stroke="none" 
	d="
M126.603012,205.935394 
	C123.651726,211.240234 119.548019,215.660110 112.909058,217.277740 
	C117.138687,213.396606 121.691307,209.693970 126.603012,205.935394 
z"/>
<path fill="#7994A8" opacity="1.000000" stroke="none" 
	d="
M307.349060,166.822906 
	C307.165253,163.365189 313.527618,157.279861 317.803711,156.924072 
	C314.633362,160.298996 311.163940,163.550278 307.349060,166.822906 
z"/>
<path fill="#CAD1D6" opacity="1.000000" stroke="none" 
	d="
M134.970947,180.074738 
	C136.090012,181.360153 137.209076,182.645569 138.739136,184.334015 
	C140.469559,186.458694 141.789001,188.180359 143.108429,189.902008 
	C142.903442,189.922791 142.698456,189.943573 142.187622,190.008102 
	C138.626419,186.931396 135.371048,183.810944 131.972046,180.365829 
	C132.022430,179.999161 132.216461,179.957138 133.027405,179.945251 
	C134.086517,180.008514 134.528732,180.041626 134.970947,180.074738 
z"/>
<path fill="#FBF8F1" opacity="1.000000" stroke="none" 
	d="
M91.154587,105.926270 
	C91.200470,115.590721 91.169212,124.906654 91.054230,134.696075 
	C90.641518,133.666183 90.034599,132.163712 90.029572,130.659241 
	C90.001320,122.206108 90.118034,113.752480 90.576553,105.085686 
	C91.004379,105.107491 91.040916,105.342628 91.154587,105.926270 
z"/>
<path fill="#7A91A1" opacity="1.000000" stroke="none" 
	d="
M322.997437,149.991928 
	C324.075928,149.315765 325.154449,148.639603 326.973633,147.972427 
	C328.457550,147.985001 329.200775,147.988602 329.944031,147.992188 
	C327.195129,150.327957 324.446259,152.663712 321.349121,154.572662 
	C321.000214,153.430969 320.999512,152.716095 320.998779,152.001221 
	C320.998779,152.001221 321.000000,152.000000 321.316681,151.950500 
	C322.088043,151.264648 322.542755,150.628296 322.997437,149.991928 
z"/>
<path fill="#FBF8F1" opacity="1.000000" stroke="none" 
	d="
M203.224060,121.832687 
	C199.503372,122.224640 193.589447,117.579788 193.678635,113.925064 
	C196.940872,116.227837 199.992645,118.898438 203.224060,121.832687 
z"/>
<path fill="#FBF8F1" opacity="1.000000" stroke="none" 
	d="
M100.639694,227.997925 
	C100.067162,229.306778 99.442833,231.047287 98.232262,232.135834 
	C95.858307,234.270493 93.157837,236.042007 90.216515,237.958832 
	C93.334656,234.680862 96.828773,231.407883 100.639694,227.997925 
z"/>
<path fill="#FBF8F1" opacity="1.000000" stroke="none" 
	d="
M111.821747,217.782867 
	C111.350548,222.499344 108.127907,224.888702 103.238152,225.969193 
	C105.752884,223.291809 108.652588,220.627731 111.821747,217.782867 
z"/>
<path fill="#FBF8F1" opacity="1.000000" stroke="none" 
	d="
M278.640686,70.073975 
	C277.094208,73.189957 275.200745,76.248955 270.527557,76.010834 
	C272.851898,74.004280 275.566223,72.001556 278.640686,70.073975 
z"/>
<path fill="#8CA1AE" opacity="1.000000" stroke="none" 
	d="
M319.355225,294.900146 
	C319.365448,291.136688 321.645721,289.848358 325.461914,290.001221 
	C323.802734,291.657318 321.754456,293.311768 319.355225,294.900146 
z"/>
<path fill="#8CA1AE" opacity="1.000000" stroke="none" 
	d="
M283.117157,315.397156 
	C283.094574,314.291412 283.266846,313.433807 283.439117,312.576233 
	C283.811371,312.452789 284.183624,312.329376 284.555908,312.205933 
	C285.367889,313.843750 286.179901,315.481537 286.986450,317.483337 
	C285.758026,317.113312 284.535034,316.379303 283.117157,315.397156 
z"/>
<path fill="#A4A9AA" opacity="1.000000" stroke="none" 
	d="
M121.919662,170.382477 
	C124.631721,170.349838 127.043488,170.995667 126.111343,174.863373 
	C124.552895,173.622314 123.260941,172.170593 121.919662,170.382477 
z"/>
<path fill="#7994A8" opacity="1.000000" stroke="none" 
	d="
M320.677063,152.057159 
	C320.999512,152.716095 321.000214,153.430969 320.998688,154.503296 
	C320.996460,154.860748 320.552429,154.982773 320.324402,155.014923 
	C320.182709,154.069061 320.269043,153.091080 320.677063,152.057159 
z"/>
<path fill="#6A7C8B" opacity="1.000000" stroke="none" 
	d="
M244.690582,280.846771 
	C245.421677,281.087372 246.194397,281.601501 246.977371,282.471710 
	C246.235809,282.258636 245.484009,281.689484 244.690582,280.846771 
z"/>
<path fill="#7994A8" opacity="1.000000" stroke="none" 
	d="
M329.984833,147.758667 
	C329.200775,147.988602 328.457550,147.985001 327.343384,147.949020 
	C327.440033,147.308105 327.907593,146.699585 328.683777,146.039581 
	C329.219666,146.264038 329.446869,146.539978 329.913330,146.942139 
	C330.152588,147.068359 330.025635,147.525162 329.984833,147.758667 
z"/>
<path fill="#6A7C8B" opacity="1.000000" stroke="none" 
	d="
M243.235291,280.028534 
	C243.283752,279.471710 243.574249,278.975464 243.864746,278.479218 
	C244.148987,278.924866 244.433228,279.370483 244.542740,280.109344 
	C244.025055,280.429626 243.728149,280.325134 243.235291,280.028534 
z"/>
<path fill="#FBF8F1" opacity="1.000000" stroke="none" 
	d="
M193.240265,112.856857 
	C192.657516,112.925377 191.914520,112.756866 191.110428,112.237396 
	C191.726227,112.130905 192.403137,112.375366 193.240265,112.856857 
z"/>
<path fill="#FBF8F1" opacity="1.000000" stroke="none" 
	d="
M205.079315,123.728249 
	C204.675705,123.686783 204.194473,123.416283 203.805695,122.862427 
	C204.265976,122.885780 204.633835,123.192497 205.079315,123.728249 
z"/>
<path fill="#EFEBDD" opacity="1.000000" stroke="none" 
	d="
M282.998505,69.614426 
	C282.610565,69.940399 282.108734,69.958694 281.230560,69.960548 
	C281.531006,69.731659 282.207825,69.519203 282.998505,69.614426 
z"/>
<path fill="#FBF8F1" opacity="1.000000" stroke="none" 
	d="
M214.718155,127.123520 
	C214.828583,127.444016 214.604980,127.651176 214.100800,127.876129 
	C214.075272,127.671753 214.263245,127.377174 214.718155,127.123520 
z"/>
<path fill="#637E95" opacity="1.000000" stroke="none" 
	d="
M160.995926,293.999329 
	C154.549622,299.291016 148.107132,304.582672 141.332748,309.529419 
	C142.012085,306.940826 142.604599,304.341125 144.136215,302.539917 
	C146.245193,300.059631 149.251297,298.365753 151.545410,296.015198 
	C160.264496,287.081543 167.851181,277.364655 171.758499,265.250427 
	C172.864548,261.821259 173.992905,258.399323 175.328125,254.309067 
	C167.270065,260.693054 160.134735,266.346008 152.999695,271.999512 
	C153.000000,272.000000 153.000610,272.001007 152.945587,271.676819 
	C152.227280,270.889496 151.563980,270.426361 150.900681,269.963196 
	C152.709885,268.013916 154.519089,266.064636 156.719177,264.375519 
	C158.350677,263.679443 159.591293,262.723175 160.831924,261.766907 
	C160.831924,261.766907 160.863770,261.863007 161.170929,261.848145 
	C163.279816,259.791046 165.081558,257.748779 166.883301,255.706512 
	C167.496872,254.454483 167.814331,252.881531 168.769760,252.000046 
	C178.351456,243.160065 188.046967,234.443604 197.690918,225.670883 
	C201.920380,221.823547 206.104919,217.926819 210.662201,214.037781 
	C211.004364,217.415649 210.994156,220.808258 210.631714,224.677887 
	C205.886108,232.373047 201.781815,239.789322 197.011887,246.749405 
	C192.870453,252.792389 187.834045,258.214081 183.463303,264.110626 
	C180.521286,268.079712 177.974762,272.352478 175.427719,276.595276 
	C174.889496,277.491882 175.119385,278.849640 174.995361,279.994904 
	C171.214996,283.952942 167.434647,287.910980 163.010101,291.984985 
	C161.910355,292.731415 161.454803,293.361877 160.999237,293.992371 
	C160.999237,293.992371 160.999741,293.999298 160.995926,293.999329 
z"/>
<path fill="#69849A" opacity="1.000000" stroke="none" 
	d="
M152.999390,271.998993 
	C160.134735,266.346008 167.270065,260.693054 175.328125,254.309067 
	C173.992905,258.399323 172.864548,261.821259 171.758499,265.250427 
	C167.851181,277.364655 160.264496,287.081543 151.545410,296.015198 
	C149.251297,298.365753 146.245193,300.059631 144.136215,302.539917 
	C142.604599,304.341125 142.012085,306.940826 141.002380,309.593872 
	C140.800781,310.565002 140.597626,311.126709 140.134445,311.853699 
	C140.127396,302.379211 140.373032,292.739227 140.643188,283.099976 
	C140.675110,281.961212 140.841644,280.826202 140.905884,279.260559 
	C141.952881,277.847748 143.039795,276.863800 144.795227,275.963318 
	C150.280045,278.987549 151.134445,274.552643 152.999390,271.998993 
z"/>
<path fill="#A4A9AA" opacity="1.000000" stroke="none" 
	d="
M143.511780,189.950745 
	C141.789001,188.180359 140.469559,186.458694 139.068573,184.389816 
	C137.761795,179.855011 136.343277,175.708847 135.431702,171.454071 
	C135.165863,170.213272 136.018829,167.714066 136.915115,167.405090 
	C143.738037,165.053238 138.421402,163.725266 136.600510,162.092926 
	C140.017868,158.462662 144.637360,160.043655 148.305862,165.410858 
	C150.752899,168.991013 153.935791,172.092819 156.986008,175.216705 
	C157.651901,175.898666 159.154617,175.763550 160.664551,176.014008 
	C161.049606,176.459396 161.042038,176.895538 161.010376,177.657883 
	C156.909317,181.504578 152.926331,185.144547 148.696808,188.471100 
	C147.464508,189.440308 145.528534,189.514847 143.511780,189.950745 
z"/>
<path fill="#9BA4A5" opacity="1.000000" stroke="none" 
	d="
M253.063736,180.131363 
	C245.466354,187.918213 237.947357,195.784042 230.226776,203.446777 
	C227.707520,205.947159 224.663071,207.918381 221.464813,209.743988 
	C221.024719,208.196930 220.978638,207.037491 220.932541,205.878067 
	C220.932541,205.878067 220.979279,205.949829 221.319763,205.958939 
	C223.374283,205.192749 225.088287,204.417450 226.802307,203.642151 
	C226.672638,203.238724 226.542984,202.835312 226.413315,202.431885 
	C225.335373,202.307587 224.257416,202.183289 223.179474,202.058990 
	C226.274704,199.231720 229.424789,196.461777 232.452698,193.564133 
	C237.361038,188.866974 242.154816,184.049744 247.087280,179.378571 
	C247.850693,178.655579 249.094284,178.439621 250.827652,178.024139 
	C252.047577,178.749847 252.555649,179.440613 253.063736,180.131363 
z"/>
<path fill="#8595A1" opacity="1.000000" stroke="none" 
	d="
M220.561844,205.888000 
	C220.978638,207.037491 221.024719,208.196930 221.104553,209.791245 
	C220.171753,211.835983 219.205185,213.445831 217.912598,215.598679 
	C218.625320,216.858047 219.859100,219.038116 220.752014,221.596680 
	C219.952377,221.974045 219.493561,221.972900 218.971893,221.659485 
	C218.255112,220.926010 217.601212,220.504791 216.947327,220.083572 
	C216.565948,220.018677 216.184570,219.953781 215.517334,219.856308 
	C214.408249,217.691193 216.606628,213.756027 211.358932,213.986374 
	C212.345413,212.205719 213.550552,210.243851 215.195572,208.774414 
	C216.598129,207.521561 218.506531,206.834991 220.561844,205.888000 
z"/>
<path fill="#A4A9AA" opacity="1.000000" stroke="none" 
	d="
M253.404770,180.046722 
	C252.555649,179.440613 252.047577,178.749847 251.196014,177.993805 
	C250.448257,173.886978 254.412277,174.027725 256.726105,172.433044 
	C258.426239,172.432648 259.729279,172.207626 261.032349,171.982590 
	C261.660980,172.451111 262.289612,172.919632 262.945770,173.710999 
	C259.897461,176.009903 256.821625,177.985992 253.404770,180.046722 
z"/>
<path fill="#637E95" opacity="1.000000" stroke="none" 
	d="
M152.999695,271.999512 
	C151.134445,274.552643 150.280045,278.987549 145.137863,275.991028 
	C145.628159,274.693848 146.444351,273.452423 147.986206,272.094208 
	C150.141449,271.985291 151.571030,271.993164 153.000610,272.001007 
	C153.000610,272.001007 153.000000,272.000000 152.999695,271.999512 
z"/>
<path fill="#9EA5A7" opacity="1.000000" stroke="none" 
	d="
M261.077515,171.636078 
	C259.729279,172.207626 258.426239,172.432648 257.075836,172.371185 
	C258.823883,170.157349 260.619263,168.229980 262.741852,166.249176 
	C262.420288,167.893677 261.771454,169.591614 261.077515,171.636078 
z"/>
<path fill="#69849A" opacity="1.000000" stroke="none" 
	d="
M166.509247,255.745575 
	C165.081558,257.748779 163.279816,259.791046 161.122391,261.833740 
	C160.681015,258.153595 162.957108,256.568878 166.509247,255.745575 
z"/>
<path fill="#8595A1" opacity="1.000000" stroke="none" 
	d="
M223.134003,202.055099 
	C224.257416,202.183289 225.335373,202.307587 226.413315,202.431885 
	C226.542984,202.835312 226.672638,203.238724 226.802307,203.642151 
	C225.088287,204.417450 223.374283,205.192749 221.277527,205.951935 
	C220.945648,205.774185 220.996521,205.612534 221.393951,205.059799 
	C222.182480,203.825729 222.624435,202.982758 223.066406,202.139786 
	C223.066406,202.139786 223.088516,202.051208 223.134003,202.055099 
z"/>
<path fill="#69849A" opacity="1.000000" stroke="none" 
	d="
M160.467651,261.767517 
	C159.591293,262.723175 158.350677,263.679443 157.061829,264.344360 
	C158.043518,263.291412 159.073456,262.529785 160.467651,261.767517 
z"/>
<path fill="#69849A" opacity="1.000000" stroke="none" 
	d="
M152.945587,271.676819 
	C151.571030,271.993164 150.141449,271.985291 148.282562,271.957031 
	C148.633011,271.267120 149.412781,270.597626 150.546616,269.945679 
	C151.563980,270.426361 152.227280,270.889496 152.945587,271.676819 
z"/>
<path fill="#9BA4A5" opacity="1.000000" stroke="none" 
	d="
M222.726349,202.171448 
	C222.624435,202.982758 222.182480,203.825729 221.493423,204.825867 
	C221.626312,204.056381 222.006317,203.129745 222.726349,202.171448 
z"/>
<path fill="#8595A1" opacity="1.000000" stroke="none" 
	d="
M287.122070,281.390839 
	C287.776367,288.177643 288.388123,294.632812 288.995544,301.546967 
	C288.279907,299.956879 287.588104,297.900726 286.850128,295.861267 
	C286.398712,294.613831 285.876282,293.392059 285.385742,292.158752 
	C284.577484,293.132385 283.460449,293.984192 283.019196,295.102631 
	C281.716614,298.404205 279.478912,299.006470 277.222321,296.306610 
	C271.947174,289.995300 266.787354,283.587708 261.529297,277.261932 
	C260.585266,276.126190 259.558136,274.878540 258.289948,274.223358 
	C251.369293,270.647919 252.436539,263.276672 250.337524,257.456604 
	C250.181732,257.024597 252.493866,255.702530 254.004303,254.524734 
	C253.822525,253.877945 253.403381,252.386581 252.982193,250.547974 
	C255.458328,252.248535 258.031891,254.192383 260.397736,256.362640 
	C269.328217,264.554962 278.191254,272.820831 287.122070,281.390839 
z"/>
<path fill="#708698" opacity="1.000000" stroke="none" 
	d="
M219.034760,221.971771 
	C219.493561,221.972900 219.952377,221.974045 220.755402,221.963257 
	C225.969223,226.404480 230.838806,230.857635 235.876572,235.597321 
	C235.188843,236.986694 234.332916,238.089508 232.709778,240.180878 
	C236.168488,247.262146 240.053665,254.994186 243.725723,262.826141 
	C245.632034,266.891968 247.161575,271.134491 248.596893,275.649231 
	C247.887787,276.001648 247.443130,276.002045 246.998459,276.002441 
	C244.558792,273.376282 242.119125,270.750092 239.343353,267.670288 
	C237.652252,260.002533 228.752274,251.456207 221.035492,249.502747 
	C220.362274,240.015518 219.698517,230.993652 219.034760,221.971771 
z"/>
<path fill="#9EA5A7" opacity="1.000000" stroke="none" 
	d="
M263.033051,174.348679 
	C265.253082,173.842499 267.205597,174.084015 267.037445,177.489990 
	C265.723297,176.810135 264.401947,175.747330 263.033051,174.348679 
z"/>
<path fill="#A4A9AA" opacity="1.000000" stroke="none" 
	d="
M143.177399,153.537781 
	C141.199799,152.137192 139.167023,150.364700 137.095032,148.250534 
	C140.541382,147.972443 142.655807,149.618271 143.177399,153.537781 
z"/>
<path fill="#A4A9AA" opacity="1.000000" stroke="none" 
	d="
M148.928406,157.797577 
	C148.327286,158.430847 147.693512,158.720322 147.059723,159.009811 
	C146.814819,158.047485 146.569916,157.085144 146.600281,156.078934 
	C147.548920,156.507965 148.222336,156.980881 148.928406,157.797577 
z"/>
<path fill="#A4A9AA" opacity="1.000000" stroke="none" 
	d="
M137.058685,147.610580 
	C136.783569,147.338547 136.476547,146.736038 136.428909,146.068451 
	C136.801117,146.428955 136.913956,146.854523 137.058685,147.610580 
z"/>
<path fill="#A4A9AA" opacity="1.000000" stroke="none" 
	d="
M153.001114,161.998749 
	C152.707718,162.489426 152.413208,162.981354 152.118713,163.473297 
	C151.918823,163.301575 151.718918,163.129852 151.519012,162.958130 
	C151.830948,162.663422 152.142899,162.368713 152.728683,162.035889 
	C153.002533,161.997757 153.000000,162.000000 153.001114,161.998749 
z"/>
<path fill="#A4A9AA" opacity="1.000000" stroke="none" 
	d="
M159.006470,167.988678 
	C158.717010,168.474045 158.421066,168.971344 158.125137,169.468628 
	C157.924408,169.296677 157.723679,169.124725 157.522934,168.952789 
	C157.839249,168.657898 158.155579,168.363007 158.747955,168.027344 
	C159.023987,167.986557 158.999969,168.000610 159.006470,167.988678 
z"/>
<path fill="#A4A9AA" opacity="1.000000" stroke="none" 
	d="
M129.641296,174.571243 
	C130.054398,174.678955 130.304550,174.941757 130.554688,175.204575 
	C130.445816,175.307983 130.247742,175.507294 130.240921,175.500961 
	C129.975861,175.254440 129.728241,174.989166 129.641296,174.571243 
z"/>
<path fill="#A4A9AA" opacity="1.000000" stroke="none" 
	d="
M134.941406,179.784027 
	C134.528732,180.041626 134.086517,180.008514 133.320953,179.895126 
	C133.352448,179.373550 133.707321,178.932251 134.062180,178.490936 
	C134.345398,178.825058 134.628632,179.159180 134.941406,179.784027 
z"/>
<path fill="#7994A8" opacity="1.000000" stroke="none" 
	d="
M297.005432,142.428146 
	C299.696625,139.629318 302.374451,137.239944 305.068848,134.869431 
	C310.750000,129.871140 316.369324,124.798294 322.174011,119.947464 
	C323.694916,118.676460 325.802185,118.107140 327.640198,117.215591 
	C328.093018,119.013313 328.775482,120.790009 328.942413,122.613884 
	C329.167908,125.077927 328.997223,127.578217 328.994629,130.527390 
	C328.328033,132.455002 327.194275,133.881790 327.077515,135.387451 
	C326.475006,143.155914 315.351471,156.085953 307.725433,157.591019 
	C300.996887,158.918945 294.968414,152.862473 296.411896,146.241486 
	C296.656311,145.120270 296.806030,143.978439 297.005432,142.428146 
z"/>
<path fill="#7994A8" opacity="1.000000" stroke="none" 
	d="
M322.682922,150.044678 
	C322.542755,150.628296 322.088043,151.264648 321.317322,151.949890 
	C321.456940,151.364990 321.912628,150.731201 322.682922,150.044678 
z"/>
<path fill="#6A7C8B" opacity="1.000000" stroke="none" 
	d="
M247.051544,276.317383 
	C247.443130,276.002045 247.887787,276.001648 248.665924,276.001282 
	C249.003433,276.443298 249.007492,276.885315 249.011322,277.658691 
	C248.375610,277.537476 247.740112,277.084900 247.051544,276.317383 
z"/>
<path fill="#6A7C8B" opacity="1.000000" stroke="none" 
	d="
M250.968384,279.660583 
	C250.383041,279.524200 249.742050,279.074707 249.055481,278.307404 
	C249.644165,278.442200 250.278442,278.894836 250.968384,279.660583 
z"/>
<path fill="#59768F" opacity="1.000000" stroke="none" 
	d="
M175.327362,279.934937 
	C175.119385,278.849640 174.889496,277.491882 175.427719,276.595276 
	C177.974762,272.352478 180.521286,268.079712 183.463303,264.110626 
	C187.834045,258.214081 192.870453,252.792389 197.011887,246.749405 
	C201.781815,239.789322 205.886108,232.373047 210.629013,225.070648 
	C210.986130,229.955963 210.664078,234.954590 211.098495,239.886566 
	C211.494598,244.383423 209.153656,246.584427 206.003464,249.112808 
	C199.214676,254.561569 191.784073,259.725555 186.646042,266.537262 
	C183.156052,271.164062 180.274506,276.175812 175.327362,279.934937 
z"/>
<path fill="#5D7285" opacity="1.000000" stroke="none" 
	d="
M161.314178,293.944153 
	C161.454803,293.361877 161.910355,292.731415 162.679596,292.050842 
	C162.538559,292.632477 162.083832,293.264221 161.314178,293.944153 
z"/>
<path fill="#637E95" opacity="1.000000" stroke="none" 
	d="
M221.044937,249.968109 
	C228.752274,251.456207 237.652252,260.002533 239.010742,267.599304 
	C233.900467,264.029480 228.786667,260.076996 223.333527,256.065491 
	C222.994171,256.006439 222.999771,256.000366 222.951599,255.687851 
	C222.277756,254.914200 221.652054,254.453079 221.026352,253.991959 
	C221.013947,253.554596 221.001556,253.117233 220.995911,252.009033 
	C221.016769,250.881485 221.030853,250.424805 221.044937,249.968109 
z"/>
<path fill="#59768F" opacity="1.000000" stroke="none" 
	d="
M221.035492,249.502747 
	C221.030853,250.424805 221.016769,250.881485 220.993591,251.680847 
	C220.331894,251.222702 219.175568,250.464355 219.103912,249.614532 
	C218.300308,240.085876 217.663666,230.543152 216.964722,220.543884 
	C217.601212,220.504791 218.255112,220.926010 218.971893,221.659485 
	C219.698517,230.993652 220.362274,240.015518 221.035492,249.502747 
z"/>
<path fill="#5D7285" opacity="1.000000" stroke="none" 
	d="
M221.064453,254.310089 
	C221.652054,254.453079 222.277756,254.914200 222.948486,255.690414 
	C222.363220,255.546402 221.732880,255.087311 221.064453,254.310089 
z"/>
</svg>