<svg version="1.1" id="Layer_1" xmlns="http://www.w3.org/2000/svg" xmlns:xlink="http://www.w3.org/1999/xlink" x="0px" y="0px"
	 width="100%" viewBox="0 0 424 388" enable-background="new 0 0 424 388" xml:space="preserve">
<path fill="#FFFFFF" opacity="1.000000" stroke="none" 
	d="M154.035477,275.854767 
	C154.031036,279.947296 153.896484,284.046661 154.109802,288.127808 
	C154.166107,289.204926 155.296127,290.225891 155.910507,291.968506 
	C157.482956,293.618805 158.874130,295.505493 160.661270,296.875793 
	C166.414291,301.286957 172.753189,305.031036 178.048706,309.918121 
	C185.242599,316.557190 193.457458,316.613434 200.822205,309.023468 
	C202.312317,308.122009 203.877945,307.324127 205.280075,306.301971 
	C213.199539,300.528778 221.079742,294.701752 229.686554,288.974304 
	C243.118866,279.315582 256.551178,269.656860 270.631409,259.735443 
	C274.723938,256.821259 278.816467,253.907043 283.205200,251.565796 
	C283.739349,251.071411 284.273529,250.577026 285.139221,249.558884 
	C285.773346,249.065079 286.407471,248.571274 287.671234,247.750290 
	C293.455353,244.726761 299.137634,241.570129 303.637268,235.945648 
	C304.437408,235.307068 305.237549,234.668503 306.759064,233.949005 
	C313.918701,227.266373 324.455139,225.710419 330.871857,217.591553 
	C333.134125,214.729172 337.802032,213.895355 341.017700,211.632446 
	C347.535950,207.045532 353.916351,202.242905 360.099487,197.216660 
	C361.300598,196.240265 361.345276,193.841324 362.011597,191.396927 
	C361.955994,190.932983 361.900391,190.469025 361.792664,189.294525 
	C359.921539,187.734955 358.113037,186.091690 356.165619,184.634018 
	C352.594116,181.960663 349.052429,179.220535 345.290833,176.835510 
	C341.327606,174.322601 337.121704,172.192474 332.795227,169.234665 
	C328.197418,166.212784 323.599640,163.190887 318.389801,159.897522 
	C317.293945,159.256241 316.198090,158.614960 315.042053,157.216660 
	C314.113739,155.807190 313.479034,154.001465 312.205505,153.057846 
	C307.092438,149.269348 301.886597,145.581161 296.504913,142.189316 
	C293.206390,140.110397 289.526184,138.637070 285.777435,136.224091 
	C280.850830,132.790054 275.924194,129.356033 270.722198,125.312187 
	C265.500977,121.480125 260.279755,117.648056 255.046097,113.929359 
	C255.046097,113.929359 255.159897,113.937195 254.878555,113.292030 
	C249.614044,109.932083 244.349518,106.572136 238.426224,102.913269 
	C235.615768,100.918381 232.805313,98.923492 229.726318,96.319466 
	C223.521347,91.954079 217.316376,87.588684 210.429581,82.903366 
	C207.661911,80.923302 204.894241,78.943237 201.782913,76.274940 
	C196.603958,72.907402 190.396744,72.753929 185.733002,76.208832 
	C181.846878,77.929665 177.766251,79.317711 174.119965,81.448898 
	C168.578354,84.687889 163.150406,88.195541 158.044571,92.076363 
	C155.262527,94.190910 153.244019,97.310013 150.156128,100.375687 
	C150.828003,111.600433 151.499878,122.825180 152.041595,134.758011 
	C152.359451,136.119659 152.677307,137.481293 152.211945,139.206848 
	C150.492432,139.468033 148.774338,139.945618 147.053177,139.956970 
	C129.697495,140.071594 112.341331,140.109848 94.247383,140.025497 
	C85.193291,146.145081 76.024307,152.106262 67.182755,158.518890 
	C65.430290,159.789902 64.934639,162.793793 63.682346,165.821503 
	C63.465599,183.056335 63.234604,200.291092 63.117657,217.526596 
	C63.114853,217.939758 64.385941,218.361557 65.584198,219.039551 
	C66.062340,219.364014 66.540474,219.688461 67.264893,220.661346 
	C70.816704,222.123291 74.368515,223.585220 78.050095,225.736420 
	C80.323586,227.157593 82.597076,228.578766 84.920670,230.740906 
	C86.650986,231.813736 88.381310,232.886581 90.316246,234.828674 
	C95.758553,234.898224 101.202950,235.085541 106.642288,234.988510 
	C109.440094,234.938599 112.228867,234.381882 115.955544,234.013687 
	C126.974052,234.020020 137.992569,234.026352 149.585815,234.223083 
	C151.073151,234.482788 152.560471,234.742493 154.070251,235.654053 
	C154.420914,236.420868 154.771561,237.187698 154.984970,238.892654 
	C155.037704,245.250229 155.090424,251.607819 155.055389,258.901825 
	C154.762390,264.270844 154.469406,269.639832 154.035477,275.854767 
z"/>
<path fill="#97CDC7" opacity="1.000000" stroke="none" 
	d="
M315.102234,157.973663 
	C316.198090,158.614960 317.293945,159.256241 318.688171,160.421524 
	C319.039886,164.334808 317.024658,165.243958 314.106720,164.905212 
	C305.754211,163.935562 297.655457,164.008286 290.680389,169.777573 
	C289.855774,170.459671 288.419098,171.103378 287.505737,170.861221 
	C282.141296,169.438828 276.944214,169.343582 271.784576,171.673950 
	C270.528137,172.241409 269.093506,172.589951 267.719147,172.670715 
	C266.365448,172.750275 264.868927,172.638550 263.638245,172.124405 
	C260.705048,170.899002 257.891663,169.386673 255.011658,167.602142 
	C254.343811,166.194534 253.912689,164.874023 253.002563,164.213531 
	C250.545883,162.430695 247.978714,160.745865 245.279037,159.367508 
	C242.630157,158.015121 239.764282,157.087753 236.984497,155.596649 
	C236.192474,154.108215 235.640137,152.662445 234.590118,151.938934 
	C226.396378,146.293076 218.106964,140.786057 209.848465,135.237091 
	C209.616547,135.867081 209.198227,137.003418 208.419312,138.132690 
	C205.250473,136.197708 202.432251,134.284073 199.635803,132.339142 
	C190.827896,126.213272 182.028152,120.075645 173.586884,113.941071 
	C176.894562,113.520432 177.978210,112.496666 175.269089,110.097023 
	C172.031418,107.229233 172.151138,102.794769 175.240204,99.830597 
	C176.161804,98.946259 176.445541,97.397202 177.376831,96.091003 
	C183.798172,91.650543 189.864212,87.271790 196.230347,83.017685 
	C197.340698,82.529121 198.286453,82.031754 198.931564,81.277313 
	C200.091660,79.920593 201.071442,78.409668 202.126572,76.963165 
	C204.894241,78.943237 207.661911,80.923302 210.847565,83.391907 
	C215.772156,90.273628 222.899124,93.200050 229.116028,97.325951 
	C229.258377,97.420418 229.695328,97.070984 229.994858,96.928604 
	C232.805313,98.923492 235.615768,100.918381 238.826385,103.393898 
	C241.895676,106.212135 244.359482,108.863556 247.299484,110.787186 
	C249.615250,112.302368 252.517914,112.920578 255.159897,113.937195 
	C255.159897,113.937195 255.046097,113.929359 255.050690,114.258316 
	C255.932541,116.087578 256.477325,118.020767 257.753815,119.001244 
	C260.734528,121.290672 264.014008,123.214737 267.287201,125.086082 
	C268.339417,125.687637 269.750610,125.661163 270.997589,125.922005 
	C275.924194,129.356033 280.850830,132.790054 286.022522,136.879700 
	C291.798157,141.631714 297.275635,145.802475 302.877197,149.799377 
	C306.865723,152.645325 311.021240,155.257278 315.102234,157.973663 
z"/>
<path fill="#2B7D98" opacity="1.000000" stroke="none" 
	d="
M155.122223,237.954514 
	C154.771561,237.187698 154.420914,236.420868 154.334991,235.245972 
	C157.702866,235.451202 159.947769,234.421371 162.152252,232.013794 
	C165.473541,228.386551 169.330063,225.249374 173.099121,222.256317 
	C176.699524,224.260605 180.263046,225.730423 183.590454,227.616760 
	C186.759567,229.413345 189.435654,232.608414 192.770370,233.461685 
	C197.931305,234.782227 203.463501,234.696289 208.847031,235.085785 
	C212.155579,235.325150 215.499786,235.167389 218.788498,235.538193 
	C220.119370,235.688263 221.345047,236.771149 222.618591,237.429535 
	C221.868896,238.808578 221.439819,240.576508 220.316620,241.502518 
	C213.796143,246.878326 207.132446,252.081863 200.464600,257.276184 
	C199.306656,258.178192 197.361755,258.434021 196.693024,259.540100 
	C192.811905,265.959595 185.086212,267.157318 180.084396,272.177734 
	C175.612381,276.666382 170.061539,280.080139 164.594498,283.986145 
	C159.851761,284.225555 161.305817,287.529755 160.680084,289.803040 
	C159.833618,287.236969 159.360687,284.797150 158.892380,282.356415 
	C158.420670,279.898010 157.953568,277.438660 157.348938,274.992554 
	C157.213440,275.005402 156.941315,275.012939 156.987457,274.546234 
	C157.023422,268.711914 157.013245,263.344330 157.017929,257.509949 
	C157.029144,252.225906 157.178253,247.400879 156.934799,242.595718 
	C156.855072,241.022079 155.755432,239.500107 155.122223,237.954514 
z"/>
<path fill="#9CD0CA" opacity="1.000000" stroke="none" 
	d="
M255.029907,167.990234 
	C257.891663,169.386673 260.705048,170.899002 263.638245,172.124405 
	C264.868927,172.638550 266.365448,172.750275 267.719147,172.670715 
	C269.093506,172.589951 270.528137,172.241409 271.784576,171.673950 
	C276.944214,169.343582 282.141296,169.438828 287.505737,170.861221 
	C288.419098,171.103378 289.855774,170.459671 290.680389,169.777573 
	C297.655457,164.008286 305.754211,163.935562 314.106720,164.905212 
	C317.024658,165.243958 319.039886,164.334808 318.994171,160.557266 
	C323.599640,163.190887 328.197418,166.212784 332.996582,169.900116 
	C334.207489,171.618210 335.090302,172.843018 336.247528,173.695038 
	C342.796265,178.516510 349.410828,183.248627 355.534058,188.016006 
	C345.381927,188.019272 335.698730,188.017731 325.545471,188.004578 
	C313.349548,187.997726 301.623199,188.062576 289.898163,187.967056 
	C286.782867,187.941666 284.642548,188.556061 284.651062,192.293701 
	C283.952423,192.361130 283.551849,192.386475 282.817932,192.223892 
	C281.595123,191.639923 280.600494,191.387375 279.833038,190.824890 
	C274.196625,186.693817 268.626312,182.472534 262.993622,178.336288 
	C258.696747,175.180939 254.338943,172.108612 250.343552,168.846970 
	C252.129211,168.459793 253.579559,168.225006 255.029907,167.990234 
z"/>
<path fill="#0C5174" opacity="1.000000" stroke="none" 
	d="
M77.920319,225.047150 
	C74.368515,223.585220 70.816704,222.123291 67.116104,219.916534 
	C66.769943,215.913269 68.992958,215.936386 71.275948,215.942520 
	C93.520126,216.002350 115.764351,216.046005 138.153824,216.427856 
	C141.056702,217.694733 143.814316,218.628006 146.571930,219.561279 
	C146.618164,220.141647 146.664398,220.722000 146.710632,221.302368 
	C139.931595,223.534149 133.278778,227.003479 126.344238,227.710739 
	C115.662125,228.800156 104.786301,228.051178 93.994148,227.938538 
	C92.267166,227.920532 90.028313,227.696121 88.921837,226.634003 
	C85.488335,223.338104 81.893570,223.423584 77.920319,225.047150 
z"/>
<path fill="#0C4A71" opacity="1.000000" stroke="none" 
	d="
M77.985207,225.391785 
	C81.893570,223.423584 85.488335,223.338104 88.921837,226.634003 
	C90.028313,227.696121 92.267166,227.920532 93.994148,227.938538 
	C104.786301,228.051178 115.662125,228.800156 126.344238,227.710739 
	C133.278778,227.003479 139.931595,223.534149 146.710632,221.302368 
	C146.664398,220.722000 146.618164,220.141647 146.571930,219.561279 
	C143.814316,218.628006 141.056702,217.694733 138.620941,216.397217 
	C146.956757,215.983292 154.970688,215.933609 163.448120,215.920624 
	C166.031891,215.963593 168.195114,215.707367 170.261139,216.045349 
	C172.624786,216.432007 174.902054,217.346802 177.025330,218.295593 
	C175.542236,219.674011 174.250656,220.788940 172.959076,221.903885 
	C169.330063,225.249374 165.473541,228.386551 162.152252,232.013794 
	C159.947769,234.421371 157.702866,235.451202 154.323776,234.920044 
	C152.560471,234.742493 151.073151,234.482788 149.128357,233.778564 
	C147.172440,232.919281 145.684082,232.194702 144.173752,232.145584 
	C138.787643,231.970474 133.394058,232.024918 127.845398,231.634995 
	C126.339813,230.855301 124.994438,230.076324 123.644096,230.067596 
	C113.387222,230.001373 103.129364,230.085846 92.430435,230.117279 
	C89.616219,230.074112 87.243393,230.037033 84.870567,229.999954 
	C82.597076,228.578766 80.323586,227.157593 77.985207,225.391785 
z"/>
<path fill="#185678" opacity="1.000000" stroke="none" 
	d="
M306.037659,234.029938 
	C305.237549,234.668503 304.437408,235.307068 303.214691,235.668579 
	C301.855286,234.931839 300.918457,234.472183 299.987000,233.574585 
	C300.376709,230.372650 299.865082,226.951935 301.317291,224.970642 
	C305.308716,219.525085 310.113647,214.674255 314.616547,209.605728 
	C318.065063,205.724030 321.543854,201.869202 325.339600,198.001587 
	C326.110535,198.000488 326.551056,198.000244 327.272827,198.214798 
	C330.120117,199.432373 332.154938,199.161636 333.506073,196.114014 
	C336.798553,196.063202 339.648285,195.819229 342.449341,196.085922 
	C344.557648,196.286636 346.603668,197.142212 348.677399,197.706268 
	C347.227783,199.613052 345.940063,201.680466 344.267548,203.366089 
	C343.270782,204.370636 341.586731,204.651337 340.355988,205.473480 
	C336.741211,207.888153 332.431427,209.791367 329.809509,213.038132 
	C325.988708,217.769516 320.505341,219.809921 316.073486,223.449020 
	C313.170959,225.832382 309.564270,227.351776 306.617615,229.692123 
	C305.794861,230.345551 306.197296,232.541565 306.037659,234.029938 
z"/>
<path fill="#72B7B5" opacity="1.000000" stroke="none" 
	d="
M65.062859,218.779327 
	C64.385941,218.361557 63.114853,217.939758 63.117657,217.526596 
	C63.234604,200.291092 63.465599,183.056335 63.963348,165.143738 
	C65.063423,164.218613 65.882500,163.971252 67.192230,163.791016 
	C76.120934,163.232178 84.558975,162.606201 93.435440,161.988312 
	C98.866631,161.208344 103.919670,160.678589 108.829102,159.533234 
	C111.676254,158.868973 114.292465,157.214828 117.259590,156.007019 
	C117.506584,156.007889 118.000549,156.003510 118.437943,156.009918 
	C120.916573,156.015778 122.957817,156.015213 124.998924,156.410172 
	C125.657166,161.097076 129.039398,163.936386 133.994812,163.959976 
	C149.474304,164.033691 164.954865,164.048645 180.433380,163.907806 
	C181.963303,163.893875 183.482101,162.654556 185.392426,161.977661 
	C186.808441,162.005051 187.838120,162.038788 188.977188,162.361832 
	C189.705826,163.123489 190.325043,163.595810 190.963165,164.031677 
	C190.982056,163.995193 190.924454,164.054489 190.900848,164.440689 
	C190.090286,169.871948 186.518234,167.540756 183.909729,167.323517 
	C181.985138,167.163223 180.106934,166.055710 178.206650,166.051758 
	C142.639709,165.977905 107.072479,165.982452 71.505669,166.091278 
	C69.929306,166.096100 68.356445,167.246490 66.405533,168.011597 
	C65.645729,169.680084 64.932190,171.199722 64.929970,172.720428 
	C64.907547,188.073303 65.001549,203.426331 65.062859,218.779327 
z"/>
<path fill="#245875" opacity="1.000000" stroke="none" 
	d="
M326.991608,198.000000 
	C326.551056,198.000244 326.110535,198.000488 325.335114,197.999939 
	C325.000244,197.999146 325.001129,197.991272 324.846375,197.630402 
	C324.016113,196.859680 323.344604,196.100525 322.664581,196.092850 
	C313.778442,195.992447 304.890106,195.933350 296.005371,196.066467 
	C294.985077,196.081741 293.983063,197.319077 292.641663,197.992966 
	C291.869659,198.004425 291.428558,198.012711 290.594391,198.013580 
	C289.155243,198.016830 288.109100,198.027481 287.053406,198.030350 
	C287.043793,198.022552 287.021484,198.017136 286.962463,197.689056 
	C285.696503,196.146759 284.489624,194.932541 283.290649,193.497925 
	C283.283478,192.983200 283.234375,192.694611 283.151306,192.411804 
	C283.551849,192.386475 283.952423,192.361130 284.840302,192.574387 
	C286.542450,193.242538 287.757263,193.672119 289.377289,194.194336 
	C293.203186,194.227295 296.623840,194.167633 300.498291,194.225494 
	C317.580048,194.200241 334.210022,194.158951 350.834473,193.836456 
	C354.540619,193.764542 358.227570,192.703934 361.923370,192.098541 
	C361.345276,193.841324 361.300598,196.240265 360.099487,197.216660 
	C353.916351,202.242905 347.535950,207.045532 341.017700,211.632446 
	C337.802032,213.895355 333.134125,214.729172 330.871857,217.591553 
	C324.455139,225.710419 313.918701,227.266373 306.398376,233.989471 
	C306.197296,232.541565 305.794861,230.345551 306.617615,229.692123 
	C309.564270,227.351776 313.170959,225.832382 316.073486,223.449020 
	C320.505341,219.809921 325.988708,217.769516 329.809509,213.038132 
	C332.431427,209.791367 336.741211,207.888153 340.355988,205.473480 
	C341.586731,204.651337 343.270782,204.370636 344.267548,203.366089 
	C345.940063,201.680466 347.227783,199.613052 348.677399,197.706268 
	C346.603668,197.142212 344.557648,196.286636 342.449341,196.085922 
	C339.648285,195.819229 336.798553,196.063202 333.101898,196.075500 
	C330.486572,196.708817 328.739075,197.354416 326.991608,198.000000 
z"/>
<path fill="#2F7E97" opacity="1.000000" stroke="none" 
	d="
M65.323532,218.909439 
	C65.001549,203.426331 64.907547,188.073303 64.929970,172.720428 
	C64.932190,171.199722 65.645729,169.680084 66.850479,168.050674 
	C69.799080,168.108826 71.926338,168.276230 73.439865,168.395355 
	C71.800133,170.329391 69.260612,171.931458 69.210617,173.607788 
	C68.863060,185.260071 68.970024,196.928650 69.137077,208.589050 
	C69.152916,209.694290 70.450485,211.587006 71.381310,211.741867 
	C77.204453,212.710678 83.101776,213.964264 88.957466,213.883621 
	C118.323242,213.479263 147.683746,212.692001 176.879990,212.392181 
	C173.863052,213.167343 170.985260,213.462326 168.171158,214.058060 
	C166.393143,214.434433 164.710220,215.259903 162.984634,215.883942 
	C154.970688,215.933609 146.956757,215.983292 138.475677,216.063599 
	C115.764351,216.046005 93.520126,216.002350 71.275948,215.942520 
	C68.992958,215.936386 66.769943,215.913269 66.992966,219.592316 
	C66.540474,219.688461 66.062340,219.364014 65.323532,218.909439 
z"/>
<path fill="#185678" opacity="1.000000" stroke="none" 
	d="
M228.973343,288.893097 
	C221.079742,294.701752 213.199539,300.528778 205.280075,306.301971 
	C203.877945,307.324127 202.312317,308.122009 200.225616,308.798096 
	C199.389954,307.737122 199.150879,306.901520 199.025909,305.736816 
	C200.592316,303.839203 201.816269,301.935913 203.537552,300.761658 
	C210.025574,296.335480 216.930435,292.479767 223.150726,287.719757 
	C226.008499,285.532898 228.599960,282.036743 229.634262,278.625519 
	C231.887070,271.195557 239.048141,264.394562 247.066513,264.112366 
	C250.613937,263.987549 253.399612,263.473877 255.481979,260.203949 
	C256.873566,258.018738 259.066925,257.068359 261.005432,260.389282 
	C257.371338,263.961823 253.966293,267.461151 250.061279,270.263824 
	C245.817749,273.309448 240.679825,275.201263 236.738281,278.546356 
	C233.532150,281.267303 231.516769,285.391296 228.973343,288.893097 
z"/>
<path fill="#25607F" opacity="1.000000" stroke="none" 
	d="
M198.911804,306.065918 
	C199.150879,306.901520 199.389954,307.737122 199.860565,308.808777 
	C193.457458,316.613434 185.242599,316.557190 178.048706,309.918121 
	C172.753189,305.031036 166.414291,301.286957 160.661270,296.875793 
	C158.874130,295.505493 157.482956,293.618805 156.296906,291.364502 
	C156.950363,285.500244 157.217407,280.239990 157.484451,274.979736 
	C157.953568,277.438660 158.420670,279.898010 158.892380,282.356415 
	C159.360687,284.797150 159.833618,287.236969 161.042084,289.822754 
	C163.540833,288.677399 165.302017,287.386475 167.386810,286.083984 
	C168.142136,286.063751 168.573837,286.055054 169.083099,286.338806 
	C168.941071,288.121094 169.130722,289.858429 168.412308,291.046753 
	C167.120163,293.184082 166.362976,294.530182 169.209641,296.175568 
	C172.576599,298.121643 175.934921,300.345673 178.666336,303.079346 
	C187.145798,311.565796 190.080978,309.891052 198.911804,306.065918 
z"/>
<path fill="#B2D7D4" opacity="1.000000" stroke="none" 
	d="
M201.954742,76.619049 
	C201.071442,78.409668 200.091660,79.920593 198.931564,81.277313 
	C198.286453,82.031754 197.340698,82.529121 196.219238,82.658463 
	C194.679291,81.249878 192.895767,79.267097 192.312271,79.573044 
	C188.659195,81.488434 185.386429,84.116753 181.774887,86.126511 
	C175.491501,89.623131 169.005585,92.754883 162.705383,96.222733 
	C160.331512,97.529396 156.496933,97.625954 156.711731,101.934593 
	C155.404816,101.401039 154.401337,100.847900 153.244370,100.204796 
	C153.090881,100.114830 152.797028,99.914169 152.919174,99.589096 
	C153.960968,98.343048 154.754700,97.230247 155.819885,96.530960 
	C165.872742,89.931381 175.971863,83.402283 186.057648,76.852859 
	C190.396744,72.753929 196.603958,72.907402 201.954742,76.619049 
z"/>
<path fill="#245875" opacity="1.000000" stroke="none" 
	d="
M229.329956,288.933716 
	C231.516769,285.391296 233.532150,281.267303 236.738281,278.546356 
	C240.679825,275.201263 245.817749,273.309448 250.061279,270.263824 
	C253.966293,267.461151 257.371338,263.961823 261.335541,260.386627 
	C262.114990,259.999542 262.555573,259.995209 263.330627,259.993164 
	C264.111176,259.995300 264.557190,259.995209 265.298859,259.914886 
	C266.070465,259.225525 266.546417,258.616425 267.348297,258.005920 
	C268.108398,258.002563 268.542603,258.000671 269.099121,258.250458 
	C269.475464,259.000793 269.729492,259.499481 269.983490,259.998138 
	C256.551178,269.656860 243.118866,279.315582 229.329956,288.933716 
z"/>
<path fill="#185678" opacity="1.000000" stroke="none" 
	d="
M270.307434,259.866791 
	C269.729492,259.499481 269.475464,259.000793 269.114532,257.871643 
	C269.468658,256.256165 269.662323,254.863068 270.436401,254.356018 
	C274.036377,251.997940 277.818848,249.920334 281.478851,247.650284 
	C282.097504,247.266571 282.617584,246.498688 282.876556,245.795380 
	C285.307434,239.193314 289.707672,235.503479 296.955261,236.359650 
	C295.263153,237.937851 293.790436,239.457779 292.002319,240.334412 
	C288.677704,241.964310 286.028442,243.777588 287.041626,248.077484 
	C286.407471,248.571274 285.773346,249.065079 284.702576,249.861084 
	C283.813599,250.439789 283.361298,250.716324 282.908997,250.992859 
	C278.816467,253.907043 274.723938,256.821259 270.307434,259.866791 
z"/>
<path fill="#356A88" opacity="1.000000" stroke="none" 
	d="
M128.003311,231.992462 
	C133.394058,232.024918 138.787643,231.970474 144.173752,232.145584 
	C145.684082,232.194702 147.172440,232.919281 148.840973,233.683365 
	C137.992569,234.026352 126.974052,234.020020 115.020279,233.984558 
	C106.093887,233.956757 98.102753,233.958099 90.111626,233.959427 
	C88.381310,232.886581 86.650986,231.813736 84.895615,230.370422 
	C87.243393,230.037033 89.616219,230.074112 92.622406,230.456482 
	C94.783836,231.191132 96.308434,231.901321 97.840523,231.917831 
	C107.893883,232.026260 117.948860,231.984924 128.003311,231.992462 
z"/>
<path fill="#9FD4CD" opacity="1.000000" stroke="none" 
	d="
M361.967468,191.747742 
	C358.227570,192.703934 354.540619,193.764542 350.834473,193.836456 
	C334.210022,194.158951 317.580048,194.200241 300.640686,193.859177 
	C302.172119,192.927368 304.011261,192.108398 305.858398,192.089966 
	C320.856506,191.940155 335.856293,191.964279 350.855103,191.868134 
	C353.028809,191.854187 355.865479,192.631577 356.367249,189.001740 
	C358.435089,189.395111 360.139923,189.700104 361.844757,190.005081 
	C361.900391,190.469025 361.955994,190.932983 361.967468,191.747742 
z"/>
<path fill="#E2F2F0" opacity="1.000000" stroke="none" 
	d="
M66.701569,163.723892 
	C65.882500,163.971252 65.063423,164.218613 64.051880,164.732269 
	C64.934639,162.793793 65.430290,159.789902 67.182755,158.518890 
	C76.024307,152.106262 85.193291,146.145081 94.618866,140.403519 
	C94.995438,141.189499 95.000534,141.597443 94.779076,142.196060 
	C94.034515,142.974594 93.516510,143.562469 92.690155,144.177170 
	C91.888519,144.781128 91.395226,145.358276 90.940872,145.948792 
	C90.979813,145.962173 90.934067,145.893707 90.605385,145.904251 
	C89.854500,146.025391 89.432297,146.135986 88.682251,146.318848 
	C86.568619,147.662567 84.782814,148.934021 82.697769,150.234558 
	C81.945808,150.847992 81.493095,151.432312 81.018997,152.007477 
	C80.997604,151.998291 81.016754,152.040756 80.713318,152.107651 
	C79.914520,152.768051 79.419151,153.361557 78.961998,153.965332 
	C79.000206,153.975632 78.938362,153.926071 78.601158,154.002426 
	C74.409821,157.293823 70.555695,160.508850 66.701569,163.723892 
z"/>
<path fill="#C2E4E2" opacity="1.000000" stroke="none" 
	d="
M95.005630,142.005402 
	C95.000534,141.597443 94.995438,141.189499 94.987823,140.475555 
	C112.341331,140.109848 129.697495,140.071594 147.053177,139.956970 
	C148.774338,139.945618 150.492432,139.468033 152.637115,139.413971 
	C153.026871,140.400314 152.991470,141.179535 152.492004,141.980011 
	C133.020508,142.002655 114.013069,142.004028 95.005630,142.005402 
z"/>
<path fill="#E2F2F0" opacity="1.000000" stroke="none" 
	d="
M185.895325,76.530853 
	C175.971863,83.402283 165.872742,89.931381 155.819885,96.530960 
	C154.754700,97.230247 153.960968,98.343048 152.601746,99.612091 
	C151.735153,99.965462 151.308151,99.970757 150.881149,99.976051 
	C153.244019,97.310013 155.262527,94.190910 158.044571,92.076363 
	C163.150406,88.195541 168.578354,84.687889 174.119965,81.448898 
	C177.766251,79.317711 181.846878,77.929665 185.895325,76.530853 
z"/>
<path fill="#E2F2F0" opacity="1.000000" stroke="none" 
	d="
M361.818726,189.649811 
	C360.139923,189.700104 358.435089,189.395111 356.374908,188.776611 
	C356.019562,188.463089 356.002960,188.011200 356.002960,188.011200 
	C349.410828,183.248627 342.796265,178.516510 336.247528,173.695038 
	C335.090302,172.843018 334.207489,171.618210 333.109894,170.230331 
	C337.121704,172.192474 341.327606,174.322601 345.290833,176.835510 
	C349.052429,179.220535 352.594116,181.960663 356.165619,184.634018 
	C358.113037,186.091690 359.921539,187.734955 361.818726,189.649811 
z"/>
<path fill="#E2F2F0" opacity="1.000000" stroke="none" 
	d="
M315.072144,157.595154 
	C311.021240,155.257278 306.865723,152.645325 302.877197,149.799377 
	C297.275635,145.802475 291.798157,141.631714 286.142517,137.213562 
	C289.526184,138.637070 293.206390,140.110397 296.504913,142.189316 
	C301.886597,145.581161 307.092438,149.269348 312.205505,153.057846 
	C313.479034,154.001465 314.113739,155.807190 315.072144,157.595154 
z"/>
<path fill="#245875" opacity="1.000000" stroke="none" 
	d="
M287.356445,247.913879 
	C286.028442,243.777588 288.677704,241.964310 292.002319,240.334412 
	C293.790436,239.457779 295.263153,237.937851 297.247681,236.284607 
	C298.405304,235.244858 299.193481,234.628708 299.981628,234.012543 
	C300.918457,234.472183 301.855286,234.931839 302.893250,235.709396 
	C299.137634,241.570129 293.455353,244.726761 287.356445,247.913879 
z"/>
<path fill="#E2F2F0" opacity="1.000000" stroke="none" 
	d="
M229.860596,96.624039 
	C229.695328,97.070984 229.258377,97.420418 229.116028,97.325951 
	C222.899124,93.200050 215.772156,90.273628 211.188477,83.551865 
	C217.316376,87.588684 223.521347,91.954079 229.860596,96.624039 
z"/>
<path fill="#C2E4E2" opacity="1.000000" stroke="none" 
	d="
M150.518646,100.175873 
	C151.308151,99.970757 151.735153,99.965462 152.479584,99.937164 
	C152.797028,99.914169 153.090881,100.114830 153.215714,100.654099 
	C153.301254,110.761711 153.261948,120.330040 153.148621,130.259155 
	C152.773636,131.763275 152.472687,132.906601 152.171753,134.049927 
	C151.499878,122.825180 150.828003,111.600433 150.518646,100.175873 
z"/>
<path fill="#E2F2F0" opacity="1.000000" stroke="none" 
	d="
M270.859894,125.617096 
	C269.750610,125.661163 268.339417,125.687637 267.287201,125.086082 
	C264.014008,123.214737 260.734528,121.290672 257.753815,119.001244 
	C256.477325,118.020767 255.932541,116.087578 255.056931,114.201630 
	C260.279755,117.648056 265.500977,121.480125 270.859894,125.617096 
z"/>
<path fill="#E2F2F0" opacity="1.000000" stroke="none" 
	d="
M255.019226,113.614609 
	C252.517914,112.920578 249.615250,112.302368 247.299484,110.787186 
	C244.359482,108.863556 241.895676,106.212135 239.155777,103.543358 
	C244.349518,106.572136 249.614044,109.932083 255.019226,113.614609 
z"/>
<path fill="#3A899E" opacity="1.000000" stroke="none" 
	d="
M155.053589,238.423584 
	C155.755432,239.500107 156.855072,241.022079 156.934799,242.595718 
	C157.178253,247.400879 157.029144,252.225906 156.708160,257.492401 
	C155.970078,257.949524 155.556625,257.957458 155.143158,257.965393 
	C155.090424,251.607819 155.037704,245.250229 155.053589,238.423584 
z"/>
<path fill="#7BBCB4" opacity="1.000000" stroke="none" 
	d="
M157.348938,274.992554 
	C157.217407,280.239990 156.950363,285.500244 156.308228,291.016602 
	C155.296127,290.225891 154.166107,289.204926 154.109802,288.127808 
	C153.896484,284.046661 154.031036,279.947296 154.451874,275.431213 
	C155.559296,275.009460 156.250305,275.011200 156.941315,275.012939 
	C156.941315,275.012939 157.213440,275.005402 157.348938,274.992554 
z"/>
<path fill="#72B7B5" opacity="1.000000" stroke="none" 
	d="
M156.987457,274.546234 
	C156.250305,275.011200 155.559296,275.009460 154.522339,275.008270 
	C154.469406,269.639832 154.762390,264.270844 155.099274,258.433624 
	C155.556625,257.957458 155.970078,257.949524 156.693314,257.959167 
	C157.013245,263.344330 157.023422,268.711914 156.987457,274.546234 
z"/>
<path fill="#72B7B5" opacity="1.000000" stroke="none" 
	d="
M152.106659,134.403961 
	C152.472687,132.906601 152.773636,131.763275 153.433807,130.285614 
	C154.170883,130.003494 154.548721,130.055710 154.913696,130.558853 
	C155.631836,135.325653 156.362823,139.641510 156.754166,143.924377 
	C155.326401,143.586517 154.238281,143.281631 153.101410,142.722290 
	C153.020447,142.298141 152.988251,142.128433 152.956055,141.958740 
	C152.991470,141.179535 153.026871,140.400314 153.028717,139.232025 
	C152.677307,137.481293 152.359451,136.119659 152.106659,134.403961 
z"/>
<path fill="#E2F2F0" opacity="1.000000" stroke="none" 
	d="
M90.213936,234.394043 
	C98.102753,233.958099 106.093887,233.956757 114.553368,234.004791 
	C112.228867,234.381882 109.440094,234.938599 106.642288,234.988510 
	C101.202950,235.085541 95.758553,234.898224 90.213936,234.394043 
z"/>
<path fill="#72B7B5" opacity="1.000000" stroke="none" 
	d="
M283.057098,251.279327 
	C283.361298,250.716324 283.813599,250.439789 284.536804,250.122955 
	C284.273529,250.577026 283.739349,251.071411 283.057098,251.279327 
z"/>
<path fill="#2F7E97" opacity="1.000000" stroke="none" 
	d="
M157.093826,143.957382 
	C156.362823,139.641510 155.631836,135.325653 154.943878,130.084412 
	C155.747208,123.710579 156.582275,118.270981 157.228943,112.809067 
	C157.469131,110.780365 157.267761,108.699379 157.267761,106.302902 
	C158.551910,106.661049 160.843689,107.300224 163.482330,107.966049 
	C166.961197,109.975983 170.093216,111.959274 173.225250,113.942574 
	C182.028152,120.075645 190.827896,126.213272 199.635803,132.339142 
	C202.432251,134.284073 205.250473,136.197708 208.529846,138.455841 
	C216.211563,144.391464 223.352219,150.091171 230.683640,155.533905 
	C232.441895,156.839203 234.834366,157.290161 237.038681,158.451172 
	C241.430878,162.178650 245.719559,165.589005 250.008240,168.999359 
	C254.338943,172.108612 258.696747,175.180939 262.993622,178.336288 
	C268.626312,182.472534 274.196625,186.693817 279.833038,190.824890 
	C280.600494,191.387375 281.595123,191.639923 282.817932,192.223892 
	C283.234375,192.694611 283.283478,192.983200 282.945099,193.649307 
	C279.098755,197.137100 275.584991,200.230164 272.119110,203.375931 
	C268.922791,206.276993 264.739594,206.685196 264.264618,204.005020 
	C263.576355,200.121185 262.202148,195.608551 263.491119,192.282944 
	C266.072540,185.622757 262.224792,182.713531 258.054596,179.806671 
	C252.572601,175.985428 246.785431,172.601654 241.124496,169.037659 
	C239.310257,167.895462 237.511841,166.722961 235.650970,165.661026 
	C231.248856,163.148834 223.551590,164.717300 220.551849,168.687195 
	C214.779846,176.325928 213.127472,176.578598 205.006973,171.714935 
	C202.496262,170.211151 199.674606,169.226532 196.676788,167.913925 
	C194.546997,166.567261 192.735733,165.310883 190.924454,164.054489 
	C190.924454,164.054489 190.982056,163.995193 190.901718,163.716995 
	C190.170181,162.983368 189.518982,162.527939 188.867783,162.072510 
	C187.838120,162.038788 186.808441,162.005051 185.077637,161.861023 
	C180.807144,159.536514 176.813110,157.787369 173.764343,155.003113 
	C168.735489,150.410583 163.756271,145.983398 157.093826,143.957382 
z"/>
<path fill="#C2E4E2" opacity="1.000000" stroke="none" 
	d="
M157.015167,101.915009 
	C156.496933,97.625954 160.331512,97.529396 162.705383,96.222733 
	C169.005585,92.754883 175.491501,89.623131 181.774887,86.126511 
	C185.386429,84.116753 188.659195,81.488434 192.312271,79.573044 
	C192.895767,79.267097 194.679291,81.249878 195.919159,82.533806 
	C189.864212,87.271790 183.798172,91.650543 177.042572,96.154472 
	C173.893311,98.159050 171.433624,100.038460 168.645935,101.929970 
	C167.880997,101.970360 167.444061,101.998634 166.656387,102.115677 
	C164.477936,102.848129 162.650223,103.491814 160.498352,104.083687 
	C159.121201,103.326256 158.068192,102.620636 157.015167,101.915009 
z"/>
<path fill="#93CCC5" opacity="1.000000" stroke="none" 
	d="
M236.935165,158.134033 
	C234.834366,157.290161 232.441895,156.839203 230.683640,155.533905 
	C223.352219,150.091171 216.211563,144.391464 208.890442,138.462875 
	C209.198227,137.003418 209.616547,135.867081 209.848465,135.237091 
	C218.106964,140.786057 226.396378,146.293076 234.590118,151.938934 
	C235.640137,152.662445 236.192474,154.108215 236.978394,155.957031 
	C236.965988,157.174438 236.950577,157.654236 236.935165,158.134033 
z"/>
<path fill="#9CD0CA" opacity="1.000000" stroke="none" 
	d="
M168.973938,101.917862 
	C171.433624,100.038460 173.893311,98.159050 176.687256,96.216171 
	C176.445541,97.397202 176.161804,98.946259 175.240204,99.830597 
	C172.151138,102.794769 172.031418,107.229233 175.269089,110.097023 
	C177.978210,112.496666 176.894562,113.520432 173.586884,113.941071 
	C170.093216,111.959274 166.961197,109.975983 163.348083,107.670441 
	C162.185501,106.277298 161.503998,105.206390 160.822495,104.135490 
	C162.650223,103.491814 164.477936,102.848129 166.735870,102.407837 
	C167.773804,103.078148 168.381516,103.545074 169.047119,104.242340 
	C169.407104,104.749916 169.709213,105.027138 170.011322,105.304359 
	C170.107971,105.196869 170.204636,105.089378 170.301285,104.981888 
	C169.871704,104.650841 169.442108,104.319786 169.009827,103.643906 
	C168.996048,102.838676 168.984985,102.378265 168.973938,101.917862 
z"/>
<path fill="#9FD4CD" opacity="1.000000" stroke="none" 
	d="
M237.038681,158.451172 
	C236.950577,157.654236 236.965988,157.174438 236.987518,156.334259 
	C239.764282,157.087753 242.630157,158.015121 245.279037,159.367508 
	C247.978714,160.745865 250.545883,162.430695 253.002563,164.213531 
	C253.912689,164.874023 254.343811,166.194534 255.011658,167.602142 
	C253.579559,168.225006 252.129211,168.459793 250.343552,168.846970 
	C245.719559,165.589005 241.430878,162.178650 237.038681,158.451172 
z"/>
<path fill="#30819B" opacity="1.000000" stroke="none" 
	d="
M196.995316,168.004211 
	C199.674606,169.226532 202.496262,170.211151 205.006973,171.714935 
	C213.127472,176.578598 214.779846,176.325928 220.551849,168.687195 
	C223.551590,164.717300 231.248856,163.148834 235.650970,165.661026 
	C237.511841,166.722961 239.310257,167.895462 241.124496,169.037659 
	C246.785431,172.601654 252.572601,175.985428 258.054596,179.806671 
	C262.224792,182.713531 266.072540,185.622757 263.491119,192.282944 
	C262.202148,195.608551 263.576355,200.121185 264.264618,204.005020 
	C264.739594,206.685196 268.922791,206.276993 272.119110,203.375931 
	C275.584991,200.230164 279.098755,197.137100 282.937195,193.869690 
	C284.489624,194.932541 285.696503,196.146759 286.627563,197.695374 
	C285.906769,198.060822 285.461853,198.091858 284.691467,198.187897 
	C275.602753,205.459686 266.942932,212.797485 258.041046,219.828781 
	C251.738449,224.806976 245.253525,229.587189 238.582870,234.057114 
	C232.210220,238.327362 227.552933,244.822311 220.281433,247.911743 
	C219.574097,248.212265 219.406097,249.633835 218.817993,250.405701 
	C218.245026,251.157730 217.548859,251.906235 216.743301,252.375778 
	C212.021301,255.128098 207.189697,257.698975 202.551193,260.582214 
	C201.655273,261.139130 201.451538,262.809601 200.560852,263.973694 
	C198.881958,264.580139 197.421097,264.975372 196.283096,265.810547 
	C187.156143,272.508911 178.090164,279.290344 169.005524,286.046387 
	C168.573837,286.055054 168.142136,286.063751 167.293945,285.775513 
	C166.247192,284.975128 165.616959,284.471649 164.986710,283.968201 
	C170.061539,280.080139 175.612381,276.666382 180.084396,272.177734 
	C185.086212,267.157318 192.811905,265.959595 196.693024,259.540100 
	C197.361755,258.434021 199.306656,258.178192 200.464600,257.276184 
	C207.132446,252.081863 213.796143,246.878326 220.316620,241.502518 
	C221.439819,240.576508 221.868896,238.808578 222.618591,237.429535 
	C221.345047,236.771149 220.119370,235.688263 218.788498,235.538193 
	C215.499786,235.167389 212.155579,235.325150 208.847031,235.085785 
	C203.463501,234.696289 197.931305,234.782227 192.770370,233.461685 
	C189.435654,232.608414 186.759567,229.413345 183.590454,227.616760 
	C180.263046,225.730423 176.699524,224.260605 173.099121,222.256317 
	C174.250656,220.788940 175.542236,219.674011 177.302597,218.195038 
	C180.741425,216.422028 180.467819,214.352875 179.276489,211.932266 
	C185.889038,205.910965 192.250153,200.063309 198.436768,194.036530 
	C201.982056,190.582855 204.992996,186.548874 208.716248,183.320160 
	C211.474136,180.928574 211.079132,179.219971 208.726181,177.350571 
	C207.057648,176.024963 204.975952,175.216187 203.321655,173.876633 
	C201.090652,172.070084 199.093079,169.975296 196.995316,168.004211 
z"/>
<path fill="#3A899E" opacity="1.000000" stroke="none" 
	d="
M164.594498,283.986145 
	C165.616959,284.471649 166.247192,284.975128 166.970306,285.787048 
	C165.302017,287.386475 163.540833,288.677399 161.417664,289.948608 
	C161.305817,287.529755 159.851761,284.225555 164.594498,283.986145 
z"/>
<path fill="#C2E4E2" opacity="1.000000" stroke="none" 
	d="
M355.534058,188.016006 
	C356.002960,188.011200 356.019562,188.463089 356.011902,188.688202 
	C355.865479,192.631577 353.028809,191.854187 350.855103,191.868134 
	C335.856293,191.964279 320.856506,191.940155 305.858398,192.089966 
	C304.011261,192.108398 302.172119,192.927368 300.186890,193.741669 
	C296.623840,194.167633 293.203186,194.227295 289.500671,193.856598 
	C292.517517,192.287979 295.763977,190.400070 299.125671,190.165787 
	C306.368469,189.661011 313.674225,190.128876 320.945740,189.913422 
	C322.652893,189.862839 324.326477,188.678787 326.015503,188.016190 
	C335.698730,188.017731 345.381927,188.019272 355.534058,188.016006 
z"/>
<path fill="#B2D7D4" opacity="1.000000" stroke="none" 
	d="
M325.545471,188.004578 
	C324.326477,188.678787 322.652893,189.862839 320.945740,189.913422 
	C313.674225,190.128876 306.368469,189.661011 299.125671,190.165787 
	C295.763977,190.400070 292.517517,192.287979 289.095459,193.763977 
	C287.757263,193.672119 286.542450,193.242538 285.138397,192.532288 
	C284.642548,188.556061 286.782867,187.941666 289.898163,187.967056 
	C301.623199,188.062576 313.349548,187.997726 325.545471,188.004578 
z"/>
<path fill="#185678" opacity="1.000000" stroke="none" 
	d="
M127.845398,231.634995 
	C117.948860,231.984924 107.893883,232.026260 97.840523,231.917831 
	C96.308434,231.901321 94.783836,231.191132 93.063797,230.462555 
	C103.129364,230.085846 113.387222,230.001373 123.644096,230.067596 
	C124.994438,230.076324 126.339813,230.855301 127.845398,231.634995 
z"/>
<path fill="#356A88" opacity="1.000000" stroke="none" 
	d="
M178.951904,212.030853 
	C180.467819,214.352875 180.741425,216.422028 177.494110,217.931549 
	C174.902054,217.346802 172.624786,216.432007 170.261139,216.045349 
	C168.195114,215.707367 166.031891,215.963593 163.448120,215.920624 
	C164.710220,215.259903 166.393143,214.434433 168.171158,214.058060 
	C170.985260,213.462326 173.863052,213.167343 177.197342,212.388641 
	C178.104507,212.031723 178.528198,212.031296 178.951904,212.030853 
z"/>
<path fill="#1B5A7E" opacity="1.000000" stroke="none" 
	d="
M299.987000,233.574585 
	C299.193481,234.628708 298.405304,235.244858 297.324768,235.936050 
	C289.707672,235.503479 285.307434,239.193314 282.876556,245.795380 
	C282.617584,246.498688 282.097504,247.266571 281.478851,247.650284 
	C277.818848,249.920334 274.036377,251.997940 270.436401,254.356018 
	C269.662323,254.863068 269.468658,256.256165 268.992188,257.619934 
	C268.542603,258.000671 268.108398,258.002563 267.049652,258.082520 
	C265.951141,258.772064 265.477173,259.383606 265.003204,259.995117 
	C264.557190,259.995209 264.111176,259.995300 263.399353,259.628174 
	C262.926361,251.608932 266.960815,246.868561 273.459381,243.484665 
	C275.719299,242.307892 277.478729,240.140259 279.405334,238.358765 
	C284.633820,233.524048 284.706116,226.739700 285.942322,220.458527 
	C286.698822,216.614563 288.117584,213.737137 291.914062,211.940308 
	C296.330750,209.849915 299.635040,202.775742 299.469788,198.010864 
	C308.292572,198.001984 316.646851,197.996628 325.001129,197.991272 
	C325.001129,197.991272 325.000244,197.999146 325.004700,198.000793 
	C321.543854,201.869202 318.065063,205.724030 314.616547,209.605728 
	C310.113647,214.674255 305.308716,219.525085 301.317291,224.970642 
	C299.865082,226.951935 300.376709,230.372650 299.987000,233.574585 
z"/>
<path fill="#1B5A7E" opacity="1.000000" stroke="none" 
	d="
M327.272827,198.214798 
	C328.739075,197.354416 330.486572,196.708817 332.638214,196.101730 
	C332.154938,199.161636 330.120117,199.432373 327.272827,198.214798 
z"/>
<path fill="#3A899E" opacity="1.000000" stroke="none" 
	d="
M179.276489,211.932266 
	C178.528198,212.031296 178.104507,212.031723 177.363449,212.035721 
	C147.683746,212.692001 118.323242,213.479263 88.957466,213.883621 
	C83.101776,213.964264 77.204453,212.710678 71.381310,211.741867 
	C70.450485,211.587006 69.152916,209.694290 69.137077,208.589050 
	C68.970024,196.928650 68.863060,185.260071 69.210617,173.607788 
	C69.260612,171.931458 71.800133,170.329391 73.439865,168.395355 
	C71.926338,168.276230 69.799080,168.108826 67.226891,167.902344 
	C68.356445,167.246490 69.929306,166.096100 71.505669,166.091278 
	C107.072479,165.982452 142.639709,165.977905 178.206650,166.051758 
	C180.106934,166.055710 181.985138,167.163223 183.909729,167.323517 
	C186.518234,167.540756 190.090286,169.871948 190.900848,164.440689 
	C192.735733,165.310883 194.546997,166.567261 196.676788,167.913925 
	C199.093079,169.975296 201.090652,172.070084 203.321655,173.876633 
	C204.975952,175.216187 207.057648,176.024963 208.726181,177.350571 
	C211.079132,179.219971 211.474136,180.928574 208.716248,183.320160 
	C204.992996,186.548874 201.982056,190.582855 198.436768,194.036530 
	C192.250153,200.063309 185.889038,205.910965 179.276489,211.932266 
z"/>
<path fill="#7BBCB4" opacity="1.000000" stroke="none" 
	d="
M156.754166,143.924377 
	C163.756271,145.983398 168.735489,150.410583 173.764343,155.003113 
	C176.813110,157.787369 180.807144,159.536514 184.691284,161.867355 
	C183.482101,162.654556 181.963303,163.893875 180.433380,163.907806 
	C164.954865,164.048645 149.474304,164.033691 133.994812,163.959976 
	C129.039398,163.936386 125.657166,161.097076 125.352386,156.290253 
	C127.039665,155.196350 128.323196,154.407974 129.715607,154.075241 
	C136.293610,152.503326 142.901398,151.056046 149.498566,149.564316 
	C149.132172,149.020004 148.765762,148.475677 148.399368,147.931351 
	C149.982971,146.279816 151.566574,144.628281 153.150177,142.976761 
	C154.238281,143.281631 155.326401,143.586517 156.754166,143.924377 
z"/>
<path fill="#93CCC5" opacity="1.000000" stroke="none" 
	d="
M153.101410,142.722290 
	C151.566574,144.628281 149.982971,146.279816 148.399368,147.931351 
	C148.765762,148.475677 149.132172,149.020004 149.498566,149.564316 
	C142.901398,151.056046 136.293610,152.503326 129.715607,154.075241 
	C128.323196,154.407974 127.039665,155.196350 125.352509,155.894714 
	C122.957817,156.015213 120.916573,156.015778 118.437790,155.676025 
	C118.000366,154.891296 118.000488,154.446854 118.277557,153.762177 
	C120.696327,153.008987 122.838150,152.496048 125.354385,151.981461 
	C126.982597,150.990936 128.236374,150.002060 129.490158,149.013184 
	C128.148666,148.025742 126.875572,146.322479 125.452698,146.186508 
	C121.356590,145.795044 117.193184,145.905716 113.071838,146.119736 
	C112.018280,146.174454 111.022583,147.343124 109.626297,148.031555 
	C107.412056,148.601532 105.599869,149.437958 103.725571,149.614334 
	C100.175018,149.948456 96.588844,149.903931 92.653519,150.017288 
	C91.195412,150.680740 90.101250,151.343597 89.003540,152.003235 
	C89.000000,152.000000 89.005524,152.007263 88.709488,152.085831 
	C87.941994,152.775146 87.470535,153.385895 86.999535,153.998322 
	C87.000000,154.000000 86.996658,153.999069 86.702629,154.079773 
	C85.937721,154.768021 85.466843,155.375580 84.598099,155.986755 
	C83.140434,155.999649 82.080627,156.008896 80.716995,155.930115 
	C79.921570,155.203400 79.429962,154.564743 78.938362,153.926071 
	C78.938362,153.926071 79.000206,153.975632 79.266235,153.903778 
	C80.027100,153.234863 80.521927,152.637817 81.016754,152.040756 
	C81.016754,152.040756 80.997604,151.998291 81.296875,151.932236 
	C82.063103,151.312607 82.530060,150.759048 82.997009,150.205475 
	C84.782814,148.934021 86.568619,147.662567 88.763535,146.547424 
	C89.759789,146.433716 90.346924,146.163712 90.934067,145.893707 
	C90.934067,145.893707 90.979813,145.962173 91.239494,145.898560 
	C91.998947,145.273422 92.498718,144.711868 92.998505,144.150330 
	C93.516510,143.562469 94.034515,142.974594 94.779076,142.196060 
	C114.013069,142.004028 133.020508,142.002655 152.492004,141.980011 
	C152.988251,142.128433 153.020447,142.298141 153.101410,142.722290 
z"/>
<path fill="#97CDC7" opacity="1.000000" stroke="none" 
	d="
M78.601158,154.002426 
	C79.429962,154.564743 79.921570,155.203400 80.692001,156.289734 
	C80.525848,158.237503 80.080864,159.737579 79.396927,162.043243 
	C84.330048,161.302002 88.664719,160.650696 92.999191,160.329651 
	C92.998344,161.100021 92.997681,161.540115 92.997025,161.980225 
	C84.558975,162.606201 76.120934,163.232178 67.192230,163.791016 
	C70.555695,160.508850 74.409821,157.293823 78.601158,154.002426 
z"/>
<path fill="#93CCC5" opacity="1.000000" stroke="none" 
	d="
M93.435440,161.988312 
	C92.997681,161.540115 92.998344,161.100021 93.247665,160.327759 
	C93.496330,159.995621 93.993263,159.994614 94.329407,159.975250 
	C95.445457,159.311401 96.225365,158.666901 97.447983,158.018738 
	C100.252586,158.002136 102.614479,157.989197 105.274139,157.903656 
	C106.049530,157.226639 106.527153,156.622238 107.447891,156.014648 
	C110.251343,155.996277 112.611664,155.981094 115.311722,155.978897 
	C116.105164,155.996628 116.558884,156.001373 117.012596,156.006134 
	C114.292465,157.214828 111.676254,158.868973 108.829102,159.533234 
	C103.919670,160.678589 98.866631,161.208344 93.435440,161.988312 
z"/>
<path fill="#97CDC7" opacity="1.000000" stroke="none" 
	d="
M117.259590,156.007019 
	C116.558884,156.001373 116.105164,155.996628 115.423248,155.669098 
	C116.130241,154.898361 117.065422,154.450394 118.000610,154.002426 
	C118.000488,154.446854 118.000366,154.891296 118.000397,155.669617 
	C118.000549,156.003510 117.506584,156.007889 117.259590,156.007019 
z"/>
<path fill="#3A899E" opacity="1.000000" stroke="none" 
	d="
M188.977188,162.361832 
	C189.518982,162.527939 190.170181,162.983368 190.882828,163.753479 
	C190.325043,163.595810 189.705826,163.123489 188.977188,162.361832 
z"/>
<path fill="#1A5B81" opacity="1.000000" stroke="none" 
	d="
M299.001251,198.014404 
	C299.635040,202.775742 296.330750,209.849915 291.914062,211.940308 
	C288.117584,213.737137 286.698822,216.614563 285.942322,220.458527 
	C284.706116,226.739700 284.633820,233.524048 279.405334,238.358765 
	C277.478729,240.140259 275.719299,242.307892 273.459381,243.484665 
	C266.960815,246.868561 262.926361,251.608932 263.064819,259.625946 
	C262.555573,259.995209 262.114990,259.999542 261.344299,260.006531 
	C259.066925,257.068359 256.873566,258.018738 255.481979,260.203949 
	C253.399612,263.473877 250.613937,263.987549 247.066513,264.112366 
	C239.048141,264.394562 231.887070,271.195557 229.634262,278.625519 
	C228.599960,282.036743 226.008499,285.532898 223.150726,287.719757 
	C216.930435,292.479767 210.025574,296.335480 203.537552,300.761658 
	C201.816269,301.935913 200.592316,303.839203 199.025909,305.736816 
	C190.080978,309.891052 187.145798,311.565796 178.666336,303.079346 
	C175.934921,300.345673 172.576599,298.121643 169.209641,296.175568 
	C166.362976,294.530182 167.120163,293.184082 168.412308,291.046753 
	C169.130722,289.858429 168.941071,288.121094 169.083084,286.338806 
	C178.090164,279.290344 187.156143,272.508911 196.283096,265.810547 
	C197.421097,264.975372 198.881958,264.580139 200.901443,264.005066 
	C202.177200,266.003784 202.744720,267.978455 203.678680,271.228088 
	C206.769775,270.799683 211.661499,271.532776 214.444824,269.449280 
	C220.708420,264.760620 225.830093,258.569702 231.658127,253.255157 
	C232.740204,252.268433 235.469208,251.687302 236.553146,252.355179 
	C240.417923,254.736572 244.059982,254.490677 247.902435,252.746658 
	C251.938385,250.914825 255.813171,248.154510 260.037201,247.433701 
	C268.034912,246.068985 273.327179,241.324097 277.985901,235.451950 
	C279.121338,234.020737 279.760712,231.906052 279.923401,230.044037 
	C280.568848,222.658310 281.730164,215.518661 286.999847,209.781326 
	C288.916351,207.694763 290.875854,205.647675 292.853577,203.542313 
	C290.720825,200.618561 284.784210,203.819794 285.016907,198.122894 
	C285.461853,198.091858 285.906769,198.060822 286.686584,198.023453 
	C287.021484,198.017136 287.043793,198.022552 287.145447,198.338272 
	C288.493896,198.442993 289.740662,198.231995 290.987427,198.020996 
	C291.428558,198.012711 291.869659,198.004425 293.073334,197.997513 
	C295.557678,198.004059 297.279449,198.009232 299.001251,198.014404 
z"/>
<path fill="#25607F" opacity="1.000000" stroke="none" 
	d="
M299.469788,198.010864 
	C297.279449,198.009232 295.557678,198.004059 293.404236,197.994339 
	C293.983063,197.319077 294.985077,196.081741 296.005371,196.066467 
	C304.890106,195.933350 313.778442,195.992447 322.664581,196.092850 
	C323.344604,196.100525 324.016113,196.859680 324.846375,197.630402 
	C316.646851,197.996628 308.292572,198.001984 299.469788,198.010864 
z"/>
<path fill="#1B5A7E" opacity="1.000000" stroke="none" 
	d="
M290.594391,198.013580 
	C289.740662,198.231995 288.493896,198.442993 287.155060,198.346069 
	C288.109100,198.027481 289.155243,198.016830 290.594391,198.013580 
z"/>
<path fill="#3A899E" opacity="1.000000" stroke="none" 
	d="
M160.498352,104.083687 
	C161.503998,105.206390 162.185501,106.277298 163.001251,107.643799 
	C160.843689,107.300224 158.551910,106.661049 157.267761,106.302902 
	C157.267761,108.699379 157.469131,110.780365 157.228943,112.809067 
	C156.582275,118.270981 155.747208,123.710579 154.956741,129.633484 
	C154.548721,130.055710 154.170883,130.003494 153.507858,129.924820 
	C153.261948,120.330040 153.301254,110.761711 153.369202,100.744064 
	C154.401337,100.847900 155.404816,101.401039 156.711731,101.934593 
	C158.068192,102.620636 159.121201,103.326256 160.498352,104.083687 
z"/>
<path fill="#185678" opacity="1.000000" stroke="none" 
	d="
M265.298859,259.914886 
	C265.477173,259.383606 265.951141,258.772064 266.723755,258.083923 
	C266.546417,258.616425 266.070465,259.225525 265.298859,259.914886 
z"/>
<path fill="#97CDC7" opacity="1.000000" stroke="none" 
	d="
M92.690155,144.177155 
	C92.498718,144.711868 91.998947,145.273422 91.200562,145.885193 
	C91.395226,145.358276 91.888519,144.781128 92.690155,144.177155 
z"/>
<path fill="#97CDC7" opacity="1.000000" stroke="none" 
	d="
M80.713318,152.107651 
	C80.521927,152.637817 80.027100,153.234863 79.228027,153.893494 
	C79.419151,153.361557 79.914520,152.768051 80.713318,152.107651 
z"/>
<path fill="#97CDC7" opacity="1.000000" stroke="none" 
	d="
M82.697762,150.234558 
	C82.530060,150.759048 82.063103,151.312607 81.318268,151.941406 
	C81.493095,151.432312 81.945808,150.847992 82.697762,150.234558 
z"/>
<path fill="#97CDC7" opacity="1.000000" stroke="none" 
	d="
M90.605385,145.904251 
	C90.346924,146.163712 89.759789,146.433716 89.091370,146.475159 
	C89.432297,146.135986 89.854500,146.025391 90.605385,145.904251 
z"/>
<path fill="#97CDC7" opacity="1.000000" stroke="none" 
	d="
M168.989243,104.011993 
	C168.381516,103.545074 167.773804,103.078148 167.086594,102.319077 
	C167.444061,101.998634 167.880997,101.970360 168.645935,101.929970 
	C168.984985,102.378265 168.996048,102.838676 169.003662,103.649475 
	C169.000214,103.999863 168.989243,104.011993 168.989243,104.011993 
z"/>
<path fill="#97CDC7" opacity="1.000000" stroke="none" 
	d="
M169.006378,103.994293 
	C169.442108,104.319786 169.871704,104.650841 170.301285,104.981888 
	C170.204636,105.089378 170.107971,105.196869 170.011322,105.304359 
	C169.709213,105.027138 169.407104,104.749916 169.047119,104.242340 
	C168.989243,104.011993 169.000214,103.999863 169.006378,103.994293 
z"/>
<path fill="#1D5E83" opacity="1.000000" stroke="none" 
	d="
M284.691467,198.187912 
	C284.784210,203.819794 290.720825,200.618561 292.853577,203.542313 
	C290.875854,205.647675 288.916351,207.694763 286.999847,209.781326 
	C281.730164,215.518661 280.568848,222.658310 279.923401,230.044037 
	C279.760712,231.906052 279.121338,234.020737 277.985901,235.451950 
	C273.327179,241.324097 268.034912,246.068985 260.037201,247.433701 
	C255.813171,248.154510 251.938385,250.914825 247.902435,252.746658 
	C244.059982,254.490677 240.417923,254.736572 236.553146,252.355179 
	C235.469208,251.687302 232.740204,252.268433 231.658127,253.255157 
	C225.830093,258.569702 220.708420,264.760620 214.444824,269.449280 
	C211.661499,271.532776 206.769775,270.799683 203.678680,271.228088 
	C202.744720,267.978455 202.177200,266.003784 201.269073,263.997742 
	C201.451538,262.809601 201.655273,261.139130 202.551193,260.582214 
	C207.189697,257.698975 212.021301,255.128098 216.743301,252.375778 
	C217.548859,251.906235 218.245026,251.157730 218.817993,250.405701 
	C219.406097,249.633835 219.574097,248.212265 220.281433,247.911743 
	C227.552933,244.822311 232.210220,238.327362 238.582870,234.057114 
	C245.253525,229.587189 251.738449,224.806976 258.041046,219.828781 
	C266.942932,212.797485 275.602753,205.459686 284.691467,198.187912 
z"/>
<path fill="#9FD4CD" opacity="1.000000" stroke="none" 
	d="
M118.277557,153.762177 
	C117.065422,154.450394 116.130241,154.898361 115.083527,155.656128 
	C112.611664,155.981094 110.251343,155.996277 107.152435,156.089996 
	C105.934700,156.771118 105.455536,157.373688 104.976372,157.976273 
	C102.614479,157.989197 100.252586,158.002136 97.111359,158.034271 
	C95.552444,158.700516 94.772850,159.347565 93.993263,159.994614 
	C93.993263,159.994614 93.496330,159.995621 93.247864,159.997498 
	C88.664719,160.650696 84.330048,161.302002 79.396927,162.043243 
	C80.080864,159.737579 80.525848,158.237503 80.995819,156.377777 
	C82.080627,156.008896 83.140434,155.999649 84.894012,155.910095 
	C86.057404,155.219543 86.527031,154.609299 86.996658,153.999069 
	C86.996658,153.999069 87.000000,154.000000 87.294647,153.918182 
	C88.061371,153.226669 88.533447,152.616959 89.005524,152.007263 
	C89.005524,152.007263 89.000000,152.000000 89.364853,151.997559 
	C90.825623,151.335648 91.921539,150.676163 93.017464,150.016693 
	C96.588844,149.903931 100.175018,149.948456 103.725571,149.614334 
	C105.599869,149.437958 107.412056,148.601532 110.090271,148.032623 
	C113.895706,148.003876 116.866951,148.100021 119.829514,147.980652 
	C122.759529,147.862625 124.607620,148.916946 124.979965,151.983093 
	C122.838150,152.496048 120.696327,153.008987 118.277557,153.762177 
z"/>
<path fill="#97CDC7" opacity="1.000000" stroke="none" 
	d="
M125.354385,151.981445 
	C124.607620,148.916946 122.759529,147.862625 119.829514,147.980652 
	C116.866951,148.100021 113.895706,148.003876 110.464287,148.001068 
	C111.022583,147.343124 112.018280,146.174454 113.071838,146.119736 
	C117.193184,145.905716 121.356590,145.795044 125.452698,146.186508 
	C126.875572,146.322479 128.148666,148.025742 129.490158,149.013184 
	C128.236374,150.002060 126.982597,150.990936 125.354385,151.981445 
z"/>
<path fill="#97CDC7" opacity="1.000000" stroke="none" 
	d="
M92.653519,150.017288 
	C91.921539,150.676163 90.825623,151.335648 89.368393,152.000793 
	C90.101250,151.343597 91.195412,150.680740 92.653519,150.017288 
z"/>
<path fill="#97CDC7" opacity="1.000000" stroke="none" 
	d="
M86.702621,154.079773 
	C86.527031,154.609299 86.057404,155.219543 85.291870,155.906464 
	C85.466843,155.375580 85.937721,154.768021 86.702621,154.079773 
z"/>
<path fill="#97CDC7" opacity="1.000000" stroke="none" 
	d="
M88.709488,152.085831 
	C88.533447,152.616959 88.061371,153.226669 87.294182,153.916519 
	C87.470535,153.385895 87.941994,152.775146 88.709488,152.085831 
z"/>
<path fill="#97CDC7" opacity="1.000000" stroke="none" 
	d="
M94.329407,159.975250 
	C94.772850,159.347565 95.552444,158.700516 96.668655,158.037933 
	C96.225365,158.666901 95.445457,159.311401 94.329407,159.975250 
z"/>
<path fill="#97CDC7" opacity="1.000000" stroke="none" 
	d="
M105.274139,157.903656 
	C105.455536,157.373688 105.934700,156.771118 106.709312,156.093201 
	C106.527153,156.622238 106.049530,157.226639 105.274139,157.903656 
z"/>
</svg>