<svg version="1.1" id="Layer_1" xmlns="http://www.w3.org/2000/svg" xmlns:xlink="http://www.w3.org/1999/xlink" x="0px" y="0px"
	 width="100%" viewBox="0 0 424 388" enable-background="new 0 0 424 388" xml:space="preserve">
<path fill="#FFFFFF" opacity="1.000000" stroke="none" 
	d="M339.935608,33.140137 
	C339.900085,32.102951 339.864563,31.065765 339.988647,29.110113 
	C339.988647,25.477020 339.988647,21.843927 339.988647,18.524843 
	C333.547516,15.572631 331.949738,23.212820 327.211670,23.577654 
	C324.463409,21.945528 324.441925,17.276339 319.448303,17.831535 
	C313.029114,18.545229 306.482025,18.108467 299.073303,17.999907 
	C293.697083,18.383223 288.320831,18.766541 282.244812,19.272886 
	C278.452942,21.833864 274.661102,24.394840 270.390289,27.109301 
	C270.235931,27.395647 270.081604,27.681993 269.087738,28.014015 
	C267.457703,28.105644 265.661835,27.782751 264.225037,28.357489 
	C256.090271,31.611525 247.959473,34.906334 240.038269,38.635330 
	C238.593948,39.315247 238.124298,42.065510 237.019363,44.795197 
	C237.343811,50.872616 237.894913,56.948063 237.947861,63.027843 
	C238.078125,77.986443 237.979324,92.947037 237.180267,107.654808 
	C232.826416,107.088219 228.472580,106.521629 223.687881,105.179382 
	C217.718842,105.122757 211.737671,104.832504 205.787643,105.141685 
	C203.818909,105.243988 201.930435,106.890678 199.336807,108.138466 
	C195.536591,110.148376 191.736374,112.158287 187.108643,114.021225 
	C177.353516,114.974388 169.426453,120.725304 160.639709,124.214081 
	C160.161362,124.404007 160.032440,125.910858 160.033279,126.804436 
	C160.043610,137.887558 160.108246,148.970642 159.976257,160.945663 
	C159.990570,164.881775 160.004883,168.817902 159.200378,172.938248 
	C155.805267,172.114731 151.919662,172.076553 149.107254,170.320053 
	C140.760193,165.106781 132.022690,165.510880 123.117157,167.461258 
	C120.433105,168.049072 118.012833,169.859985 115.484390,171.135696 
	C110.313919,173.744431 105.152039,176.370209 99.189728,179.040359 
	C94.349762,181.287704 89.356293,183.264297 84.729439,185.887527 
	C82.103325,187.376434 80.450569,190.011032 82.927338,193.777649 
	C82.873550,194.160767 82.819763,194.543900 82.096703,195.463150 
	C82.110985,211.592255 82.125275,227.721375 81.943932,244.793640 
	C82.005539,250.559982 82.067139,256.326324 82.050575,262.812286 
	C85.101509,266.685150 88.931725,268.695068 94.640060,268.138153 
	C99.018059,270.157806 103.288895,272.468414 107.798904,274.129669 
	C114.738991,276.686035 121.843224,278.796753 129.364761,281.690247 
	C130.890030,281.737549 132.415314,281.784851 134.694962,281.916382 
	C135.194138,281.848938 135.693298,281.781494 137.023804,281.784729 
	C141.461868,282.055389 145.675400,281.612274 149.765244,277.980225 
	C152.880875,277.620026 155.996506,277.259827 159.752991,277.360962 
	C160.432297,280.494995 159.154800,284.556305 163.450394,286.029297 
	C166.900513,287.212341 170.462021,288.070557 174.364716,289.716400 
	C182.827896,292.582611 191.632095,294.753998 199.586105,298.657684 
	C202.757858,300.214325 205.119797,299.852539 208.540039,300.085144 
	C210.036148,299.743958 211.532242,299.402771 213.662918,298.746277 
	C215.776154,297.442078 217.889389,296.137909 220.725693,294.904022 
	C226.740540,291.918671 232.755371,288.933289 239.116776,286.540161 
	C239.761429,286.662231 240.406082,286.784332 241.833771,287.067993 
	C245.492630,287.718658 249.140610,288.847076 252.812363,288.930573 
	C263.883545,289.182373 274.966705,289.161102 286.038788,288.934204 
	C288.670685,288.880249 291.277618,287.607513 294.634888,286.984467 
	C297.470612,285.334625 300.306305,283.684784 303.730560,281.718750 
	C305.993896,280.081055 308.034058,277.821259 310.559845,276.915009 
	C320.649750,273.294739 328.646545,266.613342 336.550964,259.794830 
	C338.079529,258.476288 339.823730,256.240540 339.775238,254.474396 
	C339.614105,248.608505 338.680786,242.763824 338.009674,235.987640 
	C337.950562,221.658829 337.891449,207.330002 337.932739,192.074600 
	C337.895599,186.050690 337.858459,180.026794 337.932220,173.071396 
	C337.656219,166.028198 337.380219,158.985016 337.024902,151.016357 
	C336.963470,144.675415 336.902039,138.334457 336.951263,131.063583 
	C336.914337,125.040871 336.877441,119.018158 336.953583,112.106224 
	C337.257202,107.397598 337.560791,102.688965 337.973114,97.098839 
	C337.931274,94.726944 337.889435,92.355042 337.963287,89.114624 
	C337.921722,87.070068 337.880188,85.025520 337.958466,82.134087 
	C338.253937,78.074425 338.549408,74.014771 338.942932,69.499847 
	C338.942932,69.499847 338.861176,69.041382 338.988281,68.352028 
	C338.943878,67.888885 338.899475,67.425743 338.940186,66.498993 
	C338.940186,66.498993 338.863617,66.033897 339.001190,65.356705 
	C338.959900,64.900063 338.918579,64.443413 338.975098,63.316921 
	C338.934448,62.869102 338.893799,62.421280 338.956940,61.504375 
	C338.956940,61.504375 338.863068,61.033215 338.991669,60.226360 
	C338.950897,59.140316 338.910126,58.054272 339.038635,56.151657 
	C339.318390,52.709023 339.598145,49.266384 339.978455,44.926311 
	C339.935120,41.257221 339.891815,37.588127 339.935608,33.140137 
z"/>
<path fill="#FABD7A" opacity="1.000000" stroke="none" 
	d="
M187.936172,114.168198 
	C191.736374,112.158287 195.536591,110.148376 200.081268,108.032127 
	C205.243622,107.268356 209.661499,106.610924 214.228027,106.289284 
	C222.192963,108.420792 230.009216,110.216507 237.884521,112.065628 
	C237.943573,112.119034 238.083817,112.194412 238.056641,112.642990 
	C237.994324,118.732819 237.959198,124.374077 237.602188,130.126953 
	C228.877182,134.222656 220.474045,138.206741 211.601486,142.150360 
	C204.739868,141.614746 198.317184,143.006866 192.270370,138.491974 
	C188.137253,135.405975 182.447632,134.295776 177.338867,132.661896 
	C173.653000,131.483078 169.777863,130.896103 165.608658,130.160522 
	C164.830551,131.947006 164.099426,133.615097 164.084167,135.289734 
	C163.969635,147.849426 163.996597,160.410416 163.978638,172.970993 
	C163.974686,175.726532 164.146820,178.635635 159.878387,177.407532 
	C159.952881,176.657990 160.034546,176.233459 160.461884,175.691071 
	C161.152008,170.401184 161.496445,165.229156 161.849792,159.585052 
	C161.875519,150.486328 161.810089,141.858109 161.974014,133.234253 
	C162.009506,131.367249 162.269760,128.562607 163.451370,127.819466 
	C169.097488,124.268555 175.101913,121.288658 180.967392,118.084572 
	C183.305695,116.807243 185.614136,115.475296 187.936172,114.168198 
z"/>
<path fill="#D0DC80" opacity="1.000000" stroke="none" 
	d="
M269.927277,27.968342 
	C270.081604,27.681993 270.235931,27.395647 271.015808,27.108780 
	C277.691925,28.653498 282.228668,26.421412 284.361237,21.154236 
	C291.149994,21.815632 297.583038,22.347839 304.262573,22.947853 
	C304.677704,23.040520 304.846283,23.065376 305.128632,23.420300 
	C308.876740,24.809387 312.511078,25.868412 316.560242,26.916504 
	C320.612518,27.307032 324.250031,27.708494 328.110840,28.362656 
	C329.204956,28.807156 330.075745,28.998955 331.040497,29.493057 
	C332.109161,31.156960 333.083862,32.518559 334.002502,34.234764 
	C331.919769,36.692142 329.893036,38.794914 327.658569,40.935242 
	C327.450867,40.972805 327.042480,41.079834 326.716736,40.914326 
	C321.708008,40.107281 318.321808,41.994907 315.717041,46.164066 
	C309.672333,48.925190 303.958435,51.574135 297.836304,54.179253 
	C296.775452,54.179993 296.003632,54.012032 295.488190,54.301155 
	C288.332672,58.314686 281.673767,52.718399 274.705688,53.225883 
	C274.497559,53.241039 274.229126,52.428856 274.366943,51.998787 
	C275.956512,51.810574 277.167999,51.625988 276.956543,51.658203 
	C276.581635,47.249283 276.039978,43.476158 276.001007,39.697849 
	C275.961182,35.843964 274.721710,33.813427 270.498962,33.888283 
	C269.009918,33.914677 267.497986,32.647125 266.274902,31.796728 
	C267.677979,30.404842 268.802612,29.186592 269.927277,27.968342 
z"/>
<path fill="#0D656E" opacity="1.000000" stroke="none" 
	d="
M337.104218,151.941818 
	C337.380219,158.985016 337.656219,166.028198 337.531555,173.699402 
	C336.752747,177.356216 336.452332,180.397614 335.964355,183.408646 
	C335.712463,184.963165 335.574493,187.374176 334.621033,187.842438 
	C327.893433,191.146378 322.582428,198.105225 313.773529,196.296677 
	C313.211517,196.181305 312.498810,196.546524 311.917328,196.818710 
	C306.167877,199.509766 305.744843,199.287918 303.184174,193.201706 
	C302.397705,191.332443 301.170624,189.648544 300.145294,187.879761 
	C299.432220,188.084229 298.719177,188.288712 298.006104,188.493179 
	C298.006104,196.330276 298.006104,204.167358 298.004852,212.472321 
	C298.003632,219.293793 298.003662,225.647415 298.002045,232.468842 
	C297.999054,238.623962 297.997681,244.311249 297.993988,250.466919 
	C297.987885,255.428558 298.147705,259.931183 297.891815,264.410034 
	C297.802094,265.980133 296.690521,267.491821 296.022461,268.558716 
	C295.984619,246.049469 295.969910,224.011703 295.961945,201.506989 
	C295.999176,193.698914 296.029602,186.357788 296.419067,178.861084 
	C297.184784,176.519562 297.844666,174.345016 297.943848,172.145203 
	C298.131836,167.976974 297.998260,163.794235 297.998260,158.331635 
	C300.581635,160.017731 302.214111,160.525436 302.896057,161.623474 
	C306.087677,166.762680 310.723450,166.802551 315.567749,165.239777 
	C319.779114,163.881180 323.657837,161.345184 327.921814,160.334595 
	C332.825409,159.172379 336.371307,157.305267 337.104218,151.941818 
z"/>
<path fill="#6F2737" opacity="1.000000" stroke="none" 
	d="
M159.112152,276.899597 
	C155.996506,277.259827 152.880875,277.620026 148.900208,278.026550 
	C143.706299,278.046478 139.422791,278.167480 136.192474,281.714020 
	C135.693298,281.781494 135.194138,281.848938 134.331421,281.417908 
	C133.993042,266.620087 134.018234,252.320740 134.438080,238.014984 
	C136.269928,238.273651 137.843857,238.249100 139.121384,238.852310 
	C145.839584,242.024399 145.736465,242.037582 149.270981,235.531036 
	C151.223923,231.935944 153.486435,228.509033 155.781921,224.721695 
	C157.657257,227.082367 158.817719,228.543152 160.014618,230.471191 
	C160.061737,244.158875 160.115051,257.379517 160.039474,270.599457 
	C160.027466,272.701202 159.435806,274.799622 159.112152,276.899597 
z"/>
<path fill="#085E6D" opacity="1.000000" stroke="none" 
	d="
M298.006104,212.004456 
	C298.006104,204.167358 298.006104,196.330276 298.006104,188.493179 
	C298.719177,188.288712 299.432220,188.084229 300.145294,187.879761 
	C301.170624,189.648544 302.397705,191.332443 303.184174,193.201706 
	C305.744843,199.287918 306.167877,199.509766 311.917328,196.818710 
	C312.498810,196.546524 313.211517,196.181305 313.773529,196.296677 
	C322.582428,198.105225 327.893433,191.146378 334.621033,187.842438 
	C335.574493,187.374176 335.712463,184.963165 335.964355,183.408646 
	C336.452332,180.397614 336.752747,177.356216 337.476135,174.165131 
	C337.858459,180.026794 337.895599,186.050690 337.535950,192.701248 
	C336.761566,195.012634 336.081573,196.693115 336.057678,198.382874 
	C335.941559,206.587204 336.001312,214.794052 335.609253,222.929077 
	C334.255127,222.606644 333.293091,222.148788 332.325409,222.136429 
	C324.872467,222.041153 317.418457,222.009140 309.964752,222.005783 
	C305.907074,222.003952 303.002319,220.609055 301.527527,216.451187 
	C300.929352,214.764771 299.213409,213.474823 298.006104,212.004456 
z"/>
<path fill="#418B95" opacity="1.000000" stroke="none" 
	d="
M293.896057,286.895386 
	C291.277618,287.607513 288.670685,288.880249 286.038788,288.934204 
	C274.966705,289.161102 263.883545,289.182373 252.812363,288.930573 
	C249.140610,288.847076 245.492630,287.718658 241.563080,286.649170 
	C241.516052,284.812317 241.739716,283.394318 242.332352,281.841370 
	C243.380325,277.761414 244.059341,273.816406 244.725479,269.946228 
	C248.456970,270.220947 252.218414,270.862823 255.942719,270.692535 
	C262.708221,270.383148 269.457489,269.649994 276.202515,268.982208 
	C282.124146,268.395935 288.030670,267.657104 293.960144,267.447113 
	C294.016968,271.614105 294.057434,275.319641 294.080566,279.462891 
	C294.007446,282.232208 293.951752,284.563782 293.896057,286.895386 
z"/>
<path fill="#166F6E" opacity="1.000000" stroke="none" 
	d="
M337.064575,151.479095 
	C336.371307,157.305267 332.825409,159.172379 327.921814,160.334595 
	C323.657837,161.345184 319.779114,163.881180 315.567749,165.239777 
	C310.723450,166.802551 306.087677,166.762680 302.896057,161.623474 
	C302.214111,160.525436 300.581635,160.017731 297.998260,158.331635 
	C297.998260,163.794235 298.131836,167.976974 297.943848,172.145203 
	C297.844666,174.345016 297.184784,176.519562 296.395264,178.391113 
	C296.034698,167.061295 296.056946,156.045868 296.413635,144.922333 
	C298.861206,144.554504 300.972992,144.095749 303.087830,144.081299 
	C306.330109,144.059128 309.765839,145.107529 312.781952,144.352798 
	C321.689667,142.123764 331.371552,141.038528 336.840576,131.993515 
	C336.902039,138.334457 336.963470,144.675415 337.064575,151.479095 
z"/>
<path fill="#044B65" opacity="1.000000" stroke="none" 
	d="
M296.045593,269.030182 
	C296.690521,267.491821 297.802094,265.980133 297.891815,264.410034 
	C298.147705,259.931183 297.987885,255.428558 298.335632,250.531265 
	C299.490509,250.664978 300.615143,251.017075 301.061005,251.770752 
	C303.859070,256.500153 307.844086,257.656433 312.898682,256.088165 
	C318.699829,254.288239 324.472229,252.377045 330.332214,250.791718 
	C334.489624,249.666962 336.636078,247.436371 335.998169,242.665817 
	C336.000031,241.888901 336.001221,241.444962 336.338501,240.886566 
	C337.130890,239.485077 337.587250,238.198044 338.043640,236.911011 
	C338.680786,242.763824 339.614105,248.608505 339.775238,254.474396 
	C339.823730,256.240540 338.079529,258.476288 336.550964,259.794830 
	C328.646545,266.613342 320.649750,273.294739 310.559845,276.915009 
	C308.034058,277.821259 305.993896,280.081055 303.036560,281.860504 
	C300.478516,282.344696 298.614471,282.687134 296.352936,283.102600 
	C296.231750,281.779938 296.103638,280.381653 295.979065,278.531433 
	C296.003632,275.063049 296.024597,272.046600 296.045593,269.030182 
z"/>
<path fill="#B14245" opacity="1.000000" stroke="none" 
	d="
M128.877808,281.096527 
	C121.843224,278.796753 114.738991,276.686035 107.798904,274.129669 
	C103.288895,272.468414 99.018059,270.157806 94.196976,267.652771 
	C91.212006,266.050140 88.670128,264.932892 86.105408,263.435669 
	C85.516449,260.400299 84.525719,257.748566 84.502808,255.088516 
	C84.479576,252.391678 85.412567,249.686600 86.272369,246.990143 
	C87.077217,246.996979 87.536430,246.998795 88.300789,247.177246 
	C95.749565,249.927368 102.880264,252.537521 110.040535,255.063889 
	C116.974854,257.510529 124.896675,258.463928 127.296844,267.375793 
	C127.577049,268.416260 129.067505,269.130737 130.006775,270.450256 
	C129.637054,274.301636 129.257431,277.699066 128.877808,281.096527 
z"/>
<path fill="#83333A" opacity="1.000000" stroke="none" 
	d="
M238.770218,285.947937 
	C232.755371,288.933289 226.740540,291.918671 220.364014,294.483917 
	C220.888535,292.220795 221.774734,290.377777 222.604919,288.651276 
	C214.002823,287.936188 214.002853,287.936188 213.998840,277.885345 
	C213.996857,272.929260 213.994736,267.973175 214.415894,263.011841 
	C219.063141,261.754181 223.399048,260.786224 227.483612,259.179352 
	C232.917908,257.041504 234.248520,257.472046 236.121002,262.917419 
	C236.392807,263.707886 237.341370,264.265594 238.007080,265.405518 
	C238.321457,271.895721 238.605545,277.911377 238.878754,284.265198 
	C238.835312,285.051544 238.802765,285.499725 238.770218,285.947937 
z"/>
<path fill="#21766F" opacity="1.000000" stroke="none" 
	d="
M336.895935,131.528549 
	C331.371552,141.038528 321.689667,142.123764 312.781952,144.352798 
	C309.765839,145.107529 306.330109,144.059128 303.087830,144.081299 
	C300.972992,144.095749 298.861206,144.554504 296.390137,144.451233 
	C296.046967,138.068695 296.061707,132.049133 296.479675,126.023315 
	C300.131042,126.999146 303.571075,129.195816 306.588837,128.719101 
	C313.608063,127.610237 320.457581,125.326897 327.309631,123.296043 
	C331.635590,122.013878 334.006195,118.807686 334.972198,114.424850 
	C335.101196,113.839546 336.194031,113.466675 336.840546,112.995438 
	C336.877441,119.018158 336.914337,125.040871 336.895935,131.528549 
z"/>
<path fill="#2A7B71" opacity="1.000000" stroke="none" 
	d="
M336.897064,112.550827 
	C336.194031,113.466675 335.101196,113.839546 334.972198,114.424850 
	C334.006195,118.807686 331.635590,122.013878 327.309631,123.296043 
	C320.457581,125.326897 313.608063,127.610237 306.588837,128.719101 
	C303.571075,129.195816 300.131042,126.999146 296.459778,125.556763 
	C296.013367,121.050232 295.990021,117.003990 295.972321,112.718781 
	C295.977936,112.479820 296.006805,112.002640 296.438965,112.001999 
	C302.547241,111.714012 308.130493,114.838745 313.922180,112.126572 
	C318.077606,110.180649 322.404266,108.519409 326.788116,107.163063 
	C332.132111,105.509666 335.243683,102.633301 334.216858,96.632172 
	C334.181519,96.425674 334.582458,96.144531 334.860443,95.797951 
	C335.862640,96.526077 336.863525,97.253212 337.864380,97.980347 
	C337.560791,102.688965 337.257202,107.397598 336.897064,112.550827 
z"/>
<path fill="#478D78" opacity="1.000000" stroke="none" 
	d="
M338.855072,66.962608 
	C338.899475,67.425743 338.943878,67.888885 338.826355,68.795845 
	C338.525452,69.512367 338.585602,69.750854 338.844879,69.955109 
	C338.549408,74.014771 338.253937,78.074425 337.593689,82.561485 
	C336.822571,82.990280 336.416229,82.991676 336.008179,82.743690 
	C336.006531,82.494316 336.001221,81.995567 336.002930,81.529327 
	C336.004639,76.376900 336.004639,71.690712 336.004639,67.004517 
	C335.134827,66.673256 334.264984,66.342003 333.395172,66.010742 
	C336.394867,74.708107 331.104004,76.076385 325.635010,77.308952 
	C325.160248,77.415962 324.744263,77.794395 324.269501,77.889427 
	C317.402985,79.263855 310.570038,80.898384 303.643219,81.837936 
	C300.428802,82.273941 298.001495,80.492485 297.903046,76.555328 
	C297.873199,75.361572 296.688690,74.196678 296.020844,72.551392 
	C295.996918,67.383675 295.985168,62.683125 295.996643,57.975952 
	C296.019806,57.969326 296.029419,58.016571 296.370239,58.142609 
	C298.911743,60.381218 297.471588,64.540787 302.060120,65.673698 
	C312.417267,68.230904 321.746582,65.045799 331.124786,61.745251 
	C332.362457,61.309673 333.039703,59.281750 333.979431,57.594650 
	C334.140839,55.760841 334.299377,54.323677 334.457916,52.886513 
	C334.975922,52.941154 335.493896,52.995792 336.011902,53.050434 
	C336.011902,55.461533 335.681183,57.937599 336.137268,60.259106 
	C336.406250,61.628250 337.922150,62.752430 338.877289,63.986771 
	C338.918579,64.443413 338.959900,64.900063 338.834259,65.797165 
	C338.530487,66.515312 338.593079,66.756973 338.855072,66.962608 
z"/>
<path fill="#338172" opacity="1.000000" stroke="none" 
	d="
M336.001221,81.995567 
	C336.001221,81.995567 336.006531,82.494316 336.004303,83.158813 
	C336.617218,85.876595 337.232391,87.929871 337.847565,89.983147 
	C337.889435,92.355042 337.931274,94.726944 337.918762,97.539597 
	C336.863525,97.253212 335.862640,96.526077 334.860443,95.797951 
	C334.582458,96.144531 334.181519,96.425674 334.216858,96.632172 
	C335.243683,102.633301 332.132111,105.509666 326.788116,107.163063 
	C322.404266,108.519409 318.077606,110.180649 313.922180,112.126572 
	C308.130493,114.838745 302.547241,111.714012 296.420105,111.535187 
	C295.990356,106.050545 296.011566,101.032074 296.390259,96.082390 
	C301.759796,99.243660 306.875671,99.763390 312.429077,97.412643 
	C317.167267,95.406990 322.028595,93.561760 326.997925,92.271172 
	C331.527039,91.094894 335.279297,89.947227 334.205475,84.039604 
	C334.104736,83.485382 335.370117,82.682823 336.001221,81.995567 
z"/>
<path fill="#DE4F3E" opacity="1.000000" stroke="none" 
	d="
M207.948059,299.838867 
	C205.119797,299.852539 202.757858,300.214325 199.586105,298.657684 
	C191.632095,294.753998 182.827896,292.582611 174.154297,289.017609 
	C172.685852,286.925873 171.545227,284.482056 170.149063,284.326111 
	C164.761551,283.724365 163.608871,280.575043 164.330963,276.008575 
	C165.117371,276.011322 165.566727,276.014008 166.102615,276.342224 
	C171.308838,281.756317 177.105515,285.595917 184.668137,283.889374 
	C189.556442,282.786285 194.216095,280.669983 199.388687,279.006897 
	C205.050598,277.506805 205.278076,282.965179 208.032547,285.361694 
	C208.628342,287.821350 209.211151,289.861115 209.824646,292.305176 
	C209.219589,295.085907 208.583817,297.462402 207.948059,299.838867 
z"/>
<path fill="#728A75" opacity="1.000000" stroke="none" 
	d="
M238.943497,286.244049 
	C238.802765,285.499725 238.835312,285.051544 239.156708,283.963440 
	C239.631973,281.194366 239.979477,279.065277 239.981155,276.935913 
	C240.019638,228.088943 240.020447,179.241959 240.297913,130.296310 
	C240.746948,130.130905 240.926331,130.064133 241.314392,130.020126 
	C241.523056,130.042877 241.942886,130.086105 241.937683,130.497253 
	C241.940460,132.279221 241.948441,133.650024 241.952881,135.479370 
	C241.957062,139.633804 241.964783,143.329681 241.967224,147.485046 
	C241.969116,151.639175 241.976303,155.333847 241.980560,159.493591 
	C241.981934,165.977158 241.986237,171.995621 241.988129,178.468445 
	C241.996841,181.961395 242.007935,185.000000 242.014191,188.503174 
	C241.999832,206.632706 241.990295,224.297668 241.976685,242.433594 
	C241.969543,255.928482 241.966461,268.952393 241.963379,281.976288 
	C241.739716,283.394318 241.516052,284.812317 241.171555,286.568359 
	C240.406082,286.784332 239.761429,286.662231 238.943497,286.244049 
z"/>
<path fill="#D85A3F" opacity="1.000000" stroke="none" 
	d="
M163.993896,276.008545 
	C163.608871,280.575043 164.761551,283.724365 170.149063,284.326111 
	C171.545227,284.482056 172.685852,286.925873 173.958984,288.695862 
	C170.462021,288.070557 166.900513,287.212341 163.450394,286.029297 
	C159.154800,284.556305 160.432297,280.494995 159.432571,277.130280 
	C159.435806,274.799622 160.027466,272.701202 160.039474,270.599457 
	C160.115051,257.379517 160.061737,244.158875 160.059448,230.003906 
	C160.111618,217.365585 160.155411,205.661835 160.497498,193.954346 
	C161.191956,193.986130 161.588104,194.021622 161.979950,194.519684 
	C161.992172,207.947479 161.938522,220.913651 162.109650,233.876846 
	C162.132263,235.590225 163.300690,237.288483 163.944763,239.432068 
	C163.964249,241.918350 163.977402,243.966278 163.985703,246.480164 
	C163.989365,251.961578 163.997879,256.977051 164.002228,262.457642 
	C163.996674,267.284698 163.995285,271.646637 163.993896,276.008545 
z"/>
<path fill="#913935" opacity="1.000000" stroke="none" 
	d="
M129.121277,281.393372 
	C129.257431,277.699066 129.637054,274.301636 130.015015,269.982117 
	C130.020172,261.710754 130.026993,254.361481 130.042175,246.546265 
	C130.699661,240.277145 131.666199,234.487671 131.917328,228.667297 
	C132.229294,221.436539 131.949677,214.180283 132.121582,206.637482 
	C136.191711,204.525253 140.065811,202.710571 143.930145,201.273895 
	C142.342850,203.101334 140.971939,205.368622 139.144821,205.830246 
	C135.318985,206.796890 133.961594,208.840042 134.001617,212.539169 
	C134.093491,221.032394 134.038681,229.527206 134.043427,238.021378 
	C134.018234,252.320740 133.993042,266.620087 133.954224,281.375824 
	C132.415314,281.784851 130.890030,281.737549 129.121277,281.393372 
z"/>
<path fill="#FAFCF5" opacity="1.000000" stroke="none" 
	d="
M330.946533,29.190750 
	C330.075745,28.998955 329.204956,28.807156 328.031738,28.016735 
	C324.435303,24.113022 320.335510,23.621183 315.609375,23.965475 
	C311.836212,23.616959 308.425568,23.353598 305.014893,23.090235 
	C304.846283,23.065376 304.677704,23.040520 304.229034,22.605446 
	C302.629333,20.852585 301.309662,19.509939 299.990021,18.167295 
	C306.482025,18.108467 313.029114,18.545229 319.448303,17.831535 
	C324.441925,17.276339 324.463409,21.945528 327.208710,23.581654 
	C331.949738,23.212820 333.547516,15.572631 339.988647,18.524843 
	C339.988647,21.843927 339.988647,25.477020 339.534424,29.555401 
	C336.368988,29.730707 333.657776,29.460728 330.946533,29.190750 
z"/>
<path fill="#569688" opacity="1.000000" stroke="none" 
	d="
M338.926208,63.651848 
	C337.922150,62.752430 336.406250,61.628250 336.137268,60.259106 
	C335.681183,57.937599 336.011902,55.461533 336.011902,53.050434 
	C335.493896,52.995792 334.975922,52.941154 334.457916,52.886513 
	C334.299377,54.323677 334.140839,55.760841 333.614136,57.578247 
	C331.173431,56.975037 329.171051,55.785904 327.013977,55.050610 
	C322.412781,53.482201 320.043274,50.874428 322.179230,45.596039 
	C323.943787,43.939419 325.493134,42.509628 327.042480,41.079838 
	C327.042480,41.079834 327.450867,40.972805 328.024536,40.840157 
	C331.066528,39.815842 333.534821,38.924179 336.002258,38.489010 
	C336.957367,44.953079 337.913330,50.960655 338.869324,56.968231 
	C338.910126,58.054272 338.950897,59.140316 338.827637,60.731049 
	C338.531647,61.521008 338.594818,61.766918 338.853149,61.973457 
	C338.893799,62.421280 338.934448,62.869102 338.926208,63.651848 
z"/>
<path fill="#F9E8D2" opacity="1.000000" stroke="none" 
	d="
M160.116211,175.808945 
	C160.034546,176.233459 159.952881,176.657990 159.860718,177.451233 
	C159.850220,177.819946 159.920181,177.880859 159.590576,177.782593 
	C150.750565,174.985153 142.380280,171.623795 133.687943,169.784531 
	C125.952263,168.147736 119.231483,172.433838 112.521637,175.999176 
	C108.760895,177.997482 104.994072,181.432007 100.014343,179.025696 
	C100.005920,179.012863 99.986626,178.988968 99.986626,178.988968 
	C105.152039,176.370209 110.313919,173.744431 115.484390,171.135696 
	C118.012833,169.859985 120.433105,168.049072 123.117157,167.461258 
	C132.022690,165.510880 140.760193,165.106781 149.107254,170.320053 
	C151.919662,172.076553 155.805267,172.114731 159.663452,173.229401 
	C160.123108,174.283340 160.119659,175.046143 160.116211,175.808945 
z"/>
<path fill="#BED098" opacity="1.000000" stroke="none" 
	d="
M237.972626,107.906830 
	C237.979324,92.947037 238.078125,77.986443 237.947861,63.027843 
	C237.894913,56.948063 237.343811,50.872616 237.422638,44.306686 
	C238.448257,43.822117 239.070602,43.826057 240.019363,43.930038 
	C240.893204,44.653408 241.440613,45.276737 241.626343,46.065140 
	C240.993118,52.115257 240.693436,57.999462 240.517090,63.887348 
	C240.506027,64.256577 241.459351,64.654686 241.959778,65.475571 
	C241.318695,73.611061 240.496979,81.300919 240.104507,89.012619 
	C239.800156,94.992905 240.175339,101.006195 239.936722,106.992378 
	C239.866745,108.748215 238.731049,110.461578 238.083801,112.194412 
	C238.083817,112.194412 237.943573,112.119034 237.937790,111.656166 
	C237.945541,110.097809 237.959091,109.002319 237.972626,107.906830 
z"/>
<path fill="#F9E8D2" opacity="1.000000" stroke="none" 
	d="
M187.522400,114.094711 
	C185.614136,115.475296 183.305695,116.807243 180.967392,118.084572 
	C175.101913,121.288658 169.097488,124.268555 163.451370,127.819466 
	C162.269760,128.562607 162.009506,131.367249 161.974014,133.234253 
	C161.810089,141.858109 161.875519,150.486328 161.571136,159.583786 
	C160.908661,160.054306 160.533768,160.054016 160.158905,160.053726 
	C160.108246,148.970642 160.043610,137.887558 160.033279,126.804436 
	C160.032440,125.910858 160.161362,124.404007 160.639709,124.214081 
	C169.426453,120.725304 177.353516,114.974388 187.522400,114.094711 
z"/>
<path fill="#7B2E36" opacity="1.000000" stroke="none" 
	d="
M213.992676,263.017090 
	C213.994736,267.973175 213.996857,272.929260 213.998840,277.885345 
	C214.002853,287.936188 214.002823,287.936188 222.604919,288.651276 
	C221.774734,290.377777 220.888535,292.220795 220.002472,294.448761 
	C217.889389,296.137909 215.776154,297.442078 213.087311,298.572052 
	C212.378830,286.287598 212.245972,274.177368 212.348236,262.176514 
	C213.050308,262.524567 213.517258,262.763245 213.990479,263.001465 
	C213.996750,263.000977 213.992676,263.017090 213.992676,263.017090 
z"/>
<path fill="#F9E8D2" opacity="1.000000" stroke="none" 
	d="
M239.692932,43.829998 
	C239.070602,43.826057 238.448257,43.822117 237.515320,43.839119 
	C238.124298,42.065510 238.593948,39.315247 240.038269,38.635330 
	C247.959473,34.906334 256.090271,31.611525 264.225037,28.357489 
	C265.661835,27.782751 267.457703,28.105644 269.507507,27.991179 
	C268.802612,29.186592 267.677979,30.404842 265.882233,31.779146 
	C257.680847,34.809631 250.116592,37.600727 242.654312,40.642014 
	C241.436386,41.138390 240.668716,42.739498 239.692932,43.829998 
z"/>
<path fill="#B77679" opacity="1.000000" stroke="none" 
	d="
M82.765968,194.927017 
	C82.819763,194.543900 82.873550,194.160767 83.255295,193.449097 
	C84.003120,193.053848 84.423004,192.987122 85.202133,193.174347 
	C85.609825,210.956558 85.658257,228.484833 85.417725,245.900269 
	C84.685135,245.118866 84.241516,244.450287 83.777710,243.327103 
	C83.840179,228.410248 83.960312,213.947968 83.950050,199.485809 
	C83.948975,197.965927 83.179138,196.446594 82.765968,194.927017 
z"/>
<path fill="#BED098" opacity="1.000000" stroke="none" 
	d="
M82.431335,195.195084 
	C83.179138,196.446594 83.948975,197.965927 83.950050,199.485809 
	C83.960312,213.947968 83.840179,228.410248 83.507507,243.388474 
	C82.884834,243.886475 82.512199,243.868484 82.139557,243.850479 
	C82.125275,227.721375 82.110985,211.592255 82.431335,195.195084 
z"/>
<path fill="#04516A" opacity="1.000000" stroke="none" 
	d="
M338.026672,236.449326 
	C337.587250,238.198044 337.130890,239.485077 336.337402,240.418518 
	C335.999786,234.376633 335.999298,228.688309 335.998779,223.000000 
	C336.001312,214.794052 335.941559,206.587204 336.057678,198.382874 
	C336.081573,196.693115 336.761566,195.012634 337.485748,193.164551 
	C337.891449,207.330002 337.950562,221.658829 338.026672,236.449326 
z"/>
<path fill="#AC393C" opacity="1.000000" stroke="none" 
	d="
M212.113113,262.067139 
	C212.245972,274.177368 212.378830,286.287598 212.770020,298.729736 
	C211.532242,299.402771 210.036148,299.743958 208.244049,299.962006 
	C208.583817,297.462402 209.219589,295.085907 209.870300,291.850830 
	C209.929352,281.023132 209.884399,271.052032 210.102325,261.086731 
	C210.140106,259.359222 211.290100,257.656006 211.948029,256.292969 
	C211.997971,257.112885 212.026245,257.581421 212.043457,258.449585 
	C212.059280,259.921875 212.086197,260.994507 212.113113,262.067139 
z"/>
<path fill="#F9E8D2" opacity="1.000000" stroke="none" 
	d="
M237.576447,107.780823 
	C237.959091,109.002319 237.945541,110.097809 237.878754,111.602768 
	C230.009216,110.216507 222.192963,108.420792 214.678101,106.266922 
	C218.025909,105.924187 221.072327,105.939613 224.118729,105.955032 
	C228.472580,106.521629 232.826416,107.088219 237.576447,107.780823 
z"/>
<path fill="#F9E8D2" opacity="1.000000" stroke="none" 
	d="
M84.842880,192.920410 
	C84.423004,192.987122 84.003120,193.053848 83.266594,193.157654 
	C80.450569,190.011032 82.103325,187.376434 84.729439,185.887527 
	C89.356293,183.264297 94.349762,181.287704 99.588181,179.014664 
	C99.986626,178.988968 100.005920,179.012863 100.036026,179.405029 
	C98.490509,181.204849 97.023773,182.764832 95.315002,183.986191 
	C92.401802,186.068420 89.336609,187.937973 85.989319,190.029297 
	C85.376534,191.081284 85.109703,192.000839 84.842880,192.920410 
z"/>
<path fill="#F9E8D2" opacity="1.000000" stroke="none" 
	d="
M299.531677,18.083599 
	C301.309662,19.509939 302.629333,20.852585 303.982544,22.537638 
	C297.583038,22.347839 291.149994,21.815632 284.244507,20.910809 
	C283.496277,20.075413 283.220459,19.612635 282.944611,19.149857 
	C288.320831,18.766541 293.697083,18.383223 299.531677,18.083599 
z"/>
<path fill="#7F725F" opacity="1.000000" stroke="none" 
	d="
M82.041748,244.322052 
	C82.512199,243.868484 82.884834,243.886475 83.527687,243.843094 
	C84.241516,244.450287 84.685135,245.118866 85.481567,246.141571 
	C85.834373,246.495682 85.926750,246.985138 85.926750,246.985138 
	C85.412567,249.686600 84.479576,252.391678 84.502808,255.088516 
	C84.525719,257.748566 85.516449,260.400299 85.783493,263.412537 
	C84.365868,263.210480 83.247307,262.651581 82.128746,262.092682 
	C82.067139,256.326324 82.005539,250.559982 82.041748,244.322052 
z"/>
<path fill="#89B077" opacity="1.000000" stroke="none" 
	d="
M336.003113,38.032516 
	C333.534821,38.924179 331.066528,39.815842 328.232269,40.802597 
	C329.893036,38.794914 331.919769,36.692142 334.414032,34.224197 
	C336.537201,33.879028 338.192841,33.899033 339.848480,33.919037 
	C339.891815,37.588127 339.935120,41.257221 339.589630,45.271179 
	C338.134918,43.088207 337.069031,40.560364 336.003113,38.032516 
z"/>
<path fill="#D1DF88" opacity="1.000000" stroke="none" 
	d="
M282.594727,19.211370 
	C283.220459,19.612635 283.496277,20.075413 283.888794,20.781620 
	C282.228668,26.421412 277.691925,28.653498 271.255280,27.032040 
	C274.661102,24.394840 278.452942,21.833864 282.594727,19.211370 
z"/>
<path fill="#5B9985" opacity="1.000000" stroke="none" 
	d="
M336.002258,38.489014 
	C337.069031,40.560364 338.134918,43.088207 339.539368,45.719894 
	C339.598145,49.266384 339.318390,52.709023 338.953979,56.559944 
	C337.913330,50.960655 336.957367,44.953079 336.002258,38.489014 
z"/>
<path fill="#F9E8D2" opacity="1.000000" stroke="none" 
	d="
M339.892029,33.529587 
	C338.192841,33.899033 336.537201,33.879028 334.470032,33.869591 
	C333.083862,32.518559 332.109161,31.156960 331.040497,29.493053 
	C333.657776,29.460728 336.368988,29.730707 339.454651,30.014633 
	C339.864563,31.065765 339.900085,32.102951 339.892029,33.529587 
z"/>
<path fill="#7F725F" opacity="1.000000" stroke="none" 
	d="
M136.608139,281.749390 
	C139.422791,278.167480 143.706299,278.046478 148.470947,278.059814 
	C145.675400,281.612274 141.461868,282.055389 136.608139,281.749390 
z"/>
<path fill="#FAFCF5" opacity="1.000000" stroke="none" 
	d="
M223.903305,105.567207 
	C221.072327,105.939613 218.025909,105.924187 214.529449,105.931122 
	C209.661499,106.610924 205.243622,107.268356 200.415497,107.878525 
	C201.930435,106.890678 203.818909,105.243988 205.787643,105.141685 
	C211.737671,104.832504 217.718842,105.122757 223.903305,105.567207 
z"/>
<path fill="#D1DF88" opacity="1.000000" stroke="none" 
	d="
M160.067566,160.499695 
	C160.533768,160.054016 160.908661,160.054306 161.562195,160.055862 
	C161.496445,165.229156 161.152008,170.401184 160.461899,175.691071 
	C160.119659,175.046143 160.123108,174.283340 160.072876,173.137268 
	C160.004883,168.817902 159.990570,164.881775 160.067566,160.499695 
z"/>
<path fill="#0D656E" opacity="1.000000" stroke="none" 
	d="
M295.975494,278.983398 
	C296.103638,280.381653 296.231750,281.779938 296.352936,283.102600 
	C298.614471,282.687134 300.478516,282.344696 302.742279,282.018616 
	C300.306305,283.684784 297.470612,285.334625 294.265472,286.939941 
	C293.951752,284.563782 294.007446,282.232208 294.392578,279.456238 
	C295.139801,279.002380 295.557648,278.992889 295.975494,278.983398 
z"/>
<path fill="#81AC77" opacity="1.000000" stroke="none" 
	d="
M82.089661,262.452484 
	C83.247307,262.651581 84.365868,263.210480 85.806335,263.792542 
	C88.670128,264.932892 91.212006,266.050140 93.865280,267.484192 
	C88.931725,268.695068 85.101509,266.685150 82.089661,262.452484 
z"/>
<path fill="#3D8775" opacity="1.000000" stroke="none" 
	d="
M337.905426,89.548889 
	C337.232391,87.929871 336.617218,85.876595 336.005981,83.408188 
	C336.416229,82.991676 336.822571,82.990280 337.533783,82.984924 
	C337.880188,85.025520 337.921722,87.070068 337.905426,89.548889 
z"/>
<path fill="#569688" opacity="1.000000" stroke="none" 
	d="
M338.893921,69.727478 
	C338.585602,69.750854 338.525452,69.512367 338.762817,69.140518 
	C338.861176,69.041382 338.942932,69.499847 338.893921,69.727478 
z"/>
<path fill="#569688" opacity="1.000000" stroke="none" 
	d="
M338.897644,66.730804 
	C338.593079,66.756973 338.530487,66.515312 338.765472,66.135757 
	C338.863617,66.033897 338.940186,66.498993 338.897644,66.730804 
z"/>
<path fill="#5B9985" opacity="1.000000" stroke="none" 
	d="
M338.905029,61.738914 
	C338.594818,61.766918 338.531647,61.521008 338.763367,61.134476 
	C338.863068,61.033215 338.956940,61.504375 338.905029,61.738914 
z"/>
<path fill="#F4953D" opacity="1.000000" stroke="none" 
	d="
M161.984253,194.057114 
	C161.588104,194.021622 161.191956,193.986130 160.432617,193.735336 
	C160.069427,193.520050 159.945465,193.081467 159.964630,192.609634 
	C159.962601,187.385483 159.941391,182.633179 159.920181,177.880859 
	C159.920181,177.880859 159.850220,177.819946 159.867889,177.776260 
	C164.146820,178.635635 163.974686,175.726532 163.978638,172.970993 
	C163.996597,160.410416 163.969635,147.849426 164.084167,135.289734 
	C164.099426,133.615097 164.830551,131.947006 165.611633,130.624405 
	C165.997635,139.313950 166.002167,147.654953 166.004456,156.464783 
	C166.002747,161.932373 165.953125,166.931793 166.019653,171.929672 
	C166.073318,175.963211 170.983994,181.950668 174.799683,182.913223 
	C185.980576,185.733704 197.045135,178.128281 201.028763,168.920364 
	C202.468735,165.591980 203.568298,163.384827 207.991074,165.596741 
	C207.991074,158.947784 207.991074,152.973602 208.181793,146.796234 
	C208.886688,146.400421 209.400879,146.207779 209.935852,146.481720 
	C209.306549,163.299057 208.656448,179.649841 207.634735,195.935577 
	C205.507584,195.817169 203.459122,195.142456 202.043427,195.809891 
	C191.802597,200.638031 180.899750,199.485352 170.184601,199.393005 
	C166.981613,199.365402 166.170013,199.978729 165.914017,202.949890 
	C165.708679,205.333099 164.674957,207.644943 164.002197,209.521332 
	C163.976624,204.256531 163.983383,199.458191 163.856064,194.663406 
	C163.850250,194.444885 162.635773,194.258469 161.984253,194.057114 
z"/>
<path fill="#AEC274" opacity="1.000000" stroke="none" 
	d="
M238.056641,112.642982 
	C238.731049,110.461578 239.866745,108.748215 239.936722,106.992378 
	C240.175339,101.006195 239.800156,94.992905 240.104507,89.012619 
	C240.496979,81.300919 241.318695,73.611061 242.195282,65.297226 
	C245.697006,65.752327 248.901978,67.416458 252.235840,67.736046 
	C256.103821,68.106819 260.083832,67.281326 264.017242,67.004028 
	C268.885925,66.660789 273.807220,66.670517 278.610901,65.920296 
	C282.573212,65.301483 285.605377,65.654587 287.960083,69.303764 
	C288.756836,70.538536 290.577393,71.112717 291.954407,72.452644 
	C291.971283,76.940407 291.963837,80.964317 291.627136,84.884033 
	C288.923492,80.553551 286.666595,76.772514 280.454651,77.935013 
	C270.594177,79.780281 260.613342,81.026810 250.648651,82.241234 
	C247.988068,82.565491 245.201065,81.852371 242.013046,81.575668 
	C242.013046,85.100716 242.013046,89.054680 242.009720,93.470840 
	C242.004456,97.954033 242.002533,101.975037 241.996857,106.459610 
	C241.994370,110.947731 241.995651,114.972275 241.986496,119.413620 
	C241.673950,122.899933 241.371841,125.969444 241.066147,129.279022 
	C241.062561,129.519104 241.105713,129.997375 241.105713,129.997375 
	C240.926331,130.064133 240.746948,130.130905 239.970108,130.228333 
	C238.941757,130.345688 238.510834,130.432373 238.036560,130.394501 
	C237.993179,130.269928 237.924057,130.015335 237.924057,130.015335 
	C237.959198,124.374077 237.994324,118.732819 238.056641,112.642982 
z"/>
<path fill="#F4A148" opacity="1.000000" stroke="none" 
	d="
M166.006714,155.995972 
	C166.002167,147.654953 165.997635,139.313950 165.990112,130.509048 
	C169.777863,130.896103 173.653000,131.483078 177.338867,132.661896 
	C182.447632,134.295776 188.137253,135.405975 192.270370,138.491974 
	C198.317184,143.006866 204.739868,141.614746 211.583832,142.454132 
	C212.003555,143.205368 211.971527,143.612350 211.643799,144.092453 
	C210.870438,144.782089 210.392746,145.398621 209.915054,146.015137 
	C209.400879,146.207779 208.886688,146.400421 207.813202,146.731171 
	C200.666885,145.074631 194.623840,148.903748 190.554459,151.950150 
	C182.485504,157.990692 174.826706,158.534760 166.006714,155.995972 
z"/>
<path fill="#BB6E38" opacity="1.000000" stroke="none" 
	d="
M211.939499,144.019333 
	C211.971527,143.612350 212.003555,143.205368 212.053238,142.494598 
	C220.474045,138.206741 228.877182,134.222656 237.602188,130.126953 
	C237.924057,130.015335 237.993179,130.269928 238.023880,130.805695 
	C238.028015,134.909241 238.001450,138.477005 237.634048,142.095886 
	C236.380417,142.815948 234.945450,143.302658 234.638168,144.182983 
	C232.363876,150.698303 226.383011,151.278320 221.061081,152.608337 
	C219.490585,153.000824 217.378082,151.917923 215.728149,151.086212 
	C214.332230,150.382584 213.245743,149.065063 212.012817,147.618652 
	C211.982056,146.151825 211.960770,145.085587 211.939499,144.019333 
z"/>
<path fill="#B3C672" opacity="1.000000" stroke="none" 
	d="
M291.930054,71.988785 
	C290.577393,71.112717 288.756836,70.538536 287.960083,69.303764 
	C285.605377,65.654587 282.573212,65.301483 278.610901,65.920296 
	C273.807220,66.670517 268.885925,66.660789 264.017242,67.004028 
	C260.083832,67.281326 256.103821,68.106819 252.235840,67.736046 
	C248.901978,67.416458 245.697006,65.752327 242.199524,64.861000 
	C241.459351,64.654686 240.506027,64.256577 240.517090,63.887348 
	C240.693436,57.999462 240.993118,52.115257 242.078033,46.086193 
	C247.265686,46.625198 251.639954,47.308228 256.138672,48.335014 
	C261.178589,49.772137 266.094055,50.865501 271.381958,51.970116 
	C272.499237,51.988380 273.244019,51.995396 273.988831,52.002415 
	C274.229126,52.428856 274.497559,53.241039 274.705688,53.225883 
	C281.673767,52.718399 288.332672,58.314686 295.488190,54.301155 
	C296.003632,54.012032 296.775452,54.179993 297.746613,54.486992 
	C297.386597,55.897896 296.708008,56.957237 296.029419,58.016575 
	C296.029419,58.016571 296.019806,57.969326 295.674133,57.963181 
	C294.899139,57.987305 294.469818,58.017574 293.659119,58.158325 
	C292.828491,62.842133 292.379272,67.415459 291.930054,71.988785 
z"/>
<path fill="#53957B" opacity="1.000000" stroke="none" 
	d="
M296.370239,58.142616 
	C296.708008,56.957237 297.386597,55.897896 298.154846,54.530819 
	C303.958435,51.574135 309.672333,48.925190 316.139587,46.176392 
	C318.583344,45.991982 320.273682,45.907425 321.964050,45.822868 
	C320.043274,50.874428 322.412781,53.482201 327.013977,55.050610 
	C329.171051,55.785904 331.173431,56.975037 333.611206,57.974892 
	C333.039703,59.281750 332.362457,61.309673 331.124786,61.745251 
	C321.746582,65.045799 312.417267,68.230904 302.060120,65.673698 
	C297.471588,64.540787 298.911743,60.381218 296.370239,58.142616 
z"/>
<path fill="#D1DF88" opacity="1.000000" stroke="none" 
	d="
M256.014221,47.991253 
	C251.639954,47.308228 247.265686,46.625198 242.439728,45.921120 
	C241.440613,45.276737 240.893204,44.653408 240.019363,43.930038 
	C240.668716,42.739498 241.436386,41.138390 242.654312,40.642014 
	C250.116592,37.600727 257.680847,34.809631 265.603821,31.952780 
	C267.497986,32.647125 269.009918,33.914677 270.498962,33.888283 
	C274.721710,33.813427 275.961182,35.843964 276.001007,39.697849 
	C276.039978,43.476158 276.581635,47.249283 276.956543,51.658203 
	C277.167999,51.625988 275.956512,51.810574 274.366943,51.998787 
	C273.244019,51.995396 272.499237,51.988380 271.269714,51.635719 
	C266.728180,46.309456 261.079346,48.457153 256.014221,47.991253 
z"/>
<path fill="#D1DF88" opacity="1.000000" stroke="none" 
	d="
M305.128632,23.420300 
	C308.425568,23.353598 311.836212,23.616959 315.609985,24.326059 
	C316.030548,25.490345 316.087982,26.208891 316.145447,26.927439 
	C312.511078,25.868412 308.876740,24.809387 305.128632,23.420300 
z"/>
<path fill="#92B576" opacity="1.000000" stroke="none" 
	d="
M322.179230,45.596039 
	C320.273682,45.907425 318.583344,45.991982 316.470428,46.064213 
	C318.321808,41.994907 321.708008,40.107281 326.716736,40.914330 
	C325.493134,42.509628 323.943787,43.939419 322.179230,45.596039 
z"/>
<path fill="#F9E8D2" opacity="1.000000" stroke="none" 
	d="
M316.560242,26.916504 
	C316.087982,26.208891 316.030548,25.490345 315.972473,24.411213 
	C320.335510,23.621183 324.435303,24.113022 327.808441,27.764036 
	C324.250031,27.708494 320.612518,27.307032 316.560242,26.916504 
z"/>
<path fill="#06586D" opacity="1.000000" stroke="none" 
	d="
M335.609253,222.929077 
	C335.999298,228.688309 335.999786,234.376633 336.001343,240.532974 
	C336.001221,241.444962 336.000031,241.888901 335.542114,242.666229 
	C327.221527,242.784103 319.358643,242.514984 311.493469,242.371368 
	C305.945465,242.270065 302.683350,239.420181 300.831329,234.359970 
	C300.466156,233.362320 298.975342,232.776672 298.003662,232.001022 
	C298.003662,225.647415 298.003632,219.293793 298.004852,212.472321 
	C299.213409,213.474823 300.929352,214.764771 301.527527,216.451187 
	C303.002319,220.609055 305.907074,222.003952 309.964752,222.005783 
	C317.418457,222.009140 324.872467,222.041153 332.325409,222.136429 
	C333.293091,222.148788 334.255127,222.606644 335.609253,222.929077 
z"/>
<path fill="#04516A" opacity="1.000000" stroke="none" 
	d="
M298.002045,232.468842 
	C298.975342,232.776672 300.466156,233.362320 300.831329,234.359970 
	C302.683350,239.420181 305.945465,242.270065 311.493469,242.371368 
	C319.358643,242.514984 327.221527,242.784103 335.541473,242.999176 
	C336.636078,247.436371 334.489624,249.666962 330.332214,250.791718 
	C324.472229,252.377045 318.699829,254.288239 312.898682,256.088165 
	C307.844086,257.656433 303.859070,256.500153 301.061005,251.770752 
	C300.615143,251.017075 299.490509,250.664978 298.338013,250.062897 
	C297.997681,244.311249 297.999054,238.623962 298.002045,232.468842 
z"/>
<path fill="#3D8775" opacity="1.000000" stroke="none" 
	d="
M295.966705,112.957741 
	C295.990021,117.003990 296.013367,121.050232 296.056580,125.563034 
	C296.061707,132.049133 296.046967,138.068695 296.055725,144.559357 
	C296.056946,156.045868 296.034698,167.061295 296.036255,178.546692 
	C296.029602,186.357788 295.999176,193.698914 295.649170,201.519897 
	C294.911377,202.011948 294.493134,202.024155 294.046844,201.564484 
	C293.991425,191.717438 293.964050,182.342239 293.945312,172.500534 
	C293.950256,159.685516 293.946594,147.337006 293.966797,134.521545 
	C294.020935,127.058037 294.051239,120.061455 294.396057,113.049286 
	C295.129272,113.008377 295.547974,112.983063 295.966705,112.957741 
z"/>
<path fill="#2A7B71" opacity="1.000000" stroke="none" 
	d="
M294.074921,202.036346 
	C294.493134,202.024155 294.911377,202.011948 295.642395,201.986847 
	C295.969910,224.011703 295.984619,246.049469 296.022461,268.558716 
	C296.024597,272.046600 296.003632,275.063049 295.979065,278.531433 
	C295.557648,278.992889 295.139801,279.002380 294.409943,279.018524 
	C294.057434,275.319641 294.016968,271.614105 293.978424,266.980225 
	C293.970367,259.031708 293.960358,252.011551 293.968384,244.526215 
	C293.977203,239.372879 293.968018,234.684738 293.974030,229.528442 
	C293.984039,222.038986 293.978851,215.017685 293.988892,207.570175 
	C294.027710,205.441437 294.051331,203.738892 294.074921,202.036346 
z"/>
<path fill="#7B2E36" opacity="1.000000" stroke="none" 
	d="
M159.945465,193.081467 
	C159.945465,193.081467 160.069427,193.520050 160.134308,193.739059 
	C160.155411,205.661835 160.111618,217.365585 160.023010,229.536652 
	C158.817719,228.543152 157.657257,227.082367 155.781921,224.721695 
	C153.486435,228.509033 151.223923,231.935944 149.270981,235.531036 
	C145.736465,242.037582 145.839584,242.024399 139.121384,238.852310 
	C137.843857,238.249100 136.269928,238.273651 134.438080,238.014984 
	C134.038681,229.527206 134.093491,221.032394 134.001617,212.539169 
	C133.961594,208.840042 135.318985,206.796890 139.144821,205.830246 
	C140.971939,205.368622 142.342850,203.101334 144.158264,200.995132 
	C149.579269,197.919403 154.762360,195.500443 159.945465,193.081467 
z"/>
<path fill="#488F90" opacity="1.000000" stroke="none" 
	d="
M293.950378,244.991425 
	C293.960358,252.011551 293.970367,259.031708 293.962097,266.518738 
	C288.030670,267.657104 282.124146,268.395935 276.202515,268.982208 
	C269.457489,269.649994 262.708221,270.383148 255.942719,270.692535 
	C252.218414,270.862823 248.456970,270.220947 244.725479,269.946228 
	C244.059341,273.816406 243.380325,277.761414 242.332336,281.841370 
	C241.966461,268.952393 241.969543,255.928482 242.312683,242.442871 
	C243.100418,241.983353 243.548065,241.985565 243.997070,242.242142 
	C243.999756,242.665955 244.001099,242.835419 244.000336,243.464264 
	C243.998154,245.251801 243.996521,246.579926 243.998245,247.908066 
	C244.007095,254.713898 247.650650,257.701233 254.525345,256.884155 
	C261.084900,256.104523 267.798248,256.184174 274.225250,254.840134 
	C281.344513,253.351318 291.000824,256.131348 293.503021,245.176361 
	C293.523804,245.085388 293.795715,245.051804 293.950378,244.991425 
z"/>
<path fill="#BD4647" opacity="1.000000" stroke="none" 
	d="
M130.033813,247.012192 
	C130.026993,254.361481 130.020172,261.710754 130.005127,269.528198 
	C129.067505,269.130737 127.577049,268.416260 127.296844,267.375793 
	C124.896675,258.463928 116.974854,257.510529 110.040535,255.063889 
	C102.880264,252.537521 95.749565,249.927368 88.301315,246.708496 
	C88.000610,230.581299 87.959358,215.099182 88.058029,199.617950 
	C88.072510,197.346176 88.751961,195.078644 89.463226,192.892609 
	C91.869667,193.980225 93.936600,194.984390 95.873611,196.338821 
	C89.730118,197.800201 89.692863,202.075272 89.925377,206.926559 
	C90.235191,213.390686 90.005669,219.880814 90.001579,226.359772 
	C89.998520,231.205109 90.654366,235.449509 97.075203,235.320786 
	C98.131371,235.299591 99.173515,236.278107 100.276657,236.617355 
	C106.190941,238.436066 112.023331,240.862839 118.079948,241.767014 
	C122.784248,242.469299 125.445137,242.697174 128.683792,246.428284 
	C128.973511,246.762039 129.576385,246.824005 130.033813,247.012192 
z"/>
<path fill="#AC393C" opacity="1.000000" stroke="none" 
	d="
M89.123734,192.809158 
	C88.751961,195.078644 88.072510,197.346176 88.058029,199.617950 
	C87.959358,215.099182 88.000610,230.581299 87.996185,246.531876 
	C87.536430,246.998795 87.077217,246.996979 86.272369,246.990143 
	C85.926750,246.985138 85.834373,246.495682 85.770531,246.254395 
	C85.658257,228.484833 85.609825,210.956558 85.202133,193.174347 
	C85.109703,192.000839 85.376534,191.081284 86.257874,190.155975 
	C87.622833,191.036545 88.373283,191.922852 89.123734,192.809158 
z"/>
<path fill="#913935" opacity="1.000000" stroke="none" 
	d="
M212.054535,258.049957 
	C212.026245,257.581421 211.997971,257.112885 211.953125,255.832809 
	C211.968414,250.353165 212.000259,245.685043 212.405945,241.081451 
	C213.250336,241.306000 213.729721,241.444016 214.190079,241.629303 
	C221.910477,244.736191 231.419601,240.830612 234.572479,233.242767 
	C235.711639,230.501221 236.823349,227.748245 237.973129,225.468536 
	C237.991364,238.934723 237.984070,251.932877 237.976776,264.931030 
	C237.341370,264.265594 236.392807,263.707886 236.121002,262.917419 
	C234.248520,257.472046 232.917908,257.041504 227.483612,259.179352 
	C223.399048,260.786224 219.063141,261.754181 214.415894,263.011841 
	C213.992676,263.017090 213.996750,263.000977 213.994690,262.617432 
	C213.346619,260.839233 212.700577,259.444611 212.054535,258.049957 
z"/>
<path fill="#7F725F" opacity="1.000000" stroke="none" 
	d="
M238.007080,265.405518 
	C237.984070,251.932877 237.991364,238.934723 237.997925,225.010757 
	C237.971741,220.724792 237.946304,217.364639 237.950287,213.537811 
	C237.969269,208.050995 237.958832,203.030853 237.975922,197.542252 
	C237.986771,191.390549 237.970093,185.707306 237.978760,179.555206 
	C237.988617,173.403030 237.973129,167.719711 237.986206,161.566422 
	C238.001465,154.745895 237.988174,148.395340 237.974899,142.044785 
	C238.001450,138.477005 238.028015,134.909241 238.067261,130.930267 
	C238.510834,130.432373 238.941757,130.345688 239.700470,130.326981 
	C240.020447,179.241959 240.019638,228.088943 239.981155,276.935913 
	C239.979477,279.065277 239.631973,281.194366 239.167603,283.625305 
	C238.605545,277.911377 238.321457,271.895721 238.007080,265.405518 
z"/>
<path fill="#609C82" opacity="1.000000" stroke="none" 
	d="
M295.972321,112.718781 
	C295.547974,112.983063 295.129272,113.008377 294.366577,112.604996 
	C293.992737,110.111015 293.962921,108.045723 293.944458,105.513153 
	C293.984070,89.379852 294.012268,73.713844 294.040466,58.047840 
	C294.469818,58.017574 294.899139,57.987305 295.650970,57.969803 
	C295.985168,62.683125 295.996918,67.383675 296.010925,73.017715 
	C296.019714,81.305344 296.026245,88.659470 296.032776,96.013603 
	C296.011566,101.032074 295.990356,106.050545 295.987976,111.535828 
	C296.006805,112.002640 295.977936,112.479820 295.972321,112.718781 
z"/>
<path fill="#3D8775" opacity="1.000000" stroke="none" 
	d="
M296.390259,96.082390 
	C296.026245,88.659470 296.019714,81.305344 296.023132,73.484894 
	C296.688690,74.196678 297.873199,75.361572 297.903046,76.555328 
	C298.001495,80.492485 300.428802,82.273941 303.643219,81.837936 
	C310.570038,80.898384 317.402985,79.263855 324.269501,77.889427 
	C324.744263,77.794395 325.160248,77.415962 325.635010,77.308952 
	C331.104004,76.076385 336.394867,74.708107 333.395172,66.010742 
	C334.264984,66.342003 335.134827,66.673256 336.004639,67.004517 
	C336.004639,71.690712 336.004639,76.376900 336.002930,81.529327 
	C335.370117,82.682823 334.104736,83.485382 334.205475,84.039604 
	C335.279297,89.947227 331.527039,91.094894 326.997925,92.271172 
	C322.028595,93.561760 317.167267,95.406990 312.429077,97.412643 
	C306.875671,99.763390 301.759796,99.243660 296.390259,96.082390 
z"/>
<path fill="#E95F3D" opacity="1.000000" stroke="none" 
	d="
M164.330963,276.008575 
	C163.995285,271.646637 163.996674,267.284698 164.360535,262.353821 
	C167.046921,261.208618 169.425354,259.984955 171.684769,260.175171 
	C179.017990,260.792480 186.286499,262.367615 193.620941,262.719788 
	C199.152084,262.985413 204.289001,263.225250 208.013214,268.451355 
	C208.025772,274.260498 208.022675,279.601166 208.019577,284.941864 
	C205.278076,282.965179 205.050598,277.506805 199.140228,278.746033 
	C197.589691,278.056763 196.556442,277.090240 195.828506,277.282104 
	C189.041901,279.070831 183.194199,275.453369 176.906815,274.430847 
	C173.453857,273.869293 169.657562,275.418945 166.016068,276.016693 
	C165.566727,276.014008 165.117371,276.011322 164.330963,276.008575 
z"/>
<path fill="#B86432" opacity="1.000000" stroke="none" 
	d="
M208.032547,285.361694 
	C208.022675,279.601166 208.025772,274.260498 208.026581,267.984863 
	C208.032150,260.035034 208.039993,253.020126 208.056458,245.581543 
	C208.087906,243.464539 208.110748,241.771210 208.479080,239.904449 
	C209.212006,238.040985 209.917374,236.354309 209.935410,234.660309 
	C210.054779,223.451736 209.947098,212.240280 210.130905,201.033325 
	C210.158936,199.324631 211.313919,197.634399 211.968842,196.381104 
	C212.015335,198.898453 212.040619,200.970322 212.057434,203.500275 
	C212.056381,207.651703 212.063782,211.345032 212.059372,215.504456 
	C212.042419,224.319351 212.037262,232.668137 212.032104,241.016937 
	C212.000259,245.685043 211.968414,250.353165 211.931473,255.481430 
	C211.290100,257.656006 210.140106,259.359222 210.102325,261.086731 
	C209.884399,271.052032 209.929352,281.023132 209.839600,291.446594 
	C209.211151,289.861115 208.628342,287.821350 208.032547,285.361694 
z"/>
<path fill="#D85A3F" opacity="1.000000" stroke="none" 
	d="
M166.102615,276.342224 
	C169.657562,275.418945 173.453857,273.869293 176.906815,274.430847 
	C183.194199,275.453369 189.041901,279.070831 195.828506,277.282104 
	C196.556442,277.090240 197.589691,278.056763 198.729767,278.746826 
	C194.216095,280.669983 189.556442,282.786285 184.668137,283.889374 
	C177.105515,285.595917 171.308838,281.756317 166.102615,276.342224 
z"/>
<path fill="#78AA79" opacity="1.000000" stroke="none" 
	d="
M241.983490,159.028519 
	C241.976303,155.333847 241.969116,151.639175 242.307709,147.566620 
	C248.775833,152.549408 256.713959,151.754120 263.869629,152.692902 
	C270.380280,153.547073 277.439453,154.464874 283.841125,150.761108 
	C284.752411,150.233887 286.592224,150.935394 287.837616,151.459518 
	C289.311829,152.080002 290.607391,153.124969 291.984619,154.454895 
	C291.985443,159.401062 292.190399,163.894684 291.840057,168.344604 
	C291.746094,169.538300 290.053833,171.455215 288.935303,171.577606 
	C282.916687,172.236115 276.851288,172.617874 270.794891,172.740005 
	C264.274353,172.871506 257.708405,175.197861 251.214996,172.251984 
	C247.126984,170.397369 243.390808,168.601425 243.882217,163.021011 
	C243.993637,161.755722 242.654785,160.362732 241.983490,159.028519 
z"/>
<path fill="#67A180" opacity="1.000000" stroke="none" 
	d="
M242.019012,188.038605 
	C242.007935,185.000000 241.996841,181.961395 242.329620,178.585678 
	C246.547226,185.764450 250.342087,188.610413 256.114777,187.677963 
	C263.297424,186.517746 270.463745,185.181625 277.557098,183.569305 
	C282.480896,182.450104 287.252441,181.413574 292.001221,184.466843 
	C292.000610,189.953888 291.997559,194.974106 291.637939,199.925537 
	C288.964386,199.529434 286.230713,198.237350 284.397064,199.029251 
	C271.213196,204.722961 257.682129,204.015396 244.000580,201.541763 
	C243.996399,198.916031 244.249344,196.714767 243.921875,194.603516 
	C243.575516,192.370544 242.676575,190.223297 242.019012,188.038605 
z"/>
<path fill="#5B9985" opacity="1.000000" stroke="none" 
	d="
M242.014191,188.503174 
	C242.676575,190.223297 243.575516,192.370544 243.921875,194.603516 
	C244.249344,196.714767 243.996399,198.916031 243.998810,201.990540 
	C243.996445,212.122238 243.865250,212.592316 252.528214,215.009995 
	C256.963165,216.247681 261.973907,215.312698 266.708862,215.608719 
	C275.218536,216.140717 283.426422,212.205948 292.001526,214.459686 
	C291.986053,217.403183 292.345093,219.973495 291.810303,222.341980 
	C291.501770,223.708511 289.940552,225.453735 288.613983,225.813034 
	C283.206604,227.277603 277.713654,228.554916 272.174133,229.370667 
	C265.103851,230.411850 258.409576,234.686844 250.865738,231.950684 
	C248.925659,231.246994 246.896805,230.788025 243.995728,229.954254 
	C243.995728,234.476868 243.995728,238.232330 243.995728,241.987793 
	C243.548065,241.985565 243.100418,241.983353 242.316757,241.971878 
	C241.990295,224.297668 241.999832,206.632706 242.014191,188.503174 
z"/>
<path fill="#89B077" opacity="1.000000" stroke="none" 
	d="
M241.069733,129.038956 
	C241.371841,125.969444 241.673950,122.899933 242.331421,119.483101 
	C244.709763,120.715813 246.665207,123.542061 248.767609,123.655960 
	C257.019531,124.103043 265.401306,124.383415 273.572998,123.391785 
	C280.372345,122.566673 286.778473,120.779984 291.977112,127.429916 
	C291.994690,130.251877 292.002319,132.627853 292.007568,135.440430 
	C291.995392,137.914078 291.985626,139.951172 291.633209,141.921783 
	C290.543427,141.240112 289.433624,140.773514 289.110352,139.984604 
	C287.498016,136.050034 284.796021,135.340591 281.061066,136.745651 
	C279.357513,137.386505 277.572510,137.981537 275.778046,138.182358 
	C264.296112,139.467316 252.719025,141.506149 241.956421,135.020828 
	C241.948441,133.650024 241.940460,132.279221 241.833740,130.289459 
	C241.558380,129.412445 241.336624,129.201935 241.069733,129.038956 
z"/>
<path fill="#6FA57D" opacity="1.000000" stroke="none" 
	d="
M291.975861,141.988251 
	C291.985626,139.951172 291.995392,137.914078 292.329895,135.437531 
	C293.084045,134.994888 293.513458,134.991699 293.942902,134.988495 
	C293.946594,147.337006 293.950256,159.685516 293.594879,172.658264 
	C292.823456,176.854996 292.411133,180.427490 291.998779,184.000000 
	C287.252441,181.413574 282.480896,182.450104 277.557098,183.569305 
	C270.463745,185.181625 263.297424,186.517746 256.114777,187.677963 
	C250.342087,188.610413 246.547226,185.764450 242.332001,178.131332 
	C241.986237,171.995621 241.981934,165.977158 241.980560,159.493591 
	C242.654785,160.362732 243.993637,161.755722 243.882217,163.021011 
	C243.390808,168.601425 247.126984,170.397369 251.214996,172.251984 
	C257.708405,175.197861 264.274353,172.871506 270.794891,172.740005 
	C276.851288,172.617874 282.916687,172.236115 288.935303,171.577606 
	C290.053833,171.455215 291.746094,169.538300 291.840057,168.344604 
	C292.190399,163.894684 291.985443,159.401062 291.988312,153.995865 
	C291.983795,149.374680 291.979828,145.681458 291.975861,141.988251 
z"/>
<path fill="#81AC77" opacity="1.000000" stroke="none" 
	d="
M291.633209,141.921783 
	C291.979828,145.681458 291.983795,149.374680 291.984070,153.526917 
	C290.607391,153.124969 289.311829,152.080002 287.837616,151.459518 
	C286.592224,150.935394 284.752411,150.233887 283.841125,150.761108 
	C277.439453,154.464874 270.380280,153.547073 263.869629,152.692902 
	C256.713959,151.754120 248.775833,152.549408 242.312988,147.107147 
	C241.964783,143.329681 241.957062,139.633804 241.952881,135.479370 
	C252.719025,141.506149 264.296112,139.467316 275.778046,138.182358 
	C277.572510,137.981537 279.357513,137.386505 281.061066,136.745651 
	C284.796021,135.340591 287.498016,136.050034 289.110352,139.984604 
	C289.433624,140.773514 290.543427,141.240112 291.633209,141.921783 
z"/>
<path fill="#81AC77" opacity="1.000000" stroke="none" 
	d="
M241.066147,129.279022 
	C241.336624,129.201935 241.558380,129.412445 241.838943,129.878311 
	C241.942886,130.086105 241.523056,130.042877 241.314392,130.020126 
	C241.105713,129.997375 241.062561,129.519104 241.066147,129.279022 
z"/>
<path fill="#EF683F" opacity="1.000000" stroke="none" 
	d="
M208.047852,246.005219 
	C208.039993,253.020126 208.032150,260.035034 208.010925,267.516418 
	C204.289001,263.225250 199.152084,262.985413 193.620941,262.719788 
	C186.286499,262.367615 179.017990,260.792480 171.684769,260.175171 
	C169.425354,259.984955 167.046921,261.208618 164.364685,261.888702 
	C163.997879,256.977051 163.989365,251.961578 164.316620,246.370239 
	C166.891235,244.193008 166.093338,239.320114 171.063705,240.491333 
	C176.317688,241.729385 181.889664,241.703735 187.073120,243.134445 
	C193.989334,245.043427 201.584473,241.391754 208.047852,246.005219 
z"/>
<path fill="#F4773F" opacity="1.000000" stroke="none" 
	d="
M208.056458,245.581543 
	C201.584473,241.391754 193.989334,245.043427 187.073120,243.134445 
	C181.889664,241.703735 176.317688,241.729385 171.063705,240.491333 
	C166.093338,239.320114 166.891235,244.193008 164.321472,245.904297 
	C163.977402,243.966278 163.964249,241.918350 163.958878,239.003326 
	C163.979279,236.416275 163.991898,234.696304 164.335999,232.872742 
	C166.329132,228.215759 169.104126,227.989090 173.479828,229.476501 
	C181.250656,232.118011 189.465927,233.307312 197.432953,230.500931 
	C201.544235,229.052719 204.744080,229.465363 207.986938,232.425720 
	C208.040466,235.275085 208.087021,237.676483 208.133575,240.077866 
	C208.110748,241.771210 208.087906,243.464539 208.056458,245.581543 
z"/>
<path fill="#D87A3B" opacity="1.000000" stroke="none" 
	d="
M164.004532,232.976334 
	C163.991898,234.696304 163.979279,236.416275 163.952545,238.565002 
	C163.300690,237.288483 162.132263,235.590225 162.109650,233.876846 
	C161.938522,220.913651 161.992172,207.947479 161.979950,194.519684 
	C162.635773,194.258469 163.850250,194.444885 163.856064,194.663406 
	C163.983383,199.458191 163.976624,204.256531 163.993439,209.980347 
	C163.996597,214.265244 164.001846,217.624008 163.999725,221.445267 
	C163.996399,225.597290 164.000473,229.286804 164.004532,232.976334 
z"/>
<path fill="#F29360" opacity="1.000000" stroke="none" 
	d="
M89.463226,192.892609 
	C88.373283,191.922852 87.622833,191.036545 86.603828,190.023560 
	C89.336609,187.937973 92.401802,186.068420 95.315002,183.986191 
	C97.023773,182.764832 98.490509,181.204849 100.044449,179.417847 
	C104.994072,181.432007 108.760895,177.997482 112.521637,175.999176 
	C119.231483,172.433838 125.952263,168.147736 133.687943,169.784531 
	C142.380280,171.623795 150.750565,174.985153 159.590576,177.782593 
	C159.941391,182.633179 159.962601,187.385483 159.964630,192.609634 
	C154.762360,195.500443 149.579269,197.919403 144.168030,200.617126 
	C140.065811,202.710571 136.191711,204.525253 131.800293,206.791290 
	C128.623550,206.480728 125.919693,205.845612 123.313393,204.932159 
	C116.543480,202.559372 109.839943,199.996155 103.059135,197.656082 
	C100.786156,196.871658 98.359787,196.531693 96.003540,195.988556 
	C93.936600,194.984390 91.869667,193.980225 89.463226,192.892609 
z"/>
<path fill="#C44C49" opacity="1.000000" stroke="none" 
	d="
M95.873611,196.338837 
	C98.359787,196.531693 100.786156,196.871658 103.059135,197.656082 
	C109.839943,199.996155 116.543480,202.559372 123.313393,204.932159 
	C125.919693,205.845612 128.623550,206.480728 131.604248,207.088837 
	C131.949677,214.180283 132.229294,221.436539 131.917328,228.667297 
	C131.666199,234.487671 130.699661,240.277145 130.042175,246.546265 
	C129.576385,246.824005 128.973511,246.762039 128.683792,246.428284 
	C125.445137,242.697174 122.784248,242.469299 118.079948,241.767014 
	C112.023331,240.862839 106.190941,238.436066 100.276657,236.617355 
	C99.173515,236.278107 98.131371,235.299591 97.075203,235.320786 
	C90.654366,235.449509 89.998520,231.205109 90.001579,226.359772 
	C90.005669,219.880814 90.235191,213.390686 89.925377,206.926559 
	C89.692863,202.075272 89.730118,197.800201 95.873611,196.338837 
z"/>
<path fill="#83333A" opacity="1.000000" stroke="none" 
	d="
M212.043457,258.449585 
	C212.700577,259.444611 213.346619,260.839233 213.988419,262.617920 
	C213.517258,262.763245 213.050308,262.524567 212.348236,262.176514 
	C212.086197,260.994507 212.059280,259.921875 212.043457,258.449585 
z"/>
<path fill="#F49C40" opacity="1.000000" stroke="none" 
	d="
M166.004456,156.464783 
	C174.826706,158.534760 182.485504,157.990692 190.554459,151.950150 
	C194.623840,148.903748 200.666885,145.074631 207.622482,146.934357 
	C207.991074,152.973602 207.991074,158.947784 207.991074,165.596741 
	C203.568298,163.384827 202.468735,165.591980 201.028763,168.920364 
	C197.045135,178.128281 185.980576,185.733704 174.799683,182.913223 
	C170.983994,181.950668 166.073318,175.963211 166.019653,171.929672 
	C165.953125,166.931793 166.002747,161.932373 166.004456,156.464783 
z"/>
<path fill="#F68B3A" opacity="1.000000" stroke="none" 
	d="
M164.007111,220.982773 
	C164.001846,217.624008 163.996597,214.265244 164.000092,210.447464 
	C164.674957,207.644943 165.708679,205.333099 165.914017,202.949890 
	C166.170013,199.978729 166.981613,199.365402 170.184601,199.393005 
	C180.899750,199.485352 191.802597,200.638031 202.043427,195.809891 
	C203.459122,195.142456 205.507584,195.817169 207.639374,196.404083 
	C208.004364,203.953308 207.993103,210.969009 207.648346,217.882721 
	C204.983765,213.608276 201.678101,213.487732 197.684494,215.225540 
	C190.425323,218.384369 182.834045,220.835373 175.074829,217.804092 
	C170.287155,215.933685 166.216034,213.337296 164.459961,220.812515 
	C164.439423,220.899918 164.163712,220.927353 164.007111,220.982773 
z"/>
<path fill="#D87A3B" opacity="1.000000" stroke="none" 
	d="
M207.981842,217.984711 
	C207.993103,210.969009 208.004364,203.953308 208.010986,196.469116 
	C208.656448,179.649841 209.306549,163.299057 209.935852,146.481720 
	C210.392746,145.398621 210.870438,144.782089 211.643799,144.092453 
	C211.960770,145.085587 211.982056,146.151825 212.004608,148.084625 
	C212.015671,154.973633 212.025436,160.996063 212.023026,167.485016 
	C212.011795,174.970688 212.012756,181.989822 211.999725,189.442963 
	C211.973053,191.896515 211.960358,193.916077 211.947662,195.935623 
	C211.313919,197.634399 210.158936,199.324631 210.130905,201.033325 
	C209.947098,212.240280 210.054779,223.451736 209.935410,234.660309 
	C209.917374,236.354309 209.212006,238.040985 208.479065,239.904449 
	C208.087021,237.676483 208.040466,235.275085 207.993591,231.963669 
	C207.989471,226.697327 207.985657,222.341019 207.981842,217.984711 
z"/>
<path fill="#A5BE75" opacity="1.000000" stroke="none" 
	d="
M242.013046,93.008644 
	C242.013046,89.054680 242.013046,85.100716 242.013046,81.575668 
	C245.201065,81.852371 247.988068,82.565491 250.648651,82.241234 
	C260.613342,81.026810 270.594177,79.780281 280.454651,77.935013 
	C286.666595,76.772514 288.923492,80.553551 291.645172,85.351143 
	C291.981415,90.609772 291.970398,95.297104 291.630737,99.894562 
	C288.347961,97.559059 287.108704,93.222778 281.846954,93.878624 
	C272.506653,95.042847 262.992798,94.923569 253.702377,96.334290 
	C248.854019,97.070496 245.122299,96.950676 242.013046,93.008644 
z"/>
<path fill="#9BB975" opacity="1.000000" stroke="none" 
	d="
M242.009720,93.470840 
	C245.122299,96.950676 248.854019,97.070496 253.702377,96.334290 
	C262.992798,94.923569 272.506653,95.042847 281.846954,93.878624 
	C287.108704,93.222778 288.347961,97.559059 291.644531,100.325356 
	C292.002594,102.567421 292.018188,104.288818 292.024170,106.458855 
	C291.996826,109.600105 291.979065,112.292732 291.633179,114.893997 
	C290.350220,113.501732 289.614319,111.914742 288.384308,110.973457 
	C286.898865,109.836655 284.943115,108.447067 283.280121,108.554039 
	C274.260712,109.134201 265.249054,109.978554 256.274689,111.062820 
	C250.540909,111.755562 244.885086,112.996307 242.000610,105.996033 
	C242.002533,101.975037 242.004456,97.954033 242.009720,93.470840 
z"/>
<path fill="#92B576" opacity="1.000000" stroke="none" 
	d="
M241.996857,106.459610 
	C244.885086,112.996307 250.540909,111.755562 256.274689,111.062820 
	C265.249054,109.978554 274.260712,109.134201 283.280121,108.554039 
	C284.943115,108.447067 286.898865,109.836655 288.384308,110.973457 
	C289.614319,111.914742 290.350220,113.501732 291.646179,115.356026 
	C291.980621,119.600922 291.973907,123.292435 291.967163,126.983940 
	C286.778473,120.779984 280.372345,122.566673 273.572998,123.391785 
	C265.401306,124.383415 257.019531,124.103043 248.767609,123.655960 
	C246.665207,123.542061 244.709763,120.715813 242.341858,119.066299 
	C241.995651,114.972275 241.994370,110.947731 241.996857,106.459610 
z"/>
<path fill="#81AC77" opacity="1.000000" stroke="none" 
	d="
M292.033783,106.010223 
	C292.018188,104.288818 292.002594,102.567421 291.973206,100.415222 
	C291.970398,95.297104 291.981415,90.609772 291.974396,85.455338 
	C291.963837,80.964317 291.971283,76.940407 291.954407,72.452644 
	C292.379272,67.415459 292.828491,62.842133 293.659119,58.158325 
	C294.012268,73.713844 293.984070,89.379852 293.628540,105.519608 
	C292.878723,105.998978 292.456238,106.004601 292.033783,106.010223 
z"/>
<path fill="#B86432" opacity="1.000000" stroke="none" 
	d="
M212.035217,167.018509 
	C212.025436,160.996063 212.015671,154.973633 212.014114,148.485199 
	C213.245743,149.065063 214.332230,150.382584 215.728149,151.086212 
	C217.378082,151.917923 219.490585,153.000824 221.061081,152.608337 
	C226.383011,151.278320 232.363876,150.698303 234.638168,144.182983 
	C234.945450,143.302658 236.380417,142.815948 237.634048,142.095886 
	C237.988174,148.395340 238.001465,154.745895 237.650879,161.619263 
	C235.509598,163.784897 233.424622,165.201721 232.017426,167.116623 
	C228.885406,171.378708 224.827637,172.944809 219.963760,171.367920 
	C217.146957,170.454666 214.666840,168.502899 212.035217,167.018509 
z"/>
<path fill="#D0DC80" opacity="1.000000" stroke="none" 
	d="
M256.138672,48.335014 
	C261.079346,48.457153 266.728180,46.309456 270.897247,51.624470 
	C266.094055,50.865501 261.178589,49.772137 256.138672,48.335014 
z"/>
<path fill="#5B9985" opacity="1.000000" stroke="none" 
	d="
M292.001221,184.466843 
	C292.411133,180.427490 292.823456,176.854996 293.586243,173.124756 
	C293.964050,182.342239 293.991425,191.717438 294.046844,201.564484 
	C294.051331,203.738892 294.027710,205.441437 293.661255,207.571960 
	C292.880951,208.001373 292.443542,208.002823 292.004211,207.559540 
	C291.999695,204.741302 291.997101,202.367813 291.994507,199.994308 
	C291.997559,194.974106 292.000610,189.953888 292.001221,184.466843 
z"/>
<path fill="#78AA79" opacity="1.000000" stroke="none" 
	d="
M292.024170,106.458855 
	C292.456238,106.004601 292.878723,105.998978 293.617126,105.986900 
	C293.962921,108.045723 293.992737,110.111015 294.052063,112.620590 
	C294.051239,120.061455 294.020935,127.058037 293.966797,134.521561 
	C293.513458,134.991699 293.084045,134.994888 292.332275,135.000961 
	C292.002319,132.627853 291.994690,130.251877 291.977112,127.429916 
	C291.973907,123.292435 291.980621,119.600922 291.974335,115.447388 
	C291.979065,112.292732 291.996826,109.600105 292.024170,106.458855 
z"/>
<path fill="#569688" opacity="1.000000" stroke="none" 
	d="
M292.006104,208.004272 
	C292.443542,208.002823 292.880951,208.001373 293.646027,207.998138 
	C293.978851,215.017685 293.984039,222.038986 293.620819,229.673477 
	C292.830688,231.970139 292.540771,233.702103 291.944763,235.321426 
	C291.485657,236.568741 290.879700,238.407990 289.928040,238.716599 
	C285.727661,240.078690 281.371704,240.955521 277.084503,242.056427 
	C266.126007,244.870453 255.080566,244.463486 244.002441,243.004883 
	C244.001099,242.835419 243.999756,242.665955 243.997070,242.242142 
	C243.995728,238.232330 243.995728,234.476868 243.995728,229.954254 
	C246.896805,230.788025 248.925659,231.246994 250.865738,231.950684 
	C258.409576,234.686844 265.103851,230.411850 272.174133,229.370667 
	C277.713654,228.554916 283.206604,227.277603 288.613983,225.813034 
	C289.940552,225.453735 291.501770,223.708511 291.810303,222.341980 
	C292.345093,219.973495 291.986053,217.403183 292.001526,214.031189 
	C292.002838,211.431335 292.004456,209.717804 292.006104,208.004272 
z"/>
<path fill="#50928B" opacity="1.000000" stroke="none" 
	d="
M244.000336,243.464264 
	C255.080566,244.463486 266.126007,244.870453 277.084503,242.056427 
	C281.371704,240.955521 285.727661,240.078690 289.928040,238.716599 
	C290.879700,238.407990 291.485657,236.568741 291.944763,235.321426 
	C292.540771,233.702103 292.830688,231.970139 293.605591,230.141632 
	C293.968018,234.684738 293.977203,239.372879 293.968384,244.526215 
	C293.795715,245.051804 293.523804,245.085388 293.503021,245.176361 
	C291.000824,256.131348 281.344513,253.351318 274.225250,254.840134 
	C267.798248,256.184174 261.084900,256.104523 254.525345,256.884155 
	C247.650650,257.701233 244.007095,254.713898 243.998245,247.908066 
	C243.996521,246.579926 243.998154,245.251801 244.000336,243.464264 
z"/>
<path fill="#9C3F32" opacity="1.000000" stroke="none" 
	d="
M212.405945,241.081451 
	C212.037262,232.668137 212.042419,224.319351 212.404327,215.634979 
	C213.170120,216.322113 213.969238,217.363617 213.920959,218.364243 
	C213.706955,222.800186 215.135529,223.901154 219.839386,223.271606 
	C227.170532,222.290421 232.949463,219.153152 237.920853,214.004486 
	C237.946304,217.364639 237.971741,220.724792 237.972397,224.542725 
	C236.823349,227.748245 235.711639,230.501221 234.572479,233.242767 
	C231.419601,240.830612 221.910477,244.736191 214.190079,241.629303 
	C213.729721,241.444016 213.250336,241.306000 212.405945,241.081451 
z"/>
<path fill="#B25A30" opacity="1.000000" stroke="none" 
	d="
M212.023010,167.485016 
	C214.666840,168.502899 217.146957,170.454666 219.963760,171.367920 
	C224.827637,172.944809 228.885406,171.378708 232.017426,167.116623 
	C233.424622,165.201721 235.509598,163.784897 237.622345,162.089233 
	C237.973129,167.719711 237.988617,173.403030 237.644684,179.611908 
	C235.994034,181.121170 234.540100,181.950851 233.438675,183.114273 
	C227.464020,189.425262 220.331284,191.318298 212.013702,189.008972 
	C212.012756,181.989822 212.011795,174.970688 212.023010,167.485016 
z"/>
<path fill="#A54732" opacity="1.000000" stroke="none" 
	d="
M237.950287,213.537811 
	C232.949463,219.153152 227.170532,222.290421 219.839386,223.271606 
	C215.135529,223.901154 213.706955,222.800186 213.920959,218.364243 
	C213.969238,217.363617 213.170120,216.322113 212.416138,215.168884 
	C212.063782,211.345032 212.056381,207.651703 212.379257,203.602798 
	C214.178040,207.121490 216.996780,207.076477 220.160934,205.726776 
	C226.105560,203.191040 232.020874,200.586594 237.948395,198.010727 
	C237.958832,203.030853 237.969269,208.050995 237.950287,213.537811 
z"/>
<path fill="#AC5031" opacity="1.000000" stroke="none" 
	d="
M237.975922,197.542252 
	C232.020874,200.586594 226.105560,203.191040 220.160934,205.726776 
	C216.996780,207.076477 214.178040,207.121490 212.387726,203.144714 
	C212.040619,200.970322 212.015335,198.898453 211.968842,196.381104 
	C211.960358,193.916077 211.973053,191.896515 211.999725,189.442963 
	C220.331284,191.318298 227.464020,189.425262 233.438675,183.114273 
	C234.540100,181.950851 235.994034,181.121170 237.619324,180.080765 
	C237.970093,185.707306 237.986771,191.390549 237.975922,197.542252 
z"/>
<path fill="#609C82" opacity="1.000000" stroke="none" 
	d="
M292.004181,207.559540 
	C292.004456,209.717804 292.002838,211.431335 292.001221,213.573349 
	C283.426422,212.205948 275.218536,216.140717 266.708862,215.608719 
	C261.973907,215.312698 256.963165,216.247681 252.528214,215.009995 
	C243.865250,212.592316 243.996445,212.122238 244.000656,202.454590 
	C257.682129,204.015396 271.213196,204.722961 284.397064,199.029251 
	C286.230713,198.237350 288.964386,199.529434 291.637939,199.925537 
	C291.997101,202.367813 291.999695,204.741302 292.004181,207.559540 
z"/>
<path fill="#F4813C" opacity="1.000000" stroke="none" 
	d="
M207.648346,217.882721 
	C207.985657,222.341019 207.989471,226.697327 207.986633,231.515686 
	C204.744080,229.465363 201.544235,229.052719 197.432953,230.500931 
	C189.465927,233.307312 181.250656,232.118011 173.479828,229.476501 
	C169.104126,227.989090 166.329132,228.215759 164.335999,232.872742 
	C164.000473,229.286804 163.996399,225.597290 163.999725,221.445267 
	C164.163712,220.927353 164.439423,220.899918 164.459961,220.812515 
	C166.216034,213.337296 170.287155,215.933685 175.074829,217.804092 
	C182.834045,220.835373 190.425323,218.384369 197.684494,215.225540 
	C201.678101,213.487732 204.983765,213.608276 207.648346,217.882721 
z"/>
</svg>