<svg version="1.1" id="Layer_1" xmlns="http://www.w3.org/2000/svg" xmlns:xlink="http://www.w3.org/1999/xlink" x="0px" y="0px"
	 width="100%" viewBox="0 0 424 388" enable-background="new 0 0 424 388" xml:space="preserve">
<path fill="#FFFFFF" opacity="1.000000" stroke="none" 
	d="M300.975952,137.585098 
	C300.975952,137.585098 301.069824,137.142975 301.738495,136.838043 
	C302.825989,133.950089 303.913483,131.062119 305.744751,127.737198 
	C306.159149,117.865257 306.636932,107.995186 306.927094,98.119583 
	C306.976868,96.426201 306.226349,94.709297 305.704102,92.220863 
	C305.412903,90.139572 305.121704,88.058289 304.965485,85.196075 
	C304.913483,84.150330 304.861481,83.104591 304.722260,81.280457 
	C302.475800,76.132507 300.229309,70.984550 297.713043,65.177658 
	C296.153076,62.411751 294.536987,59.675762 293.044098,56.874115 
	C289.193054,49.646957 284.388855,43.164684 277.985687,38.012592 
	C272.453857,33.561584 266.759705,29.312311 261.034973,24.218563 
	C256.764923,20.657351 252.028259,18.226387 245.926132,17.454369 
	C243.310577,16.595198 240.695038,15.736026 237.667252,14.193960 
	C234.735367,13.461446 231.803467,12.728931 228.713593,11.185176 
	C227.459152,10.917626 226.209305,10.443576 224.949554,10.415606 
	C215.895111,10.214577 206.742050,8.382269 197.124237,11.979614 
	C194.720276,12.964298 192.316330,13.948981 189.096756,14.991842 
	C186.514893,15.708923 183.856766,16.228558 181.369064,17.189421 
	C177.648514,18.626465 174.054214,20.388477 170.393753,21.983681 
	C168.270111,22.909155 166.122681,23.780081 163.984879,24.672995 
	C161.989136,25.506567 159.991959,26.336763 157.469299,27.078915 
	C157.282288,27.368004 157.095276,27.657091 156.164261,27.985598 
	C151.231491,31.703125 146.156830,35.251453 141.430618,39.215256 
	C139.320023,40.985371 137.909622,43.590340 135.956726,46.490150 
	C132.042450,51.788391 127.604996,56.791382 124.391693,62.485214 
	C122.123726,66.503952 121.516068,71.459679 120.019493,76.621880 
	C119.994232,77.048965 119.968979,77.476059 119.123528,77.962746 
	C115.290108,81.082001 114.936440,85.633965 114.002502,90.876518 
	C113.670830,98.782593 112.908783,106.700737 113.129913,114.591316 
	C113.346130,122.306267 114.018890,130.118576 118.235878,137.748032 
	C119.783585,140.195602 121.331291,142.643173 122.974648,145.839813 
	C124.949089,148.922974 126.923523,152.006119 129.202866,155.716461 
	C131.102890,158.163986 133.002899,160.611511 135.194717,163.713165 
	C139.139359,168.512543 143.084000,173.311920 147.077225,178.805679 
	C147.508698,179.461609 147.856964,180.195007 148.384491,180.761490 
	C153.774841,186.549896 157.315826,192.997314 156.041092,201.286255 
	C155.869583,202.401611 156.111801,203.580597 156.140945,205.554276 
	C156.420486,206.131073 156.953781,206.713104 156.942017,207.283890 
	C156.717636,218.162491 156.429062,229.039749 156.001755,240.841339 
	C156.036285,244.556503 156.070801,248.271683 155.976166,252.917755 
	C155.979218,261.245758 156.187943,269.581116 155.892380,277.898499 
	C155.758881,281.655151 156.906555,284.291443 160.266373,286.892761 
	C166.066757,289.923706 171.769745,293.167694 177.713593,295.884796 
	C180.228302,297.034363 183.491058,296.555023 185.996231,297.716614 
	C194.264587,301.550476 202.965271,302.682556 212.839035,302.938385 
	C218.522354,302.284485 224.279388,301.996307 229.867584,300.870300 
	C235.091705,299.817596 240.142624,297.895081 245.255798,296.310242 
	C246.322449,295.979645 247.401382,295.571777 248.348679,294.993225 
	C252.591644,292.401947 256.789062,289.736084 261.748047,287.047668 
	C266.192566,286.143188 267.810211,282.762085 268.995758,277.986176 
	C268.937805,266.263794 268.879852,254.541397 268.937592,241.910751 
	C268.971741,226.425827 268.893097,210.939255 269.120758,195.457184 
	C269.176422,191.671066 270.235321,187.899719 271.017426,183.369400 
	C271.040924,182.597427 271.064423,181.825470 271.856293,181.022629 
	C276.126556,180.531036 275.540771,176.590576 276.979279,173.523361 
	C276.979279,173.523361 277.105011,173.050705 277.729919,172.776321 
	C278.944519,171.561722 280.303680,170.459366 281.348724,169.113159 
	C285.967896,163.162689 290.496735,157.142090 295.713196,150.826538 
	C296.757111,148.536011 297.801056,146.245468 299.002655,143.561569 
	C299.002655,143.561569 299.064178,143.142258 299.738037,142.801239 
	C300.095093,141.202560 300.452179,139.603882 300.975952,137.585098 
z"/>
<path fill="#FDDF6E" opacity="1.000000" stroke="none" 
	d="
M120.167160,75.997086 
	C121.516068,71.459679 122.123726,66.503952 124.391693,62.485214 
	C127.604996,56.791382 132.042450,51.788391 136.425842,46.163757 
	C138.517654,44.890396 140.294052,44.131973 141.732513,42.959084 
	C145.242096,40.097446 148.595200,37.043877 152.066132,34.384735 
	C152.783371,35.319126 153.445755,35.936363 154.108154,36.553604 
	C154.738770,35.702358 155.369385,34.851105 156.000000,33.999924 
	C156.000000,34.000000 156.000000,34.000153 156.390167,33.997513 
	C158.664078,33.420181 160.599014,32.974144 162.422684,32.248425 
	C170.126328,29.182791 177.701279,25.764660 185.507416,22.994162 
	C192.734283,20.429245 199.863266,21.969967 207.391022,23.211510 
	C219.609573,25.226694 229.184402,31.786297 239.184692,37.787422 
	C251.793991,45.354195 257.194214,58.391953 263.005310,71.427017 
	C264.740082,84.753769 265.688293,97.687996 261.733276,110.318832 
	C260.927429,112.892395 257.975250,114.793900 255.995422,116.661636 
	C255.319443,115.544891 254.660568,114.771729 253.941528,113.626396 
	C254.553391,110.023598 255.022964,106.734734 255.932602,103.572456 
	C259.793945,90.148804 259.504761,77.136200 252.361038,64.764824 
	C249.553299,59.902409 246.764175,55.010178 243.618240,50.367565 
	C240.583755,45.889400 237.023438,42.103558 230.596954,43.425953 
	C229.056366,43.742970 227.205215,42.462402 225.478333,41.983486 
	C222.979187,41.290386 220.484543,40.554485 217.947876,40.031170 
	C215.701309,39.567707 213.407013,39.299866 211.121246,39.070457 
	C207.530685,38.710091 203.615387,37.433460 200.414154,38.418514 
	C196.589340,39.595448 193.418610,39.375565 189.994171,38.006691 
	C189.999435,38.002609 189.990768,38.012093 189.895599,37.668991 
	C188.519760,36.893978 187.239075,36.462067 185.510468,36.029667 
	C178.429169,35.315945 172.816574,37.541519 167.646805,42.052734 
	C165.527557,44.071526 163.729538,46.004410 161.578674,47.972694 
	C159.533432,50.024799 157.841049,52.041508 155.870483,54.083405 
	C155.615372,54.738346 155.638443,55.368107 155.663696,56.291454 
	C155.136475,57.066700 154.607056,57.548355 153.727112,58.103645 
	C152.239182,59.961239 150.781372,61.623341 150.044952,63.559792 
	C149.108932,66.021019 148.497696,67.062195 146.932068,63.642036 
	C144.718094,59.802170 142.408859,60.217419 139.771729,63.254704 
	C137.362381,64.340958 135.182022,65.171242 132.750793,66.000916 
	C132.332687,65.999954 132.165436,65.999619 132.053192,65.643723 
	C133.313309,62.495758 134.518387,59.703354 136.108582,56.018528 
	C133.359497,57.152386 131.614822,57.871975 129.870132,58.591568 
	C128.219818,64.618050 125.708122,70.115257 122.984482,75.505371 
	C122.727493,76.013954 121.138008,75.849213 120.167160,75.997086 
z"/>
<path fill="#FBD767" opacity="1.000000" stroke="none" 
	d="
M122.878998,145.090744 
	C121.331291,142.643173 119.783585,140.195602 118.546936,137.282135 
	C119.187172,135.823044 119.886200,134.789398 119.782776,133.843491 
	C119.281860,129.262146 118.565453,124.704369 117.949570,119.656815 
	C117.968803,110.755577 117.963882,102.335777 117.945923,93.551315 
	C117.952827,92.457298 117.972771,91.727936 118.349930,91.111450 
	C119.471581,94.173622 120.104195,97.165123 121.031761,100.062195 
	C122.378990,104.270012 123.131866,108.979507 125.584633,112.453972 
	C130.019135,118.735664 136.051834,123.891624 140.464966,130.185364 
	C148.519882,141.672791 160.306198,141.332230 171.890839,140.412552 
	C175.124100,140.155884 177.336426,139.440170 179.529724,143.025558 
	C179.849487,141.328537 179.999176,140.534119 180.459915,139.882996 
	C181.826324,141.379105 182.881668,142.731873 183.943359,144.522263 
	C184.350128,149.918701 184.750549,154.877502 185.091064,160.124329 
	C185.007416,160.607040 184.983673,160.801712 184.569351,160.979797 
	C179.488220,159.381668 174.733398,157.965759 170.123306,156.176834 
	C164.296875,153.915894 158.371841,151.755936 152.881210,148.819641 
	C145.209869,144.717133 136.189529,143.223846 129.725082,136.770172 
	C127.697586,134.746048 125.330879,133.061707 123.119431,131.221848 
	C122.577667,131.550964 122.035904,131.880066 121.494133,132.209183 
	C122.326561,134.141159 123.158989,136.073151 123.993088,138.427124 
	C123.622841,140.929657 123.250923,143.010208 122.878998,145.090744 
z"/>
<path fill="#F2C75D" opacity="1.000000" stroke="none" 
	d="
M238.079483,14.876854 
	C240.695038,15.736026 243.310577,16.595198 246.222458,18.084593 
	C249.680908,20.494446 252.843033,22.274076 256.095337,24.391689 
	C258.476074,27.309542 260.609467,30.053820 263.095032,32.429691 
	C266.588593,35.769112 270.343628,38.834999 274.003693,42.388786 
	C274.368500,43.860806 274.494965,45.104889 275.099091,46.040615 
	C280.470947,54.361240 283.849609,63.419895 286.258850,73.022629 
	C289.643372,86.512535 288.282074,99.990288 285.141266,112.946671 
	C281.249847,128.999237 271.124817,141.475037 257.582245,151.083954 
	C254.904236,152.984085 252.838013,155.730072 250.223297,157.739304 
	C245.590103,161.299591 240.752625,164.594025 235.999786,167.624207 
	C236.003265,166.497406 236.007584,165.746094 236.338287,164.912231 
	C246.257156,155.572418 255.624146,146.065506 265.511963,137.135300 
	C273.717102,129.724792 275.873077,119.408913 280.188110,109.835541 
	C280.250824,109.115234 280.125397,108.558144 280.000061,107.584366 
	C280.000916,105.778732 280.001678,104.389793 280.329041,102.917671 
	C281.102966,101.889725 281.550262,100.944946 281.997925,99.625031 
	C281.998474,98.499603 281.998627,97.749306 282.245544,96.698090 
	C282.415466,93.635384 282.272369,90.873589 282.273102,88.111816 
	C282.276306,75.917816 281.026611,63.714237 273.968079,53.585411 
	C269.104614,46.606419 262.070251,41.140282 256.003052,34.999008 
	C256.000000,35.000000 256.001984,34.994514 255.947968,34.658016 
	C254.597946,33.214016 253.301941,32.106514 251.754227,30.781471 
	C245.672028,26.371309 239.841537,22.178692 234.007721,17.665874 
	C234.000473,16.919065 233.996567,16.492456 234.367905,16.037563 
	C235.855270,15.631804 236.967377,15.254329 238.079483,14.876854 
z"/>
<path fill="#C8C9C2" opacity="1.000000" stroke="none" 
	d="
M156.153809,239.917297 
	C156.429062,229.039749 156.717636,218.162491 156.942017,207.283890 
	C156.953781,206.713104 156.420486,206.131073 156.433777,204.964096 
	C157.733719,202.222488 158.740799,200.071060 159.920105,198.235306 
	C161.649750,200.206329 162.941376,202.307678 164.818588,203.426346 
	C169.026276,205.933762 173.525146,207.952530 178.026520,210.501587 
	C179.388199,211.830933 180.537918,213.536407 181.884506,213.709381 
	C189.261459,214.656998 196.686676,215.228745 204.557922,215.921188 
	C212.327499,215.889206 219.634476,215.865646 227.401611,215.905670 
	C232.231674,215.666077 236.601547,215.362885 240.997040,215.448013 
	C241.341949,217.886093 241.661224,219.935822 241.606049,222.033264 
	C238.873459,222.752975 236.515350,223.424973 233.706635,224.058960 
	C230.478424,224.645218 225.911591,221.889099 225.657928,228.051987 
	C224.221176,228.512024 223.098907,228.796188 221.741272,228.753448 
	C218.486893,228.818100 215.449188,229.638535 212.452957,229.507904 
	C206.963684,229.268570 201.498886,228.467773 195.907745,227.570251 
	C190.455154,225.534012 185.118698,223.828598 179.401947,222.126831 
	C174.011337,219.764374 169.001038,217.398270 163.742233,214.888397 
	C163.003006,214.164673 162.512268,213.584717 162.343491,212.925140 
	C163.197495,210.656464 163.197495,210.656464 157.948685,208.506775 
	C157.948685,210.545425 157.946518,212.286194 157.949066,214.026962 
	C157.959473,221.141953 158.076324,228.259552 157.899246,235.369858 
	C157.861160,236.899216 156.763412,238.402176 156.153809,239.917297 
z"/>
<path fill="#FBD767" opacity="1.000000" stroke="none" 
	d="
M263.001221,70.999695 
	C257.194214,58.391953 251.793991,45.354195 239.184692,37.787422 
	C229.184402,31.786297 219.609573,25.226694 207.391022,23.211510 
	C199.863266,21.969967 192.734283,20.429245 185.507416,22.994162 
	C177.701279,25.764660 170.126328,29.182791 162.422684,32.248425 
	C160.599014,32.974144 158.664078,33.420181 156.477417,33.651360 
	C156.781494,31.261379 157.388458,29.214911 157.995422,27.168442 
	C159.991959,26.336763 161.989136,25.506567 163.984879,24.672995 
	C166.122681,23.780081 168.270111,22.909155 170.393753,21.983681 
	C174.054214,20.388477 177.648514,18.626465 181.369064,17.189421 
	C183.856766,16.228558 186.514893,15.708923 189.565704,14.999292 
	C190.034637,15.006742 190.114777,15.124477 190.119308,15.516377 
	C191.547897,16.604427 192.956116,17.861305 194.398697,17.902090 
	C201.602585,18.105749 208.815475,17.990196 216.352890,17.987831 
	C217.117325,17.993019 217.554092,17.997301 218.049225,18.348209 
	C219.615616,23.714787 224.610565,23.591934 228.212448,25.472042 
	C235.097946,29.066122 242.066299,32.501438 249.053680,36.354752 
	C252.536667,41.483624 256.559082,45.951622 259.247925,51.114197 
	C262.722626,57.785744 265.131927,65.012184 267.633057,71.988037 
	C265.844482,71.650818 264.422852,71.325256 263.001221,70.999695 
z"/>
<path fill="#FCDB6E" opacity="1.000000" stroke="none" 
	d="
M180.148849,139.739685 
	C179.999176,140.534119 179.849487,141.328537 179.529724,143.025558 
	C177.336426,139.440170 175.124100,140.155884 171.890839,140.412552 
	C160.306198,141.332230 148.519882,141.672791 140.464966,130.185364 
	C136.051834,123.891624 130.019135,118.735664 125.584633,112.453972 
	C123.131866,108.979507 122.378990,104.270012 121.031761,100.062195 
	C120.104195,97.165123 119.471581,94.173622 118.341095,90.689453 
	C117.941917,88.749046 117.908791,87.343506 117.943863,85.595184 
	C118.421097,84.168777 118.830132,83.085159 119.561539,81.980682 
	C120.491043,81.433510 121.098167,80.907188 121.705292,80.380875 
	C121.173782,79.929115 120.642273,79.477364 120.088516,78.742088 
	C120.025414,78.273422 119.984566,78.088287 119.943726,77.903145 
	C119.968979,77.476059 119.994232,77.048965 120.093330,76.309479 
	C121.138008,75.849213 122.727493,76.013954 122.984482,75.505371 
	C125.708122,70.115257 128.219818,64.618050 129.870132,58.591568 
	C131.614822,57.871975 133.359497,57.152386 136.108582,56.018528 
	C134.518387,59.703354 133.313309,62.495758 131.726379,65.726883 
	C130.896774,67.111115 130.448990,68.056633 129.980774,69.374146 
	C129.307083,71.830734 128.653839,73.915337 127.728073,76.256859 
	C126.970055,79.342216 126.484566,82.170654 125.695526,85.067307 
	C125.261223,86.090485 125.130463,87.045433 124.999687,88.451294 
	C124.289055,96.216476 127.606239,102.040131 130.805389,108.398682 
	C135.015457,116.766479 139.714096,124.163116 147.212463,129.893082 
	C150.042557,132.055740 152.297485,132.930084 155.763657,131.696548 
	C158.252563,130.810806 161.178879,131.246231 163.829422,130.700592 
	C167.613815,129.921539 171.324463,128.784241 175.289703,127.861664 
	C175.512833,127.923370 175.959778,128.044266 176.072693,128.308884 
	C176.753296,129.072495 177.320953,129.571472 177.917542,130.457367 
	C178.680573,133.809402 179.414719,136.774551 180.148849,139.739685 
z"/>
<path fill="#EEB84D" opacity="1.000000" stroke="none" 
	d="
M184.959930,160.996384 
	C184.983673,160.801712 185.007416,160.607040 185.468765,160.190918 
	C186.631912,161.354416 187.373596,162.731186 188.078293,164.126648 
	C188.731232,165.419632 189.344620,166.732574 189.990158,168.451675 
	C190.232285,172.583237 190.459671,176.299866 190.496094,180.349243 
	C190.193390,182.783203 190.081635,184.884369 189.571442,186.919281 
	C185.627548,186.157211 181.865524,185.994339 178.579880,184.659180 
	C170.770584,181.485764 163.243042,177.623993 155.472351,174.347000 
	C153.524719,173.525665 151.088501,173.862976 149.060318,173.683975 
	C150.295578,176.455170 151.115189,178.293884 151.594727,180.064835 
	C149.845978,179.368469 148.437317,178.739883 147.028641,178.111298 
	C143.084000,173.311920 139.139359,168.512543 135.282776,163.174011 
	C136.442429,162.241943 137.712173,161.266190 138.552917,161.552094 
	C143.460022,163.220718 148.238647,165.261871 153.113403,167.031967 
	C160.829742,169.833862 168.600586,172.485565 176.318680,175.282745 
	C178.167358,175.952759 179.825348,177.257477 181.705399,177.701782 
	C183.578262,178.144394 185.619949,177.872604 187.587616,177.914062 
	C187.061539,175.607620 186.535461,173.301193 186.007553,170.619904 
	C185.999313,169.495270 185.992905,168.745468 185.990784,167.580215 
	C185.650024,165.108627 185.304977,163.052505 184.959930,160.996384 
z"/>
<path fill="#193D5F" opacity="1.000000" stroke="none" 
	d="
M261.002899,287.097137 
	C256.789062,289.736084 252.591644,292.401947 248.348679,294.993225 
	C247.401382,295.571777 246.322449,295.979645 245.255798,296.310242 
	C240.142624,297.895081 235.091705,299.817596 229.867584,300.870300 
	C224.279388,301.996307 218.522354,302.284485 212.385269,302.414948 
	C211.954056,292.585663 211.976624,283.279816 212.325134,273.971985 
	C213.084839,273.954285 213.518585,273.938568 213.961502,274.394348 
	C213.982117,278.856293 213.871262,282.851837 214.037384,286.835815 
	C214.225479,291.346375 217.423218,294.167114 221.852219,293.528748 
	C228.904602,292.512268 235.981003,291.490082 242.915787,289.897766 
	C246.773697,289.011932 250.655563,287.429443 254.004333,285.328461 
	C258.252991,282.662872 261.971527,279.152283 265.939270,276.414612 
	C264.892792,279.193573 263.853638,281.577026 262.746277,283.928436 
	C262.233673,285.016907 261.588165,286.042847 261.002899,287.097137 
z"/>
<path fill="#D38F3B" opacity="1.000000" stroke="none" 
	d="
M271.087891,181.053497 
	C271.064423,181.825470 271.040924,182.597427 270.572876,183.749817 
	C266.305878,186.289413 263.784180,189.226578 264.132019,194.308945 
	C261.443085,201.319199 256.665070,205.669815 249.651886,208.071045 
	C244.196472,209.388885 239.117889,210.719803 234.038879,211.675110 
	C236.954453,201.453629 246.219406,197.503494 252.842438,191.110657 
	C256.469330,187.609818 260.306915,184.327682 264.036774,180.932968 
	C268.033905,177.295029 272.016052,173.640686 276.013489,170.335251 
	C276.383148,171.468216 276.744080,172.259460 277.105011,173.050705 
	C277.105011,173.050705 276.979279,173.523361 276.561340,173.778000 
	C273.626831,175.774246 269.574707,176.410156 271.087891,181.053497 
z"/>
<path fill="#506A7F" opacity="1.000000" stroke="none" 
	d="
M211.999176,273.973969 
	C211.976624,283.279816 211.954056,292.585663 211.921204,302.345001 
	C202.965271,302.682556 194.264587,301.550476 185.996231,297.716614 
	C183.491058,296.555023 180.228302,297.034363 177.713593,295.884796 
	C171.769745,293.167694 166.066757,289.923706 160.146164,286.157959 
	C159.377441,280.942474 158.185379,276.457489 158.221024,271.982269 
	C158.263489,266.649933 159.358902,261.326019 160.337921,255.997894 
	C161.131454,255.983398 161.585190,255.969467 162.054474,255.940857 
	C162.070023,255.926163 162.110336,255.908310 162.082321,256.381836 
	C162.037659,262.169006 161.596329,267.527802 162.154938,272.780273 
	C162.522247,276.234100 163.410782,280.445068 165.670441,282.730774 
	C172.135742,289.270569 181.670593,290.102234 189.629150,293.982758 
	C189.763947,294.048462 189.974091,293.948395 190.120987,294.002258 
	C195.824615,296.093994 202.637421,294.659760 207.513977,299.472748 
	C207.828232,299.782898 208.714828,299.513123 209.947693,299.513123 
	C209.947693,297.207275 209.947693,295.089203 209.955688,292.504456 
	C209.976059,285.359344 209.988434,278.680908 210.216461,271.977905 
	C210.432129,271.953400 210.863724,271.906647 211.099915,272.102234 
	C211.557129,272.856567 211.778152,273.415253 211.999176,273.973969 
z"/>
<path fill="#F3C353" opacity="1.000000" stroke="none" 
	d="
M186.009384,170.994751 
	C186.535461,173.301193 187.061539,175.607620 187.587616,177.914062 
	C185.619949,177.872604 183.578262,178.144394 181.705399,177.701782 
	C179.825348,177.257477 178.167358,175.952759 176.318680,175.282745 
	C168.600586,172.485565 160.829742,169.833862 153.113403,167.031967 
	C148.238647,165.261871 143.460022,163.220718 138.552917,161.552094 
	C137.712173,161.266190 136.442429,162.241943 135.136871,162.846954 
	C133.002899,160.611511 131.102890,158.163986 129.292023,155.170486 
	C129.827515,153.631531 130.273880,152.638550 130.774612,151.524582 
	C132.648453,152.765900 134.122406,154.212677 135.887283,154.836960 
	C149.839584,159.772217 163.829102,164.604904 177.854385,169.328903 
	C180.463730,170.207764 183.285599,170.455658 186.009384,170.994751 
z"/>
<path fill="#F5CC5E" opacity="1.000000" stroke="none" 
	d="
M186.007553,170.619904 
	C183.285599,170.455658 180.463730,170.207764 177.854385,169.328903 
	C163.829102,164.604904 149.839584,159.772217 135.887283,154.836960 
	C134.122406,154.212677 132.648453,152.765900 130.774612,151.524582 
	C130.273880,152.638550 129.827515,153.631531 129.139557,154.856903 
	C126.923523,152.006119 124.949089,148.922974 122.926826,145.465271 
	C123.250923,143.010208 123.622841,140.929657 124.324158,138.502991 
	C125.732635,139.375397 127.180244,140.426193 127.824783,141.842468 
	C130.173691,147.003830 134.850342,148.814468 139.687088,149.835510 
	C156.158325,153.312622 171.157440,160.406967 185.986481,167.995682 
	C185.992905,168.745468 185.999313,169.495270 186.007553,170.619904 
z"/>
<path fill="#EDBD5D" opacity="1.000000" stroke="none" 
	d="
M273.986847,42.017857 
	C270.343628,38.834999 266.588593,35.769112 263.095032,32.429691 
	C260.609467,30.053820 258.476074,27.309542 256.473328,24.426567 
	C258.219879,24.406925 259.678619,24.690392 261.137329,24.973854 
	C266.759705,29.312311 272.453857,33.561584 277.985687,38.012592 
	C284.388855,43.164684 289.193054,49.646957 293.044098,56.874115 
	C294.536987,59.675762 296.153076,62.411751 297.813538,65.939667 
	C297.977692,68.425209 298.041382,70.148758 297.766418,71.955399 
	C295.951447,73.358406 294.475098,74.678322 292.758331,75.725594 
	C291.073090,71.244209 289.407593,67.096161 288.229919,62.813969 
	C285.861328,54.201530 281.180420,47.274921 273.986847,42.017857 
z"/>
<path fill="#3B6688" opacity="1.000000" stroke="none" 
	d="
M261.375488,287.072388 
	C261.588165,286.042847 262.233673,285.016907 262.746277,283.928436 
	C263.853638,281.577026 264.892792,279.193573 265.971039,275.947601 
	C266.047424,268.109283 266.707275,261.053497 263.022583,254.654648 
	C261.183472,255.816467 259.649780,257.158295 257.864166,257.848053 
	C250.599854,260.654266 243.258286,263.260590 235.850006,265.604889 
	C234.468933,264.820557 233.183060,264.371948 232.001343,263.610718 
	C233.093552,262.213287 234.081589,261.128510 235.490845,260.043091 
	C239.270187,259.327698 242.628296,258.612946 246.356354,257.914337 
	C248.503174,256.633057 250.280060,255.335693 252.433044,254.031525 
	C256.559265,251.359680 260.309418,248.694656 264.070740,245.568466 
	C264.139130,242.010452 264.196350,238.913589 264.558105,235.835388 
	C265.269501,235.872086 265.676331,235.890106 266.044983,235.928986 
	C266.006744,235.949860 266.090515,235.931168 266.026825,236.335236 
	C266.618896,238.496414 267.274658,240.253540 267.994202,242.216568 
	C268.058044,242.422470 268.178619,242.836411 268.125854,243.313538 
	C268.068665,251.592972 267.975891,259.396637 268.097076,267.196960 
	C268.157745,271.102325 268.608612,275.001587 268.882996,278.903625 
	C267.810211,282.762085 266.192566,286.143188 261.375488,287.072388 
z"/>
<path fill="#D89842" opacity="1.000000" stroke="none" 
	d="
M277.417480,172.913513 
	C276.744080,172.259460 276.383148,171.468216 276.066010,169.994629 
	C275.817474,167.547394 279.620605,165.698105 276.112640,163.650574 
	C279.065613,161.241974 282.015564,159.317719 284.721497,157.096252 
	C288.830658,153.722778 292.946045,150.240204 292.312622,143.940277 
	C293.077881,143.248108 293.538940,142.624191 294.310974,141.933960 
	C295.707001,141.249161 296.792053,140.630676 297.905029,140.361481 
	C298.310028,141.521286 298.687103,142.331772 299.064178,143.142258 
	C299.064178,143.142258 299.002655,143.561569 298.560516,143.779480 
	C294.834351,145.411545 292.593262,147.272049 295.058258,151.146881 
	C290.496735,157.142090 285.967896,163.162689 281.348724,169.113159 
	C280.303680,170.459366 278.944519,171.561722 277.417480,172.913513 
z"/>
<path fill="#FBEAAD" opacity="1.000000" stroke="none" 
	d="
M117.875656,85.937973 
	C117.908791,87.343506 117.941917,88.749046 117.983879,90.576576 
	C117.972771,91.727936 117.952827,92.457298 117.581833,93.708359 
	C116.877228,94.755432 116.222809,95.276688 116.215538,95.806824 
	C116.116234,103.047409 116.043137,110.290215 116.156670,117.529449 
	C116.170448,118.408073 117.308449,119.269073 117.925423,120.138237 
	C118.565453,124.704369 119.281860,129.262146 119.782776,133.843491 
	C119.886200,134.789398 119.187172,135.823044 118.511208,136.930313 
	C114.018890,130.118576 113.346130,122.306267 113.129913,114.591316 
	C112.908783,106.700737 113.670830,98.782593 114.398109,90.345848 
	C115.821030,88.522774 116.848343,87.230370 117.875656,85.937973 
z"/>
<path fill="#E7B75F" opacity="1.000000" stroke="none" 
	d="
M304.830475,85.976997 
	C305.121704,88.058289 305.412903,90.139572 305.486023,92.864334 
	C304.927643,103.328201 304.542786,113.147461 304.289154,122.970100 
	C304.244568,124.697510 304.749695,126.439102 305.000946,128.174149 
	C303.913483,131.062119 302.825989,133.950089 301.132751,136.717621 
	C300.336853,135.069794 300.146667,133.542389 300.069580,131.648163 
	C301.448334,125.308273 303.598480,119.358917 303.759247,113.356270 
	C303.967285,105.587601 302.632996,97.771729 301.818604,89.991257 
	C301.742462,89.263725 300.633484,88.644295 300.004852,87.575760 
	C300.001709,86.113091 299.997803,85.049324 299.998352,83.645584 
	C300.010284,82.852173 300.017792,82.398743 300.360382,81.957008 
	C301.142883,81.956802 301.590302,81.944901 302.035339,81.948929 
	C302.032990,81.964867 302.065063,81.967964 302.047333,82.342529 
	C302.963226,83.803726 303.896851,84.890366 304.830475,85.976997 
z"/>
<path fill="#8AA5AD" opacity="1.000000" stroke="none" 
	d="
M156.077774,240.379318 
	C156.763412,238.402176 157.861160,236.899216 157.899246,235.369858 
	C158.076324,228.259552 157.959473,221.141953 157.949066,214.026962 
	C157.946518,212.286194 157.948685,210.545425 157.948685,208.506775 
	C163.197495,210.656464 163.197495,210.656464 161.970093,213.087738 
	C160.812469,214.981491 159.977722,216.627457 159.952911,218.285522 
	C159.849701,225.181564 159.990570,232.081284 159.869476,239.316864 
	C159.837112,242.402344 159.977173,245.150589 160.154968,248.239685 
	C160.786377,249.775909 161.380035,250.971283 161.666840,252.134201 
	C160.949570,252.108124 160.539200,252.114517 159.727234,252.090790 
	C158.252197,252.036057 157.178757,252.011444 156.105316,251.986847 
	C156.070801,248.271683 156.036285,244.556503 156.077774,240.379318 
z"/>
<path fill="#EEEDE5" opacity="1.000000" stroke="none" 
	d="
M268.178619,242.836411 
	C268.178619,242.836411 268.058044,242.422470 268.077820,241.802414 
	C267.994354,239.497940 267.891144,237.813522 267.862000,235.657532 
	C267.951538,232.357056 268.119659,229.519211 267.954956,226.700821 
	C267.368744,216.668945 266.710571,206.640518 265.944000,196.621155 
	C265.873047,195.693985 264.839935,194.840424 264.253601,193.952682 
	C263.784180,189.226578 266.305878,186.289413 270.480652,184.125900 
	C270.235321,187.899719 269.176422,191.671066 269.120758,195.457184 
	C268.893097,210.939255 268.971741,226.425827 268.718567,242.359222 
	C268.499512,242.807678 268.178619,242.836411 268.178619,242.836411 
z"/>
<path fill="#FDE275" opacity="1.000000" stroke="none" 
	d="
M189.973511,14.970203 
	C192.316330,13.948981 194.720276,12.964298 197.975677,12.027295 
	C206.505905,12.112475 214.184692,12.149975 222.041809,12.522224 
	C224.023849,13.248156 225.860443,13.530691 227.621384,14.063317 
	C229.155991,14.527497 230.605255,15.273811 231.624619,15.936859 
	C227.448318,15.977277 223.739624,15.976292 219.890076,15.605462 
	C213.999603,15.048406 208.250809,14.755396 202.500061,14.709596 
	C198.373001,14.676726 194.243301,14.974314 190.114777,15.124477 
	C190.114777,15.124477 190.034637,15.006742 189.973511,14.970203 
z"/>
<path fill="#758E9D" opacity="1.000000" stroke="none" 
	d="
M156.040741,252.452301 
	C157.178757,252.011444 158.252197,252.036057 159.702545,252.399780 
	C160.081818,253.153885 160.084198,253.568909 160.051178,254.318512 
	C160.009903,255.101547 160.004013,255.549988 159.998138,255.998444 
	C159.358902,261.326019 158.263489,266.649933 158.221024,271.982269 
	C158.185379,276.457489 159.377441,280.942474 159.989349,285.840973 
	C156.906555,284.291443 155.758881,281.655151 155.892380,277.898499 
	C156.187943,269.581116 155.979218,261.245758 156.040741,252.452301 
z"/>
<path fill="#FBEAAD" opacity="1.000000" stroke="none" 
	d="
M147.052933,178.458496 
	C148.437317,178.739883 149.845978,179.368469 151.683990,180.404205 
	C154.397308,184.210815 156.681290,187.610275 159.071625,191.313446 
	C159.488190,192.406693 159.798401,193.196213 160.048889,194.378265 
	C159.908737,195.820404 159.828323,196.870010 159.747894,197.919632 
	C158.740799,200.071060 157.733719,202.222488 156.444519,204.552017 
	C156.111801,203.580597 155.869583,202.401611 156.041092,201.286255 
	C157.315826,192.997314 153.774841,186.549896 148.384491,180.761490 
	C147.856964,180.195007 147.508698,179.461609 147.052933,178.458496 
z"/>
<path fill="#FDF5D6" opacity="1.000000" stroke="none" 
	d="
M152.011292,34.067585 
	C148.595200,37.043877 145.242096,40.097446 141.732513,42.959084 
	C140.294052,44.131973 138.517654,44.890396 136.538208,45.826893 
	C137.909622,43.590340 139.320023,40.985371 141.430618,39.215256 
	C146.156830,35.251453 151.231491,31.703125 156.434296,28.296715 
	C155.706146,30.351944 154.707977,32.096054 153.423218,33.843788 
	C152.761505,33.920799 152.386398,33.994190 152.011292,34.067585 
z"/>
<path fill="#EEEDE5" opacity="1.000000" stroke="none" 
	d="
M221.863480,12.187474 
	C214.184692,12.149975 206.505905,12.112475 198.359283,11.987776 
	C206.742050,8.382269 215.895111,10.214577 224.949554,10.415606 
	C226.209305,10.443576 227.459152,10.917626 228.357544,11.603832 
	C225.955505,12.077483 223.909485,12.132479 221.863480,12.187474 
z"/>
<path fill="#FDF5D6" opacity="1.000000" stroke="none" 
	d="
M305.372864,127.955673 
	C304.749695,126.439102 304.244568,124.697510 304.289154,122.970100 
	C304.542786,113.147461 304.927643,103.328201 305.556702,93.255524 
	C306.226349,94.709297 306.976868,96.426201 306.927094,98.119583 
	C306.636932,107.995186 306.159149,117.865257 305.372864,127.955673 
z"/>
<path fill="#FBEAAD" opacity="1.000000" stroke="none" 
	d="
M298.105072,71.872299 
	C298.041382,70.148758 297.977692,68.425209 297.948425,66.269135 
	C300.229309,70.984550 302.475800,76.132507 304.422546,81.647446 
	C303.436920,81.998947 302.750977,81.983452 302.065063,81.967957 
	C302.065063,81.967964 302.032990,81.964867 302.042786,81.590309 
	C301.424194,80.078873 300.795807,78.942001 300.152954,77.415131 
	C299.449463,75.319664 298.760498,73.614189 298.074036,71.900864 
	C298.076569,71.893021 298.105072,71.872299 298.105072,71.872299 
z"/>
<path fill="#FDF5D6" opacity="1.000000" stroke="none" 
	d="
M261.086151,24.596210 
	C259.678619,24.690392 258.219879,24.406925 256.383179,24.088583 
	C252.843033,22.274076 249.680908,20.494446 246.420288,18.429726 
	C252.028259,18.226387 256.764923,20.657351 261.086151,24.596210 
z"/>
<path fill="#8AA5AD" opacity="1.000000" stroke="none" 
	d="
M268.125854,243.313538 
	C268.178619,242.836411 268.499512,242.807678 268.660706,242.813339 
	C268.879852,254.541397 268.937805,266.263794 268.939392,278.444885 
	C268.608612,275.001587 268.157745,271.102325 268.097076,267.196960 
	C267.975891,259.396637 268.068665,251.592972 268.125854,243.313538 
z"/>
<path fill="#FBEAAD" opacity="1.000000" stroke="none" 
	d="
M222.041809,12.522223 
	C223.909485,12.132479 225.955505,12.077483 228.436554,12.009453 
	C231.803467,12.728931 234.735367,13.461446 237.873367,14.535406 
	C236.967377,15.254329 235.855270,15.631804 234.052734,15.990988 
	C232.938934,15.946948 232.515594,15.921203 232.092239,15.895458 
	C230.605255,15.273811 229.155991,14.527497 227.621384,14.063317 
	C225.860443,13.530691 224.023849,13.248156 222.041809,12.522223 
z"/>
<path fill="#FDF5D6" opacity="1.000000" stroke="none" 
	d="
M117.943863,85.595184 
	C116.848343,87.230370 115.821030,88.522774 114.477966,89.913971 
	C114.936440,85.633965 115.290108,81.082001 119.533630,77.932945 
	C119.984566,78.088287 120.025414,78.273422 119.816193,78.935501 
	C119.457138,80.275467 119.348160,81.138504 119.239174,82.001541 
	C118.830132,83.085159 118.421097,84.168777 117.943863,85.595184 
z"/>
<path fill="#D89842" opacity="1.000000" stroke="none" 
	d="
M271.472107,181.038055 
	C269.574707,176.410156 273.626831,175.774246 276.495667,174.013550 
	C275.540771,176.590576 276.126556,180.531036 271.472107,181.038055 
z"/>
<path fill="#DFA144" opacity="1.000000" stroke="none" 
	d="
M299.956482,132.014984 
	C300.146667,133.542389 300.336853,135.069794 300.798431,136.870087 
	C301.069824,137.142975 300.975952,137.585098 300.561707,137.815796 
	C299.390656,138.701706 298.633881,139.356949 297.877106,140.012177 
	C296.792053,140.630676 295.707001,141.249161 294.313599,141.549225 
	C294.502106,140.094284 295.002838,138.959412 295.494934,137.820801 
	C296.332794,135.881973 297.165283,133.940796 298.326385,132.000549 
	C299.087341,132.005325 299.521942,132.010162 299.956482,132.014984 
z"/>
<path fill="#E7B75F" opacity="1.000000" stroke="none" 
	d="
M295.385742,150.986710 
	C292.593262,147.272049 294.834351,145.411545 298.481689,143.976166 
	C297.801056,146.245468 296.757111,148.536011 295.385742,150.986710 
z"/>
<path fill="#FDDF6E" opacity="1.000000" stroke="none" 
	d="
M153.709808,33.840168 
	C154.707977,32.096054 155.706146,30.351944 156.806290,28.277006 
	C157.095276,27.657091 157.282288,27.368004 157.732361,27.123678 
	C157.388458,29.214911 156.781494,31.261379 156.087250,33.653999 
	C156.000000,34.000153 156.000000,34.000000 155.618225,33.989502 
	C154.727585,33.932728 154.218704,33.886448 153.709808,33.840168 
z"/>
<path fill="#E7B75F" opacity="1.000000" stroke="none" 
	d="
M297.905029,140.361496 
	C298.633881,139.356949 299.390656,138.701706 300.478333,138.025848 
	C300.452179,139.603882 300.095093,141.202560 299.401123,142.971741 
	C298.687103,142.331772 298.310028,141.521286 297.905029,140.361496 
z"/>
<path fill="#F4CE63" opacity="1.000000" stroke="none" 
	d="
M302.047333,82.342529 
	C302.750977,81.983452 303.436920,81.998947 304.466156,82.036636 
	C304.861481,83.104591 304.913483,84.150330 304.897980,85.586533 
	C303.896851,84.890366 302.963226,83.803726 302.047333,82.342529 
z"/>
<path fill="#FDE275" opacity="1.000000" stroke="none" 
	d="
M128.000610,75.999931 
	C128.653839,73.915337 129.307083,71.830734 130.312164,69.319588 
	C131.443253,67.929199 132.222458,66.965363 133.001678,66.001526 
	C135.182022,65.171242 137.362381,64.340958 140.172729,63.255424 
	C142.868393,63.332951 144.934067,63.665714 146.999725,63.998474 
	C148.497696,67.062195 149.108932,66.021019 150.044952,63.559792 
	C150.781372,61.623341 152.239182,59.961239 153.734711,58.567921 
	C154.039444,61.931728 153.936050,64.904991 153.941833,67.878036 
	C153.960480,77.450760 159.909775,81.740601 168.979874,78.344238 
	C173.479889,76.659172 177.665009,74.133141 182.311310,71.955368 
	C183.103516,71.299614 183.576965,70.676056 184.026581,70.026260 
	C184.002762,70.000023 184.056320,70.047783 184.378479,69.969307 
	C186.479538,67.936981 188.258438,65.983139 190.372009,63.917259 
	C193.951065,58.103390 197.800110,52.510845 194.051514,45.530872 
	C192.703506,43.020847 191.343475,40.517284 189.988922,38.010769 
	C193.418610,39.375565 196.589340,39.595448 200.414154,38.418514 
	C203.615387,37.433460 207.530685,38.710091 211.121246,39.070457 
	C213.407013,39.299866 215.701309,39.567707 217.947876,40.031170 
	C220.484543,40.554485 222.979187,41.290386 225.478333,41.983486 
	C227.205215,42.462402 229.056366,43.742970 230.596954,43.425953 
	C237.023438,42.103558 240.583755,45.889400 243.618240,50.367565 
	C246.764175,55.010178 249.553299,59.902409 252.361038,64.764824 
	C259.504761,77.136200 259.793945,90.148804 255.932602,103.572456 
	C255.022964,106.734734 254.553391,110.023598 253.938599,113.629196 
	C253.995804,114.004158 253.987793,114.012184 253.610016,114.012688 
	C251.788864,114.371208 250.345490,114.729225 248.547821,115.097733 
	C245.612488,116.704330 243.064514,118.357231 240.442795,119.883484 
	C236.322296,122.282257 232.152115,124.595695 227.730530,126.654358 
	C222.962738,126.912781 218.452560,128.011902 213.975342,127.890938 
	C205.963669,127.674469 197.971863,126.722977 189.716995,125.957809 
	C188.970184,125.596107 188.478134,125.355331 187.745209,125.059952 
	C187.504333,125.005341 187.011414,124.973198 186.868195,124.690704 
	C185.835114,123.897369 184.945251,123.386536 183.957062,122.659248 
	C183.642319,122.155975 183.359055,122.052780 182.687042,122.009903 
	C181.725082,121.670395 181.084961,121.454193 180.351166,121.021530 
	C180.108887,120.526794 179.935898,120.264603 179.715820,119.720108 
	C179.117355,118.972168 178.541611,118.522621 177.982178,118.044205 
	C177.998489,118.015335 177.934433,118.032501 177.952362,117.699127 
	C177.976288,116.920769 177.982315,116.475769 177.911102,115.694626 
	C177.079697,114.954254 176.325531,114.550018 175.257690,114.212448 
	C174.101227,114.261955 173.258438,114.244812 171.935120,114.173447 
	C166.405396,114.688370 161.035278,116.605827 156.385040,115.498947 
	C150.001251,113.979416 142.739151,111.529503 138.425369,107.018661 
	C131.984711,100.283813 126.088875,92.054306 128.812790,81.207031 
	C129.206757,79.638237 128.303543,77.743721 128.000610,75.999931 
z"/>
<path fill="#FDF5D6" opacity="1.000000" stroke="none" 
	d="
M181.992584,71.987572 
	C177.665009,74.133141 173.479889,76.659172 168.979874,78.344238 
	C159.909775,81.740601 153.960480,77.450760 153.941833,67.878036 
	C153.936050,64.904991 154.039444,61.931728 154.085236,58.494289 
	C154.607056,57.548355 155.136475,57.066700 155.783295,55.978317 
	C155.983368,54.933792 156.066010,54.496002 156.148666,54.058212 
	C157.841049,52.041508 159.533432,50.024799 161.955994,47.992523 
	C165.146591,46.010098 167.607010,44.043240 170.463409,42.053917 
	C171.935287,41.661690 173.046539,41.370956 174.081192,40.908810 
	C179.227371,38.610180 187.589218,39.444771 190.087784,43.221344 
	C193.670288,48.636272 192.621231,54.439682 189.705887,60.137657 
	C187.601868,63.501278 185.829086,66.774529 184.056320,70.047783 
	C184.056320,70.047783 184.002762,70.000023 183.715408,70.073952 
	C182.949570,70.761116 182.471085,71.374344 181.992584,71.987572 
z"/>
<path fill="#F8D86C" opacity="1.000000" stroke="none" 
	d="
M263.005310,71.427017 
	C264.422852,71.325256 265.844482,71.650818 267.945007,72.190674 
	C269.999420,79.962952 272.856140,87.608994 272.413300,95.058899 
	C271.697723,107.095856 268.482574,118.864594 260.300232,128.534958 
	C256.284851,133.280563 253.134308,139.113586 248.293289,142.701920 
	C243.720016,146.091812 242.233917,150.570038 239.799744,155.220673 
	C239.042953,155.626694 238.487640,155.813629 237.951721,155.561615 
	C237.923401,153.357635 237.875671,151.592606 237.840393,149.417374 
	C238.882706,145.255737 239.755112,141.450745 241.005829,137.774429 
	C241.676178,135.804092 242.997421,134.055176 244.025848,132.585968 
	C244.165787,134.436188 244.304825,135.906769 244.443863,137.377335 
	C247.892075,133.763611 250.519577,130.188782 252.571167,126.309387 
	C254.103561,123.411751 254.892502,120.120934 256.012512,117.005211 
	C257.975250,114.793900 260.927429,112.892395 261.733276,110.318832 
	C265.688293,97.687996 264.740082,84.753769 263.005310,71.427017 
z"/>
<path fill="#FCE68F" opacity="1.000000" stroke="none" 
	d="
M190.037140,60.047291 
	C192.621231,54.439682 193.670288,48.636272 190.087784,43.221344 
	C187.589218,39.444771 179.227371,38.610180 174.081192,40.908810 
	C173.046539,41.370956 171.935287,41.661690 170.113510,42.028053 
	C168.901123,42.005375 168.434570,41.986099 167.968033,41.966824 
	C172.816574,37.541519 178.429169,35.315945 185.619736,36.365078 
	C187.448212,37.138016 188.719498,37.575054 189.990768,38.012093 
	C189.990768,38.012093 189.999435,38.002609 189.994171,38.006691 
	C191.343475,40.517284 192.703506,43.020847 194.051514,45.530872 
	C197.800110,52.510845 193.951065,58.103390 190.360138,63.517883 
	C190.021423,62.169460 190.029282,61.108376 190.037140,60.047291 
z"/>
<path fill="#FDE275" opacity="1.000000" stroke="none" 
	d="
M255.995422,116.661636 
	C254.892502,120.120934 254.103561,123.411751 252.571167,126.309387 
	C250.519577,130.188782 247.892075,133.763611 244.443863,137.377335 
	C244.304825,135.906769 244.165787,134.436188 244.271698,132.322510 
	C246.364014,128.452927 248.211395,125.226440 250.397110,121.908737 
	C254.143494,120.184067 254.155594,117.135612 253.987793,114.012184 
	C253.987793,114.012184 253.995804,114.004158 253.998749,114.001358 
	C254.660568,114.771729 255.319443,115.544891 255.995422,116.661636 
z"/>
<path fill="#FBEAAD" opacity="1.000000" stroke="none" 
	d="
M167.646805,42.052734 
	C168.434570,41.986099 168.901123,42.005375 169.717560,42.050518 
	C167.607010,44.043240 165.146591,46.010098 162.308838,47.957123 
	C163.729538,46.004410 165.527557,44.071526 167.646805,42.052734 
z"/>
<path fill="#FCDE6F" opacity="1.000000" stroke="none" 
	d="
M146.932068,63.642036 
	C144.934067,63.665714 142.868393,63.332951 140.401733,62.999466 
	C142.408859,60.217419 144.718094,59.802170 146.932068,63.642036 
z"/>
<path fill="#FBD767" opacity="1.000000" stroke="none" 
	d="
M153.423218,33.843788 
	C154.218704,33.886448 154.727585,33.932728 155.618225,33.989429 
	C155.369385,34.851105 154.738770,35.702358 154.108154,36.553604 
	C153.445755,35.936363 152.783371,35.319126 152.066132,34.384735 
	C152.386398,33.994190 152.761505,33.920799 153.423218,33.843788 
z"/>
<path fill="#FDE275" opacity="1.000000" stroke="none" 
	d="
M189.895599,37.668991 
	C188.719498,37.575054 187.448212,37.138016 186.067673,36.365570 
	C187.239075,36.462067 188.519760,36.893978 189.895599,37.668991 
z"/>
<path fill="#FCDE6F" opacity="1.000000" stroke="none" 
	d="
M132.750793,66.000908 
	C132.222458,66.965363 131.443253,67.929199 130.332626,68.947594 
	C130.448990,68.056633 130.896774,67.111115 131.671356,66.082443 
	C132.165436,65.999619 132.332687,65.999954 132.750793,66.000908 
z"/>
<path fill="#FDE275" opacity="1.000000" stroke="none" 
	d="
M155.870483,54.083397 
	C156.066010,54.496002 155.983368,54.933792 155.781113,55.684723 
	C155.638443,55.368107 155.615372,54.738346 155.870483,54.083397 
z"/>
<path fill="#F8CF5D" opacity="1.000000" stroke="none" 
	d="
M185.990784,167.580215 
	C171.157440,160.406967 156.158325,153.312622 139.687088,149.835510 
	C134.850342,148.814468 130.173691,147.003830 127.824783,141.842468 
	C127.180244,140.426193 125.732635,139.375397 124.322479,138.080994 
	C123.158989,136.073151 122.326561,134.141159 121.494133,132.209183 
	C122.035904,131.880066 122.577667,131.550964 123.119431,131.221848 
	C125.330879,133.061707 127.697586,134.746048 129.725082,136.770172 
	C136.189529,143.223846 145.209869,144.717133 152.881210,148.819641 
	C158.371841,151.755936 164.296875,153.915894 170.123306,156.176834 
	C174.733398,157.965759 179.488220,159.381668 184.569351,160.979797 
	C185.304977,163.052505 185.650024,165.108627 185.990784,167.580215 
z"/>
<path fill="#BD7934" opacity="1.000000" stroke="none" 
	d="
M189.975403,168.036728 
	C189.344620,166.732574 188.731232,165.419632 188.078293,164.126648 
	C187.373596,162.731186 186.631912,161.354416 185.528687,159.902893 
	C184.750549,154.877502 184.350128,149.918701 183.969116,144.100876 
	C183.329758,140.158051 182.671005,137.074234 182.328430,133.909729 
	C183.132889,133.090881 183.495834,132.186676 184.161850,131.684113 
	C184.498962,131.429733 185.383667,131.901093 186.018097,132.444580 
	C186.688721,134.548248 187.362076,136.251678 188.375626,138.109665 
	C189.804291,142.187943 190.892761,146.111679 191.971954,150.462616 
	C191.963837,152.607239 191.965042,154.324661 191.590546,156.152466 
	C190.801712,160.187469 190.388565,164.112091 189.975403,168.036728 
z"/>
<path fill="#FCDB6E" opacity="1.000000" stroke="none" 
	d="
M117.949570,119.656815 
	C117.308449,119.269073 116.170448,118.408073 116.156670,117.529449 
	C116.043137,110.290215 116.116234,103.047409 116.215538,95.806824 
	C116.222809,95.276688 116.877228,94.755432 117.594872,94.073013 
	C117.963882,102.335777 117.968803,110.755577 117.949570,119.656815 
z"/>
<path fill="#D38F3B" opacity="1.000000" stroke="none" 
	d="
M182.012268,133.990417 
	C182.671005,137.074234 183.329758,140.158051 183.962769,143.663254 
	C182.881668,142.731873 181.826324,141.379105 180.459915,139.882996 
	C179.414719,136.774551 178.680573,133.809402 178.270645,130.432526 
	C179.064041,130.012039 179.533234,130.003311 180.001282,129.997299 
	C180.000153,130.000000 180.005127,129.997467 180.065216,130.303925 
	C180.738190,131.090408 181.351044,131.570435 181.965729,132.373993 
	C181.982468,133.128494 181.997375,133.559448 182.012268,133.990417 
z"/>
<path fill="#EFC15A" opacity="1.000000" stroke="none" 
	d="
M274.003693,42.388786 
	C281.180420,47.274921 285.861328,54.201530 288.229919,62.813969 
	C289.407593,67.096161 291.073090,71.244209 292.762817,76.145210 
	C293.337708,80.225227 293.667633,83.612976 293.687866,87.074875 
	C293.585022,88.099205 293.791901,89.049377 293.998840,90.333130 
	C293.998871,91.111465 293.998840,91.556221 293.751770,92.288742 
	C291.670227,101.050758 289.835724,109.525017 287.944794,118.359695 
	C287.258514,120.813461 286.628662,122.906815 285.672668,125.075378 
	C284.564331,126.433510 283.782166,127.716415 282.944458,129.342316 
	C282.587891,130.271774 282.413635,130.987396 281.967163,131.425690 
	C272.849670,140.376160 263.681854,149.275375 254.568954,158.230438 
	C251.318436,161.424637 248.185791,164.738770 244.749817,167.999146 
	C244.500275,168.000122 244.001221,168.002441 243.621597,168.003784 
	C240.828033,169.336945 238.414108,170.668777 235.999756,171.600800 
	C235.999771,170.133896 236.000183,169.066788 236.000610,167.999695 
	C240.752625,164.594025 245.590103,161.299591 250.223297,157.739304 
	C252.838013,155.730072 254.904236,152.984085 257.582245,151.083954 
	C271.124817,141.475037 281.249847,128.999237 285.141266,112.946671 
	C288.282074,99.990288 289.643372,86.512535 286.258850,73.022629 
	C283.849609,63.419895 280.470947,54.361240 275.099091,46.040615 
	C274.494965,45.104889 274.368500,43.860806 274.003693,42.388786 
z"/>
<path fill="#F4CE63" opacity="1.000000" stroke="none" 
	d="
M237.932312,156.000580 
	C238.487640,155.813629 239.042953,155.626694 240.141144,155.165253 
	C245.739380,150.237244 251.142807,145.899307 255.739014,140.829544 
	C259.358734,136.836884 261.923859,131.900070 265.061646,127.456230 
	C273.291412,115.800865 277.059906,102.559608 276.406799,88.625748 
	C275.972168,79.353432 272.895386,70.204964 271.338806,61.084751 
	C276.630676,67.791832 279.723083,75.040977 280.083832,83.474815 
	C280.277466,88.001907 281.332458,92.492149 281.998779,96.999016 
	C281.998627,97.749306 281.998474,98.499603 281.671295,99.707962 
	C280.896973,101.110962 280.449707,102.055901 280.002441,103.000839 
	C280.001678,104.389793 280.000916,105.778732 279.811951,107.747620 
	C279.749207,108.884628 279.874603,109.441696 280.000000,109.998764 
	C275.873077,119.408913 273.717102,129.724792 265.511963,137.135300 
	C255.624146,146.065506 246.257156,155.572418 236.334869,164.537445 
	C235.997955,163.495087 235.990860,162.744965 236.004730,161.629852 
	C236.661224,159.510117 237.296768,157.755341 237.932312,156.000580 
z"/>
<path fill="#E8B554" opacity="1.000000" stroke="none" 
	d="
M235.983765,161.994827 
	C235.990860,162.744965 235.997955,163.495087 236.008484,164.619995 
	C236.007584,165.746094 236.003265,166.497406 235.999786,167.624207 
	C236.000183,169.066788 235.999771,170.133896 236.080658,171.921478 
	C239.424484,173.928482 241.911407,172.456635 244.001221,168.002441 
	C244.001221,168.002441 244.500275,168.000122 245.130203,167.997803 
	C247.485168,167.184616 249.473312,166.689011 250.889053,165.507523 
	C256.598907,160.742401 261.929169,155.507278 267.770599,150.917908 
	C282.327911,139.480759 292.930206,125.387611 298.242340,107.501831 
	C298.426422,106.882080 299.396332,106.495735 300.001770,106.467377 
	C299.998230,111.953079 299.992889,116.972008 299.647034,122.050461 
	C298.125488,123.205368 296.742371,124.151115 295.800049,125.423355 
	C292.565887,129.789886 290.157990,135.014236 286.223022,138.570374 
	C273.823975,149.775726 260.993774,160.517639 248.063614,171.113297 
	C244.227966,174.256439 239.511032,176.324173 233.918289,179.644348 
	C233.918289,174.262283 233.918289,170.042953 233.897430,165.441437 
	C233.933243,164.041138 233.989899,163.023071 234.369354,162.003799 
	C235.122696,162.000015 235.553223,161.997421 235.983765,161.994827 
z"/>
<path fill="#FBD35C" opacity="1.000000" stroke="none" 
	d="
M249.000259,36.002655 
	C242.066299,32.501438 235.097946,29.066122 228.212448,25.472042 
	C224.610565,23.591934 219.615616,23.714787 218.517136,18.343849 
	C223.954788,17.990599 228.982910,17.988335 234.011047,17.986071 
	C239.841537,22.178692 245.672028,26.371309 251.806061,31.118801 
	C253.407059,32.780624 254.704514,33.887569 256.001984,34.994514 
	C256.001984,34.994514 256.000000,35.000000 256.013397,35.364315 
	C258.017853,39.152740 260.008942,42.576851 261.659821,45.946346 
	C259.811035,44.692356 258.297119,43.499592 256.795013,42.292126 
	C254.192902,40.200436 251.598114,38.099636 249.000259,36.002655 
z"/>
<path fill="#F5CC5E" opacity="1.000000" stroke="none" 
	d="
M262.000000,46.000961 
	C260.008942,42.576851 258.017853,39.152740 256.016449,35.363327 
	C262.070251,41.140282 269.104614,46.606419 273.968079,53.585411 
	C281.026611,63.714237 282.276306,75.917816 282.273102,88.111816 
	C282.272369,90.873589 282.415466,93.635384 282.245544,96.698090 
	C281.332458,92.492149 280.277466,88.001907 280.083832,83.474815 
	C279.723083,75.040977 276.630676,67.791832 271.324890,60.709396 
	C267.982269,55.500557 264.991119,50.750759 262.000000,46.000961 
z"/>
<path fill="#F3C353" opacity="1.000000" stroke="none" 
	d="
M234.007721,17.665871 
	C228.982910,17.988335 223.954788,17.990599 218.458740,17.997223 
	C217.554092,17.997301 217.117325,17.993019 216.446991,17.649078 
	C217.485916,16.864716 218.758438,16.420012 220.030945,15.975307 
	C223.739624,15.976292 227.448318,15.977277 231.624619,15.936859 
	C232.515594,15.921203 232.938934,15.946948 233.677460,16.019272 
	C233.996567,16.492456 234.000473,16.919065 234.007721,17.665871 
z"/>
<path fill="#F5CC5E" opacity="1.000000" stroke="none" 
	d="
M255.947968,34.658020 
	C254.704514,33.887569 253.407059,32.780624 252.057770,31.336346 
	C253.301941,32.106514 254.597946,33.214016 255.947968,34.658020 
z"/>
<path fill="#F5CC5E" opacity="1.000000" stroke="none" 
	d="
M280.329041,102.917664 
	C280.449707,102.055901 280.896973,101.110962 281.670898,100.083099 
	C281.550262,100.944946 281.102966,101.889725 280.329041,102.917664 
z"/>
<path fill="#F5CC5E" opacity="1.000000" stroke="none" 
	d="
M280.188110,109.835541 
	C279.874603,109.441696 279.749207,108.884628 279.811890,108.164307 
	C280.125397,108.558144 280.250824,109.115234 280.188110,109.835541 
z"/>
<path fill="#5E778A" opacity="1.000000" stroke="none" 
	d="
M160.117218,247.898849 
	C159.977173,245.150589 159.837112,242.402344 160.241364,239.191284 
	C161.854019,230.829712 162.922363,222.930954 163.990723,215.032181 
	C169.001038,217.398270 174.011337,219.764374 179.544388,222.449448 
	C184.658188,226.742111 189.991928,228.406906 196.023880,227.901077 
	C201.498886,228.467773 206.963684,229.268570 212.452957,229.507904 
	C215.449188,229.638535 218.486893,228.818100 221.571106,229.090118 
	C220.448303,230.191147 219.271561,230.965576 218.070221,231.005829 
	C213.665298,231.153473 211.665222,232.787018 211.874222,237.657990 
	C212.277481,247.055939 212.034363,256.481628 212.048645,266.229950 
	C212.036804,267.008087 212.035538,267.452118 211.666534,267.827698 
	C210.127304,267.184692 208.994507,266.219177 207.778076,266.098816 
	C199.635941,265.293396 192.067200,262.570038 184.639603,259.388000 
	C181.685730,258.122528 178.904022,256.461151 175.986435,255.103638 
	C170.719513,252.652985 165.409332,250.295334 160.117218,247.898849 
z"/>
<path fill="#1E4B76" opacity="1.000000" stroke="none" 
	d="
M212.059235,265.895813 
	C212.034363,256.481628 212.277481,247.055939 211.874222,237.657990 
	C211.665222,232.787018 213.665298,231.153473 218.070221,231.005829 
	C219.271561,230.965576 220.448303,230.191147 221.806488,229.417007 
	C223.098907,228.796188 224.221176,228.512024 226.058090,228.125183 
	C227.853333,228.060776 228.933929,228.099030 230.105713,228.465820 
	C232.186264,230.304779 234.175629,231.815201 236.404114,233.507187 
	C229.796585,241.510330 232.011887,254.513474 221.792725,261.541016 
	C223.590546,261.975311 225.357651,262.203217 227.040268,261.923279 
	C229.746063,261.473175 232.396057,260.687592 235.069611,260.043732 
	C234.081589,261.128510 233.093552,262.213287 231.552277,263.618622 
	C224.685776,264.591370 218.372498,265.243591 212.059235,265.895813 
z"/>
<path fill="#B1BAC0" opacity="1.000000" stroke="none" 
	d="
M264.132019,194.308945 
	C264.839935,194.840424 265.873047,195.693985 265.944000,196.621155 
	C266.710571,206.640518 267.368744,216.668945 267.954956,226.700821 
	C268.119659,229.519211 267.951538,232.357056 267.580566,235.612701 
	C266.846863,236.003326 266.468689,235.967255 266.090515,235.931168 
	C266.090515,235.931168 266.006744,235.949860 266.090210,235.470505 
	C266.151459,228.010513 266.359314,221.018127 266.003784,214.054520 
	C265.841766,210.880920 264.566956,207.764145 263.492157,203.377853 
	C261.176819,208.628403 259.567413,212.278000 257.609894,216.037842 
	C253.536423,218.127441 249.811096,220.106812 245.677948,222.033600 
	C244.173584,221.982544 243.077042,221.984055 241.980515,221.985565 
	C241.661224,219.935822 241.341949,217.886093 241.362061,215.374634 
	C244.811951,213.044846 249.741852,213.395416 250.028702,208.084122 
	C256.665070,205.669815 261.443085,201.319199 264.132019,194.308945 
z"/>
<path fill="#D38F3B" opacity="1.000000" stroke="none" 
	d="
M226.941437,215.842072 
	C219.634476,215.865646 212.327499,215.889206 204.397461,215.599762 
	C201.904129,214.846069 200.033875,214.405380 198.136551,213.666534 
	C198.141510,212.972534 198.173569,212.576660 198.559052,212.152832 
	C199.950394,211.423767 200.988312,210.722687 202.450653,210.018784 
	C210.904495,210.523773 215.769516,204.314774 222.027969,201.468658 
	C222.021378,204.254288 222.210770,206.606781 221.904099,208.892715 
	C221.372910,212.852295 223.150925,214.395737 226.903152,214.567230 
	C226.939407,215.161331 226.940414,215.501694 226.941437,215.842072 
z"/>
<path fill="#DFA144" opacity="1.000000" stroke="none" 
	d="
M159.920105,198.235306 
	C159.828323,196.870010 159.908737,195.820404 160.372971,194.489090 
	C164.849350,197.465149 168.541504,201.549927 173.134644,203.773819 
	C179.034592,206.630417 185.658173,207.992477 191.994507,210.324249 
	C192.026413,211.085327 192.033798,211.520538 191.618988,211.977356 
	C186.766327,211.389374 182.335876,210.779831 177.905441,210.170288 
	C173.525146,207.952530 169.026276,205.933762 164.818588,203.426346 
	C162.941376,202.307678 161.649750,200.206329 159.920105,198.235306 
z"/>
<path fill="#D5B791" opacity="1.000000" stroke="none" 
	d="
M178.026520,210.501587 
	C182.335876,210.779831 186.766327,211.389374 191.982178,212.040497 
	C193.742065,212.186005 194.716553,212.289917 195.784317,212.711548 
	C196.639618,213.341064 197.401627,213.652878 198.163635,213.964691 
	C200.033875,214.405380 201.904129,214.846069 203.934845,215.608185 
	C196.686676,215.228745 189.261459,214.656998 181.884506,213.709381 
	C180.537918,213.536407 179.388199,211.830933 178.026520,210.501587 
z"/>
<path fill="#D5B791" opacity="1.000000" stroke="none" 
	d="
M227.401611,215.905670 
	C226.940414,215.501694 226.939407,215.161331 227.231003,214.439865 
	C227.743546,213.982834 227.963486,213.906906 228.561981,213.897278 
	C230.642242,213.322556 232.343948,212.681503 234.041138,212.029358 
	C234.036606,212.018250 234.039307,212.050735 234.039307,212.050735 
	C239.117889,210.719803 244.196472,209.388885 249.651886,208.071045 
	C249.741852,213.395416 244.811951,213.044846 241.336441,214.986298 
	C236.601547,215.362885 232.231674,215.666077 227.401611,215.905670 
z"/>
<path fill="#506A7F" opacity="1.000000" stroke="none" 
	d="
M163.742218,214.888397 
	C162.922363,222.930954 161.854019,230.829712 160.413788,238.854065 
	C159.990570,232.081284 159.849701,225.181564 159.952911,218.285522 
	C159.977722,216.627457 160.812469,214.981491 161.648132,213.167358 
	C162.512268,213.584717 163.003006,214.164673 163.742218,214.888397 
z"/>
<path fill="#758E9D" opacity="1.000000" stroke="none" 
	d="
M241.606049,222.033264 
	C243.077042,221.984055 244.173584,221.982544 245.532471,222.348129 
	C242.010056,226.726624 237.058212,227.536102 231.971359,227.469757 
	C232.747467,226.138779 233.452347,225.117874 234.157227,224.096970 
	C236.515350,223.424973 238.873459,222.752975 241.606049,222.033264 
z"/>
<path fill="#B1BAC0" opacity="1.000000" stroke="none" 
	d="
M195.907745,227.570251 
	C189.991928,228.406906 184.658188,226.742111 179.924683,222.445801 
	C185.118698,223.828598 190.455154,225.534012 195.907745,227.570251 
z"/>
<path fill="#B1BAC0" opacity="1.000000" stroke="none" 
	d="
M233.706635,224.058960 
	C233.452347,225.117874 232.747467,226.138779 231.655670,227.526642 
	C230.850693,227.974823 230.432617,228.056061 230.014526,228.137283 
	C228.933929,228.099030 227.853333,228.060776 226.372574,227.949310 
	C225.911591,221.889099 230.478424,224.645218 233.706635,224.058960 
z"/>
<path fill="#F8D466" opacity="1.000000" stroke="none" 
	d="
M261.659821,45.946346 
	C264.991119,50.750759 267.982269,55.500557 270.987305,60.625710 
	C272.895386,70.204964 275.972168,79.353432 276.406799,88.625748 
	C277.059906,102.559608 273.291412,115.800865 265.061646,127.456230 
	C261.923859,131.900070 259.358734,136.836884 255.739014,140.829544 
	C251.142807,145.899307 245.739380,150.237244 240.342621,154.946152 
	C242.233917,150.570038 243.720016,146.091812 248.293289,142.701920 
	C253.134308,139.113586 256.284851,133.280563 260.300232,128.534958 
	C268.482574,118.864594 271.697723,107.095856 272.413300,95.058899 
	C272.856140,87.608994 269.999420,79.962952 268.311951,72.202332 
	C265.131927,65.012184 262.722626,57.785744 259.247925,51.114197 
	C256.559082,45.951622 252.536667,41.483624 249.053680,36.354752 
	C251.598114,38.099636 254.192902,40.200436 256.795013,42.292126 
	C258.297119,43.499592 259.811035,44.692356 261.659821,45.946346 
z"/>
<path fill="#FBD35C" opacity="1.000000" stroke="none" 
	d="
M219.890076,15.605462 
	C218.758438,16.420012 217.485916,16.864716 216.119308,17.648174 
	C208.815475,17.990196 201.602585,18.105749 194.398697,17.902090 
	C192.956116,17.861305 191.547897,16.604427 190.119308,15.516378 
	C194.243301,14.974314 198.373001,14.676726 202.500061,14.709596 
	C208.250809,14.755396 213.999603,15.048406 219.890076,15.605462 
z"/>
<path fill="#FCDE6F" opacity="1.000000" stroke="none" 
	d="
M127.728073,76.256859 
	C128.303543,77.743721 129.206757,79.638237 128.812790,81.207031 
	C126.088875,92.054306 131.984711,100.283813 138.425369,107.018661 
	C142.739151,111.529503 150.001251,113.979416 156.385040,115.498947 
	C161.035278,116.605827 166.405396,114.688370 171.875031,114.548187 
	C172.241837,115.990791 172.188171,117.004440 172.057800,118.344543 
	C172.038559,119.110977 172.096008,119.550957 172.129974,120.360489 
	C173.093185,123.086678 174.079895,125.443306 175.066589,127.799942 
	C171.324463,128.784241 167.613815,129.921539 163.829422,130.700592 
	C161.178879,131.246231 158.252563,130.810806 155.763657,131.696548 
	C152.297485,132.930084 150.042557,132.055740 147.212463,129.893082 
	C139.714096,124.163116 135.015457,116.766479 130.805389,108.398682 
	C127.606239,102.040131 124.289055,96.216476 125.228836,88.216881 
	C125.638367,86.687401 125.818726,85.843246 125.999084,84.999084 
	C126.484566,82.170654 126.970055,79.342216 127.728073,76.256859 
z"/>
<path fill="#BD7934" opacity="1.000000" stroke="none" 
	d="
M175.289703,127.861649 
	C174.079895,125.443306 173.093185,123.086678 172.460693,120.454773 
	C173.916351,122.746956 175.017776,125.314415 176.079147,127.922272 
	C176.039078,127.962669 175.959778,128.044266 175.959778,128.044266 
	C175.959778,128.044266 175.512833,127.923370 175.289703,127.861649 
z"/>
<path fill="#FDDF6E" opacity="1.000000" stroke="none" 
	d="
M119.561554,81.980682 
	C119.348160,81.138504 119.457138,80.275467 119.838440,79.219025 
	C120.642273,79.477364 121.173782,79.929115 121.705292,80.380875 
	C121.098167,80.907188 120.491043,81.433510 119.561554,81.980682 
z"/>
<path fill="#BD7934" opacity="1.000000" stroke="none" 
	d="
M180.002426,129.994598 
	C179.533234,130.003311 179.064041,130.012039 178.241730,130.045624 
	C177.320953,129.571472 176.753296,129.072495 176.072693,128.308884 
	C175.959778,128.044266 176.039078,127.962669 176.433212,127.961105 
	C177.885712,128.637894 178.944061,129.316238 180.002426,129.994598 
z"/>
<path fill="#FDDF6E" opacity="1.000000" stroke="none" 
	d="
M125.695534,85.067307 
	C125.818726,85.843246 125.638367,86.687401 125.228851,87.765976 
	C125.130463,87.045433 125.261223,86.090485 125.695534,85.067307 
z"/>
<path fill="#EDB044" opacity="1.000000" stroke="none" 
	d="
M158.965271,191.009750 
	C156.681290,187.610275 154.397308,184.210815 152.024063,180.471970 
	C151.115189,178.293884 150.295578,176.455170 149.060318,173.683975 
	C151.088501,173.862976 153.524719,173.525665 155.472351,174.347000 
	C163.243042,177.623993 170.770584,181.485764 178.579880,184.659180 
	C181.865524,185.994339 185.627548,186.157211 189.581055,187.377777 
	C189.991440,189.898056 190.037979,191.894638 189.987473,193.888794 
	C189.861069,198.879852 189.155563,199.317780 184.285782,197.951202 
	C178.068863,196.206604 171.818344,194.582001 165.586807,192.889099 
	C163.372833,192.287643 161.172073,191.637604 158.965271,191.009750 
z"/>
<path fill="#E6A23B" opacity="1.000000" stroke="none" 
	d="
M159.071625,191.313446 
	C161.172073,191.637604 163.372833,192.287643 165.586807,192.889099 
	C171.818344,194.582001 178.068863,196.206604 184.285782,197.951202 
	C189.155563,199.317780 189.861069,198.879852 189.987473,193.888794 
	C190.037979,191.894638 189.991440,189.898056 189.979477,187.444061 
	C190.081635,184.884369 190.193390,182.783203 190.767975,180.441437 
	C191.495377,180.463623 191.759949,180.726425 191.989502,181.457840 
	C191.959686,191.283768 191.964844,200.641083 191.970001,209.998398 
	C185.658173,207.992477 179.034592,206.630417 173.134644,203.773819 
	C168.541504,201.549927 164.849350,197.465149 160.432693,194.096573 
	C159.798401,193.196213 159.488190,192.406693 159.071625,191.313446 
z"/>
<path fill="#A85922" opacity="1.000000" stroke="none" 
	d="
M192.024506,180.989227 
	C191.759949,180.726425 191.495377,180.463623 190.958923,180.108658 
	C190.459671,176.299866 190.232285,172.583237 189.990143,168.451675 
	C190.388565,164.112091 190.801712,160.187469 191.609177,156.564880 
	C193.335754,160.577347 194.668015,164.287766 196.022995,168.318848 
	C196.075455,169.067017 196.105194,169.494522 196.082779,170.377487 
	C196.707001,176.534058 197.383377,182.235153 198.038788,188.346466 
	C197.994614,189.851746 197.971405,190.946793 197.583282,192.162598 
	C196.797623,195.876526 196.376892,199.469711 195.589508,202.912537 
	C194.824081,201.258789 194.141525,199.766785 194.080719,198.249878 
	C193.910065,193.991943 194.162949,189.713028 193.891418,185.465240 
	C193.793900,183.939682 192.676468,182.479340 192.024506,180.989227 
z"/>
<path fill="#183E69" opacity="1.000000" stroke="none" 
	d="
M235.945206,265.940582 
	C243.258286,263.260590 250.599854,260.654266 257.864166,257.848053 
	C259.649780,257.158295 261.183472,255.816467 263.022583,254.654648 
	C266.707275,261.053497 266.047424,268.109283 265.950439,275.539001 
	C261.971527,279.152283 258.252991,282.662872 254.004333,285.328461 
	C250.655563,287.429443 246.773697,289.011932 242.915787,289.897766 
	C235.981003,291.490082 228.904602,292.512268 221.852219,293.528748 
	C217.423218,294.167114 214.225479,291.346375 214.037384,286.835815 
	C213.871262,282.851837 213.982117,278.856293 214.051483,274.046814 
	C221.403275,270.798706 228.674240,268.369659 235.945206,265.940582 
z"/>
<path fill="#576F83" opacity="1.000000" stroke="none" 
	d="
M235.850006,265.604889 
	C228.674240,268.369659 221.403275,270.798706 214.042328,273.575317 
	C213.518585,273.938568 213.084839,273.954285 212.325134,273.971985 
	C211.778152,273.415253 211.557129,272.856567 211.199188,271.800018 
	C210.142517,269.811890 216.088699,270.280975 212.034271,267.896118 
	C212.035538,267.452118 212.036804,267.008087 212.048645,266.229950 
	C218.372498,265.243591 224.685776,264.591370 231.448120,263.931244 
	C233.183060,264.371948 234.468933,264.820557 235.850006,265.604889 
z"/>
<path fill="#DC9831" opacity="1.000000" stroke="none" 
	d="
M276.000366,164.001831 
	C279.620605,165.698105 275.817474,167.547394 276.057312,169.652893 
	C272.016052,173.640686 268.033905,177.295029 264.036774,180.932968 
	C260.306915,184.327682 256.469330,187.609818 252.842438,191.110657 
	C246.219406,197.503494 236.954453,201.453629 234.038879,211.675110 
	C234.039307,212.050735 234.036606,212.018250 233.664444,211.888962 
	C232.861771,210.272766 232.122452,208.798660 232.060074,207.296478 
	C231.889786,203.195557 232.005081,199.082764 232.344269,194.898621 
	C234.312515,193.769714 235.832199,192.454102 237.593048,191.706589 
	C249.238220,186.763199 259.857849,180.429047 268.238159,170.677536 
	C270.437256,168.118607 273.392426,166.209412 276.000366,164.001831 
z"/>
<path fill="#5A7487" opacity="1.000000" stroke="none" 
	d="
M210.000809,272.002441 
	C209.988434,278.680908 209.976059,285.359344 209.624359,292.427917 
	C208.410873,291.651337 207.080185,290.602295 206.743759,289.297028 
	C205.468460,284.349060 202.141327,283.844879 197.697372,283.868744 
	C192.097473,283.898834 186.470276,283.141907 180.895187,282.415161 
	C173.746948,281.483337 168.998474,277.190887 166.892563,270.500702 
	C165.423813,265.834747 164.926102,260.863159 164.351669,256.104309 
	C173.833740,260.083313 182.898529,264.137543 192.117386,267.804413 
	C195.231110,269.042938 198.743851,269.261993 202.058151,270.017517 
	C204.718292,270.623871 207.354172,271.336792 210.000809,272.002441 
z"/>
<path fill="#576F83" opacity="1.000000" stroke="none" 
	d="
M163.994629,256.028076 
	C164.926102,260.863159 165.423813,265.834747 166.892563,270.500702 
	C168.998474,277.190887 173.746948,281.483337 180.895187,282.415161 
	C186.470276,283.141907 192.097473,283.898834 197.697372,283.868744 
	C202.141327,283.844879 205.468460,284.349060 206.743759,289.297028 
	C207.080185,290.602295 208.410873,291.651337 209.616348,292.894592 
	C209.947693,295.089203 209.947693,297.207275 209.947693,299.513123 
	C208.714828,299.513123 207.828232,299.782898 207.513977,299.472748 
	C202.637421,294.659760 195.824615,296.093994 190.120987,294.002258 
	C189.974091,293.948395 189.763947,294.048462 189.629150,293.982758 
	C181.670593,290.102234 172.135742,289.270569 165.670441,282.730774 
	C163.410782,280.445068 162.522247,276.234100 162.154938,272.780273 
	C161.596329,267.527802 162.037659,262.169006 162.395416,256.395447 
	C163.155899,255.966400 163.575256,255.997238 163.994629,256.028076 
z"/>
<path fill="#758E9D" opacity="1.000000" stroke="none" 
	d="
M164.351654,256.104309 
	C163.575256,255.997238 163.155899,255.966400 162.423431,255.921936 
	C162.110336,255.908310 162.070023,255.926163 162.044464,255.609055 
	C161.958405,254.851532 161.897873,254.411118 161.866455,253.669800 
	C161.921616,252.968170 161.947662,252.567413 161.973694,252.166672 
	C161.380035,250.971283 160.786377,249.775909 160.154968,248.239685 
	C165.409332,250.295334 170.719513,252.652985 175.986435,255.103638 
	C178.904022,256.461151 181.685730,258.122528 184.639603,259.388000 
	C192.067200,262.570038 199.635941,265.293396 207.778076,266.098816 
	C208.994507,266.219177 210.127304,267.184692 211.666534,267.827698 
	C216.088699,270.280975 210.142517,269.811890 210.962997,271.604431 
	C210.863724,271.906647 210.432129,271.953400 210.216461,271.977905 
	C207.354172,271.336792 204.718292,270.623871 202.058151,270.017517 
	C198.743851,269.261993 195.231110,269.042938 192.117386,267.804413 
	C182.898529,264.137543 173.833740,260.083313 164.351654,256.104309 
z"/>
<path fill="#576F83" opacity="1.000000" stroke="none" 
	d="
M161.837357,253.970703 
	C161.897873,254.411118 161.958405,254.851532 162.028931,255.623749 
	C161.585190,255.969467 161.131454,255.983398 160.337921,255.997894 
	C160.004013,255.549988 160.009903,255.101547 160.342834,254.319489 
	C161.059036,253.980835 161.448196,253.975769 161.837357,253.970703 
z"/>
<path fill="#EBBB57" opacity="1.000000" stroke="none" 
	d="
M300.000000,106.000610 
	C299.396332,106.495735 298.426422,106.882080 298.242340,107.501831 
	C292.930206,125.387611 282.327911,139.480759 267.770599,150.917908 
	C261.929169,155.507278 256.598907,160.742401 250.889053,165.507523 
	C249.473312,166.689011 247.485168,167.184616 245.379730,167.996826 
	C248.185791,164.738770 251.318436,161.424637 254.568954,158.230438 
	C263.681854,149.275375 272.849670,140.376160 281.967163,131.425690 
	C282.413635,130.987396 282.587891,130.271774 283.270752,129.267273 
	C284.434631,127.566216 285.216705,126.283195 285.998779,125.000168 
	C286.628662,122.906815 287.258514,120.813461 288.305115,118.292053 
	C289.685852,116.443954 291.130981,115.144829 291.523956,113.581268 
	C292.722443,108.812515 293.703003,103.968102 294.384399,99.099396 
	C294.706726,96.796364 294.154663,94.370949 293.998779,92.000984 
	C293.998840,91.556221 293.998871,91.111465 293.998962,89.958282 
	C293.998505,88.500145 293.998047,87.750435 293.997559,87.000725 
	C293.667633,83.612976 293.337708,80.225227 293.003265,76.417862 
	C294.475098,74.678322 295.951447,73.358406 297.766418,71.955399 
	C298.105072,71.872299 298.076569,71.893021 298.052673,72.353142 
	C298.034760,75.207771 298.040741,77.602272 298.040497,80.363235 
	C298.687500,81.814980 299.340698,82.900269 299.993896,83.985558 
	C299.997803,85.049324 300.001709,86.113091 300.004211,88.046577 
	C300.001831,94.611069 300.000916,100.305840 300.000000,106.000610 
z"/>
<path fill="#19466F" opacity="1.000000" stroke="none" 
	d="
M230.105713,228.465820 
	C230.432617,228.056061 230.850693,227.974823 231.584473,227.836700 
	C237.058212,227.536102 242.010056,226.726624 245.940292,222.400696 
	C249.811096,220.106812 253.536423,218.127441 257.964874,216.003052 
	C259.831390,215.290955 260.994751,214.723877 262.772644,213.857285 
	C262.918213,216.672760 263.023712,218.712677 262.946838,221.152161 
	C262.547241,229.065231 262.281677,236.578247 262.199615,244.093262 
	C262.192627,244.731873 263.410614,245.383850 264.059540,246.029617 
	C260.309418,248.694656 256.559265,251.359680 252.057892,254.022888 
	C249.533234,255.313431 247.759827,256.605835 245.986420,257.898224 
	C242.628296,258.612946 239.270187,259.327698 235.490845,260.043091 
	C232.396057,260.687592 229.746063,261.473175 227.040268,261.923279 
	C225.357651,262.203217 223.590546,261.975311 221.792725,261.541016 
	C232.011887,254.513474 229.796585,241.510330 236.404114,233.507187 
	C234.175629,231.815201 232.186264,230.304779 230.105713,228.465820 
z"/>
<path fill="#758E9D" opacity="1.000000" stroke="none" 
	d="
M263.129211,220.752609 
	C263.023712,218.712677 262.918213,216.672760 262.772644,213.857285 
	C260.994751,214.723877 259.831390,215.290955 258.313019,215.892822 
	C259.567413,212.278000 261.176819,208.628403 263.492157,203.377853 
	C264.566956,207.764145 265.841766,210.880920 266.003784,214.054520 
	C266.359314,221.018127 266.151459,228.010513 266.128418,235.449646 
	C265.676331,235.890106 265.269501,235.872086 264.539032,235.385864 
	C263.853333,230.195969 263.491272,225.474289 263.129211,220.752609 
z"/>
<path fill="#193D5F" opacity="1.000000" stroke="none" 
	d="
M262.946838,221.152161 
	C263.491272,225.474289 263.853333,230.195969 264.234497,235.367188 
	C264.196350,238.913589 264.139130,242.010452 264.070740,245.568466 
	C263.410614,245.383850 262.192627,244.731873 262.199615,244.093262 
	C262.281677,236.578247 262.547241,229.065231 262.946838,221.152161 
z"/>
<path fill="#1E4B76" opacity="1.000000" stroke="none" 
	d="
M246.356354,257.914337 
	C247.759827,256.605835 249.533234,255.313431 251.681793,254.029694 
	C250.280060,255.335693 248.503174,256.633057 246.356354,257.914337 
z"/>
<path fill="#758E9D" opacity="1.000000" stroke="none" 
	d="
M266.026825,236.335236 
	C266.468689,235.967255 266.846863,236.003326 267.506470,236.084259 
	C267.891144,237.813522 267.994354,239.497940 268.013977,241.596512 
	C267.274658,240.253540 266.618896,238.496414 266.026825,236.335236 
z"/>
<path fill="#DFA144" opacity="1.000000" stroke="none" 
	d="
M276.112640,163.650574 
	C273.392426,166.209412 270.437256,168.118607 268.238159,170.677536 
	C259.857849,180.429047 249.238220,186.763199 237.593048,191.706589 
	C235.832199,192.454102 234.312515,193.769714 232.343826,194.483643 
	C232.019012,192.756073 232.031662,191.367386 232.378326,189.898499 
	C234.238739,188.600067 235.648544,187.184921 237.312881,186.199768 
	C242.789047,182.958344 248.775848,180.424026 253.801163,176.609741 
	C263.532379,169.223587 272.795624,161.213928 282.140198,153.329163 
	C285.592926,150.415817 288.728302,147.126404 292.008423,144.008514 
	C292.946045,150.240204 288.830658,153.722778 284.721497,157.096252 
	C282.015564,159.317719 279.065613,161.241974 276.112640,163.650574 
z"/>
<path fill="#E3AA4A" opacity="1.000000" stroke="none" 
	d="
M292.312622,143.940277 
	C288.728302,147.126404 285.592926,150.415817 282.140198,153.329163 
	C272.795624,161.213928 263.532379,169.223587 253.801163,176.609741 
	C248.775848,180.424026 242.789047,182.958344 237.312881,186.199768 
	C235.648544,187.184921 234.238739,188.600067 232.368805,189.483307 
	C232.042969,187.760223 232.060684,186.372131 232.404327,184.903992 
	C238.585236,181.281143 244.755936,178.163757 250.226837,174.103424 
	C260.350433,166.590027 270.107147,158.577652 279.918579,150.651657 
	C282.336823,148.698151 284.419586,146.317734 286.582977,144.062988 
	C290.415924,140.068192 294.192505,136.019287 297.995728,131.995911 
	C297.998779,131.998779 298.000000,132.000610 298.000000,132.000610 
	C297.165283,133.940796 296.332794,135.881973 295.494934,137.820801 
	C295.002838,138.959412 294.502106,140.094284 294.002625,141.615540 
	C293.538940,142.624191 293.077881,143.248108 292.312622,143.940277 
z"/>
<path fill="#E3AA4A" opacity="1.000000" stroke="none" 
	d="
M300.001770,106.467377 
	C300.000916,100.305840 300.001831,94.611069 300.003418,88.445480 
	C300.633484,88.644295 301.742462,89.263725 301.818604,89.991257 
	C302.632996,97.771729 303.967285,105.587601 303.759247,113.356270 
	C303.598480,119.358917 301.448334,125.308273 300.069580,131.648163 
	C299.521942,132.010162 299.087341,132.005325 298.326385,132.000549 
	C298.000000,132.000610 297.998779,131.998779 298.002808,131.602859 
	C298.667084,128.134933 299.327301,125.062943 299.987549,121.990944 
	C299.992889,116.972008 299.998230,111.953079 300.001770,106.467377 
z"/>
<path fill="#EDBD5D" opacity="1.000000" stroke="none" 
	d="
M299.998352,83.645584 
	C299.340698,82.900269 298.687500,81.814980 298.367950,80.364609 
	C299.139740,80.002335 299.577850,80.005135 300.019043,80.331192 
	C300.023163,81.084732 300.024231,81.515015 300.025299,81.945305 
	C300.017792,82.398743 300.010284,82.852173 299.998352,83.645584 
z"/>
<path fill="#F4CE63" opacity="1.000000" stroke="none" 
	d="
M300.360382,81.957008 
	C300.024231,81.515015 300.023163,81.084732 300.027405,79.963371 
	C300.077606,78.783241 300.122498,78.294189 300.167419,77.805130 
	C300.795807,78.942001 301.424194,80.078873 302.045166,81.574371 
	C301.590302,81.944901 301.142883,81.956802 300.360382,81.957008 
z"/>
<path fill="#506A7F" opacity="1.000000" stroke="none" 
	d="
M161.866455,253.669800 
	C161.448196,253.975769 161.059036,253.980835 160.378235,253.984894 
	C160.084198,253.568909 160.081818,253.153885 160.104126,252.429901 
	C160.539200,252.114517 160.949570,252.108124 161.666824,252.134201 
	C161.947662,252.567413 161.921616,252.968170 161.866455,253.669800 
z"/>
<path fill="#E7B75F" opacity="1.000000" stroke="none" 
	d="
M300.152954,77.415131 
	C300.122498,78.294189 300.077606,78.783241 300.024353,79.640121 
	C299.577850,80.005135 299.139740,80.002335 298.374146,79.998161 
	C298.040741,77.602272 298.034760,75.207771 298.050140,72.360992 
	C298.760498,73.614189 299.449463,75.319664 300.152954,77.415131 
z"/>
<path fill="#B66E2F" opacity="1.000000" stroke="none" 
	d="
M180.001282,129.997299 
	C178.944061,129.316238 177.885712,128.637894 176.473282,127.920708 
	C175.017776,125.314415 173.916351,122.746956 172.484192,120.085213 
	C172.096008,119.550957 172.038559,119.110977 172.470459,118.343605 
	C174.618027,118.021645 176.276230,118.027077 177.934433,118.032501 
	C177.934433,118.032501 177.998489,118.015335 178.037003,118.329079 
	C178.629852,119.101379 179.184189,119.559944 179.738525,120.018501 
	C179.935898,120.264603 180.108887,120.526794 180.273773,121.386841 
	C180.693542,122.532745 181.097031,123.096893 181.500549,123.661041 
	C182.003326,123.151772 182.506104,122.642494 183.008881,122.133209 
	C183.359055,122.052780 183.642319,122.155975 183.952637,123.009827 
	C185.034851,124.042313 186.023132,124.507759 187.011414,124.973198 
	C187.011414,124.973198 187.504333,125.005341 187.765533,125.394302 
	C188.698746,126.510254 189.370773,127.237236 190.022125,127.982635 
	C190.001465,128.001053 190.034515,127.957390 190.133636,128.320770 
	C192.168182,129.114517 194.103607,129.544876 196.433868,129.974716 
	C197.881073,130.003693 198.933472,130.033218 200.127487,130.428162 
	C206.620468,130.969574 212.971573,131.158737 219.324081,131.266647 
	C219.545181,131.270386 219.780045,130.463806 220.420853,130.014328 
	C223.223145,128.977600 225.613052,127.961441 228.002975,126.945274 
	C232.152115,124.595695 236.322296,122.282257 240.442795,119.883484 
	C243.064514,118.357231 245.612488,116.704330 248.745667,115.436768 
	C249.551437,117.843529 249.805099,119.921745 250.058746,121.999962 
	C248.211395,125.226440 246.364014,128.452927 244.270782,131.942871 
	C242.997421,134.055176 241.676178,135.804092 241.005829,137.774429 
	C239.755112,141.450745 238.882706,145.255737 237.502213,149.566742 
	C236.116562,154.085876 235.081543,158.045441 234.046539,162.004990 
	C233.989899,163.023071 233.933243,164.041138 233.587448,165.493286 
	C232.880676,165.972870 232.463058,166.018402 232.007629,165.609985 
	C231.287796,162.079117 230.605774,159.002182 229.906769,155.511642 
	C230.597534,150.736435 231.305313,146.374832 232.022614,142.027954 
	C232.032120,142.042679 232.067169,142.042465 232.408478,141.914505 
	C233.189270,140.776520 233.915375,139.791702 234.006882,138.751068 
	C234.181854,136.761398 233.995636,134.739944 233.959320,132.731689 
	C231.801392,132.950821 229.641373,133.151413 227.486191,133.394836 
	C225.694794,133.597153 223.909103,133.849869 221.641266,134.054688 
	C213.419037,134.032684 205.676437,134.036240 197.612259,134.042175 
	C196.862793,134.019028 196.434891,133.993515 195.889114,133.615723 
	C193.843384,132.846313 191.915558,132.429184 189.590698,132.009216 
	C188.136047,132.019028 187.078415,132.031693 186.020798,132.044342 
	C185.383667,131.901093 184.498962,131.429733 184.161850,131.684113 
	C183.495834,132.186676 183.132889,133.090881 182.328461,133.909729 
	C181.997375,133.559448 181.982468,133.128494 181.915222,132.061279 
	C181.243637,130.949173 180.624390,130.473328 180.005127,129.997467 
	C180.005127,129.997467 180.000153,130.000000 180.001282,129.997299 
z"/>
<path fill="#D89842" opacity="1.000000" stroke="none" 
	d="
M227.730530,126.654366 
	C225.613052,127.961441 223.223145,128.977600 219.951797,130.005096 
	C212.708862,130.031860 206.347366,130.047302 199.985855,130.062744 
	C198.933472,130.033218 197.881073,130.003693 196.305878,129.626526 
	C193.866882,128.838379 191.950699,128.397888 190.034515,127.957390 
	C190.034515,127.957390 190.001465,128.001053 190.017746,127.668335 
	C190.013260,126.916649 189.992493,126.497688 189.971741,126.078735 
	C197.971863,126.722977 205.963669,127.674469 213.975342,127.890938 
	C218.452560,128.011902 222.962738,126.912781 227.730530,126.654366 
z"/>
<path fill="#F4CE63" opacity="1.000000" stroke="none" 
	d="
M250.397095,121.908737 
	C249.805099,119.921745 249.551437,117.843529 249.099945,115.426285 
	C250.345490,114.729225 251.788864,114.371208 253.610016,114.012688 
	C254.155594,117.135612 254.143494,120.184067 250.397095,121.908737 
z"/>
<path fill="#FBEAAD" opacity="1.000000" stroke="none" 
	d="
M189.705887,60.137657 
	C190.029282,61.108376 190.021423,62.169460 190.025452,63.629917 
	C188.258438,65.983139 186.479538,67.936981 184.378479,69.969307 
	C185.829086,66.774529 187.601868,63.501278 189.705887,60.137657 
z"/>
<path fill="#BD7934" opacity="1.000000" stroke="none" 
	d="
M177.952362,117.699127 
	C176.276230,118.027077 174.618027,118.021645 172.547180,118.017151 
	C172.188171,117.004440 172.241837,115.990791 172.355576,114.602409 
	C173.258438,114.244812 174.101227,114.261955 175.401642,114.511688 
	C176.568970,115.173111 177.278641,115.601944 177.988327,116.030777 
	C177.982315,116.475769 177.976288,116.920769 177.952362,117.699127 
z"/>
<path fill="#BD7934" opacity="1.000000" stroke="none" 
	d="
M186.868195,124.690704 
	C186.023132,124.507759 185.034851,124.042313 184.050995,123.226288 
	C184.945251,123.386536 185.835114,123.897369 186.868195,124.690704 
z"/>
<path fill="#BD7934" opacity="1.000000" stroke="none" 
	d="
M182.687057,122.009903 
	C182.506104,122.642494 182.003326,123.151772 181.500549,123.661041 
	C181.097031,123.096893 180.693542,122.532745 180.367432,121.603302 
	C181.084961,121.454193 181.725082,121.670395 182.687057,122.009903 
z"/>
<path fill="#BD7934" opacity="1.000000" stroke="none" 
	d="
M189.716980,125.957809 
	C189.992493,126.497688 190.013260,126.916649 190.038422,127.649918 
	C189.370773,127.237236 188.698746,126.510254 188.006393,125.448914 
	C188.478134,125.355331 188.970184,125.596107 189.716980,125.957809 
z"/>
<path fill="#FBEAAD" opacity="1.000000" stroke="none" 
	d="
M182.311325,71.955383 
	C182.471085,71.374344 182.949570,70.761116 183.739227,70.100189 
	C183.576965,70.676056 183.103516,71.299614 182.311325,71.955383 
z"/>
<path fill="#FCDE6F" opacity="1.000000" stroke="none" 
	d="
M177.911102,115.694626 
	C177.278641,115.601944 176.568970,115.173111 175.715317,114.445038 
	C176.325531,114.550018 177.079697,114.954254 177.911102,115.694626 
z"/>
<path fill="#BD7934" opacity="1.000000" stroke="none" 
	d="
M179.715820,119.720108 
	C179.184189,119.559944 178.629852,119.101379 178.020691,118.357948 
	C178.541611,118.522621 179.117355,118.972168 179.715820,119.720108 
z"/>
<path fill="#E5AF4F" opacity="1.000000" stroke="none" 
	d="
M234.369354,162.003799 
	C235.081543,158.045441 236.116562,154.085876 237.489777,149.976959 
	C237.875671,151.592606 237.923401,153.357635 237.951721,155.561615 
	C237.296768,157.755341 236.661224,159.510117 236.004730,161.629852 
	C235.553223,161.997421 235.122696,162.000015 234.369354,162.003799 
z"/>
<path fill="#F8D466" opacity="1.000000" stroke="none" 
	d="
M191.981247,150.035416 
	C190.892761,146.111679 189.804291,142.187943 188.491272,137.747971 
	C190.089890,136.845581 191.946350,136.019501 193.730011,136.154617 
	C199.403244,136.584396 205.035355,137.651215 210.710220,137.935562 
	C215.473602,138.174255 220.477905,138.456772 225.011658,137.297211 
	C231.929123,135.527969 231.816254,135.020309 232.067169,142.042465 
	C232.067169,142.042465 232.032120,142.042679 231.685577,142.131134 
	C230.188522,145.473282 229.038010,148.726974 227.561279,152.086731 
	C224.945557,153.471970 222.697693,154.835358 220.350098,155.997162 
	C219.046036,156.642548 217.228790,156.571106 216.237030,157.474823 
	C210.344086,162.844620 203.180084,162.062897 196.083115,161.566467 
	C194.683655,157.447479 193.332443,153.741455 191.981247,150.035416 
z"/>
<path fill="#DFA144" opacity="1.000000" stroke="none" 
	d="
M232.408478,141.914505 
	C231.816254,135.020309 231.929123,135.527969 225.011658,137.297211 
	C220.477905,138.456772 215.473602,138.174255 210.710220,137.935562 
	C205.035355,137.651215 199.403244,136.584396 193.730011,136.154617 
	C191.946350,136.019501 190.089890,136.845581 188.151093,137.593430 
	C187.362076,136.251678 186.688721,134.548248 186.018097,132.444580 
	C187.078415,132.031693 188.136047,132.019028 189.718719,132.356323 
	C192.164841,133.126846 194.085922,133.547440 196.007004,133.968018 
	C196.434891,133.993515 196.862793,134.019028 197.766632,134.405991 
	C205.945328,134.955109 213.647888,135.154648 221.351639,135.277023 
	C221.601639,135.280991 221.864166,134.496948 222.120880,134.080261 
	C223.909103,133.849869 225.694794,133.597153 227.486191,133.394836 
	C229.641373,133.151413 231.801392,132.950821 233.959320,132.731689 
	C233.995636,134.739944 234.181854,136.761398 234.006882,138.751068 
	C233.915375,139.791702 233.189270,140.776520 232.408478,141.914505 
z"/>
<path fill="#D38F3B" opacity="1.000000" stroke="none" 
	d="
M191.971954,150.462616 
	C193.332443,153.741455 194.683655,157.447479 196.054688,161.962631 
	C196.127289,163.826843 196.180069,164.881943 196.185333,166.279510 
	C196.091949,167.080719 196.046112,167.539444 196.000275,167.998184 
	C194.668015,164.287766 193.335754,160.577347 191.984863,156.454498 
	C191.965042,154.324661 191.963837,152.607239 191.971954,150.462616 
z"/>
<path fill="#BD7934" opacity="1.000000" stroke="none" 
	d="
M180.065216,130.303925 
	C180.624390,130.473328 181.243637,130.949173 181.913391,131.737747 
	C181.351044,131.570435 180.738190,131.090408 180.065216,130.303925 
z"/>
<path fill="#EDBD5D" opacity="1.000000" stroke="none" 
	d="
M293.751770,92.288742 
	C294.154663,94.370949 294.706726,96.796364 294.384399,99.099396 
	C293.703003,103.968102 292.722443,108.812515 291.523956,113.581268 
	C291.130981,115.144829 289.685852,116.443954 288.361542,117.931641 
	C289.835724,109.525017 291.670227,101.050758 293.751770,92.288742 
z"/>
<path fill="#EBBB57" opacity="1.000000" stroke="none" 
	d="
M243.621597,168.003784 
	C241.911407,172.456635 239.424484,173.928482 236.081070,172.321289 
	C238.414108,170.668777 240.828033,169.336945 243.621597,168.003784 
z"/>
<path fill="#EDBD5D" opacity="1.000000" stroke="none" 
	d="
M285.672668,125.075386 
	C285.216705,126.283195 284.434631,127.566216 283.326294,128.924286 
	C283.782166,127.716415 284.564331,126.433510 285.672668,125.075386 
z"/>
<path fill="#EDBD5D" opacity="1.000000" stroke="none" 
	d="
M293.687866,87.074875 
	C293.998047,87.750435 293.998505,88.500145 293.998901,89.624710 
	C293.791901,89.049377 293.585022,88.099205 293.687866,87.074875 
z"/>
<path fill="#E5AF4F" opacity="1.000000" stroke="none" 
	d="
M232.045425,166.063934 
	C232.463058,166.018402 232.880676,165.972870 233.608307,165.875488 
	C233.918289,170.042953 233.918289,174.262283 233.918289,179.644348 
	C239.511032,176.324173 244.227966,174.256439 248.063614,171.113297 
	C260.993774,160.517639 273.823975,149.775726 286.223022,138.570374 
	C290.157990,135.014236 292.565887,129.789886 295.800049,125.423355 
	C296.742371,124.151115 298.125488,123.205368 299.647034,122.050461 
	C299.327301,125.062943 298.667084,128.134933 297.999756,131.599991 
	C294.192505,136.019287 290.415924,140.068192 286.582977,144.062988 
	C284.419586,146.317734 282.336823,148.698151 279.918579,150.651657 
	C270.107147,158.577652 260.350433,166.590027 250.226837,174.103424 
	C244.755936,178.163757 238.585236,181.281143 232.387177,184.481476 
	C231.994720,182.729126 231.945328,181.319229 231.906631,179.456512 
	C231.921158,175.329956 231.924957,171.656219 231.973389,167.664429 
	C232.027145,166.918900 232.036285,166.491409 232.045425,166.063934 
z"/>
<path fill="#DC9831" opacity="1.000000" stroke="none" 
	d="
M222.000671,201.005554 
	C215.769516,204.314774 210.904495,210.523773 202.421143,210.015808 
	C201.967209,210.015671 201.909134,210.006622 201.935516,209.540863 
	C201.969498,204.386978 201.977127,199.698822 202.346588,194.952057 
	C209.103989,194.573105 215.499557,194.252792 221.925003,194.333130 
	C221.993591,195.538010 222.032272,196.342255 222.089798,197.532257 
	C222.072647,198.947189 222.036667,199.976379 222.000671,201.005554 
z"/>
<path fill="#985721" opacity="1.000000" stroke="none" 
	d="
M222.027969,201.468658 
	C222.036667,199.976379 222.072647,198.947189 222.442230,197.354462 
	C223.120743,196.250488 223.715103,195.735443 223.773117,195.165817 
	C224.624344,186.804153 225.404129,178.435211 226.480896,169.973236 
	C227.175018,169.252213 227.589142,168.625961 228.014130,167.675659 
	C228.032562,166.919327 228.040161,166.487061 228.380829,165.938599 
	C229.134445,164.544785 229.554962,163.267151 229.984940,161.557999 
	C229.974243,159.393280 229.954102,157.660065 229.948883,155.928009 
	C229.963821,155.929169 229.923752,155.925262 229.923767,155.925262 
	C230.605774,159.002182 231.287796,162.079117 232.007629,165.609985 
	C232.036285,166.491409 232.027145,166.918900 231.619537,167.795731 
	C230.155289,172.266296 228.322937,176.259125 228.172760,180.314240 
	C227.780487,190.907486 228.124176,201.528000 228.144745,212.420441 
	C228.137848,213.079163 228.160645,213.455063 228.183441,213.830963 
	C227.963486,213.906906 227.743546,213.982834 227.195755,214.186157 
	C223.150925,214.395737 221.372910,212.852295 221.904099,208.892715 
	C222.210770,206.606781 222.021378,204.254288 222.027969,201.468658 
z"/>
<path fill="#B66E2F" opacity="1.000000" stroke="none" 
	d="
M197.948212,192.041855 
	C197.971405,190.946793 197.994614,189.851746 198.331635,188.408096 
	C199.369812,188.395569 200.094177,188.731644 200.856155,189.446426 
	C200.852478,190.586273 200.811188,191.347412 200.559525,192.442932 
	C200.238861,197.512131 200.016113,202.249100 200.107376,206.980026 
	C200.127060,208.000092 201.278839,208.998337 201.909134,210.006622 
	C201.909134,210.006622 201.967209,210.015671 201.996719,210.018646 
	C200.988312,210.722687 199.950394,211.423767 198.508118,212.109802 
	C198.103745,212.094757 198.008286,212.008301 198.027771,211.539337 
	C198.014236,204.727524 197.981232,198.384689 197.948212,192.041855 
z"/>
<path fill="#B66E2F" opacity="1.000000" stroke="none" 
	d="
M198.136551,213.666534 
	C197.401627,213.652878 196.639618,213.341064 195.862213,212.608978 
	C195.846802,212.188721 196.007950,211.992065 196.341003,212.010071 
	C197.118805,212.021484 197.563553,212.014893 198.008286,212.008301 
	C198.008286,212.008301 198.103745,212.094757 198.154694,212.137787 
	C198.173569,212.576660 198.141510,212.972534 198.136551,213.666534 
z"/>
<path fill="#B66E2F" opacity="1.000000" stroke="none" 
	d="
M191.989502,181.457840 
	C192.676468,182.479340 193.793900,183.939682 193.891418,185.465240 
	C194.162949,189.713028 193.910065,193.991943 194.080719,198.249878 
	C194.141525,199.766785 194.824081,201.258789 195.594177,203.355392 
	C195.979660,206.629776 195.993805,209.310913 196.007950,211.992065 
	C196.007950,211.992065 195.846802,212.188721 195.768921,212.291275 
	C194.716553,212.289917 193.742065,212.186005 192.404388,212.018921 
	C192.033798,211.520538 192.026413,211.085327 191.994507,210.324249 
	C191.964844,200.641083 191.959686,191.283768 191.989502,181.457840 
z"/>
<path fill="#D38F3B" opacity="1.000000" stroke="none" 
	d="
M228.561981,213.897278 
	C228.160645,213.455063 228.137848,213.079163 228.504364,212.256348 
	C229.268967,210.125046 229.940445,208.445557 229.968384,206.755417 
	C230.090897,199.343109 229.923203,191.925018 230.115494,184.515656 
	C230.155716,182.965866 231.274277,181.444046 231.895935,179.909332 
	C231.945328,181.319229 231.994720,182.729126 232.061264,184.561523 
	C232.060684,186.372131 232.042969,187.760223 232.034775,189.563507 
	C232.031662,191.367386 232.019012,192.756073 232.006805,194.559723 
	C232.005081,199.082764 231.889786,203.195557 232.060074,207.296478 
	C232.122452,208.798660 232.861771,210.272766 233.668976,211.900055 
	C232.343948,212.681503 230.642242,213.322556 228.561981,213.897278 
z"/>
<path fill="#EEB84D" opacity="1.000000" stroke="none" 
	d="
M196.022995,168.318848 
	C196.046112,167.539444 196.091949,167.080719 196.479446,166.387177 
	C198.414337,167.160202 200.002090,169.009293 201.601837,169.019714 
	C206.605438,169.052292 211.609451,168.165024 216.621307,168.073746 
	C220.252014,168.007614 223.100159,167.404297 224.246567,163.441620 
	C224.418564,162.847076 225.425323,162.494019 226.063934,162.454453 
	C226.024750,164.584732 225.967590,166.289810 225.585800,168.098083 
	C224.179474,170.473297 223.097778,172.745331 221.603058,174.941574 
	C213.806870,174.586929 205.657211,170.385269 199.999649,178.602493 
	C198.702896,175.441605 197.418915,172.681808 196.134933,169.922028 
	C196.105194,169.494522 196.075455,169.067017 196.022995,168.318848 
z"/>
<path fill="#D38F3B" opacity="1.000000" stroke="none" 
	d="
M196.082779,170.377487 
	C197.418915,172.681808 198.702896,175.441605 199.991608,179.022095 
	C200.661453,181.906067 201.326569,183.969345 201.977997,186.373718 
	C201.582367,187.499115 201.200455,188.283401 200.818542,189.067703 
	C200.094177,188.731644 199.369812,188.395569 198.352600,187.997894 
	C197.383377,182.235153 196.707001,176.534058 196.082779,170.377487 
z"/>
<path fill="#985721" opacity="1.000000" stroke="none" 
	d="
M196.341003,212.010071 
	C195.993805,209.310913 195.979660,206.629776 195.960846,203.505768 
	C196.376892,199.469711 196.797623,195.876526 197.583282,192.162598 
	C197.981232,198.384689 198.014236,204.727524 198.027771,211.539337 
	C197.563553,212.014893 197.118805,212.021484 196.341003,212.010071 
z"/>
<path fill="#BD7934" opacity="1.000000" stroke="none" 
	d="
M221.641251,134.054688 
	C221.864166,134.496948 221.601639,135.280991 221.351639,135.277023 
	C213.647888,135.154648 205.945328,134.955109 198.088226,134.403625 
	C205.676437,134.036240 213.419037,134.032684 221.641251,134.054688 
z"/>
<path fill="#BD7934" opacity="1.000000" stroke="none" 
	d="
M200.127487,130.428162 
	C206.347366,130.047302 212.708862,130.031860 219.539429,130.025665 
	C219.780045,130.463806 219.545181,131.270386 219.324081,131.266647 
	C212.971573,131.158737 206.620468,130.969574 200.127487,130.428162 
z"/>
<path fill="#E5AF4F" opacity="1.000000" stroke="none" 
	d="
M227.887512,151.980667 
	C229.038010,148.726974 230.188522,145.473282 231.676071,142.116425 
	C231.305313,146.374832 230.597534,150.736435 229.906769,155.511642 
	C229.923752,155.925262 229.963821,155.929169 229.624481,155.927002 
	C228.851700,155.939941 228.418289,155.955048 227.968597,155.571381 
	C227.930725,154.108643 227.909119,153.044647 227.887512,151.980667 
z"/>
<path fill="#BD7934" opacity="1.000000" stroke="none" 
	d="
M190.133636,128.320770 
	C191.950699,128.397888 193.866882,128.838379 195.911057,129.627075 
	C194.103607,129.544876 192.168182,129.114517 190.133636,128.320770 
z"/>
<path fill="#BD7934" opacity="1.000000" stroke="none" 
	d="
M195.889114,133.615723 
	C194.085922,133.547440 192.164841,133.126846 190.115738,132.359161 
	C191.915558,132.429184 193.843384,132.846313 195.889114,133.615723 
z"/>
<path fill="#F5CC5E" opacity="1.000000" stroke="none" 
	d="
M227.561295,152.086731 
	C227.909119,153.044647 227.930725,154.108643 227.953186,155.942017 
	C227.318008,158.484009 226.681976,160.256622 226.045959,162.029236 
	C225.425323,162.494019 224.418564,162.847076 224.246567,163.441620 
	C223.100159,167.404297 220.252014,168.007614 216.621307,168.073746 
	C211.609451,168.165024 206.605438,169.052292 201.601837,169.019714 
	C200.002090,169.009293 198.414337,167.160202 196.526978,166.044708 
	C196.180069,164.881943 196.127289,163.826843 196.102936,162.375580 
	C203.180084,162.062897 210.344086,162.844620 216.237030,157.474823 
	C217.228790,156.571106 219.046036,156.642548 220.350098,155.997162 
	C222.697693,154.835358 224.945557,153.471970 227.561295,152.086731 
z"/>
<path fill="#AD6927" opacity="1.000000" stroke="none" 
	d="
M231.906647,179.456512 
	C231.274277,181.444046 230.155716,182.965866 230.115494,184.515656 
	C229.923203,191.925018 230.090897,199.343109 229.968384,206.755417 
	C229.940445,208.445557 229.268967,210.125046 228.534042,211.973541 
	C228.124176,201.528000 227.780487,190.907486 228.172760,180.314240 
	C228.322937,176.259125 230.155289,172.266296 231.574921,168.113770 
	C231.924957,171.656219 231.921158,175.329956 231.906647,179.456512 
z"/>
<path fill="#E6A23B" opacity="1.000000" stroke="none" 
	d="
M200.856155,189.446426 
	C201.200455,188.283401 201.582367,187.499115 202.219147,186.101791 
	C208.786346,182.796204 215.110931,180.259628 221.939789,184.421188 
	C221.935257,187.895035 221.915176,190.913757 221.895111,193.932480 
	C215.499557,194.252792 209.103989,194.573105 202.331146,194.614273 
	C201.559189,193.592926 201.164536,192.850739 200.769882,192.108536 
	C200.811188,191.347412 200.852478,190.586273 200.856155,189.446426 
z"/>
<path fill="#D38F3B" opacity="1.000000" stroke="none" 
	d="
M221.924988,194.333130 
	C221.915176,190.913757 221.935257,187.895035 221.958710,183.975708 
	C221.980057,180.389191 221.998062,177.703262 222.016052,175.017365 
	C223.097778,172.745331 224.179474,170.473297 225.659134,168.092941 
	C226.057098,167.984604 226.202835,167.997833 226.159912,168.341858 
	C226.144974,169.146576 226.172943,169.607300 226.200912,170.068008 
	C225.404129,178.435211 224.624344,186.804153 223.773117,195.165817 
	C223.715103,195.735443 223.120743,196.250488 222.423401,196.968689 
	C222.032272,196.342255 221.993591,195.538010 221.924988,194.333130 
z"/>
<path fill="#BD7934" opacity="1.000000" stroke="none" 
	d="
M200.559525,192.442932 
	C201.164536,192.850739 201.559189,193.592926 201.969299,194.672913 
	C201.977127,199.698822 201.969498,204.386978 201.935516,209.540863 
	C201.278839,208.998337 200.127060,208.000092 200.107376,206.980026 
	C200.016113,202.249100 200.238861,197.512131 200.559525,192.442932 
z"/>
<path fill="#B66E2F" opacity="1.000000" stroke="none" 
	d="
M226.063934,162.454453 
	C226.681976,160.256622 227.318008,158.484009 227.969452,156.340759 
	C228.418289,155.955048 228.851700,155.939941 229.609543,155.925842 
	C229.954102,157.660065 229.974243,159.393280 229.646027,161.660583 
	C228.881027,163.481384 228.464386,164.768082 228.047745,166.054794 
	C228.040161,166.487061 228.032562,166.919327 227.713196,167.675171 
	C227.001892,167.998459 226.602371,167.998154 226.202835,167.997833 
	C226.202835,167.997833 226.057098,167.984604 225.983765,167.989746 
	C225.967590,166.289810 226.024750,164.584732 226.063934,162.454453 
z"/>
<path fill="#AD6927" opacity="1.000000" stroke="none" 
	d="
M228.380829,165.938599 
	C228.464386,164.768082 228.881027,163.481384 229.636566,162.092102 
	C229.554962,163.267151 229.134445,164.544785 228.380829,165.938599 
z"/>
<path fill="#AD6927" opacity="1.000000" stroke="none" 
	d="
M226.159912,168.341858 
	C226.602371,167.998154 227.001892,167.998459 227.702347,167.999237 
	C227.589142,168.625961 227.175018,169.252213 226.480896,169.973236 
	C226.172943,169.607300 226.144974,169.146576 226.159912,168.341858 
z"/>
<path fill="#EDB044" opacity="1.000000" stroke="none" 
	d="
M221.603058,174.941559 
	C221.998062,177.703262 221.980057,180.389191 221.943161,183.520584 
	C215.110931,180.259628 208.786346,182.796204 202.232834,185.760681 
	C201.326569,183.969345 200.661453,181.906067 200.004395,179.423203 
	C205.657211,170.385269 213.806870,174.586929 221.603058,174.941559 
z"/>
</svg>